G75*
%MOIN*%
%OFA0B0*%
%FSLAX25Y25*%
%IPPOS*%
%LPD*%
%AMOC8*
5,1,8,0,0,1.08239X$1,22.5*
%
%ADD10C,0.05200*%
%ADD11OC8,0.05200*%
%ADD12C,0.07874*%
%ADD13C,0.05600*%
%ADD14OC8,0.12400*%
%ADD15OC8,0.06000*%
%ADD16C,0.06600*%
%ADD17C,0.07400*%
%ADD18C,0.05200*%
%ADD19OC8,0.06300*%
%ADD20C,0.06300*%
%ADD21C,0.09449*%
%ADD22C,0.01600*%
%ADD23C,0.03372*%
%ADD24C,0.02400*%
%ADD25C,0.02000*%
%ADD26C,0.01000*%
D10*
X0203800Y0135733D02*
X0203800Y0140933D01*
X0213800Y0140933D02*
X0213800Y0135733D01*
X0223800Y0135733D02*
X0223800Y0140933D01*
X0233800Y0140933D02*
X0233800Y0135733D01*
X0233800Y0165733D02*
X0233800Y0170933D01*
X0223800Y0170933D02*
X0223800Y0165733D01*
X0213800Y0165733D02*
X0213800Y0170933D01*
X0203800Y0170933D02*
X0203800Y0165733D01*
D11*
X0255300Y0159333D03*
X0257300Y0139333D03*
X0295300Y0159333D03*
X0323300Y0170333D03*
X0297300Y0139333D03*
X0323300Y0130333D03*
X0070300Y0088333D03*
X0040300Y0088333D03*
X0058800Y0067833D03*
X0058800Y0057833D03*
X0016300Y0122333D03*
X0016300Y0132333D03*
D12*
X0317863Y0062038D02*
X0325737Y0062038D01*
X0340698Y0053770D02*
X0340698Y0045896D01*
X0325737Y0038022D02*
X0317863Y0038022D01*
D13*
X0285300Y0037533D02*
X0285300Y0043133D01*
X0275300Y0043133D02*
X0275300Y0037533D01*
X0020600Y0088833D02*
X0015000Y0088833D01*
X0015000Y0098833D02*
X0020600Y0098833D01*
X0019100Y0150833D02*
X0013500Y0150833D01*
X0013500Y0160833D02*
X0019100Y0160833D01*
D14*
X0264300Y0072333D03*
X0284300Y0072333D03*
D15*
X0127800Y0075833D03*
X0127800Y0085833D03*
X0127800Y0065833D03*
X0127800Y0055833D03*
X0127800Y0045833D03*
X0127800Y0035833D03*
X0128300Y0206333D03*
X0128300Y0216333D03*
X0128300Y0226333D03*
X0128300Y0236333D03*
X0128300Y0246333D03*
X0128300Y0256333D03*
D16*
X0146000Y0057833D02*
X0152600Y0057833D01*
X0152600Y0047833D02*
X0146000Y0047833D01*
X0146000Y0037833D02*
X0152600Y0037833D01*
D17*
X0148500Y0096433D03*
X0174100Y0096433D03*
X0193500Y0096433D03*
X0219100Y0096433D03*
X0238500Y0096433D03*
X0264100Y0096433D03*
X0283500Y0096433D03*
X0309100Y0096433D03*
X0328500Y0096433D03*
X0354100Y0096433D03*
X0354100Y0114233D03*
X0328500Y0114233D03*
X0309100Y0114233D03*
X0283500Y0114233D03*
X0264100Y0114233D03*
X0238500Y0114233D03*
X0219100Y0114233D03*
X0193500Y0114233D03*
X0174100Y0114233D03*
X0148500Y0114233D03*
X0127800Y0120833D03*
X0127800Y0130833D03*
X0127800Y0140833D03*
X0127800Y0150833D03*
X0127800Y0160833D03*
X0127800Y0170833D03*
X0127800Y0180833D03*
X0148500Y0186433D03*
X0174100Y0186433D03*
X0193500Y0186433D03*
X0219100Y0186433D03*
X0238500Y0186433D03*
X0264100Y0186433D03*
X0283500Y0186433D03*
X0309100Y0186433D03*
X0328500Y0186433D03*
X0354100Y0186433D03*
X0354100Y0204233D03*
X0328500Y0204233D03*
X0309100Y0204233D03*
X0283500Y0204233D03*
X0264100Y0204233D03*
X0238500Y0204233D03*
X0219100Y0204233D03*
X0193500Y0204233D03*
X0174100Y0204233D03*
X0148500Y0204233D03*
X0155800Y0226333D03*
X0165800Y0226333D03*
X0175800Y0226333D03*
X0185800Y0226333D03*
X0195800Y0226333D03*
X0205800Y0226333D03*
X0215800Y0226333D03*
X0225800Y0226333D03*
X0235800Y0226333D03*
X0245800Y0226333D03*
X0255800Y0226333D03*
X0265800Y0226333D03*
X0275800Y0226333D03*
X0285800Y0226333D03*
X0295800Y0226333D03*
X0305800Y0226333D03*
X0315800Y0226333D03*
X0325800Y0226333D03*
X0335800Y0226333D03*
X0345800Y0226333D03*
X0345800Y0236333D03*
X0335800Y0236333D03*
X0325800Y0236333D03*
X0315800Y0236333D03*
X0305800Y0236333D03*
X0295800Y0236333D03*
X0285800Y0236333D03*
X0275800Y0236333D03*
X0265800Y0236333D03*
X0255800Y0236333D03*
X0245800Y0236333D03*
X0235800Y0236333D03*
X0225800Y0236333D03*
X0215800Y0236333D03*
X0205800Y0236333D03*
X0195800Y0236333D03*
X0185800Y0236333D03*
X0175800Y0236333D03*
X0165800Y0236333D03*
X0155800Y0236333D03*
D18*
X0063300Y0140333D03*
X0053300Y0140333D03*
X0043300Y0140333D03*
X0033300Y0140333D03*
X0033300Y0110333D03*
X0043300Y0110333D03*
X0053300Y0110333D03*
X0063300Y0110333D03*
D19*
X0031300Y0073333D03*
D20*
X0031300Y0059333D03*
D21*
X0014938Y0199192D03*
X0059426Y0199192D03*
X0059426Y0223995D03*
X0014938Y0223995D03*
X0014938Y0248798D03*
X0059426Y0248798D03*
D22*
X0005500Y0263142D02*
X0005500Y0027542D01*
X0227004Y0028133D01*
X0186663Y0028133D01*
X0185487Y0028620D01*
X0184587Y0029521D01*
X0159475Y0054633D01*
X0157444Y0054633D01*
X0157432Y0054605D01*
X0155829Y0053001D01*
X0154650Y0052513D01*
X0155273Y0052195D01*
X0155922Y0051723D01*
X0156490Y0051156D01*
X0156962Y0050506D01*
X0157326Y0049791D01*
X0157574Y0049028D01*
X0157700Y0048235D01*
X0157700Y0048133D01*
X0149600Y0048133D01*
X0149600Y0047533D01*
X0157700Y0047533D01*
X0157700Y0047432D01*
X0157574Y0046639D01*
X0157326Y0045876D01*
X0156962Y0045160D01*
X0156490Y0044511D01*
X0155922Y0043943D01*
X0155273Y0043471D01*
X0154650Y0043154D01*
X0155829Y0042666D01*
X0157432Y0041062D01*
X0158300Y0038967D01*
X0158300Y0036700D01*
X0157432Y0034605D01*
X0155829Y0033001D01*
X0153734Y0032133D01*
X0144866Y0032133D01*
X0142771Y0033001D01*
X0141229Y0034543D01*
X0141013Y0034021D01*
X0140113Y0033120D01*
X0138937Y0032633D01*
X0132237Y0032633D01*
X0130037Y0030433D01*
X0125563Y0030433D01*
X0122400Y0033597D01*
X0122400Y0038070D01*
X0125563Y0041233D01*
X0125612Y0041233D01*
X0123000Y0043845D01*
X0123000Y0045633D01*
X0127600Y0045633D01*
X0128000Y0045633D01*
X0128000Y0041233D01*
X0127600Y0041233D01*
X0127600Y0045633D01*
X0127600Y0046033D01*
X0123000Y0046033D01*
X0123000Y0047822D01*
X0125612Y0050433D01*
X0125563Y0050433D01*
X0123863Y0052133D01*
X0117163Y0052133D01*
X0115987Y0052620D01*
X0115087Y0053521D01*
X0114600Y0054697D01*
X0114600Y0073755D01*
X0114336Y0074019D01*
X0113714Y0075521D01*
X0113714Y0077146D01*
X0114336Y0078648D01*
X0115486Y0079797D01*
X0116987Y0080419D01*
X0118613Y0080419D01*
X0120114Y0079797D01*
X0121264Y0078648D01*
X0121886Y0077146D01*
X0121886Y0075521D01*
X0121264Y0074019D01*
X0121000Y0073755D01*
X0121000Y0058533D01*
X0122863Y0058533D01*
X0125163Y0060833D01*
X0122400Y0063597D01*
X0122400Y0068070D01*
X0125163Y0070833D01*
X0122400Y0073597D01*
X0122400Y0078070D01*
X0125163Y0080833D01*
X0122400Y0083597D01*
X0122400Y0088070D01*
X0124200Y0089870D01*
X0124200Y0102342D01*
X0117761Y0108781D01*
X0116748Y0109794D01*
X0116200Y0111117D01*
X0116200Y0182991D01*
X0115613Y0182748D01*
X0113987Y0182748D01*
X0112486Y0183370D01*
X0111336Y0184519D01*
X0110804Y0185804D01*
X0110587Y0186021D01*
X0110100Y0187197D01*
X0110100Y0218633D01*
X0103500Y0218633D01*
X0103500Y0186697D01*
X0103013Y0185521D01*
X0102113Y0184620D01*
X0062825Y0145333D01*
X0064295Y0145333D01*
X0066132Y0144572D01*
X0067171Y0143533D01*
X0073937Y0143533D01*
X0075113Y0143046D01*
X0076113Y0142046D01*
X0077013Y0141146D01*
X0077500Y0139970D01*
X0077500Y0095697D01*
X0077013Y0094521D01*
X0076113Y0093620D01*
X0074937Y0093133D01*
X0072571Y0093133D01*
X0075300Y0090404D01*
X0075300Y0086262D01*
X0073500Y0084462D01*
X0073500Y0078697D01*
X0073013Y0077521D01*
X0072113Y0076620D01*
X0072113Y0076620D01*
X0063800Y0068308D01*
X0063800Y0065762D01*
X0060871Y0062833D01*
X0056729Y0062833D01*
X0053800Y0065762D01*
X0053800Y0069904D01*
X0056729Y0072833D01*
X0059275Y0072833D01*
X0067100Y0080659D01*
X0067100Y0084462D01*
X0065300Y0086262D01*
X0065300Y0090404D01*
X0068029Y0093133D01*
X0058500Y0093133D01*
X0058500Y0087197D01*
X0058013Y0086021D01*
X0057113Y0085120D01*
X0055937Y0084633D01*
X0044500Y0084633D01*
X0044500Y0058197D01*
X0044013Y0057021D01*
X0043113Y0056120D01*
X0041937Y0055633D01*
X0040663Y0055633D01*
X0039487Y0056120D01*
X0039475Y0056133D01*
X0035949Y0056133D01*
X0034444Y0054628D01*
X0032404Y0053783D01*
X0030196Y0053783D01*
X0028156Y0054628D01*
X0026595Y0056190D01*
X0025750Y0058229D01*
X0025750Y0060437D01*
X0026595Y0062477D01*
X0028156Y0064038D01*
X0030196Y0064883D01*
X0032404Y0064883D01*
X0034444Y0064038D01*
X0035949Y0062533D01*
X0038100Y0062533D01*
X0038100Y0083462D01*
X0035300Y0086262D01*
X0035300Y0090404D01*
X0038229Y0093333D01*
X0042371Y0093333D01*
X0044671Y0091033D01*
X0052100Y0091033D01*
X0052100Y0095470D01*
X0052582Y0096633D01*
X0025317Y0096633D01*
X0025008Y0095888D01*
X0023546Y0094425D01*
X0021634Y0093633D01*
X0013966Y0093633D01*
X0012054Y0094425D01*
X0010592Y0095888D01*
X0009800Y0097799D01*
X0009800Y0099868D01*
X0010592Y0101779D01*
X0012054Y0103242D01*
X0013966Y0104033D01*
X0021634Y0104033D01*
X0023546Y0103242D01*
X0023754Y0103033D01*
X0050100Y0103033D01*
X0050100Y0106462D01*
X0049061Y0107501D01*
X0048300Y0109339D01*
X0048300Y0111328D01*
X0049061Y0113166D01*
X0050468Y0114572D01*
X0052305Y0115333D01*
X0054295Y0115333D01*
X0056132Y0114572D01*
X0057539Y0113166D01*
X0058300Y0111328D01*
X0058300Y0109339D01*
X0057539Y0107501D01*
X0056500Y0106462D01*
X0056500Y0099533D01*
X0071100Y0099533D01*
X0071100Y0137133D01*
X0067171Y0137133D01*
X0066132Y0136095D01*
X0064295Y0135333D01*
X0062305Y0135333D01*
X0060468Y0136095D01*
X0059061Y0137501D01*
X0058300Y0139339D01*
X0058300Y0140808D01*
X0058300Y0140808D01*
X0058300Y0139339D01*
X0057539Y0137501D01*
X0056132Y0136095D01*
X0054295Y0135333D01*
X0052305Y0135333D01*
X0050468Y0136095D01*
X0049061Y0137501D01*
X0048300Y0139339D01*
X0047539Y0137501D01*
X0046132Y0136095D01*
X0044295Y0135333D01*
X0042305Y0135333D01*
X0040468Y0136095D01*
X0039061Y0137501D01*
X0038300Y0139339D01*
X0038300Y0141328D01*
X0039061Y0143166D01*
X0040468Y0144572D01*
X0042305Y0145333D01*
X0044295Y0145333D01*
X0046132Y0144572D01*
X0047539Y0143166D01*
X0048300Y0141328D01*
X0048300Y0139339D01*
X0048300Y0141328D01*
X0049061Y0143166D01*
X0050468Y0144572D01*
X0052305Y0145333D01*
X0053775Y0145333D01*
X0097100Y0188659D01*
X0097100Y0222470D01*
X0097587Y0223646D01*
X0098487Y0224546D01*
X0099663Y0225033D01*
X0110100Y0225033D01*
X0110100Y0256470D01*
X0110587Y0257646D01*
X0111487Y0258546D01*
X0116379Y0263438D01*
X0005500Y0263142D01*
X0005500Y0261913D02*
X0114854Y0261913D01*
X0113256Y0260314D02*
X0005500Y0260314D01*
X0005500Y0258716D02*
X0111657Y0258716D01*
X0110368Y0257117D02*
X0005500Y0257117D01*
X0005500Y0255519D02*
X0110100Y0255519D01*
X0110100Y0253920D02*
X0063468Y0253920D01*
X0063737Y0253714D02*
X0063059Y0254234D01*
X0062318Y0254662D01*
X0061528Y0254989D01*
X0060702Y0255211D01*
X0060201Y0255277D01*
X0060201Y0249573D01*
X0058651Y0249573D01*
X0058651Y0255277D01*
X0058150Y0255211D01*
X0057324Y0254989D01*
X0056534Y0254662D01*
X0055793Y0254234D01*
X0055115Y0253714D01*
X0054510Y0253109D01*
X0053989Y0252430D01*
X0053562Y0251690D01*
X0053235Y0250900D01*
X0053013Y0250073D01*
X0052947Y0249573D01*
X0058651Y0249573D01*
X0058651Y0248023D01*
X0052947Y0248023D01*
X0053013Y0247522D01*
X0053235Y0246696D01*
X0053562Y0245906D01*
X0053989Y0245165D01*
X0054510Y0244487D01*
X0055115Y0243882D01*
X0055793Y0243361D01*
X0056534Y0242934D01*
X0056626Y0242896D01*
X0054235Y0241905D01*
X0052342Y0240012D01*
X0051317Y0237538D01*
X0051317Y0234861D01*
X0052342Y0232387D01*
X0054235Y0230493D01*
X0055377Y0230021D01*
X0053386Y0228030D01*
X0052302Y0225412D01*
X0052302Y0222578D01*
X0053386Y0219959D01*
X0055390Y0217955D01*
X0058009Y0216870D01*
X0060843Y0216870D01*
X0063462Y0217955D01*
X0065466Y0219959D01*
X0066550Y0222578D01*
X0066550Y0225412D01*
X0065466Y0228030D01*
X0063462Y0230035D01*
X0062005Y0230638D01*
X0063754Y0232387D01*
X0064779Y0234861D01*
X0064779Y0237538D01*
X0063754Y0240012D01*
X0061861Y0241905D01*
X0060702Y0242385D01*
X0061528Y0242606D01*
X0062318Y0242934D01*
X0063059Y0243361D01*
X0063737Y0243882D01*
X0064342Y0244487D01*
X0064862Y0245165D01*
X0065290Y0245906D01*
X0065617Y0246696D01*
X0065839Y0247522D01*
X0065905Y0248023D01*
X0060201Y0248023D01*
X0060201Y0249573D01*
X0065905Y0249573D01*
X0065839Y0250073D01*
X0065617Y0250900D01*
X0065290Y0251690D01*
X0064862Y0252430D01*
X0064342Y0253109D01*
X0063737Y0253714D01*
X0064925Y0252322D02*
X0110100Y0252322D01*
X0110100Y0250723D02*
X0065665Y0250723D01*
X0060201Y0250723D02*
X0058651Y0250723D01*
X0058651Y0249125D02*
X0015713Y0249125D01*
X0015713Y0249573D02*
X0021416Y0249573D01*
X0021351Y0250073D01*
X0021129Y0250900D01*
X0020802Y0251690D01*
X0020374Y0252430D01*
X0019854Y0253109D01*
X0019249Y0253714D01*
X0018570Y0254234D01*
X0017830Y0254662D01*
X0017039Y0254989D01*
X0016213Y0255211D01*
X0015713Y0255277D01*
X0015713Y0249573D01*
X0015713Y0248023D01*
X0021416Y0248023D01*
X0021351Y0247522D01*
X0021129Y0246696D01*
X0020802Y0245906D01*
X0020374Y0245165D01*
X0019854Y0244487D01*
X0019249Y0243882D01*
X0018570Y0243361D01*
X0017830Y0242934D01*
X0017738Y0242896D01*
X0020128Y0241905D01*
X0022022Y0240012D01*
X0023046Y0237538D01*
X0023046Y0234861D01*
X0022022Y0232387D01*
X0020128Y0230493D01*
X0018987Y0230021D01*
X0020978Y0228030D01*
X0022062Y0225412D01*
X0022062Y0222578D01*
X0020978Y0219959D01*
X0018973Y0217955D01*
X0016355Y0216870D01*
X0013521Y0216870D01*
X0010902Y0217955D01*
X0008898Y0219959D01*
X0007813Y0222578D01*
X0007813Y0225412D01*
X0008898Y0228030D01*
X0010902Y0230035D01*
X0012359Y0230638D01*
X0010610Y0232387D01*
X0009585Y0234861D01*
X0009585Y0237538D01*
X0010610Y0240012D01*
X0012503Y0241905D01*
X0013662Y0242385D01*
X0012836Y0242606D01*
X0012046Y0242934D01*
X0011305Y0243361D01*
X0010627Y0243882D01*
X0010022Y0244487D01*
X0009501Y0245165D01*
X0009074Y0245906D01*
X0008746Y0246696D01*
X0008525Y0247522D01*
X0008459Y0248023D01*
X0014163Y0248023D01*
X0014163Y0249573D01*
X0014163Y0255277D01*
X0013662Y0255211D01*
X0012836Y0254989D01*
X0012046Y0254662D01*
X0011305Y0254234D01*
X0010627Y0253714D01*
X0010022Y0253109D01*
X0009501Y0252430D01*
X0009074Y0251690D01*
X0008746Y0250900D01*
X0008525Y0250073D01*
X0008459Y0249573D01*
X0014163Y0249573D01*
X0015713Y0249573D01*
X0015713Y0250723D02*
X0014163Y0250723D01*
X0014163Y0249125D02*
X0005500Y0249125D01*
X0005500Y0250723D02*
X0008699Y0250723D01*
X0009439Y0252322D02*
X0005500Y0252322D01*
X0005500Y0253920D02*
X0010896Y0253920D01*
X0014163Y0253920D02*
X0015713Y0253920D01*
X0015713Y0252322D02*
X0014163Y0252322D01*
X0018979Y0253920D02*
X0055384Y0253920D01*
X0053927Y0252322D02*
X0020437Y0252322D01*
X0021176Y0250723D02*
X0053187Y0250723D01*
X0058651Y0252322D02*
X0060201Y0252322D01*
X0060201Y0253920D02*
X0058651Y0253920D01*
X0060201Y0249125D02*
X0110100Y0249125D01*
X0110100Y0247526D02*
X0065839Y0247526D01*
X0065299Y0245928D02*
X0110100Y0245928D01*
X0110100Y0244329D02*
X0064184Y0244329D01*
X0061828Y0242731D02*
X0110100Y0242731D01*
X0110100Y0241132D02*
X0062634Y0241132D01*
X0063952Y0239534D02*
X0110100Y0239534D01*
X0110100Y0237935D02*
X0064614Y0237935D01*
X0064779Y0236337D02*
X0110100Y0236337D01*
X0110100Y0234738D02*
X0064728Y0234738D01*
X0064066Y0233140D02*
X0110100Y0233140D01*
X0110100Y0231541D02*
X0062909Y0231541D01*
X0063553Y0229943D02*
X0110100Y0229943D01*
X0110100Y0228344D02*
X0065152Y0228344D01*
X0065998Y0226746D02*
X0110100Y0226746D01*
X0110100Y0225147D02*
X0066550Y0225147D01*
X0066550Y0223549D02*
X0097547Y0223549D01*
X0097100Y0221950D02*
X0066291Y0221950D01*
X0065628Y0220352D02*
X0097100Y0220352D01*
X0097100Y0218753D02*
X0064260Y0218753D01*
X0061530Y0217155D02*
X0097100Y0217155D01*
X0097100Y0215556D02*
X0005500Y0215556D01*
X0005500Y0213958D02*
X0097100Y0213958D01*
X0097100Y0212359D02*
X0005500Y0212359D01*
X0005500Y0210761D02*
X0097100Y0210761D01*
X0097100Y0209162D02*
X0005500Y0209162D01*
X0005500Y0207564D02*
X0097100Y0207564D01*
X0097100Y0205965D02*
X0061690Y0205965D01*
X0060843Y0206316D02*
X0063462Y0205231D01*
X0065466Y0203227D01*
X0066550Y0200609D01*
X0066550Y0197774D01*
X0065466Y0195156D01*
X0063462Y0193152D01*
X0063000Y0192961D01*
X0063000Y0160697D01*
X0062513Y0159521D01*
X0061613Y0158620D01*
X0061113Y0158120D01*
X0059937Y0157633D01*
X0023254Y0157633D01*
X0022046Y0156425D01*
X0020134Y0155633D01*
X0012466Y0155633D01*
X0010554Y0156425D01*
X0009092Y0157888D01*
X0008300Y0159799D01*
X0008300Y0161868D01*
X0009092Y0163779D01*
X0010554Y0165242D01*
X0012466Y0166033D01*
X0020134Y0166033D01*
X0022046Y0165242D01*
X0023254Y0164033D01*
X0056600Y0164033D01*
X0056600Y0192651D01*
X0055390Y0193152D01*
X0053386Y0195156D01*
X0052302Y0197774D01*
X0052302Y0200609D01*
X0053386Y0203227D01*
X0055390Y0205231D01*
X0058009Y0206316D01*
X0060843Y0206316D01*
X0057162Y0205965D02*
X0017202Y0205965D01*
X0016355Y0206316D02*
X0013521Y0206316D01*
X0010902Y0205231D01*
X0008898Y0203227D01*
X0007813Y0200609D01*
X0007813Y0197774D01*
X0008898Y0195156D01*
X0010902Y0193152D01*
X0013521Y0192067D01*
X0016355Y0192067D01*
X0018973Y0193152D01*
X0020978Y0195156D01*
X0022062Y0197774D01*
X0022062Y0200609D01*
X0020978Y0203227D01*
X0018973Y0205231D01*
X0016355Y0206316D01*
X0012674Y0205965D02*
X0005500Y0205965D01*
X0005500Y0204367D02*
X0010037Y0204367D01*
X0008708Y0202768D02*
X0005500Y0202768D01*
X0005500Y0201170D02*
X0008046Y0201170D01*
X0007813Y0199571D02*
X0005500Y0199571D01*
X0005500Y0197973D02*
X0007813Y0197973D01*
X0008393Y0196374D02*
X0005500Y0196374D01*
X0005500Y0194776D02*
X0009278Y0194776D01*
X0010877Y0193177D02*
X0005500Y0193177D01*
X0005500Y0191579D02*
X0056600Y0191579D01*
X0056600Y0189980D02*
X0005500Y0189980D01*
X0005500Y0188381D02*
X0056600Y0188381D01*
X0056600Y0186783D02*
X0005500Y0186783D01*
X0005500Y0185184D02*
X0056600Y0185184D01*
X0056600Y0183586D02*
X0005500Y0183586D01*
X0005500Y0181987D02*
X0056600Y0181987D01*
X0056600Y0180389D02*
X0005500Y0180389D01*
X0005500Y0178790D02*
X0056600Y0178790D01*
X0056600Y0177192D02*
X0005500Y0177192D01*
X0005500Y0175593D02*
X0056600Y0175593D01*
X0056600Y0173995D02*
X0005500Y0173995D01*
X0005500Y0172396D02*
X0056600Y0172396D01*
X0056600Y0170798D02*
X0005500Y0170798D01*
X0005500Y0169199D02*
X0056600Y0169199D01*
X0056600Y0167601D02*
X0005500Y0167601D01*
X0005500Y0166002D02*
X0012391Y0166002D01*
X0009717Y0164404D02*
X0005500Y0164404D01*
X0005500Y0162805D02*
X0008688Y0162805D01*
X0008300Y0161207D02*
X0005500Y0161207D01*
X0005500Y0159608D02*
X0008379Y0159608D01*
X0009041Y0158010D02*
X0005500Y0158010D01*
X0005500Y0156411D02*
X0010588Y0156411D01*
X0011178Y0154813D02*
X0005500Y0154813D01*
X0005500Y0153214D02*
X0009550Y0153214D01*
X0009566Y0153244D02*
X0009237Y0152599D01*
X0009013Y0151910D01*
X0008900Y0151195D01*
X0008900Y0150933D01*
X0016200Y0150933D01*
X0016200Y0150733D01*
X0016400Y0150733D01*
X0016400Y0146233D01*
X0019462Y0146233D01*
X0020177Y0146347D01*
X0020866Y0146570D01*
X0021511Y0146899D01*
X0022097Y0147325D01*
X0022609Y0147837D01*
X0023034Y0148422D01*
X0023363Y0149068D01*
X0023587Y0149756D01*
X0023700Y0150471D01*
X0023700Y0150733D01*
X0016400Y0150733D01*
X0016400Y0150933D01*
X0023700Y0150933D01*
X0023700Y0151195D01*
X0023587Y0151910D01*
X0023363Y0152599D01*
X0023034Y0153244D01*
X0022609Y0153830D01*
X0022097Y0154342D01*
X0021511Y0154768D01*
X0020866Y0155096D01*
X0020177Y0155320D01*
X0019462Y0155433D01*
X0016400Y0155433D01*
X0016400Y0150933D01*
X0016200Y0150933D01*
X0016200Y0155433D01*
X0013138Y0155433D01*
X0012423Y0155320D01*
X0011734Y0155096D01*
X0011089Y0154768D01*
X0010503Y0154342D01*
X0009991Y0153830D01*
X0009566Y0153244D01*
X0008967Y0151616D02*
X0005500Y0151616D01*
X0005500Y0150017D02*
X0008972Y0150017D01*
X0009013Y0149756D02*
X0009237Y0149068D01*
X0009566Y0148422D01*
X0009991Y0147837D01*
X0010503Y0147325D01*
X0011089Y0146899D01*
X0011734Y0146570D01*
X0012423Y0146347D01*
X0013138Y0146233D01*
X0016200Y0146233D01*
X0016200Y0150733D01*
X0008900Y0150733D01*
X0008900Y0150471D01*
X0009013Y0149756D01*
X0009568Y0148419D02*
X0005500Y0148419D01*
X0005500Y0146820D02*
X0011244Y0146820D01*
X0016200Y0146820D02*
X0016400Y0146820D01*
X0016400Y0148419D02*
X0016200Y0148419D01*
X0016200Y0150017D02*
X0016400Y0150017D01*
X0016400Y0151616D02*
X0016200Y0151616D01*
X0016200Y0153214D02*
X0016400Y0153214D01*
X0016400Y0154813D02*
X0016200Y0154813D01*
X0021422Y0154813D02*
X0063254Y0154813D01*
X0064852Y0156411D02*
X0022012Y0156411D01*
X0023050Y0153214D02*
X0061655Y0153214D01*
X0060057Y0151616D02*
X0023633Y0151616D01*
X0023628Y0150017D02*
X0058458Y0150017D01*
X0056860Y0148419D02*
X0023032Y0148419D01*
X0021356Y0146820D02*
X0055261Y0146820D01*
X0052036Y0145222D02*
X0044564Y0145222D01*
X0042036Y0145222D02*
X0034564Y0145222D01*
X0034295Y0145333D02*
X0032305Y0145333D01*
X0030468Y0144572D01*
X0029061Y0143166D01*
X0028300Y0141328D01*
X0028300Y0139859D01*
X0023975Y0135533D01*
X0020171Y0135533D01*
X0018371Y0137333D01*
X0014229Y0137333D01*
X0011300Y0134404D01*
X0011300Y0130262D01*
X0014229Y0127333D01*
X0011300Y0124404D01*
X0011300Y0120262D01*
X0014229Y0117333D01*
X0018371Y0117333D01*
X0020073Y0119035D01*
X0028300Y0110808D01*
X0028300Y0109339D01*
X0029061Y0107501D01*
X0030468Y0106095D01*
X0032305Y0105333D01*
X0034295Y0105333D01*
X0036132Y0106095D01*
X0037539Y0107501D01*
X0038300Y0109339D01*
X0038300Y0111328D01*
X0037539Y0113166D01*
X0036132Y0114572D01*
X0034295Y0115333D01*
X0032825Y0115333D01*
X0023113Y0125046D01*
X0021937Y0125533D01*
X0020171Y0125533D01*
X0018371Y0127333D01*
X0014229Y0127333D01*
X0018371Y0127333D01*
X0020171Y0129133D01*
X0025937Y0129133D01*
X0027113Y0129620D01*
X0032825Y0135333D01*
X0034295Y0135333D01*
X0036132Y0136095D01*
X0037539Y0137501D01*
X0038300Y0139339D01*
X0038300Y0141328D01*
X0037539Y0143166D01*
X0036132Y0144572D01*
X0034295Y0145333D01*
X0032036Y0145222D02*
X0005500Y0145222D01*
X0005500Y0143623D02*
X0029519Y0143623D01*
X0028589Y0142025D02*
X0005500Y0142025D01*
X0005500Y0140426D02*
X0028300Y0140426D01*
X0027269Y0138828D02*
X0005500Y0138828D01*
X0005500Y0137229D02*
X0014125Y0137229D01*
X0012526Y0135631D02*
X0005500Y0135631D01*
X0005500Y0134032D02*
X0011300Y0134032D01*
X0011300Y0132434D02*
X0005500Y0132434D01*
X0005500Y0130835D02*
X0011300Y0130835D01*
X0012326Y0129237D02*
X0005500Y0129237D01*
X0005500Y0127638D02*
X0013924Y0127638D01*
X0012935Y0126040D02*
X0005500Y0126040D01*
X0005500Y0124441D02*
X0011337Y0124441D01*
X0011300Y0122843D02*
X0005500Y0122843D01*
X0005500Y0121244D02*
X0011300Y0121244D01*
X0011917Y0119645D02*
X0005500Y0119645D01*
X0005500Y0118047D02*
X0013515Y0118047D01*
X0016300Y0122333D02*
X0021300Y0122333D01*
X0033300Y0110333D01*
X0037934Y0108456D02*
X0039318Y0108456D01*
X0039222Y0108644D02*
X0039537Y0108027D01*
X0039944Y0107467D01*
X0040434Y0106977D01*
X0040994Y0106570D01*
X0041611Y0106256D01*
X0042270Y0106042D01*
X0042954Y0105933D01*
X0043300Y0105933D01*
X0043300Y0110333D01*
X0043300Y0105933D01*
X0043646Y0105933D01*
X0044330Y0106042D01*
X0044989Y0106256D01*
X0045606Y0106570D01*
X0046166Y0106977D01*
X0046656Y0107467D01*
X0047063Y0108027D01*
X0047378Y0108644D01*
X0047592Y0109303D01*
X0047700Y0109987D01*
X0047700Y0110333D01*
X0043300Y0110333D01*
X0043300Y0110333D01*
X0038900Y0110333D01*
X0038900Y0109987D01*
X0039008Y0109303D01*
X0039222Y0108644D01*
X0038900Y0110054D02*
X0038300Y0110054D01*
X0038900Y0110333D02*
X0043300Y0110333D01*
X0043300Y0110333D01*
X0043300Y0110333D01*
X0047700Y0110333D01*
X0047700Y0110680D01*
X0047592Y0111364D01*
X0047378Y0112022D01*
X0047063Y0112639D01*
X0046656Y0113200D01*
X0046166Y0113689D01*
X0045606Y0114097D01*
X0044989Y0114411D01*
X0044330Y0114625D01*
X0043646Y0114733D01*
X0043300Y0114733D01*
X0042954Y0114733D01*
X0042270Y0114625D01*
X0041611Y0114411D01*
X0040994Y0114097D01*
X0040434Y0113689D01*
X0039944Y0113200D01*
X0039537Y0112639D01*
X0039222Y0112022D01*
X0039008Y0111364D01*
X0038900Y0110680D01*
X0038900Y0110333D01*
X0039102Y0111653D02*
X0038165Y0111653D01*
X0037453Y0113251D02*
X0039996Y0113251D01*
X0043300Y0113251D02*
X0043300Y0113251D01*
X0043300Y0114733D02*
X0043300Y0110333D01*
X0043300Y0110333D01*
X0043300Y0114733D01*
X0043300Y0111653D02*
X0043300Y0111653D01*
X0043300Y0110054D02*
X0043300Y0110054D01*
X0043300Y0108456D02*
X0043300Y0108456D01*
X0043300Y0106857D02*
X0043300Y0106857D01*
X0046002Y0106857D02*
X0049705Y0106857D01*
X0050100Y0105259D02*
X0005500Y0105259D01*
X0005500Y0106857D02*
X0029705Y0106857D01*
X0028666Y0108456D02*
X0005500Y0108456D01*
X0005500Y0110054D02*
X0028300Y0110054D01*
X0027455Y0111653D02*
X0005500Y0111653D01*
X0005500Y0113251D02*
X0025856Y0113251D01*
X0024258Y0114850D02*
X0005500Y0114850D01*
X0005500Y0116448D02*
X0022659Y0116448D01*
X0021061Y0118047D02*
X0019085Y0118047D01*
X0025316Y0122843D02*
X0071100Y0122843D01*
X0071100Y0124441D02*
X0023718Y0124441D01*
X0019665Y0126040D02*
X0071100Y0126040D01*
X0071100Y0127638D02*
X0018676Y0127638D01*
X0016300Y0132333D02*
X0025300Y0132333D01*
X0033300Y0140333D01*
X0038300Y0140426D02*
X0038300Y0140426D01*
X0038088Y0138828D02*
X0038512Y0138828D01*
X0039333Y0137229D02*
X0037267Y0137229D01*
X0035012Y0135631D02*
X0041588Y0135631D01*
X0045012Y0135631D02*
X0051588Y0135631D01*
X0049333Y0137229D02*
X0047267Y0137229D01*
X0048088Y0138828D02*
X0048512Y0138828D01*
X0048300Y0140426D02*
X0048300Y0140426D01*
X0048011Y0142025D02*
X0048589Y0142025D01*
X0049519Y0143623D02*
X0047081Y0143623D01*
X0053300Y0140333D02*
X0100300Y0187333D01*
X0100300Y0221833D01*
X0113300Y0221833D01*
X0113300Y0187833D01*
X0114800Y0186333D01*
X0114800Y0186833D01*
X0111061Y0185184D02*
X0102677Y0185184D01*
X0103500Y0186783D02*
X0110271Y0186783D01*
X0110100Y0188381D02*
X0103500Y0188381D01*
X0103500Y0189980D02*
X0110100Y0189980D01*
X0110100Y0191579D02*
X0103500Y0191579D01*
X0103500Y0193177D02*
X0110100Y0193177D01*
X0110100Y0194776D02*
X0103500Y0194776D01*
X0103500Y0196374D02*
X0110100Y0196374D01*
X0110100Y0197973D02*
X0103500Y0197973D01*
X0103500Y0199571D02*
X0110100Y0199571D01*
X0110100Y0201170D02*
X0103500Y0201170D01*
X0103500Y0202768D02*
X0110100Y0202768D01*
X0110100Y0204367D02*
X0103500Y0204367D01*
X0103500Y0205965D02*
X0110100Y0205965D01*
X0110100Y0207564D02*
X0103500Y0207564D01*
X0103500Y0209162D02*
X0110100Y0209162D01*
X0110100Y0210761D02*
X0103500Y0210761D01*
X0103500Y0212359D02*
X0110100Y0212359D01*
X0110100Y0213958D02*
X0103500Y0213958D01*
X0103500Y0215556D02*
X0110100Y0215556D01*
X0110100Y0217155D02*
X0103500Y0217155D01*
X0113300Y0221833D02*
X0113300Y0255833D01*
X0120800Y0263333D01*
X0140800Y0263333D01*
X0145800Y0258333D01*
X0145800Y0246333D01*
X0155800Y0236333D01*
X0159628Y0241132D02*
X0161972Y0241132D01*
X0162345Y0241505D02*
X0160800Y0239960D01*
X0159255Y0241505D01*
X0157013Y0242433D01*
X0154587Y0242433D01*
X0154331Y0242328D01*
X0149000Y0247659D01*
X0149000Y0258970D01*
X0148513Y0260146D01*
X0145144Y0263515D01*
X0373600Y0264125D01*
X0373600Y0028525D01*
X0307406Y0028348D01*
X0312991Y0033933D01*
X0314273Y0032650D01*
X0316602Y0031685D01*
X0326998Y0031685D01*
X0329327Y0032650D01*
X0331109Y0034433D01*
X0332074Y0036762D01*
X0332074Y0039283D01*
X0331109Y0041612D01*
X0329327Y0043395D01*
X0326998Y0044359D01*
X0316602Y0044359D01*
X0314273Y0043395D01*
X0312812Y0041933D01*
X0311584Y0041933D01*
X0310261Y0041385D01*
X0309248Y0040373D01*
X0303809Y0034933D01*
X0289851Y0034933D01*
X0290500Y0036499D01*
X0290500Y0036733D01*
X0300811Y0036733D01*
X0302135Y0037281D01*
X0303147Y0038294D01*
X0320554Y0055701D01*
X0326998Y0055701D01*
X0329327Y0056666D01*
X0331109Y0058448D01*
X0332074Y0060778D01*
X0332074Y0063299D01*
X0331109Y0065628D01*
X0329327Y0067410D01*
X0326998Y0068375D01*
X0316602Y0068375D01*
X0314273Y0067410D01*
X0312491Y0065628D01*
X0311526Y0063299D01*
X0311526Y0060778D01*
X0312491Y0058448D01*
X0312805Y0058134D01*
X0298604Y0043933D01*
X0290500Y0043933D01*
X0290500Y0044168D01*
X0289708Y0046079D01*
X0288900Y0046887D01*
X0288900Y0048549D01*
X0288352Y0049873D01*
X0271177Y0067048D01*
X0272900Y0068771D01*
X0272900Y0075896D01*
X0267862Y0080933D01*
X0260738Y0080933D01*
X0255700Y0075896D01*
X0255700Y0068771D01*
X0260738Y0063733D01*
X0264309Y0063733D01*
X0281427Y0046615D01*
X0280892Y0046079D01*
X0280100Y0044168D01*
X0280100Y0036499D01*
X0280749Y0034933D01*
X0279097Y0034933D01*
X0279234Y0035122D01*
X0279563Y0035768D01*
X0279787Y0036456D01*
X0279900Y0037171D01*
X0279900Y0040233D01*
X0275400Y0040233D01*
X0275400Y0040433D01*
X0279900Y0040433D01*
X0279900Y0043495D01*
X0279787Y0044210D01*
X0279563Y0044899D01*
X0279234Y0045544D01*
X0278809Y0046130D01*
X0278297Y0046642D01*
X0277711Y0047068D01*
X0277066Y0047396D01*
X0276377Y0047620D01*
X0275662Y0047733D01*
X0275400Y0047733D01*
X0275400Y0040433D01*
X0275200Y0040433D01*
X0275200Y0040233D01*
X0270700Y0040233D01*
X0270700Y0037171D01*
X0270813Y0036456D01*
X0271037Y0035768D01*
X0271366Y0035122D01*
X0271503Y0034933D01*
X0251584Y0034933D01*
X0250618Y0034533D01*
X0188625Y0034533D01*
X0162613Y0060546D01*
X0161437Y0061033D01*
X0157444Y0061033D01*
X0157432Y0061062D01*
X0155829Y0062666D01*
X0153734Y0063533D01*
X0144866Y0063533D01*
X0142771Y0062666D01*
X0141500Y0061394D01*
X0141500Y0074008D01*
X0145613Y0078120D01*
X0146513Y0079021D01*
X0147000Y0080197D01*
X0147000Y0082633D01*
X0225975Y0082633D01*
X0225987Y0082620D01*
X0227163Y0082133D01*
X0309437Y0082133D01*
X0310613Y0082620D01*
X0320613Y0092620D01*
X0321513Y0093521D01*
X0322000Y0094697D01*
X0322000Y0109755D01*
X0322264Y0110019D01*
X0322886Y0111521D01*
X0322886Y0111847D01*
X0323329Y0110778D01*
X0325045Y0109062D01*
X0327287Y0108133D01*
X0329713Y0108133D01*
X0331955Y0109062D01*
X0333671Y0110778D01*
X0334600Y0113020D01*
X0334600Y0115447D01*
X0333671Y0117689D01*
X0331955Y0119405D01*
X0329713Y0120333D01*
X0327287Y0120333D01*
X0325045Y0119405D01*
X0323329Y0117689D01*
X0322400Y0115447D01*
X0322400Y0114319D01*
X0322264Y0114648D01*
X0321114Y0115797D01*
X0319613Y0116419D01*
X0317987Y0116419D01*
X0316486Y0115797D01*
X0315336Y0114648D01*
X0315200Y0114319D01*
X0315200Y0115447D01*
X0314271Y0117689D01*
X0312555Y0119405D01*
X0310313Y0120333D01*
X0307887Y0120333D01*
X0305645Y0119405D01*
X0303929Y0117689D01*
X0303000Y0115447D01*
X0303000Y0113020D01*
X0303929Y0110778D01*
X0305645Y0109062D01*
X0307887Y0108133D01*
X0310313Y0108133D01*
X0312555Y0109062D01*
X0314271Y0110778D01*
X0314714Y0111847D01*
X0314714Y0111521D01*
X0315336Y0110019D01*
X0315600Y0109755D01*
X0315600Y0096659D01*
X0315200Y0096259D01*
X0315200Y0097647D01*
X0314271Y0099889D01*
X0312555Y0101605D01*
X0310313Y0102533D01*
X0307887Y0102533D01*
X0305645Y0101605D01*
X0303929Y0099889D01*
X0303000Y0097647D01*
X0303000Y0095220D01*
X0303929Y0092978D01*
X0305645Y0091262D01*
X0307887Y0090333D01*
X0309275Y0090333D01*
X0307475Y0088533D01*
X0232125Y0088533D01*
X0232113Y0088546D01*
X0230937Y0089033D01*
X0132237Y0089033D01*
X0131400Y0089870D01*
X0131400Y0104549D01*
X0130852Y0105873D01*
X0123400Y0113324D01*
X0123400Y0116607D01*
X0124345Y0115662D01*
X0126587Y0114733D01*
X0129013Y0114733D01*
X0131255Y0115662D01*
X0132600Y0117007D01*
X0132600Y0095912D01*
X0132336Y0095648D01*
X0131714Y0094146D01*
X0131714Y0092521D01*
X0132336Y0091019D01*
X0133486Y0089870D01*
X0134987Y0089248D01*
X0136613Y0089248D01*
X0138114Y0089870D01*
X0139264Y0091019D01*
X0139886Y0092521D01*
X0139886Y0094146D01*
X0139844Y0094248D01*
X0140113Y0094248D01*
X0141614Y0094870D01*
X0142764Y0096019D01*
X0143018Y0096633D01*
X0148300Y0096633D01*
X0148300Y0096233D01*
X0148700Y0096233D01*
X0148700Y0090933D01*
X0148933Y0090933D01*
X0149788Y0091069D01*
X0150611Y0091336D01*
X0151383Y0091729D01*
X0152083Y0092238D01*
X0152695Y0092850D01*
X0153204Y0093551D01*
X0153597Y0094322D01*
X0153865Y0095145D01*
X0154000Y0096000D01*
X0154000Y0096233D01*
X0148700Y0096233D01*
X0148700Y0096633D01*
X0154000Y0096633D01*
X0154000Y0096866D01*
X0153865Y0097721D01*
X0153597Y0098545D01*
X0153204Y0099316D01*
X0152695Y0100016D01*
X0152083Y0100628D01*
X0151383Y0101137D01*
X0150611Y0101530D01*
X0149788Y0101798D01*
X0148933Y0101933D01*
X0148700Y0101933D01*
X0148700Y0096633D01*
X0148300Y0096633D01*
X0148300Y0101933D01*
X0148067Y0101933D01*
X0147212Y0101798D01*
X0146389Y0101530D01*
X0145617Y0101137D01*
X0144917Y0100628D01*
X0144305Y0100016D01*
X0143796Y0099316D01*
X0143403Y0098545D01*
X0143386Y0098492D01*
X0143386Y0099146D01*
X0142764Y0100648D01*
X0142200Y0101212D01*
X0142200Y0106955D01*
X0142764Y0107519D01*
X0143386Y0109021D01*
X0143386Y0110646D01*
X0143333Y0110774D01*
X0145045Y0109062D01*
X0147287Y0108133D01*
X0149713Y0108133D01*
X0151955Y0109062D01*
X0153671Y0110778D01*
X0154600Y0113020D01*
X0154600Y0115447D01*
X0153984Y0116933D01*
X0156599Y0116933D01*
X0164400Y0109132D01*
X0164400Y0104756D01*
X0164841Y0103691D01*
X0165657Y0102875D01*
X0166723Y0102433D01*
X0172645Y0102433D01*
X0170645Y0101605D01*
X0168929Y0099889D01*
X0168000Y0097647D01*
X0168000Y0095220D01*
X0168929Y0092978D01*
X0170645Y0091262D01*
X0172887Y0090333D01*
X0175313Y0090333D01*
X0177555Y0091262D01*
X0179271Y0092978D01*
X0180200Y0095220D01*
X0180200Y0097647D01*
X0179271Y0099889D01*
X0177555Y0101605D01*
X0175555Y0102433D01*
X0201377Y0102433D01*
X0202443Y0102875D01*
X0203258Y0103691D01*
X0203700Y0104756D01*
X0203700Y0107632D01*
X0224001Y0127933D01*
X0303877Y0127933D01*
X0304943Y0128375D01*
X0305758Y0129191D01*
X0316001Y0139433D01*
X0327377Y0139433D01*
X0328443Y0139875D01*
X0329258Y0140691D01*
X0345758Y0157191D01*
X0346200Y0158256D01*
X0346200Y0204132D01*
X0348343Y0206275D01*
X0348000Y0205447D01*
X0348000Y0203020D01*
X0348929Y0200778D01*
X0350645Y0199062D01*
X0352887Y0198133D01*
X0355313Y0198133D01*
X0357555Y0199062D01*
X0359271Y0200778D01*
X0360200Y0203020D01*
X0360200Y0205447D01*
X0359271Y0207689D01*
X0357555Y0209405D01*
X0355313Y0210333D01*
X0352887Y0210333D01*
X0352058Y0209990D01*
X0356258Y0214191D01*
X0356700Y0215256D01*
X0356700Y0232410D01*
X0356258Y0233476D01*
X0355443Y0234292D01*
X0351696Y0238038D01*
X0351132Y0239400D01*
X0360900Y0229632D01*
X0360900Y0153035D01*
X0335599Y0127733D01*
X0327771Y0127733D01*
X0328300Y0128262D01*
X0328300Y0132404D01*
X0325371Y0135333D01*
X0321229Y0135333D01*
X0318300Y0132404D01*
X0318300Y0128262D01*
X0318829Y0127733D01*
X0248523Y0127733D01*
X0247457Y0127292D01*
X0246641Y0126476D01*
X0240269Y0120103D01*
X0239713Y0120333D01*
X0237287Y0120333D01*
X0235045Y0119405D01*
X0233329Y0117689D01*
X0232400Y0115447D01*
X0232400Y0113020D01*
X0233329Y0110778D01*
X0235045Y0109062D01*
X0237287Y0108133D01*
X0239713Y0108133D01*
X0241955Y0109062D01*
X0243671Y0110778D01*
X0244600Y0113020D01*
X0244600Y0115447D01*
X0244370Y0116002D01*
X0250301Y0121933D01*
X0337377Y0121933D01*
X0338443Y0122375D01*
X0339258Y0123191D01*
X0365443Y0149375D01*
X0366258Y0150191D01*
X0366700Y0151256D01*
X0366700Y0231410D01*
X0366258Y0232476D01*
X0351758Y0246976D01*
X0350943Y0247792D01*
X0349877Y0248233D01*
X0314223Y0248233D01*
X0313157Y0247792D01*
X0307569Y0242203D01*
X0307013Y0242433D01*
X0304587Y0242433D01*
X0302345Y0241505D01*
X0302287Y0241447D01*
X0299258Y0244476D01*
X0298443Y0245292D01*
X0297377Y0245733D01*
X0255001Y0245733D01*
X0250243Y0250492D01*
X0249764Y0251648D01*
X0248614Y0252797D01*
X0247113Y0253419D01*
X0245487Y0253419D01*
X0243986Y0252797D01*
X0242836Y0251648D01*
X0242214Y0250146D01*
X0242214Y0248521D01*
X0242836Y0247019D01*
X0243986Y0245870D01*
X0245487Y0245248D01*
X0247113Y0245248D01*
X0247234Y0245298D01*
X0251686Y0240846D01*
X0250629Y0239789D01*
X0250432Y0239315D01*
X0249995Y0239916D01*
X0249383Y0240528D01*
X0248683Y0241037D01*
X0247911Y0241430D01*
X0247088Y0241698D01*
X0246233Y0241833D01*
X0246000Y0241833D01*
X0246000Y0236533D01*
X0245600Y0236533D01*
X0245600Y0241833D01*
X0245367Y0241833D01*
X0244512Y0241698D01*
X0243689Y0241430D01*
X0242917Y0241037D01*
X0242217Y0240528D01*
X0241605Y0239916D01*
X0241168Y0239315D01*
X0240971Y0239789D01*
X0239255Y0241505D01*
X0237013Y0242433D01*
X0234587Y0242433D01*
X0232345Y0241505D01*
X0230800Y0239960D01*
X0229255Y0241505D01*
X0227013Y0242433D01*
X0224587Y0242433D01*
X0222345Y0241505D01*
X0220629Y0239789D01*
X0220432Y0239315D01*
X0219995Y0239916D01*
X0219383Y0240528D01*
X0218683Y0241037D01*
X0217911Y0241430D01*
X0217088Y0241698D01*
X0216233Y0241833D01*
X0216000Y0241833D01*
X0216000Y0236533D01*
X0215600Y0236533D01*
X0215600Y0241833D01*
X0215367Y0241833D01*
X0214512Y0241698D01*
X0213689Y0241430D01*
X0212917Y0241037D01*
X0212217Y0240528D01*
X0211605Y0239916D01*
X0211168Y0239315D01*
X0210971Y0239789D01*
X0209255Y0241505D01*
X0207013Y0242433D01*
X0204587Y0242433D01*
X0202345Y0241505D01*
X0200800Y0239960D01*
X0199255Y0241505D01*
X0197013Y0242433D01*
X0194587Y0242433D01*
X0192345Y0241505D01*
X0190800Y0239960D01*
X0189255Y0241505D01*
X0187013Y0242433D01*
X0184587Y0242433D01*
X0182345Y0241505D01*
X0180629Y0239789D01*
X0180432Y0239315D01*
X0179995Y0239916D01*
X0179383Y0240528D01*
X0178683Y0241037D01*
X0177911Y0241430D01*
X0177088Y0241698D01*
X0176233Y0241833D01*
X0176000Y0241833D01*
X0176000Y0236533D01*
X0175600Y0236533D01*
X0175600Y0241833D01*
X0175367Y0241833D01*
X0174512Y0241698D01*
X0173689Y0241430D01*
X0172917Y0241037D01*
X0172217Y0240528D01*
X0171605Y0239916D01*
X0171168Y0239315D01*
X0170971Y0239789D01*
X0169255Y0241505D01*
X0167013Y0242433D01*
X0164587Y0242433D01*
X0162345Y0241505D01*
X0169628Y0241132D02*
X0173104Y0241132D01*
X0171327Y0239534D02*
X0171077Y0239534D01*
X0175600Y0239534D02*
X0176000Y0239534D01*
X0176000Y0241132D02*
X0175600Y0241132D01*
X0178496Y0241132D02*
X0181972Y0241132D01*
X0180523Y0239534D02*
X0180273Y0239534D01*
X0176000Y0237935D02*
X0175600Y0237935D01*
X0189628Y0241132D02*
X0191972Y0241132D01*
X0199628Y0241132D02*
X0201972Y0241132D01*
X0209628Y0241132D02*
X0213104Y0241132D01*
X0211327Y0239534D02*
X0211077Y0239534D01*
X0215600Y0239534D02*
X0216000Y0239534D01*
X0216000Y0241132D02*
X0215600Y0241132D01*
X0218496Y0241132D02*
X0221972Y0241132D01*
X0220523Y0239534D02*
X0220273Y0239534D01*
X0216000Y0237935D02*
X0215600Y0237935D01*
X0229628Y0241132D02*
X0231972Y0241132D01*
X0239628Y0241132D02*
X0243104Y0241132D01*
X0241327Y0239534D02*
X0241077Y0239534D01*
X0245600Y0239534D02*
X0246000Y0239534D01*
X0246000Y0241132D02*
X0245600Y0241132D01*
X0248496Y0241132D02*
X0251400Y0241132D01*
X0250523Y0239534D02*
X0250273Y0239534D01*
X0249801Y0242731D02*
X0153928Y0242731D01*
X0152329Y0244329D02*
X0248203Y0244329D01*
X0243927Y0245928D02*
X0150731Y0245928D01*
X0149132Y0247526D02*
X0242626Y0247526D01*
X0242214Y0249125D02*
X0149000Y0249125D01*
X0149000Y0250723D02*
X0242453Y0250723D01*
X0243510Y0252322D02*
X0149000Y0252322D01*
X0149000Y0253920D02*
X0373600Y0253920D01*
X0373600Y0252322D02*
X0249090Y0252322D01*
X0250147Y0250723D02*
X0373600Y0250723D01*
X0373600Y0249125D02*
X0251610Y0249125D01*
X0253208Y0247526D02*
X0312892Y0247526D01*
X0311293Y0245928D02*
X0254807Y0245928D01*
X0246000Y0237935D02*
X0245600Y0237935D01*
X0240800Y0222707D02*
X0239255Y0221162D01*
X0237013Y0220233D01*
X0234587Y0220233D01*
X0232345Y0221162D01*
X0230800Y0222707D01*
X0229255Y0221162D01*
X0227013Y0220233D01*
X0224587Y0220233D01*
X0222345Y0221162D01*
X0220800Y0222707D01*
X0219255Y0221162D01*
X0217013Y0220233D01*
X0214587Y0220233D01*
X0212345Y0221162D01*
X0210800Y0222707D01*
X0209255Y0221162D01*
X0207013Y0220233D01*
X0204587Y0220233D01*
X0202345Y0221162D01*
X0200629Y0222878D01*
X0200432Y0223352D01*
X0199995Y0222750D01*
X0199383Y0222138D01*
X0198683Y0221629D01*
X0197911Y0221236D01*
X0197088Y0220969D01*
X0196233Y0220833D01*
X0196000Y0220833D01*
X0196000Y0226133D01*
X0195600Y0226133D01*
X0195600Y0220833D01*
X0195367Y0220833D01*
X0194512Y0220969D01*
X0193689Y0221236D01*
X0192917Y0221629D01*
X0192217Y0222138D01*
X0191605Y0222750D01*
X0191168Y0223352D01*
X0190971Y0222878D01*
X0189255Y0221162D01*
X0189000Y0221056D01*
X0189000Y0220659D01*
X0191625Y0218033D01*
X0273537Y0218033D01*
X0274713Y0217546D01*
X0282031Y0210228D01*
X0282287Y0210333D01*
X0284713Y0210333D01*
X0285542Y0209990D01*
X0278341Y0217191D01*
X0277900Y0218256D01*
X0277900Y0221233D01*
X0277088Y0220969D01*
X0276233Y0220833D01*
X0276000Y0220833D01*
X0276000Y0226133D01*
X0275600Y0226133D01*
X0275600Y0220833D01*
X0275367Y0220833D01*
X0274512Y0220969D01*
X0273689Y0221236D01*
X0272917Y0221629D01*
X0272217Y0222138D01*
X0271605Y0222750D01*
X0271168Y0223352D01*
X0270971Y0222878D01*
X0269255Y0221162D01*
X0267013Y0220233D01*
X0264587Y0220233D01*
X0262345Y0221162D01*
X0260800Y0222707D01*
X0259255Y0221162D01*
X0257013Y0220233D01*
X0254587Y0220233D01*
X0252345Y0221162D01*
X0250800Y0222707D01*
X0249255Y0221162D01*
X0247013Y0220233D01*
X0244587Y0220233D01*
X0242345Y0221162D01*
X0240800Y0222707D01*
X0240044Y0221950D02*
X0241556Y0221950D01*
X0244301Y0220352D02*
X0237299Y0220352D01*
X0234301Y0220352D02*
X0227299Y0220352D01*
X0224301Y0220352D02*
X0217299Y0220352D01*
X0214301Y0220352D02*
X0207299Y0220352D01*
X0204301Y0220352D02*
X0189307Y0220352D01*
X0190044Y0221950D02*
X0192476Y0221950D01*
X0195600Y0221950D02*
X0196000Y0221950D01*
X0196000Y0223549D02*
X0195600Y0223549D01*
X0195600Y0225147D02*
X0196000Y0225147D01*
X0199124Y0221950D02*
X0201556Y0221950D01*
X0210044Y0221950D02*
X0211556Y0221950D01*
X0220044Y0221950D02*
X0221556Y0221950D01*
X0230044Y0221950D02*
X0231556Y0221950D01*
X0247299Y0220352D02*
X0254301Y0220352D01*
X0257299Y0220352D02*
X0264301Y0220352D01*
X0267299Y0220352D02*
X0277900Y0220352D01*
X0277900Y0218753D02*
X0190906Y0218753D01*
X0190300Y0214833D02*
X0185800Y0219333D01*
X0185800Y0226333D01*
X0182600Y0219032D02*
X0182600Y0218697D01*
X0183087Y0217521D01*
X0187587Y0213021D01*
X0188487Y0212120D01*
X0189663Y0211633D01*
X0271575Y0211633D01*
X0277506Y0205702D01*
X0277400Y0205447D01*
X0277400Y0203020D01*
X0278329Y0200778D01*
X0280045Y0199062D01*
X0282287Y0198133D01*
X0284713Y0198133D01*
X0286955Y0199062D01*
X0288671Y0200778D01*
X0289600Y0203020D01*
X0289600Y0205447D01*
X0289257Y0206275D01*
X0292900Y0202632D01*
X0292900Y0181035D01*
X0291599Y0179733D01*
X0231223Y0179733D01*
X0230157Y0179292D01*
X0226212Y0175346D01*
X0224795Y0175933D01*
X0222805Y0175933D01*
X0220968Y0175172D01*
X0219561Y0173766D01*
X0218800Y0171928D01*
X0218800Y0164739D01*
X0219561Y0162901D01*
X0220968Y0161495D01*
X0222805Y0160733D01*
X0224795Y0160733D01*
X0226632Y0161495D01*
X0228039Y0162901D01*
X0228800Y0164739D01*
X0229561Y0162901D01*
X0230968Y0161495D01*
X0232805Y0160733D01*
X0234795Y0160733D01*
X0236632Y0161495D01*
X0238039Y0162901D01*
X0238798Y0164733D01*
X0244809Y0164733D01*
X0250300Y0159242D01*
X0250300Y0157262D01*
X0251629Y0155933D01*
X0215291Y0155933D01*
X0214589Y0156635D01*
X0208122Y0163102D01*
X0208800Y0164739D01*
X0208800Y0171928D01*
X0208039Y0173766D01*
X0206632Y0175172D01*
X0204795Y0175933D01*
X0202805Y0175933D01*
X0200968Y0175172D01*
X0199561Y0173766D01*
X0198800Y0171928D01*
X0198800Y0164739D01*
X0199561Y0162901D01*
X0200200Y0162262D01*
X0200200Y0161617D01*
X0200748Y0160294D01*
X0204059Y0156983D01*
X0197874Y0156983D01*
X0196624Y0156466D01*
X0190374Y0150216D01*
X0189418Y0149259D01*
X0188900Y0148010D01*
X0188900Y0131657D01*
X0189418Y0130407D01*
X0190374Y0129451D01*
X0190374Y0129451D01*
X0198418Y0121407D01*
X0199374Y0120451D01*
X0199425Y0120430D01*
X0199986Y0119870D01*
X0201487Y0119248D01*
X0203113Y0119248D01*
X0204614Y0119870D01*
X0205764Y0121019D01*
X0206386Y0122521D01*
X0206386Y0124146D01*
X0205764Y0125648D01*
X0204614Y0126797D01*
X0203113Y0127419D01*
X0202022Y0127419D01*
X0195700Y0133742D01*
X0195700Y0145925D01*
X0199958Y0150183D01*
X0210859Y0150183D01*
X0211761Y0149281D01*
X0213084Y0148733D01*
X0293309Y0148733D01*
X0293700Y0148342D01*
X0293700Y0142804D01*
X0292300Y0141404D01*
X0292300Y0137262D01*
X0295229Y0134333D01*
X0299371Y0134333D01*
X0302300Y0137262D01*
X0302300Y0141404D01*
X0300900Y0142804D01*
X0300900Y0150549D01*
X0300352Y0151873D01*
X0298400Y0153824D01*
X0298400Y0155362D01*
X0300300Y0157262D01*
X0300300Y0161404D01*
X0297371Y0164333D01*
X0293229Y0164333D01*
X0290300Y0161404D01*
X0290300Y0157262D01*
X0291200Y0156362D01*
X0291200Y0155933D01*
X0258971Y0155933D01*
X0260300Y0157262D01*
X0260300Y0161404D01*
X0257371Y0164333D01*
X0255391Y0164333D01*
X0249352Y0170373D01*
X0248339Y0171385D01*
X0247016Y0171933D01*
X0238798Y0171933D01*
X0238039Y0173766D01*
X0237871Y0173933D01*
X0293377Y0173933D01*
X0294443Y0174375D01*
X0298258Y0178191D01*
X0298700Y0179256D01*
X0298700Y0204410D01*
X0298258Y0205476D01*
X0297443Y0206292D01*
X0283700Y0220035D01*
X0283700Y0220601D01*
X0284587Y0220233D01*
X0287013Y0220233D01*
X0289255Y0221162D01*
X0290800Y0222707D01*
X0292345Y0221162D01*
X0292600Y0221056D01*
X0292600Y0219197D01*
X0293087Y0218021D01*
X0293987Y0217120D01*
X0298987Y0212120D01*
X0300163Y0211633D01*
X0316575Y0211633D01*
X0322506Y0205702D01*
X0322400Y0205447D01*
X0322400Y0203020D01*
X0323329Y0200778D01*
X0325045Y0199062D01*
X0327287Y0198133D01*
X0329713Y0198133D01*
X0331955Y0199062D01*
X0333671Y0200778D01*
X0334600Y0203020D01*
X0334600Y0205447D01*
X0333671Y0207689D01*
X0331955Y0209405D01*
X0329713Y0210333D01*
X0327287Y0210333D01*
X0327031Y0210228D01*
X0320613Y0216646D01*
X0319713Y0217546D01*
X0318537Y0218033D01*
X0302125Y0218033D01*
X0299073Y0221086D01*
X0299255Y0221162D01*
X0300800Y0222707D01*
X0302345Y0221162D01*
X0304587Y0220233D01*
X0307013Y0220233D01*
X0309255Y0221162D01*
X0310800Y0222707D01*
X0312345Y0221162D01*
X0314587Y0220233D01*
X0317013Y0220233D01*
X0319255Y0221162D01*
X0320800Y0222707D01*
X0322345Y0221162D01*
X0324587Y0220233D01*
X0327013Y0220233D01*
X0329255Y0221162D01*
X0330800Y0222707D01*
X0332345Y0221162D01*
X0334587Y0220233D01*
X0337013Y0220233D01*
X0339255Y0221162D01*
X0340971Y0222878D01*
X0341168Y0223352D01*
X0341605Y0222750D01*
X0342217Y0222138D01*
X0342917Y0221629D01*
X0343689Y0221236D01*
X0344512Y0220969D01*
X0345367Y0220833D01*
X0345600Y0220833D01*
X0345600Y0226133D01*
X0346000Y0226133D01*
X0346000Y0220833D01*
X0346233Y0220833D01*
X0347088Y0220969D01*
X0347911Y0221236D01*
X0348683Y0221629D01*
X0349383Y0222138D01*
X0349995Y0222750D01*
X0350504Y0223451D01*
X0350897Y0224222D01*
X0350900Y0224231D01*
X0350900Y0217035D01*
X0340841Y0206976D01*
X0340400Y0205910D01*
X0340400Y0160035D01*
X0325599Y0145233D01*
X0314223Y0145233D01*
X0313157Y0144792D01*
X0302099Y0133733D01*
X0237719Y0133733D01*
X0237878Y0134044D01*
X0238092Y0134703D01*
X0238200Y0135387D01*
X0238200Y0138333D01*
X0233800Y0138333D01*
X0229400Y0138333D01*
X0229400Y0135387D01*
X0229508Y0134703D01*
X0229722Y0134044D01*
X0229881Y0133733D01*
X0227719Y0133733D01*
X0227878Y0134044D01*
X0228092Y0134703D01*
X0228200Y0135387D01*
X0228200Y0138333D01*
X0223800Y0138333D01*
X0219400Y0138333D01*
X0219400Y0135387D01*
X0219508Y0134703D01*
X0219722Y0134044D01*
X0220037Y0133427D01*
X0220444Y0132867D01*
X0220588Y0132723D01*
X0198691Y0110826D01*
X0199600Y0113020D01*
X0199600Y0115447D01*
X0198671Y0117689D01*
X0196955Y0119405D01*
X0194713Y0120333D01*
X0192287Y0120333D01*
X0191731Y0120103D01*
X0164200Y0147635D01*
X0164200Y0207632D01*
X0172001Y0215433D01*
X0178377Y0215433D01*
X0179443Y0215875D01*
X0182443Y0218875D01*
X0182600Y0219032D01*
X0182600Y0218753D02*
X0182321Y0218753D01*
X0183453Y0217155D02*
X0180723Y0217155D01*
X0178673Y0215556D02*
X0185052Y0215556D01*
X0186650Y0213958D02*
X0170526Y0213958D01*
X0168927Y0212359D02*
X0188249Y0212359D01*
X0190300Y0214833D02*
X0272900Y0214833D01*
X0283500Y0204233D01*
X0289600Y0204367D02*
X0291166Y0204367D01*
X0292764Y0202768D02*
X0289496Y0202768D01*
X0288834Y0201170D02*
X0292900Y0201170D01*
X0292900Y0199571D02*
X0287464Y0199571D01*
X0292900Y0197973D02*
X0164200Y0197973D01*
X0164200Y0199571D02*
X0170136Y0199571D01*
X0170645Y0199062D02*
X0168929Y0200778D01*
X0168000Y0203020D01*
X0168000Y0205447D01*
X0168929Y0207689D01*
X0170645Y0209405D01*
X0172887Y0210333D01*
X0175313Y0210333D01*
X0177555Y0209405D01*
X0179271Y0207689D01*
X0180200Y0205447D01*
X0180200Y0203020D01*
X0179271Y0200778D01*
X0177555Y0199062D01*
X0175313Y0198133D01*
X0172887Y0198133D01*
X0170645Y0199062D01*
X0168766Y0201170D02*
X0164200Y0201170D01*
X0164200Y0202768D02*
X0168104Y0202768D01*
X0168000Y0204367D02*
X0164200Y0204367D01*
X0164200Y0205965D02*
X0168215Y0205965D01*
X0168877Y0207564D02*
X0164200Y0207564D01*
X0165730Y0209162D02*
X0170402Y0209162D01*
X0167329Y0210761D02*
X0272447Y0210761D01*
X0274046Y0209162D02*
X0267798Y0209162D01*
X0267555Y0209405D02*
X0265313Y0210333D01*
X0262887Y0210333D01*
X0260645Y0209405D01*
X0258929Y0207689D01*
X0258000Y0205447D01*
X0258000Y0203020D01*
X0258929Y0200778D01*
X0260645Y0199062D01*
X0262887Y0198133D01*
X0265313Y0198133D01*
X0267555Y0199062D01*
X0269271Y0200778D01*
X0270200Y0203020D01*
X0270200Y0205447D01*
X0269271Y0207689D01*
X0267555Y0209405D01*
X0269323Y0207564D02*
X0275644Y0207564D01*
X0277243Y0205965D02*
X0269985Y0205965D01*
X0270200Y0204367D02*
X0277400Y0204367D01*
X0277504Y0202768D02*
X0270096Y0202768D01*
X0269434Y0201170D02*
X0278166Y0201170D01*
X0279536Y0199571D02*
X0268064Y0199571D01*
X0260136Y0199571D02*
X0242464Y0199571D01*
X0241955Y0199062D02*
X0243671Y0200778D01*
X0244600Y0203020D01*
X0244600Y0205447D01*
X0243671Y0207689D01*
X0241955Y0209405D01*
X0239713Y0210333D01*
X0237287Y0210333D01*
X0235045Y0209405D01*
X0233329Y0207689D01*
X0232400Y0205447D01*
X0232400Y0203020D01*
X0233329Y0200778D01*
X0235045Y0199062D01*
X0237287Y0198133D01*
X0239713Y0198133D01*
X0241955Y0199062D01*
X0243834Y0201170D02*
X0258766Y0201170D01*
X0258104Y0202768D02*
X0244496Y0202768D01*
X0244600Y0204367D02*
X0258000Y0204367D01*
X0258215Y0205965D02*
X0244385Y0205965D01*
X0243723Y0207564D02*
X0258877Y0207564D01*
X0260402Y0209162D02*
X0242198Y0209162D01*
X0234802Y0209162D02*
X0222798Y0209162D01*
X0222555Y0209405D02*
X0220313Y0210333D01*
X0217887Y0210333D01*
X0215645Y0209405D01*
X0213929Y0207689D01*
X0213000Y0205447D01*
X0213000Y0203020D01*
X0213929Y0200778D01*
X0215645Y0199062D01*
X0217887Y0198133D01*
X0220313Y0198133D01*
X0222555Y0199062D01*
X0224271Y0200778D01*
X0225200Y0203020D01*
X0225200Y0205447D01*
X0224271Y0207689D01*
X0222555Y0209405D01*
X0224323Y0207564D02*
X0233277Y0207564D01*
X0232615Y0205965D02*
X0224985Y0205965D01*
X0225200Y0204367D02*
X0232400Y0204367D01*
X0232504Y0202768D02*
X0225096Y0202768D01*
X0224434Y0201170D02*
X0233166Y0201170D01*
X0234536Y0199571D02*
X0223064Y0199571D01*
X0215136Y0199571D02*
X0197464Y0199571D01*
X0196955Y0199062D02*
X0198671Y0200778D01*
X0199600Y0203020D01*
X0199600Y0205447D01*
X0198671Y0207689D01*
X0196955Y0209405D01*
X0194713Y0210333D01*
X0192287Y0210333D01*
X0190045Y0209405D01*
X0188329Y0207689D01*
X0187400Y0205447D01*
X0187400Y0203020D01*
X0188329Y0200778D01*
X0190045Y0199062D01*
X0192287Y0198133D01*
X0194713Y0198133D01*
X0196955Y0199062D01*
X0198834Y0201170D02*
X0213766Y0201170D01*
X0213104Y0202768D02*
X0199496Y0202768D01*
X0199600Y0204367D02*
X0213000Y0204367D01*
X0213215Y0205965D02*
X0199385Y0205965D01*
X0198723Y0207564D02*
X0213877Y0207564D01*
X0215402Y0209162D02*
X0197198Y0209162D01*
X0189802Y0209162D02*
X0177798Y0209162D01*
X0179323Y0207564D02*
X0188277Y0207564D01*
X0187615Y0205965D02*
X0179985Y0205965D01*
X0180200Y0204367D02*
X0187400Y0204367D01*
X0187504Y0202768D02*
X0180096Y0202768D01*
X0179434Y0201170D02*
X0188166Y0201170D01*
X0189536Y0199571D02*
X0178064Y0199571D01*
X0164200Y0196374D02*
X0292900Y0196374D01*
X0292900Y0194776D02*
X0164200Y0194776D01*
X0164200Y0193177D02*
X0292900Y0193177D01*
X0292900Y0191579D02*
X0285463Y0191579D01*
X0285611Y0191530D02*
X0284788Y0191798D01*
X0283933Y0191933D01*
X0283700Y0191933D01*
X0283700Y0186633D01*
X0289000Y0186633D01*
X0289000Y0186866D01*
X0288865Y0187721D01*
X0288597Y0188545D01*
X0288204Y0189316D01*
X0287695Y0190016D01*
X0287083Y0190628D01*
X0286383Y0191137D01*
X0285611Y0191530D01*
X0283700Y0191579D02*
X0283300Y0191579D01*
X0283300Y0191933D02*
X0283067Y0191933D01*
X0282212Y0191798D01*
X0281389Y0191530D01*
X0280617Y0191137D01*
X0279917Y0190628D01*
X0279305Y0190016D01*
X0278796Y0189316D01*
X0278403Y0188545D01*
X0278135Y0187721D01*
X0278000Y0186866D01*
X0278000Y0186633D01*
X0283300Y0186633D01*
X0283300Y0186233D01*
X0283700Y0186233D01*
X0283700Y0180933D01*
X0283933Y0180933D01*
X0284788Y0181069D01*
X0285611Y0181336D01*
X0286383Y0181729D01*
X0287083Y0182238D01*
X0287695Y0182850D01*
X0288204Y0183551D01*
X0288597Y0184322D01*
X0288865Y0185145D01*
X0289000Y0186000D01*
X0289000Y0186233D01*
X0283700Y0186233D01*
X0283700Y0186633D01*
X0283300Y0186633D01*
X0283300Y0191933D01*
X0281537Y0191579D02*
X0267582Y0191579D01*
X0267555Y0191605D02*
X0265313Y0192533D01*
X0262887Y0192533D01*
X0260645Y0191605D01*
X0258929Y0189889D01*
X0258000Y0187647D01*
X0258000Y0185220D01*
X0258929Y0182978D01*
X0260645Y0181262D01*
X0262887Y0180333D01*
X0265313Y0180333D01*
X0267555Y0181262D01*
X0269271Y0182978D01*
X0270200Y0185220D01*
X0270200Y0187647D01*
X0269271Y0189889D01*
X0267555Y0191605D01*
X0269180Y0189980D02*
X0279278Y0189980D01*
X0278350Y0188381D02*
X0269896Y0188381D01*
X0270200Y0186783D02*
X0278000Y0186783D01*
X0278000Y0186233D02*
X0278000Y0186000D01*
X0278135Y0185145D01*
X0278403Y0184322D01*
X0278796Y0183551D01*
X0279305Y0182850D01*
X0279917Y0182238D01*
X0280617Y0181729D01*
X0281389Y0181336D01*
X0282212Y0181069D01*
X0283067Y0180933D01*
X0283300Y0180933D01*
X0283300Y0186233D01*
X0278000Y0186233D01*
X0278129Y0185184D02*
X0270185Y0185184D01*
X0269523Y0183586D02*
X0278778Y0183586D01*
X0280262Y0181987D02*
X0268281Y0181987D01*
X0265448Y0180389D02*
X0292254Y0180389D01*
X0292900Y0181987D02*
X0286738Y0181987D01*
X0288222Y0183586D02*
X0292900Y0183586D01*
X0292900Y0185184D02*
X0288871Y0185184D01*
X0289000Y0186783D02*
X0292900Y0186783D01*
X0292900Y0188381D02*
X0288650Y0188381D01*
X0287722Y0189980D02*
X0292900Y0189980D01*
X0298700Y0189980D02*
X0304020Y0189980D01*
X0303929Y0189889D02*
X0303000Y0187647D01*
X0303000Y0185220D01*
X0303929Y0182978D01*
X0305645Y0181262D01*
X0307887Y0180333D01*
X0310313Y0180333D01*
X0312555Y0181262D01*
X0314271Y0182978D01*
X0315200Y0185220D01*
X0315200Y0187647D01*
X0314271Y0189889D01*
X0312555Y0191605D01*
X0310313Y0192533D01*
X0307887Y0192533D01*
X0305645Y0191605D01*
X0303929Y0189889D01*
X0303304Y0188381D02*
X0298700Y0188381D01*
X0298700Y0186783D02*
X0303000Y0186783D01*
X0303015Y0185184D02*
X0298700Y0185184D01*
X0298700Y0183586D02*
X0303677Y0183586D01*
X0304919Y0181987D02*
X0298700Y0181987D01*
X0298700Y0180389D02*
X0307752Y0180389D01*
X0310448Y0180389D02*
X0340400Y0180389D01*
X0340400Y0181987D02*
X0331738Y0181987D01*
X0332083Y0182238D02*
X0332695Y0182850D01*
X0333204Y0183551D01*
X0333597Y0184322D01*
X0333865Y0185145D01*
X0334000Y0186000D01*
X0334000Y0186233D01*
X0328700Y0186233D01*
X0328700Y0180933D01*
X0328933Y0180933D01*
X0329788Y0181069D01*
X0330611Y0181336D01*
X0331383Y0181729D01*
X0332083Y0182238D01*
X0333222Y0183586D02*
X0340400Y0183586D01*
X0340400Y0185184D02*
X0333871Y0185184D01*
X0334000Y0186633D02*
X0334000Y0186866D01*
X0333865Y0187721D01*
X0333597Y0188545D01*
X0333204Y0189316D01*
X0332695Y0190016D01*
X0332083Y0190628D01*
X0331383Y0191137D01*
X0330611Y0191530D01*
X0329788Y0191798D01*
X0328933Y0191933D01*
X0328700Y0191933D01*
X0328700Y0186633D01*
X0334000Y0186633D01*
X0334000Y0186783D02*
X0340400Y0186783D01*
X0340400Y0188381D02*
X0333650Y0188381D01*
X0332722Y0189980D02*
X0340400Y0189980D01*
X0340400Y0191579D02*
X0330463Y0191579D01*
X0328700Y0191579D02*
X0328300Y0191579D01*
X0328300Y0191933D02*
X0328067Y0191933D01*
X0327212Y0191798D01*
X0326389Y0191530D01*
X0325617Y0191137D01*
X0324917Y0190628D01*
X0324305Y0190016D01*
X0323796Y0189316D01*
X0323403Y0188545D01*
X0323135Y0187721D01*
X0323000Y0186866D01*
X0323000Y0186633D01*
X0328300Y0186633D01*
X0328300Y0186233D01*
X0328700Y0186233D01*
X0328700Y0186633D01*
X0328300Y0186633D01*
X0328300Y0191933D01*
X0326537Y0191579D02*
X0312582Y0191579D01*
X0314180Y0189980D02*
X0324278Y0189980D01*
X0323350Y0188381D02*
X0314896Y0188381D01*
X0315200Y0186783D02*
X0323000Y0186783D01*
X0323000Y0186233D02*
X0323000Y0186000D01*
X0323135Y0185145D01*
X0323403Y0184322D01*
X0323796Y0183551D01*
X0324305Y0182850D01*
X0324917Y0182238D01*
X0325617Y0181729D01*
X0326389Y0181336D01*
X0327212Y0181069D01*
X0328067Y0180933D01*
X0328300Y0180933D01*
X0328300Y0186233D01*
X0323000Y0186233D01*
X0323129Y0185184D02*
X0315185Y0185184D01*
X0314523Y0183586D02*
X0323778Y0183586D01*
X0325262Y0181987D02*
X0313281Y0181987D01*
X0298507Y0178790D02*
X0340400Y0178790D01*
X0340400Y0177192D02*
X0297260Y0177192D01*
X0295661Y0175593D02*
X0340400Y0175593D01*
X0340400Y0173995D02*
X0325861Y0173995D01*
X0325123Y0174733D02*
X0323300Y0174733D01*
X0321477Y0174733D01*
X0318900Y0172156D01*
X0318900Y0170333D01*
X0318900Y0168511D01*
X0321477Y0165933D01*
X0323300Y0165933D01*
X0323300Y0170333D01*
X0323300Y0165933D01*
X0325123Y0165933D01*
X0327700Y0168511D01*
X0327700Y0170333D01*
X0323300Y0170333D01*
X0323300Y0170333D01*
X0318900Y0170333D01*
X0323300Y0170333D01*
X0323300Y0170333D01*
X0323300Y0170333D01*
X0327700Y0170333D01*
X0327700Y0172156D01*
X0325123Y0174733D01*
X0323300Y0174733D02*
X0323300Y0170333D01*
X0323300Y0174733D01*
X0323300Y0173995D02*
X0323300Y0173995D01*
X0323300Y0172396D02*
X0323300Y0172396D01*
X0323300Y0170798D02*
X0323300Y0170798D01*
X0323300Y0170333D02*
X0323300Y0170333D01*
X0323300Y0169199D02*
X0323300Y0169199D01*
X0323300Y0167601D02*
X0323300Y0167601D01*
X0323300Y0166002D02*
X0323300Y0166002D01*
X0325192Y0166002D02*
X0340400Y0166002D01*
X0340400Y0164404D02*
X0255321Y0164404D01*
X0253722Y0166002D02*
X0321408Y0166002D01*
X0319810Y0167601D02*
X0252124Y0167601D01*
X0250525Y0169199D02*
X0318900Y0169199D01*
X0318900Y0170798D02*
X0248927Y0170798D01*
X0245138Y0164404D02*
X0238661Y0164404D01*
X0237943Y0162805D02*
X0246737Y0162805D01*
X0248335Y0161207D02*
X0235938Y0161207D01*
X0231662Y0161207D02*
X0225938Y0161207D01*
X0227943Y0162805D02*
X0229657Y0162805D01*
X0228939Y0164404D02*
X0228661Y0164404D01*
X0228800Y0164739D02*
X0228800Y0169732D01*
X0228800Y0169732D01*
X0228800Y0164739D01*
X0228800Y0166002D02*
X0228800Y0166002D01*
X0228800Y0167601D02*
X0228800Y0167601D01*
X0228800Y0169199D02*
X0228800Y0169199D01*
X0238606Y0172396D02*
X0319141Y0172396D01*
X0320739Y0173995D02*
X0293525Y0173995D01*
X0283700Y0181987D02*
X0283300Y0181987D01*
X0283300Y0183586D02*
X0283700Y0183586D01*
X0283700Y0185184D02*
X0283300Y0185184D01*
X0283300Y0186783D02*
X0283700Y0186783D01*
X0283700Y0188381D02*
X0283300Y0188381D01*
X0283300Y0189980D02*
X0283700Y0189980D01*
X0298700Y0191579D02*
X0305618Y0191579D01*
X0298700Y0193177D02*
X0340400Y0193177D01*
X0340400Y0194776D02*
X0298700Y0194776D01*
X0298700Y0196374D02*
X0340400Y0196374D01*
X0340400Y0197973D02*
X0298700Y0197973D01*
X0298700Y0199571D02*
X0305136Y0199571D01*
X0305645Y0199062D02*
X0303929Y0200778D01*
X0303000Y0203020D01*
X0303000Y0205447D01*
X0303929Y0207689D01*
X0305645Y0209405D01*
X0307887Y0210333D01*
X0310313Y0210333D01*
X0312555Y0209405D01*
X0314271Y0207689D01*
X0315200Y0205447D01*
X0315200Y0203020D01*
X0314271Y0200778D01*
X0312555Y0199062D01*
X0310313Y0198133D01*
X0307887Y0198133D01*
X0305645Y0199062D01*
X0303766Y0201170D02*
X0298700Y0201170D01*
X0298700Y0202768D02*
X0303104Y0202768D01*
X0303000Y0204367D02*
X0298700Y0204367D01*
X0297769Y0205965D02*
X0303215Y0205965D01*
X0303877Y0207564D02*
X0296171Y0207564D01*
X0294572Y0209162D02*
X0305402Y0209162D01*
X0298749Y0212359D02*
X0291375Y0212359D01*
X0289777Y0213958D02*
X0297150Y0213958D01*
X0295552Y0215556D02*
X0288178Y0215556D01*
X0286580Y0217155D02*
X0293953Y0217155D01*
X0292784Y0218753D02*
X0284981Y0218753D01*
X0284301Y0220352D02*
X0283700Y0220352D01*
X0287299Y0220352D02*
X0292600Y0220352D01*
X0291556Y0221950D02*
X0290044Y0221950D01*
X0295800Y0219833D02*
X0295800Y0226333D01*
X0300044Y0221950D02*
X0301556Y0221950D01*
X0299807Y0220352D02*
X0304301Y0220352D01*
X0307299Y0220352D02*
X0314301Y0220352D01*
X0317299Y0220352D02*
X0324301Y0220352D01*
X0327299Y0220352D02*
X0334301Y0220352D01*
X0337299Y0220352D02*
X0350900Y0220352D01*
X0350900Y0221950D02*
X0349124Y0221950D01*
X0350554Y0223549D02*
X0350900Y0223549D01*
X0346000Y0223549D02*
X0345600Y0223549D01*
X0345600Y0225147D02*
X0346000Y0225147D01*
X0346000Y0221950D02*
X0345600Y0221950D01*
X0342476Y0221950D02*
X0340044Y0221950D01*
X0350900Y0218753D02*
X0301406Y0218753D01*
X0300800Y0214833D02*
X0295800Y0219833D01*
X0300800Y0214833D02*
X0317900Y0214833D01*
X0328500Y0204233D01*
X0334600Y0204367D02*
X0340400Y0204367D01*
X0340423Y0205965D02*
X0334385Y0205965D01*
X0333723Y0207564D02*
X0341429Y0207564D01*
X0343028Y0209162D02*
X0332198Y0209162D01*
X0326498Y0210761D02*
X0344626Y0210761D01*
X0346225Y0212359D02*
X0324900Y0212359D01*
X0323301Y0213958D02*
X0347823Y0213958D01*
X0349422Y0215556D02*
X0321703Y0215556D01*
X0320104Y0217155D02*
X0350900Y0217155D01*
X0356700Y0217155D02*
X0360900Y0217155D01*
X0360900Y0218753D02*
X0356700Y0218753D01*
X0356700Y0220352D02*
X0360900Y0220352D01*
X0360900Y0221950D02*
X0356700Y0221950D01*
X0356700Y0223549D02*
X0360900Y0223549D01*
X0360900Y0225147D02*
X0356700Y0225147D01*
X0356700Y0226746D02*
X0360900Y0226746D01*
X0360900Y0228344D02*
X0356700Y0228344D01*
X0356700Y0229943D02*
X0360589Y0229943D01*
X0358991Y0231541D02*
X0356700Y0231541D01*
X0356398Y0233140D02*
X0357392Y0233140D01*
X0355794Y0234738D02*
X0354996Y0234738D01*
X0354195Y0236337D02*
X0353398Y0236337D01*
X0352597Y0237935D02*
X0351799Y0237935D01*
X0357602Y0241132D02*
X0373600Y0241132D01*
X0373600Y0239534D02*
X0359201Y0239534D01*
X0360799Y0237935D02*
X0373600Y0237935D01*
X0373600Y0236337D02*
X0362398Y0236337D01*
X0363996Y0234738D02*
X0373600Y0234738D01*
X0373600Y0233140D02*
X0365595Y0233140D01*
X0366646Y0231541D02*
X0373600Y0231541D01*
X0373600Y0229943D02*
X0366700Y0229943D01*
X0366700Y0228344D02*
X0373600Y0228344D01*
X0373600Y0226746D02*
X0366700Y0226746D01*
X0366700Y0225147D02*
X0373600Y0225147D01*
X0373600Y0223549D02*
X0366700Y0223549D01*
X0366700Y0221950D02*
X0373600Y0221950D01*
X0373600Y0220352D02*
X0366700Y0220352D01*
X0366700Y0218753D02*
X0373600Y0218753D01*
X0373600Y0217155D02*
X0366700Y0217155D01*
X0366700Y0215556D02*
X0373600Y0215556D01*
X0373600Y0213958D02*
X0366700Y0213958D01*
X0366700Y0212359D02*
X0373600Y0212359D01*
X0373600Y0210761D02*
X0366700Y0210761D01*
X0366700Y0209162D02*
X0373600Y0209162D01*
X0373600Y0207564D02*
X0366700Y0207564D01*
X0366700Y0205965D02*
X0373600Y0205965D01*
X0373600Y0204367D02*
X0366700Y0204367D01*
X0366700Y0202768D02*
X0373600Y0202768D01*
X0373600Y0201170D02*
X0366700Y0201170D01*
X0366700Y0199571D02*
X0373600Y0199571D01*
X0373600Y0197973D02*
X0366700Y0197973D01*
X0366700Y0196374D02*
X0373600Y0196374D01*
X0373600Y0194776D02*
X0366700Y0194776D01*
X0366700Y0193177D02*
X0373600Y0193177D01*
X0373600Y0191579D02*
X0366700Y0191579D01*
X0366700Y0189980D02*
X0373600Y0189980D01*
X0373600Y0188381D02*
X0366700Y0188381D01*
X0366700Y0186783D02*
X0373600Y0186783D01*
X0373600Y0185184D02*
X0366700Y0185184D01*
X0366700Y0183586D02*
X0373600Y0183586D01*
X0373600Y0181987D02*
X0366700Y0181987D01*
X0366700Y0180389D02*
X0373600Y0180389D01*
X0373600Y0178790D02*
X0366700Y0178790D01*
X0366700Y0177192D02*
X0373600Y0177192D01*
X0373600Y0175593D02*
X0366700Y0175593D01*
X0366700Y0173995D02*
X0373600Y0173995D01*
X0373600Y0172396D02*
X0366700Y0172396D01*
X0366700Y0170798D02*
X0373600Y0170798D01*
X0373600Y0169199D02*
X0366700Y0169199D01*
X0366700Y0167601D02*
X0373600Y0167601D01*
X0373600Y0166002D02*
X0366700Y0166002D01*
X0366700Y0164404D02*
X0373600Y0164404D01*
X0373600Y0162805D02*
X0366700Y0162805D01*
X0366700Y0161207D02*
X0373600Y0161207D01*
X0373600Y0159608D02*
X0366700Y0159608D01*
X0366700Y0158010D02*
X0373600Y0158010D01*
X0373600Y0156411D02*
X0366700Y0156411D01*
X0366700Y0154813D02*
X0373600Y0154813D01*
X0373600Y0153214D02*
X0366700Y0153214D01*
X0366700Y0151616D02*
X0373600Y0151616D01*
X0373600Y0150017D02*
X0366085Y0150017D01*
X0365443Y0149375D02*
X0365443Y0149375D01*
X0364487Y0148419D02*
X0373600Y0148419D01*
X0373600Y0146820D02*
X0362888Y0146820D01*
X0361290Y0145222D02*
X0373600Y0145222D01*
X0373600Y0143623D02*
X0359691Y0143623D01*
X0358093Y0142025D02*
X0373600Y0142025D01*
X0373600Y0140426D02*
X0356494Y0140426D01*
X0354896Y0138828D02*
X0373600Y0138828D01*
X0373600Y0137229D02*
X0353297Y0137229D01*
X0351698Y0135631D02*
X0373600Y0135631D01*
X0373600Y0134032D02*
X0350100Y0134032D01*
X0348501Y0132434D02*
X0373600Y0132434D01*
X0373600Y0130835D02*
X0346903Y0130835D01*
X0345304Y0129237D02*
X0373600Y0129237D01*
X0373600Y0127638D02*
X0343706Y0127638D01*
X0342107Y0126040D02*
X0373600Y0126040D01*
X0373600Y0124441D02*
X0340509Y0124441D01*
X0339258Y0123191D02*
X0339258Y0123191D01*
X0338910Y0122843D02*
X0373600Y0122843D01*
X0373600Y0121244D02*
X0249612Y0121244D01*
X0248013Y0119645D02*
X0261226Y0119645D01*
X0260645Y0119405D02*
X0258929Y0117689D01*
X0258000Y0115447D01*
X0258000Y0113020D01*
X0258929Y0110778D01*
X0260645Y0109062D01*
X0262887Y0108133D01*
X0265313Y0108133D01*
X0267555Y0109062D01*
X0269271Y0110778D01*
X0270200Y0113020D01*
X0270200Y0115447D01*
X0269271Y0117689D01*
X0267555Y0119405D01*
X0265313Y0120333D01*
X0262887Y0120333D01*
X0260645Y0119405D01*
X0259287Y0118047D02*
X0246415Y0118047D01*
X0244816Y0116448D02*
X0258415Y0116448D01*
X0258000Y0114850D02*
X0244600Y0114850D01*
X0244600Y0113251D02*
X0258000Y0113251D01*
X0258566Y0111653D02*
X0244034Y0111653D01*
X0242948Y0110054D02*
X0259652Y0110054D01*
X0262108Y0108456D02*
X0240492Y0108456D01*
X0236508Y0108456D02*
X0221092Y0108456D01*
X0220313Y0108133D02*
X0222555Y0109062D01*
X0224271Y0110778D01*
X0225200Y0113020D01*
X0225200Y0115447D01*
X0224271Y0117689D01*
X0222555Y0119405D01*
X0220313Y0120333D01*
X0217887Y0120333D01*
X0215645Y0119405D01*
X0213929Y0117689D01*
X0213000Y0115447D01*
X0213000Y0113020D01*
X0213929Y0110778D01*
X0215645Y0109062D01*
X0217887Y0108133D01*
X0220313Y0108133D01*
X0217108Y0108456D02*
X0204524Y0108456D01*
X0203700Y0106857D02*
X0315600Y0106857D01*
X0315600Y0105259D02*
X0203700Y0105259D01*
X0203228Y0103660D02*
X0315600Y0103660D01*
X0315600Y0102062D02*
X0311452Y0102062D01*
X0313697Y0100463D02*
X0315600Y0100463D01*
X0315600Y0098865D02*
X0314695Y0098865D01*
X0315200Y0097266D02*
X0315600Y0097266D01*
X0318800Y0095333D02*
X0318800Y0112333D01*
X0322062Y0114850D02*
X0322400Y0114850D01*
X0322815Y0116448D02*
X0314785Y0116448D01*
X0315200Y0114850D02*
X0315538Y0114850D01*
X0313913Y0118047D02*
X0323687Y0118047D01*
X0325626Y0119645D02*
X0311974Y0119645D01*
X0306226Y0119645D02*
X0286374Y0119645D01*
X0286955Y0119405D02*
X0284713Y0120333D01*
X0282287Y0120333D01*
X0280045Y0119405D01*
X0278329Y0117689D01*
X0277400Y0115447D01*
X0277400Y0113020D01*
X0278329Y0110778D01*
X0280045Y0109062D01*
X0282287Y0108133D01*
X0284713Y0108133D01*
X0286955Y0109062D01*
X0288671Y0110778D01*
X0289600Y0113020D01*
X0289600Y0115447D01*
X0288671Y0117689D01*
X0286955Y0119405D01*
X0288313Y0118047D02*
X0304287Y0118047D01*
X0303415Y0116448D02*
X0289185Y0116448D01*
X0289600Y0114850D02*
X0303000Y0114850D01*
X0303000Y0113251D02*
X0289600Y0113251D01*
X0289034Y0111653D02*
X0303566Y0111653D01*
X0304652Y0110054D02*
X0287948Y0110054D01*
X0285492Y0108456D02*
X0307108Y0108456D01*
X0311092Y0108456D02*
X0315600Y0108456D01*
X0315321Y0110054D02*
X0313548Y0110054D01*
X0314634Y0111653D02*
X0314714Y0111653D01*
X0322279Y0110054D02*
X0324052Y0110054D01*
X0322966Y0111653D02*
X0322886Y0111653D01*
X0322000Y0108456D02*
X0326508Y0108456D01*
X0330492Y0108456D02*
X0352108Y0108456D01*
X0352887Y0108133D02*
X0355313Y0108133D01*
X0357555Y0109062D01*
X0359271Y0110778D01*
X0360200Y0113020D01*
X0360200Y0115447D01*
X0359271Y0117689D01*
X0357555Y0119405D01*
X0355313Y0120333D01*
X0352887Y0120333D01*
X0350645Y0119405D01*
X0348929Y0117689D01*
X0348000Y0115447D01*
X0348000Y0113020D01*
X0348929Y0110778D01*
X0350645Y0109062D01*
X0352887Y0108133D01*
X0356092Y0108456D02*
X0373600Y0108456D01*
X0373600Y0110054D02*
X0358548Y0110054D01*
X0359634Y0111653D02*
X0373600Y0111653D01*
X0373600Y0113251D02*
X0360200Y0113251D01*
X0360200Y0114850D02*
X0373600Y0114850D01*
X0373600Y0116448D02*
X0359785Y0116448D01*
X0358913Y0118047D02*
X0373600Y0118047D01*
X0373600Y0119645D02*
X0356974Y0119645D01*
X0351226Y0119645D02*
X0331374Y0119645D01*
X0333313Y0118047D02*
X0349287Y0118047D01*
X0348415Y0116448D02*
X0334185Y0116448D01*
X0334600Y0114850D02*
X0348000Y0114850D01*
X0348000Y0113251D02*
X0334600Y0113251D01*
X0334034Y0111653D02*
X0348566Y0111653D01*
X0349652Y0110054D02*
X0332948Y0110054D01*
X0322000Y0106857D02*
X0373600Y0106857D01*
X0373600Y0105259D02*
X0322000Y0105259D01*
X0322000Y0103660D02*
X0373600Y0103660D01*
X0373600Y0102062D02*
X0356452Y0102062D01*
X0357555Y0101605D02*
X0355313Y0102533D01*
X0352887Y0102533D01*
X0350645Y0101605D01*
X0348929Y0099889D01*
X0348000Y0097647D01*
X0348000Y0095220D01*
X0348929Y0092978D01*
X0350645Y0091262D01*
X0352887Y0090333D01*
X0355313Y0090333D01*
X0357555Y0091262D01*
X0359271Y0092978D01*
X0360200Y0095220D01*
X0360200Y0097647D01*
X0359271Y0099889D01*
X0357555Y0101605D01*
X0358697Y0100463D02*
X0373600Y0100463D01*
X0373600Y0098865D02*
X0359695Y0098865D01*
X0360200Y0097266D02*
X0373600Y0097266D01*
X0373600Y0095668D02*
X0360200Y0095668D01*
X0359723Y0094069D02*
X0373600Y0094069D01*
X0373600Y0092471D02*
X0358764Y0092471D01*
X0356615Y0090872D02*
X0373600Y0090872D01*
X0373600Y0089274D02*
X0317266Y0089274D01*
X0318864Y0090872D02*
X0351585Y0090872D01*
X0349436Y0092471D02*
X0332316Y0092471D01*
X0332083Y0092238D02*
X0332695Y0092850D01*
X0333204Y0093551D01*
X0333597Y0094322D01*
X0333865Y0095145D01*
X0334000Y0096000D01*
X0334000Y0096233D01*
X0328700Y0096233D01*
X0328700Y0090933D01*
X0328933Y0090933D01*
X0329788Y0091069D01*
X0330611Y0091336D01*
X0331383Y0091729D01*
X0332083Y0092238D01*
X0333468Y0094069D02*
X0348477Y0094069D01*
X0348000Y0095668D02*
X0333947Y0095668D01*
X0334000Y0096633D02*
X0334000Y0096866D01*
X0333865Y0097721D01*
X0333597Y0098545D01*
X0333204Y0099316D01*
X0332695Y0100016D01*
X0332083Y0100628D01*
X0331383Y0101137D01*
X0330611Y0101530D01*
X0329788Y0101798D01*
X0328933Y0101933D01*
X0328700Y0101933D01*
X0328700Y0096633D01*
X0334000Y0096633D01*
X0333937Y0097266D02*
X0348000Y0097266D01*
X0348505Y0098865D02*
X0333434Y0098865D01*
X0332248Y0100463D02*
X0349503Y0100463D01*
X0351748Y0102062D02*
X0322000Y0102062D01*
X0322000Y0100463D02*
X0324752Y0100463D01*
X0324917Y0100628D02*
X0324305Y0100016D01*
X0323796Y0099316D01*
X0323403Y0098545D01*
X0323135Y0097721D01*
X0323000Y0096866D01*
X0323000Y0096633D01*
X0328300Y0096633D01*
X0328300Y0096233D01*
X0328700Y0096233D01*
X0328700Y0096633D01*
X0328300Y0096633D01*
X0328300Y0101933D01*
X0328067Y0101933D01*
X0327212Y0101798D01*
X0326389Y0101530D01*
X0325617Y0101137D01*
X0324917Y0100628D01*
X0323566Y0098865D02*
X0322000Y0098865D01*
X0322000Y0097266D02*
X0323063Y0097266D01*
X0323000Y0096233D02*
X0323000Y0096000D01*
X0323135Y0095145D01*
X0323403Y0094322D01*
X0323796Y0093551D01*
X0324305Y0092850D01*
X0324917Y0092238D01*
X0325617Y0091729D01*
X0326389Y0091336D01*
X0327212Y0091069D01*
X0328067Y0090933D01*
X0328300Y0090933D01*
X0328300Y0096233D01*
X0323000Y0096233D01*
X0323053Y0095668D02*
X0322000Y0095668D01*
X0321740Y0094069D02*
X0323532Y0094069D01*
X0324684Y0092471D02*
X0320463Y0092471D01*
X0318800Y0095333D02*
X0308800Y0085333D01*
X0230800Y0085333D01*
X0230300Y0085833D01*
X0143800Y0085833D01*
X0143800Y0080833D01*
X0138300Y0075333D01*
X0138300Y0035833D01*
X0127800Y0035833D01*
X0131331Y0031727D02*
X0182380Y0031727D01*
X0180782Y0033326D02*
X0156154Y0033326D01*
X0157565Y0034924D02*
X0179183Y0034924D01*
X0177585Y0036523D02*
X0158227Y0036523D01*
X0158300Y0038121D02*
X0175986Y0038121D01*
X0174388Y0039720D02*
X0157988Y0039720D01*
X0157176Y0041318D02*
X0172789Y0041318D01*
X0171191Y0042917D02*
X0155222Y0042917D01*
X0156493Y0044515D02*
X0169592Y0044515D01*
X0167994Y0046114D02*
X0157404Y0046114D01*
X0157482Y0049311D02*
X0164797Y0049311D01*
X0166395Y0047712D02*
X0149600Y0047712D01*
X0156669Y0050910D02*
X0163198Y0050910D01*
X0161600Y0052508D02*
X0154659Y0052508D01*
X0156934Y0054107D02*
X0160001Y0054107D01*
X0165855Y0057304D02*
X0270739Y0057304D01*
X0269140Y0058902D02*
X0164257Y0058902D01*
X0162658Y0060501D02*
X0267542Y0060501D01*
X0265943Y0062099D02*
X0156395Y0062099D01*
X0160800Y0057833D02*
X0149300Y0057833D01*
X0142205Y0062099D02*
X0141500Y0062099D01*
X0141500Y0063698D02*
X0264345Y0063698D01*
X0259175Y0065296D02*
X0141500Y0065296D01*
X0141500Y0066895D02*
X0257576Y0066895D01*
X0255978Y0068493D02*
X0141500Y0068493D01*
X0141500Y0070092D02*
X0255700Y0070092D01*
X0255700Y0071690D02*
X0141500Y0071690D01*
X0141500Y0073289D02*
X0255700Y0073289D01*
X0255700Y0074887D02*
X0142379Y0074887D01*
X0143978Y0076486D02*
X0256290Y0076486D01*
X0257889Y0078084D02*
X0145576Y0078084D01*
X0146787Y0079683D02*
X0259487Y0079683D01*
X0269113Y0079683D02*
X0279487Y0079683D01*
X0280738Y0080933D02*
X0275700Y0075896D01*
X0275700Y0068771D01*
X0280738Y0063733D01*
X0287862Y0063733D01*
X0292862Y0068733D01*
X0334309Y0068733D01*
X0338200Y0064842D01*
X0338200Y0059595D01*
X0337108Y0059143D01*
X0335325Y0057360D01*
X0334361Y0055031D01*
X0334361Y0044636D01*
X0335325Y0042307D01*
X0337108Y0040524D01*
X0339437Y0039559D01*
X0341958Y0039559D01*
X0344287Y0040524D01*
X0346070Y0042307D01*
X0347035Y0044636D01*
X0347035Y0055031D01*
X0346070Y0057360D01*
X0345400Y0058030D01*
X0345400Y0067049D01*
X0344852Y0068373D01*
X0343839Y0069385D01*
X0337839Y0075385D01*
X0336516Y0075933D01*
X0292862Y0075933D01*
X0287862Y0080933D01*
X0280738Y0080933D01*
X0277889Y0078084D02*
X0270711Y0078084D01*
X0272310Y0076486D02*
X0276290Y0076486D01*
X0275700Y0074887D02*
X0272900Y0074887D01*
X0272900Y0073289D02*
X0275700Y0073289D01*
X0275700Y0071690D02*
X0272900Y0071690D01*
X0272900Y0070092D02*
X0275700Y0070092D01*
X0275978Y0068493D02*
X0272622Y0068493D01*
X0271330Y0066895D02*
X0277576Y0066895D01*
X0279175Y0065296D02*
X0272928Y0065296D01*
X0274527Y0063698D02*
X0311691Y0063698D01*
X0311526Y0062099D02*
X0276125Y0062099D01*
X0277724Y0060501D02*
X0311641Y0060501D01*
X0312303Y0058902D02*
X0279322Y0058902D01*
X0280921Y0057304D02*
X0311974Y0057304D01*
X0310376Y0055705D02*
X0282519Y0055705D01*
X0284118Y0054107D02*
X0308777Y0054107D01*
X0307179Y0052508D02*
X0285716Y0052508D01*
X0287315Y0050910D02*
X0305580Y0050910D01*
X0303982Y0049311D02*
X0288585Y0049311D01*
X0288900Y0047712D02*
X0302383Y0047712D01*
X0300785Y0046114D02*
X0289673Y0046114D01*
X0290356Y0044515D02*
X0299186Y0044515D01*
X0304573Y0039720D02*
X0308595Y0039720D01*
X0306997Y0038121D02*
X0302975Y0038121D01*
X0305398Y0036523D02*
X0290500Y0036523D01*
X0280100Y0036523D02*
X0279797Y0036523D01*
X0279900Y0038121D02*
X0280100Y0038121D01*
X0280100Y0039720D02*
X0279900Y0039720D01*
X0279900Y0041318D02*
X0280100Y0041318D01*
X0280100Y0042917D02*
X0279900Y0042917D01*
X0279688Y0044515D02*
X0280244Y0044515D01*
X0280927Y0046114D02*
X0278820Y0046114D01*
X0280330Y0047712D02*
X0275794Y0047712D01*
X0275400Y0047712D02*
X0275200Y0047712D01*
X0275200Y0047733D02*
X0274938Y0047733D01*
X0274223Y0047620D01*
X0273534Y0047396D01*
X0272889Y0047068D01*
X0272303Y0046642D01*
X0271791Y0046130D01*
X0271366Y0045544D01*
X0271037Y0044899D01*
X0270813Y0044210D01*
X0270700Y0043495D01*
X0270700Y0040433D01*
X0275200Y0040433D01*
X0275200Y0047733D01*
X0274806Y0047712D02*
X0217200Y0047712D01*
X0217200Y0046114D02*
X0271780Y0046114D01*
X0270912Y0044515D02*
X0216559Y0044515D01*
X0217200Y0046063D02*
X0215845Y0042792D01*
X0213341Y0040288D01*
X0210070Y0038933D01*
X0206530Y0038933D01*
X0203259Y0040288D01*
X0200755Y0042792D01*
X0199400Y0046063D01*
X0199400Y0049604D01*
X0200755Y0052875D01*
X0203259Y0055378D01*
X0206530Y0056733D01*
X0210070Y0056733D01*
X0213341Y0055378D01*
X0215845Y0052875D01*
X0217200Y0049604D01*
X0217200Y0046063D01*
X0217200Y0049311D02*
X0278731Y0049311D01*
X0277133Y0050910D02*
X0216659Y0050910D01*
X0215997Y0052508D02*
X0275534Y0052508D01*
X0273936Y0054107D02*
X0214613Y0054107D01*
X0212553Y0055705D02*
X0272337Y0055705D01*
X0275200Y0046114D02*
X0275400Y0046114D01*
X0275400Y0044515D02*
X0275200Y0044515D01*
X0275200Y0042917D02*
X0275400Y0042917D01*
X0275400Y0041318D02*
X0275200Y0041318D01*
X0270700Y0041318D02*
X0214372Y0041318D01*
X0215897Y0042917D02*
X0270700Y0042917D01*
X0270700Y0039720D02*
X0211969Y0039720D01*
X0204631Y0039720D02*
X0183439Y0039720D01*
X0185037Y0038121D02*
X0270700Y0038121D01*
X0270803Y0036523D02*
X0186636Y0036523D01*
X0188234Y0034924D02*
X0251562Y0034924D01*
X0253800Y0031333D02*
X0187300Y0031333D01*
X0160800Y0057833D01*
X0167454Y0055705D02*
X0204047Y0055705D01*
X0201987Y0054107D02*
X0169052Y0054107D01*
X0170651Y0052508D02*
X0200603Y0052508D01*
X0199941Y0050910D02*
X0172249Y0050910D01*
X0173848Y0049311D02*
X0199400Y0049311D01*
X0199400Y0047712D02*
X0175446Y0047712D01*
X0177045Y0046114D02*
X0199400Y0046114D01*
X0200041Y0044515D02*
X0178643Y0044515D01*
X0180242Y0042917D02*
X0200703Y0042917D01*
X0202228Y0041318D02*
X0181840Y0041318D01*
X0183979Y0030129D02*
X0005500Y0030129D01*
X0005500Y0031727D02*
X0124269Y0031727D01*
X0122671Y0033326D02*
X0005500Y0033326D01*
X0005500Y0034924D02*
X0122400Y0034924D01*
X0122400Y0036523D02*
X0005500Y0036523D01*
X0005500Y0038121D02*
X0122451Y0038121D01*
X0124050Y0039720D02*
X0005500Y0039720D01*
X0005500Y0041318D02*
X0125527Y0041318D01*
X0127600Y0041318D02*
X0128000Y0041318D01*
X0128000Y0042917D02*
X0127600Y0042917D01*
X0127600Y0044515D02*
X0128000Y0044515D01*
X0128000Y0045633D02*
X0128000Y0046033D01*
X0132600Y0046033D01*
X0132600Y0047822D01*
X0129988Y0050433D01*
X0130037Y0050433D01*
X0132650Y0053046D01*
X0133443Y0053375D01*
X0134258Y0054191D01*
X0134700Y0055256D01*
X0134700Y0056410D01*
X0134258Y0057476D01*
X0133443Y0058292D01*
X0132650Y0058620D01*
X0130437Y0060833D01*
X0133200Y0063597D01*
X0133200Y0068070D01*
X0130437Y0070833D01*
X0133200Y0073597D01*
X0133200Y0078070D01*
X0130437Y0080833D01*
X0132237Y0082633D01*
X0140600Y0082633D01*
X0140600Y0082159D01*
X0135587Y0077146D01*
X0135100Y0075970D01*
X0135100Y0074697D01*
X0135100Y0039033D01*
X0132237Y0039033D01*
X0130037Y0041233D01*
X0129988Y0041233D01*
X0132600Y0043845D01*
X0132600Y0045633D01*
X0128000Y0045633D01*
X0131672Y0042917D02*
X0135100Y0042917D01*
X0135100Y0044515D02*
X0132600Y0044515D01*
X0132600Y0046114D02*
X0135100Y0046114D01*
X0135100Y0047712D02*
X0132600Y0047712D01*
X0131111Y0049311D02*
X0135100Y0049311D01*
X0135100Y0050910D02*
X0130513Y0050910D01*
X0132111Y0052508D02*
X0135100Y0052508D01*
X0135100Y0054107D02*
X0134174Y0054107D01*
X0134700Y0055705D02*
X0135100Y0055705D01*
X0135100Y0057304D02*
X0134330Y0057304D01*
X0135100Y0058902D02*
X0132368Y0058902D01*
X0130769Y0060501D02*
X0135100Y0060501D01*
X0135100Y0062099D02*
X0131702Y0062099D01*
X0133200Y0063698D02*
X0135100Y0063698D01*
X0135100Y0065296D02*
X0133200Y0065296D01*
X0133200Y0066895D02*
X0135100Y0066895D01*
X0135100Y0068493D02*
X0132777Y0068493D01*
X0131178Y0070092D02*
X0135100Y0070092D01*
X0135100Y0071690D02*
X0131294Y0071690D01*
X0132892Y0073289D02*
X0135100Y0073289D01*
X0135100Y0074887D02*
X0133200Y0074887D01*
X0133200Y0076486D02*
X0135314Y0076486D01*
X0136525Y0078084D02*
X0133186Y0078084D01*
X0131587Y0079683D02*
X0138124Y0079683D01*
X0139722Y0081281D02*
X0130885Y0081281D01*
X0124715Y0081281D02*
X0073500Y0081281D01*
X0073500Y0079683D02*
X0115371Y0079683D01*
X0114103Y0078084D02*
X0073246Y0078084D01*
X0071978Y0076486D02*
X0113714Y0076486D01*
X0113977Y0074887D02*
X0070379Y0074887D01*
X0068781Y0073289D02*
X0114600Y0073289D01*
X0114600Y0071690D02*
X0067182Y0071690D01*
X0065584Y0070092D02*
X0114600Y0070092D01*
X0114600Y0068493D02*
X0063985Y0068493D01*
X0063800Y0066895D02*
X0114600Y0066895D01*
X0114600Y0065296D02*
X0063334Y0065296D01*
X0061735Y0063698D02*
X0114600Y0063698D01*
X0114600Y0062099D02*
X0060757Y0062099D01*
X0060623Y0062233D02*
X0058800Y0062233D01*
X0056977Y0062233D01*
X0054400Y0059656D01*
X0054400Y0057833D01*
X0054400Y0056011D01*
X0056977Y0053433D01*
X0058800Y0053433D01*
X0058800Y0057833D01*
X0058800Y0053433D01*
X0060623Y0053433D01*
X0063200Y0056011D01*
X0063200Y0057833D01*
X0058800Y0057833D01*
X0058800Y0057833D01*
X0054400Y0057833D01*
X0058800Y0057833D01*
X0058800Y0057833D01*
X0058800Y0057833D01*
X0063200Y0057833D01*
X0063200Y0059656D01*
X0060623Y0062233D01*
X0058800Y0062233D02*
X0058800Y0057833D01*
X0058800Y0062233D01*
X0058800Y0062099D02*
X0058800Y0062099D01*
X0058800Y0060501D02*
X0058800Y0060501D01*
X0058800Y0058902D02*
X0058800Y0058902D01*
X0058800Y0057833D02*
X0058800Y0057833D01*
X0058800Y0057304D02*
X0058800Y0057304D01*
X0058800Y0055705D02*
X0058800Y0055705D01*
X0058800Y0054107D02*
X0058800Y0054107D01*
X0061296Y0054107D02*
X0114844Y0054107D01*
X0114600Y0055705D02*
X0062894Y0055705D01*
X0063200Y0057304D02*
X0114600Y0057304D01*
X0114600Y0058902D02*
X0063200Y0058902D01*
X0062355Y0060501D02*
X0114600Y0060501D01*
X0121000Y0060501D02*
X0124831Y0060501D01*
X0123897Y0062099D02*
X0121000Y0062099D01*
X0121000Y0063698D02*
X0122400Y0063698D01*
X0122400Y0065296D02*
X0121000Y0065296D01*
X0121000Y0066895D02*
X0122400Y0066895D01*
X0122823Y0068493D02*
X0121000Y0068493D01*
X0121000Y0070092D02*
X0124422Y0070092D01*
X0124306Y0071690D02*
X0121000Y0071690D01*
X0121000Y0073289D02*
X0122708Y0073289D01*
X0122400Y0074887D02*
X0121623Y0074887D01*
X0121886Y0076486D02*
X0122400Y0076486D01*
X0122414Y0078084D02*
X0121497Y0078084D01*
X0120229Y0079683D02*
X0124013Y0079683D01*
X0123117Y0082880D02*
X0073500Y0082880D01*
X0073516Y0084478D02*
X0122400Y0084478D01*
X0122400Y0086077D02*
X0075114Y0086077D01*
X0075300Y0087675D02*
X0122400Y0087675D01*
X0123604Y0089274D02*
X0075300Y0089274D01*
X0074832Y0090872D02*
X0124200Y0090872D01*
X0124200Y0092471D02*
X0073234Y0092471D01*
X0076561Y0094069D02*
X0124200Y0094069D01*
X0124200Y0095668D02*
X0077488Y0095668D01*
X0077500Y0097266D02*
X0124200Y0097266D01*
X0124200Y0098865D02*
X0077500Y0098865D01*
X0077500Y0100463D02*
X0124200Y0100463D01*
X0124200Y0102062D02*
X0077500Y0102062D01*
X0077500Y0103660D02*
X0122882Y0103660D01*
X0121283Y0105259D02*
X0077500Y0105259D01*
X0077500Y0106857D02*
X0119685Y0106857D01*
X0118086Y0108456D02*
X0077500Y0108456D01*
X0077500Y0110054D02*
X0116640Y0110054D01*
X0116200Y0111653D02*
X0077500Y0111653D01*
X0077500Y0113251D02*
X0116200Y0113251D01*
X0116200Y0114850D02*
X0077500Y0114850D01*
X0077500Y0116448D02*
X0116200Y0116448D01*
X0116200Y0118047D02*
X0077500Y0118047D01*
X0077500Y0119645D02*
X0116200Y0119645D01*
X0116200Y0121244D02*
X0077500Y0121244D01*
X0077500Y0122843D02*
X0116200Y0122843D01*
X0116200Y0124441D02*
X0077500Y0124441D01*
X0077500Y0126040D02*
X0116200Y0126040D01*
X0116200Y0127638D02*
X0077500Y0127638D01*
X0077500Y0129237D02*
X0116200Y0129237D01*
X0116200Y0130835D02*
X0077500Y0130835D01*
X0077500Y0132434D02*
X0116200Y0132434D01*
X0116200Y0134032D02*
X0077500Y0134032D01*
X0077500Y0135631D02*
X0116200Y0135631D01*
X0116200Y0137229D02*
X0077500Y0137229D01*
X0077500Y0138828D02*
X0116200Y0138828D01*
X0116200Y0140426D02*
X0077311Y0140426D01*
X0076134Y0142025D02*
X0116200Y0142025D01*
X0116200Y0143623D02*
X0067081Y0143623D01*
X0064564Y0145222D02*
X0116200Y0145222D01*
X0116200Y0146820D02*
X0064312Y0146820D01*
X0065911Y0148419D02*
X0116200Y0148419D01*
X0116200Y0150017D02*
X0067509Y0150017D01*
X0069108Y0151616D02*
X0116200Y0151616D01*
X0116200Y0153214D02*
X0070706Y0153214D01*
X0072305Y0154813D02*
X0116200Y0154813D01*
X0116200Y0156411D02*
X0073903Y0156411D01*
X0075502Y0158010D02*
X0116200Y0158010D01*
X0116200Y0159608D02*
X0077100Y0159608D01*
X0078699Y0161207D02*
X0116200Y0161207D01*
X0116200Y0162805D02*
X0080297Y0162805D01*
X0081896Y0164404D02*
X0116200Y0164404D01*
X0116200Y0166002D02*
X0083494Y0166002D01*
X0085093Y0167601D02*
X0116200Y0167601D01*
X0116200Y0169199D02*
X0086691Y0169199D01*
X0088290Y0170798D02*
X0116200Y0170798D01*
X0116200Y0172396D02*
X0089889Y0172396D01*
X0091487Y0173995D02*
X0116200Y0173995D01*
X0116200Y0175593D02*
X0093086Y0175593D01*
X0094684Y0177192D02*
X0116200Y0177192D01*
X0116200Y0178790D02*
X0096283Y0178790D01*
X0097881Y0180389D02*
X0116200Y0180389D01*
X0116200Y0181987D02*
X0099480Y0181987D01*
X0101078Y0183586D02*
X0112269Y0183586D01*
X0123400Y0185060D02*
X0123400Y0213597D01*
X0126063Y0210933D01*
X0126112Y0210933D01*
X0123500Y0208322D01*
X0123500Y0206533D01*
X0128100Y0206533D01*
X0128100Y0206133D01*
X0128500Y0206133D01*
X0128500Y0201533D01*
X0130288Y0201533D01*
X0133100Y0204345D01*
X0133100Y0206133D01*
X0128500Y0206133D01*
X0128500Y0206533D01*
X0133100Y0206533D01*
X0133100Y0208322D01*
X0130488Y0210933D01*
X0130537Y0210933D01*
X0133700Y0214097D01*
X0133700Y0218570D01*
X0130937Y0221333D01*
X0133700Y0224097D01*
X0133700Y0228570D01*
X0130937Y0231333D01*
X0131568Y0231964D01*
X0133900Y0229632D01*
X0133900Y0137535D01*
X0131813Y0135447D01*
X0131427Y0135833D01*
X0132971Y0137378D01*
X0133900Y0139620D01*
X0133900Y0142047D01*
X0132971Y0144289D01*
X0131427Y0145833D01*
X0132971Y0147378D01*
X0133900Y0149620D01*
X0133900Y0152047D01*
X0132971Y0154289D01*
X0131427Y0155833D01*
X0132971Y0157378D01*
X0133900Y0159620D01*
X0133900Y0162047D01*
X0132971Y0164289D01*
X0131255Y0166005D01*
X0130781Y0166201D01*
X0131383Y0166638D01*
X0131995Y0167250D01*
X0132504Y0167951D01*
X0132897Y0168722D01*
X0133165Y0169545D01*
X0133300Y0170400D01*
X0133300Y0170633D01*
X0128000Y0170633D01*
X0128000Y0171033D01*
X0133300Y0171033D01*
X0133300Y0171266D01*
X0133165Y0172121D01*
X0132897Y0172945D01*
X0132504Y0173716D01*
X0131995Y0174416D01*
X0131383Y0175028D01*
X0130781Y0175466D01*
X0131255Y0175662D01*
X0132971Y0177378D01*
X0133900Y0179620D01*
X0133900Y0182047D01*
X0132971Y0184289D01*
X0131255Y0186005D01*
X0129013Y0186933D01*
X0126587Y0186933D01*
X0124345Y0186005D01*
X0123400Y0185060D01*
X0123400Y0185184D02*
X0123524Y0185184D01*
X0123400Y0186783D02*
X0126224Y0186783D01*
X0129376Y0186783D02*
X0133900Y0186783D01*
X0133900Y0188381D02*
X0123400Y0188381D01*
X0123400Y0189980D02*
X0133900Y0189980D01*
X0133900Y0191579D02*
X0123400Y0191579D01*
X0123400Y0193177D02*
X0133900Y0193177D01*
X0133900Y0194776D02*
X0123400Y0194776D01*
X0123400Y0196374D02*
X0133900Y0196374D01*
X0133900Y0197973D02*
X0123400Y0197973D01*
X0123400Y0199571D02*
X0133900Y0199571D01*
X0133900Y0201170D02*
X0123400Y0201170D01*
X0123400Y0202768D02*
X0125077Y0202768D01*
X0126312Y0201533D02*
X0123500Y0204345D01*
X0123500Y0206133D01*
X0128100Y0206133D01*
X0128100Y0201533D01*
X0126312Y0201533D01*
X0128100Y0202768D02*
X0128500Y0202768D01*
X0128500Y0204367D02*
X0128100Y0204367D01*
X0128100Y0205965D02*
X0128500Y0205965D01*
X0131523Y0202768D02*
X0133900Y0202768D01*
X0133900Y0204367D02*
X0133100Y0204367D01*
X0133100Y0205965D02*
X0133900Y0205965D01*
X0133900Y0207564D02*
X0133100Y0207564D01*
X0133900Y0209162D02*
X0132259Y0209162D01*
X0130661Y0210761D02*
X0133900Y0210761D01*
X0133900Y0212359D02*
X0131963Y0212359D01*
X0133561Y0213958D02*
X0133900Y0213958D01*
X0133900Y0215556D02*
X0133700Y0215556D01*
X0133700Y0217155D02*
X0133900Y0217155D01*
X0133900Y0218753D02*
X0133517Y0218753D01*
X0133900Y0220352D02*
X0131918Y0220352D01*
X0131554Y0221950D02*
X0133900Y0221950D01*
X0133900Y0223549D02*
X0133152Y0223549D01*
X0133700Y0225147D02*
X0133900Y0225147D01*
X0133900Y0226746D02*
X0133700Y0226746D01*
X0133700Y0228344D02*
X0133900Y0228344D01*
X0133589Y0229943D02*
X0132327Y0229943D01*
X0131991Y0231541D02*
X0131145Y0231541D01*
X0136700Y0235035D02*
X0133700Y0238035D01*
X0133700Y0238570D01*
X0130537Y0241733D01*
X0130488Y0241733D01*
X0133100Y0244345D01*
X0133100Y0246133D01*
X0128500Y0246133D01*
X0128500Y0246533D01*
X0133100Y0246533D01*
X0133100Y0248322D01*
X0130488Y0250933D01*
X0130537Y0250933D01*
X0131837Y0252233D01*
X0136700Y0252233D01*
X0136700Y0235035D01*
X0136700Y0236337D02*
X0135398Y0236337D01*
X0136700Y0237935D02*
X0133799Y0237935D01*
X0132736Y0239534D02*
X0136700Y0239534D01*
X0136700Y0241132D02*
X0131138Y0241132D01*
X0131486Y0242731D02*
X0136700Y0242731D01*
X0136700Y0244329D02*
X0133084Y0244329D01*
X0133100Y0245928D02*
X0136700Y0245928D01*
X0136700Y0247526D02*
X0133100Y0247526D01*
X0132297Y0249125D02*
X0136700Y0249125D01*
X0136700Y0250723D02*
X0130698Y0250723D01*
X0128100Y0246533D02*
X0123591Y0246533D01*
X0123400Y0246342D01*
X0123400Y0239070D01*
X0126063Y0241733D01*
X0126112Y0241733D01*
X0123500Y0244345D01*
X0123500Y0246133D01*
X0128100Y0246133D01*
X0128100Y0246533D01*
X0123500Y0245928D02*
X0123400Y0245928D01*
X0123400Y0244329D02*
X0123516Y0244329D01*
X0123400Y0242731D02*
X0125114Y0242731D01*
X0125462Y0241132D02*
X0123400Y0241132D01*
X0123400Y0239534D02*
X0123864Y0239534D01*
X0139700Y0224842D02*
X0140248Y0224294D01*
X0141261Y0223281D01*
X0142584Y0222733D01*
X0150773Y0222733D01*
X0152345Y0221162D01*
X0154587Y0220233D01*
X0157013Y0220233D01*
X0159255Y0221162D01*
X0160800Y0222707D01*
X0162345Y0221162D01*
X0164587Y0220233D01*
X0167013Y0220233D01*
X0169255Y0221162D01*
X0170800Y0222707D01*
X0172273Y0221233D01*
X0170223Y0221233D01*
X0169157Y0220792D01*
X0168341Y0219976D01*
X0158841Y0210476D01*
X0158400Y0209410D01*
X0158400Y0145856D01*
X0158841Y0144791D01*
X0159657Y0143975D01*
X0187630Y0116002D01*
X0187400Y0115447D01*
X0187400Y0113020D01*
X0188329Y0110778D01*
X0190045Y0109062D01*
X0192045Y0108233D01*
X0175555Y0108233D01*
X0177555Y0109062D01*
X0179271Y0110778D01*
X0180200Y0113020D01*
X0180200Y0115447D01*
X0179271Y0117689D01*
X0177555Y0119405D01*
X0175313Y0120333D01*
X0172887Y0120333D01*
X0170645Y0119405D01*
X0168929Y0117689D01*
X0168000Y0115447D01*
X0168000Y0113735D01*
X0159443Y0122292D01*
X0158377Y0122733D01*
X0157223Y0122733D01*
X0153501Y0122733D01*
X0143700Y0132535D01*
X0143700Y0137455D01*
X0144264Y0138019D01*
X0144886Y0139521D01*
X0144886Y0141146D01*
X0144264Y0142648D01*
X0143114Y0143797D01*
X0141613Y0144419D01*
X0139987Y0144419D01*
X0139700Y0144300D01*
X0139700Y0224842D01*
X0139700Y0223549D02*
X0140993Y0223549D01*
X0139700Y0221950D02*
X0151556Y0221950D01*
X0154301Y0220352D02*
X0139700Y0220352D01*
X0139700Y0218753D02*
X0167119Y0218753D01*
X0167299Y0220352D02*
X0168717Y0220352D01*
X0170044Y0221950D02*
X0171556Y0221950D01*
X0164301Y0220352D02*
X0157299Y0220352D01*
X0160044Y0221950D02*
X0161556Y0221950D01*
X0165520Y0217155D02*
X0139700Y0217155D01*
X0139700Y0215556D02*
X0163922Y0215556D01*
X0162323Y0213958D02*
X0139700Y0213958D01*
X0139700Y0212359D02*
X0160725Y0212359D01*
X0159126Y0210761D02*
X0139700Y0210761D01*
X0139700Y0209162D02*
X0144802Y0209162D01*
X0145045Y0209405D02*
X0143329Y0207689D01*
X0142400Y0205447D01*
X0142400Y0203020D01*
X0143329Y0200778D01*
X0145045Y0199062D01*
X0147287Y0198133D01*
X0149713Y0198133D01*
X0151955Y0199062D01*
X0153671Y0200778D01*
X0154600Y0203020D01*
X0154600Y0205447D01*
X0153671Y0207689D01*
X0151955Y0209405D01*
X0149713Y0210333D01*
X0147287Y0210333D01*
X0145045Y0209405D01*
X0143277Y0207564D02*
X0139700Y0207564D01*
X0139700Y0205965D02*
X0142615Y0205965D01*
X0142400Y0204367D02*
X0139700Y0204367D01*
X0139700Y0202768D02*
X0142504Y0202768D01*
X0143166Y0201170D02*
X0139700Y0201170D01*
X0139700Y0199571D02*
X0144536Y0199571D01*
X0139700Y0197973D02*
X0158400Y0197973D01*
X0158400Y0199571D02*
X0152464Y0199571D01*
X0153834Y0201170D02*
X0158400Y0201170D01*
X0158400Y0202768D02*
X0154496Y0202768D01*
X0154600Y0204367D02*
X0158400Y0204367D01*
X0158400Y0205965D02*
X0154385Y0205965D01*
X0153723Y0207564D02*
X0158400Y0207564D01*
X0158400Y0209162D02*
X0152198Y0209162D01*
X0158400Y0196374D02*
X0139700Y0196374D01*
X0139700Y0194776D02*
X0158400Y0194776D01*
X0158400Y0193177D02*
X0139700Y0193177D01*
X0139700Y0191579D02*
X0146537Y0191579D01*
X0146389Y0191530D02*
X0145617Y0191137D01*
X0144917Y0190628D01*
X0144305Y0190016D01*
X0143796Y0189316D01*
X0143403Y0188545D01*
X0143135Y0187721D01*
X0143000Y0186866D01*
X0143000Y0186633D01*
X0148300Y0186633D01*
X0148300Y0186233D01*
X0148700Y0186233D01*
X0148700Y0180933D01*
X0148933Y0180933D01*
X0149788Y0181069D01*
X0150611Y0181336D01*
X0151383Y0181729D01*
X0152083Y0182238D01*
X0152695Y0182850D01*
X0153204Y0183551D01*
X0153597Y0184322D01*
X0153865Y0185145D01*
X0154000Y0186000D01*
X0154000Y0186233D01*
X0148700Y0186233D01*
X0148700Y0186633D01*
X0154000Y0186633D01*
X0154000Y0186866D01*
X0153865Y0187721D01*
X0153597Y0188545D01*
X0153204Y0189316D01*
X0152695Y0190016D01*
X0152083Y0190628D01*
X0151383Y0191137D01*
X0150611Y0191530D01*
X0149788Y0191798D01*
X0148933Y0191933D01*
X0148700Y0191933D01*
X0148700Y0186633D01*
X0148300Y0186633D01*
X0148300Y0191933D01*
X0148067Y0191933D01*
X0147212Y0191798D01*
X0146389Y0191530D01*
X0148300Y0191579D02*
X0148700Y0191579D01*
X0148700Y0189980D02*
X0148300Y0189980D01*
X0148300Y0188381D02*
X0148700Y0188381D01*
X0148700Y0186783D02*
X0148300Y0186783D01*
X0148300Y0186233D02*
X0143000Y0186233D01*
X0143000Y0186000D01*
X0143135Y0185145D01*
X0143403Y0184322D01*
X0143796Y0183551D01*
X0144305Y0182850D01*
X0144917Y0182238D01*
X0145617Y0181729D01*
X0146389Y0181336D01*
X0147212Y0181069D01*
X0148067Y0180933D01*
X0148300Y0180933D01*
X0148300Y0186233D01*
X0148300Y0185184D02*
X0148700Y0185184D01*
X0148700Y0183586D02*
X0148300Y0183586D01*
X0148300Y0181987D02*
X0148700Y0181987D01*
X0151738Y0181987D02*
X0158400Y0181987D01*
X0158400Y0180389D02*
X0139700Y0180389D01*
X0139700Y0181987D02*
X0145262Y0181987D01*
X0143778Y0183586D02*
X0139700Y0183586D01*
X0139700Y0185184D02*
X0143129Y0185184D01*
X0143000Y0186783D02*
X0139700Y0186783D01*
X0139700Y0188381D02*
X0143350Y0188381D01*
X0144278Y0189980D02*
X0139700Y0189980D01*
X0133900Y0185184D02*
X0132076Y0185184D01*
X0133262Y0183586D02*
X0133900Y0183586D01*
X0133900Y0181987D02*
X0133900Y0181987D01*
X0133900Y0180389D02*
X0133900Y0180389D01*
X0133900Y0178790D02*
X0133556Y0178790D01*
X0133900Y0177192D02*
X0132785Y0177192D01*
X0133900Y0175593D02*
X0131090Y0175593D01*
X0132301Y0173995D02*
X0133900Y0173995D01*
X0133900Y0172396D02*
X0133075Y0172396D01*
X0133900Y0170798D02*
X0128000Y0170798D01*
X0133052Y0169199D02*
X0133900Y0169199D01*
X0133900Y0167601D02*
X0132250Y0167601D01*
X0131258Y0166002D02*
X0133900Y0166002D01*
X0133900Y0164404D02*
X0132856Y0164404D01*
X0133586Y0162805D02*
X0133900Y0162805D01*
X0133900Y0161207D02*
X0133900Y0161207D01*
X0133895Y0159608D02*
X0133900Y0159608D01*
X0133900Y0158010D02*
X0133233Y0158010D01*
X0133900Y0156411D02*
X0132005Y0156411D01*
X0132447Y0154813D02*
X0133900Y0154813D01*
X0133900Y0153214D02*
X0133416Y0153214D01*
X0133900Y0151616D02*
X0133900Y0151616D01*
X0133900Y0150017D02*
X0133900Y0150017D01*
X0133900Y0148419D02*
X0133402Y0148419D01*
X0133900Y0146820D02*
X0132414Y0146820D01*
X0132038Y0145222D02*
X0133900Y0145222D01*
X0133900Y0143623D02*
X0133247Y0143623D01*
X0133900Y0142025D02*
X0133900Y0142025D01*
X0133900Y0140426D02*
X0133900Y0140426D01*
X0133900Y0138828D02*
X0133572Y0138828D01*
X0133595Y0137229D02*
X0132822Y0137229D01*
X0131996Y0135631D02*
X0131629Y0135631D01*
X0143700Y0135631D02*
X0168001Y0135631D01*
X0166403Y0137229D02*
X0143700Y0137229D01*
X0144599Y0138828D02*
X0164804Y0138828D01*
X0163206Y0140426D02*
X0144886Y0140426D01*
X0144522Y0142025D02*
X0161607Y0142025D01*
X0160009Y0143623D02*
X0143288Y0143623D01*
X0139700Y0145222D02*
X0158663Y0145222D01*
X0158400Y0146820D02*
X0139700Y0146820D01*
X0139700Y0148419D02*
X0158400Y0148419D01*
X0158400Y0150017D02*
X0139700Y0150017D01*
X0139700Y0151616D02*
X0158400Y0151616D01*
X0158400Y0153214D02*
X0139700Y0153214D01*
X0139700Y0154813D02*
X0158400Y0154813D01*
X0158400Y0156411D02*
X0139700Y0156411D01*
X0139700Y0158010D02*
X0158400Y0158010D01*
X0158400Y0159608D02*
X0139700Y0159608D01*
X0139700Y0161207D02*
X0158400Y0161207D01*
X0158400Y0162805D02*
X0139700Y0162805D01*
X0139700Y0164404D02*
X0158400Y0164404D01*
X0158400Y0166002D02*
X0139700Y0166002D01*
X0139700Y0167601D02*
X0158400Y0167601D01*
X0158400Y0169199D02*
X0139700Y0169199D01*
X0139700Y0170798D02*
X0158400Y0170798D01*
X0158400Y0172396D02*
X0139700Y0172396D01*
X0139700Y0173995D02*
X0158400Y0173995D01*
X0158400Y0175593D02*
X0139700Y0175593D01*
X0139700Y0177192D02*
X0158400Y0177192D01*
X0158400Y0178790D02*
X0139700Y0178790D01*
X0153222Y0183586D02*
X0158400Y0183586D01*
X0158400Y0185184D02*
X0153871Y0185184D01*
X0154000Y0186783D02*
X0158400Y0186783D01*
X0158400Y0188381D02*
X0153650Y0188381D01*
X0152722Y0189980D02*
X0158400Y0189980D01*
X0158400Y0191579D02*
X0150463Y0191579D01*
X0164200Y0191579D02*
X0170618Y0191579D01*
X0170645Y0191605D02*
X0168929Y0189889D01*
X0168000Y0187647D01*
X0168000Y0185220D01*
X0168929Y0182978D01*
X0170645Y0181262D01*
X0172887Y0180333D01*
X0175313Y0180333D01*
X0177555Y0181262D01*
X0179271Y0182978D01*
X0180200Y0185220D01*
X0180200Y0187647D01*
X0179271Y0189889D01*
X0177555Y0191605D01*
X0175313Y0192533D01*
X0172887Y0192533D01*
X0170645Y0191605D01*
X0169020Y0189980D02*
X0164200Y0189980D01*
X0164200Y0188381D02*
X0168304Y0188381D01*
X0168000Y0186783D02*
X0164200Y0186783D01*
X0164200Y0185184D02*
X0168015Y0185184D01*
X0168677Y0183586D02*
X0164200Y0183586D01*
X0164200Y0181987D02*
X0169919Y0181987D01*
X0172752Y0180389D02*
X0164200Y0180389D01*
X0164200Y0178790D02*
X0229656Y0178790D01*
X0228057Y0177192D02*
X0164200Y0177192D01*
X0164200Y0175593D02*
X0201985Y0175593D01*
X0199790Y0173995D02*
X0164200Y0173995D01*
X0164200Y0172396D02*
X0198994Y0172396D01*
X0198800Y0170798D02*
X0164200Y0170798D01*
X0164200Y0169199D02*
X0198800Y0169199D01*
X0198800Y0167601D02*
X0164200Y0167601D01*
X0164200Y0166002D02*
X0198800Y0166002D01*
X0198939Y0164404D02*
X0164200Y0164404D01*
X0164200Y0162805D02*
X0199657Y0162805D01*
X0200370Y0161207D02*
X0164200Y0161207D01*
X0164200Y0159608D02*
X0201434Y0159608D01*
X0203032Y0158010D02*
X0164200Y0158010D01*
X0164200Y0156411D02*
X0196570Y0156411D01*
X0194971Y0154813D02*
X0164200Y0154813D01*
X0164200Y0153214D02*
X0193373Y0153214D01*
X0191774Y0151616D02*
X0164200Y0151616D01*
X0164200Y0150017D02*
X0190176Y0150017D01*
X0189069Y0148419D02*
X0164200Y0148419D01*
X0165014Y0146820D02*
X0188900Y0146820D01*
X0188900Y0145222D02*
X0166613Y0145222D01*
X0168211Y0143623D02*
X0188900Y0143623D01*
X0188900Y0142025D02*
X0169810Y0142025D01*
X0171408Y0140426D02*
X0188900Y0140426D01*
X0188900Y0138828D02*
X0173007Y0138828D01*
X0174605Y0137229D02*
X0188900Y0137229D01*
X0188900Y0135631D02*
X0176204Y0135631D01*
X0177802Y0134032D02*
X0188900Y0134032D01*
X0188900Y0132434D02*
X0179401Y0132434D01*
X0180999Y0130835D02*
X0189240Y0130835D01*
X0190588Y0129237D02*
X0182598Y0129237D01*
X0184196Y0127638D02*
X0192187Y0127638D01*
X0193785Y0126040D02*
X0185795Y0126040D01*
X0187394Y0124441D02*
X0195384Y0124441D01*
X0196982Y0122843D02*
X0188992Y0122843D01*
X0190591Y0121244D02*
X0198581Y0121244D01*
X0198418Y0121407D02*
X0198418Y0121407D01*
X0196374Y0119645D02*
X0200526Y0119645D01*
X0198313Y0118047D02*
X0205912Y0118047D01*
X0204314Y0116448D02*
X0199185Y0116448D01*
X0199600Y0114850D02*
X0202715Y0114850D01*
X0201117Y0113251D02*
X0199600Y0113251D01*
X0199518Y0111653D02*
X0199034Y0111653D01*
X0206122Y0110054D02*
X0214652Y0110054D01*
X0213566Y0111653D02*
X0207721Y0111653D01*
X0209319Y0113251D02*
X0213000Y0113251D01*
X0213000Y0114850D02*
X0210918Y0114850D01*
X0212516Y0116448D02*
X0213415Y0116448D01*
X0214115Y0118047D02*
X0214287Y0118047D01*
X0215713Y0119645D02*
X0216226Y0119645D01*
X0217312Y0121244D02*
X0241409Y0121244D01*
X0243008Y0122843D02*
X0218910Y0122843D01*
X0220509Y0124441D02*
X0244606Y0124441D01*
X0246205Y0126040D02*
X0222107Y0126040D01*
X0223706Y0127638D02*
X0248293Y0127638D01*
X0246641Y0126476D02*
X0246641Y0126476D01*
X0235626Y0119645D02*
X0221974Y0119645D01*
X0223913Y0118047D02*
X0233687Y0118047D01*
X0232815Y0116448D02*
X0224785Y0116448D01*
X0225200Y0114850D02*
X0232400Y0114850D01*
X0232400Y0113251D02*
X0225200Y0113251D01*
X0224634Y0111653D02*
X0232966Y0111653D01*
X0234052Y0110054D02*
X0223548Y0110054D01*
X0220313Y0102533D02*
X0217887Y0102533D01*
X0215645Y0101605D01*
X0213929Y0099889D01*
X0213000Y0097647D01*
X0213000Y0095220D01*
X0213929Y0092978D01*
X0215645Y0091262D01*
X0217887Y0090333D01*
X0220313Y0090333D01*
X0222555Y0091262D01*
X0224271Y0092978D01*
X0225200Y0095220D01*
X0225200Y0097647D01*
X0224271Y0099889D01*
X0222555Y0101605D01*
X0220313Y0102533D01*
X0221452Y0102062D02*
X0261748Y0102062D01*
X0260645Y0101605D02*
X0258929Y0099889D01*
X0258000Y0097647D01*
X0258000Y0095220D01*
X0258929Y0092978D01*
X0260645Y0091262D01*
X0262887Y0090333D01*
X0265313Y0090333D01*
X0267555Y0091262D01*
X0269271Y0092978D01*
X0270200Y0095220D01*
X0270200Y0097647D01*
X0269271Y0099889D01*
X0267555Y0101605D01*
X0265313Y0102533D01*
X0262887Y0102533D01*
X0260645Y0101605D01*
X0259503Y0100463D02*
X0242248Y0100463D01*
X0242083Y0100628D02*
X0241383Y0101137D01*
X0240611Y0101530D01*
X0239788Y0101798D01*
X0238933Y0101933D01*
X0238700Y0101933D01*
X0238700Y0096633D01*
X0244000Y0096633D01*
X0244000Y0096866D01*
X0243865Y0097721D01*
X0243597Y0098545D01*
X0243204Y0099316D01*
X0242695Y0100016D01*
X0242083Y0100628D01*
X0243434Y0098865D02*
X0258505Y0098865D01*
X0258000Y0097266D02*
X0243937Y0097266D01*
X0244000Y0096233D02*
X0238700Y0096233D01*
X0238700Y0090933D01*
X0238933Y0090933D01*
X0239788Y0091069D01*
X0240611Y0091336D01*
X0241383Y0091729D01*
X0242083Y0092238D01*
X0242695Y0092850D01*
X0243204Y0093551D01*
X0243597Y0094322D01*
X0243865Y0095145D01*
X0244000Y0096000D01*
X0244000Y0096233D01*
X0243947Y0095668D02*
X0258000Y0095668D01*
X0258477Y0094069D02*
X0243468Y0094069D01*
X0242316Y0092471D02*
X0259436Y0092471D01*
X0261585Y0090872D02*
X0221615Y0090872D01*
X0223764Y0092471D02*
X0234684Y0092471D01*
X0234917Y0092238D02*
X0235617Y0091729D01*
X0236389Y0091336D01*
X0237212Y0091069D01*
X0238067Y0090933D01*
X0238300Y0090933D01*
X0238300Y0096233D01*
X0238700Y0096233D01*
X0238700Y0096633D01*
X0238300Y0096633D01*
X0238300Y0096233D01*
X0233000Y0096233D01*
X0233000Y0096000D01*
X0233135Y0095145D01*
X0233403Y0094322D01*
X0233796Y0093551D01*
X0234305Y0092850D01*
X0234917Y0092238D01*
X0233532Y0094069D02*
X0224723Y0094069D01*
X0225200Y0095668D02*
X0233053Y0095668D01*
X0233000Y0096633D02*
X0238300Y0096633D01*
X0238300Y0101933D01*
X0238067Y0101933D01*
X0237212Y0101798D01*
X0236389Y0101530D01*
X0235617Y0101137D01*
X0234917Y0100628D01*
X0234305Y0100016D01*
X0233796Y0099316D01*
X0233403Y0098545D01*
X0233135Y0097721D01*
X0233000Y0096866D01*
X0233000Y0096633D01*
X0233063Y0097266D02*
X0225200Y0097266D01*
X0224695Y0098865D02*
X0233566Y0098865D01*
X0234752Y0100463D02*
X0223697Y0100463D01*
X0216748Y0102062D02*
X0176452Y0102062D01*
X0178697Y0100463D02*
X0189752Y0100463D01*
X0189917Y0100628D02*
X0189305Y0100016D01*
X0188796Y0099316D01*
X0188403Y0098545D01*
X0188135Y0097721D01*
X0188000Y0096866D01*
X0188000Y0096633D01*
X0193300Y0096633D01*
X0193300Y0096233D01*
X0193700Y0096233D01*
X0193700Y0090933D01*
X0193933Y0090933D01*
X0194788Y0091069D01*
X0195611Y0091336D01*
X0196383Y0091729D01*
X0197083Y0092238D01*
X0197695Y0092850D01*
X0198204Y0093551D01*
X0198597Y0094322D01*
X0198865Y0095145D01*
X0199000Y0096000D01*
X0199000Y0096233D01*
X0193700Y0096233D01*
X0193700Y0096633D01*
X0199000Y0096633D01*
X0199000Y0096866D01*
X0198865Y0097721D01*
X0198597Y0098545D01*
X0198204Y0099316D01*
X0197695Y0100016D01*
X0197083Y0100628D01*
X0196383Y0101137D01*
X0195611Y0101530D01*
X0194788Y0101798D01*
X0193933Y0101933D01*
X0193700Y0101933D01*
X0193700Y0096633D01*
X0193300Y0096633D01*
X0193300Y0101933D01*
X0193067Y0101933D01*
X0192212Y0101798D01*
X0191389Y0101530D01*
X0190617Y0101137D01*
X0189917Y0100628D01*
X0188566Y0098865D02*
X0179695Y0098865D01*
X0180200Y0097266D02*
X0188063Y0097266D01*
X0188000Y0096233D02*
X0188000Y0096000D01*
X0188135Y0095145D01*
X0188403Y0094322D01*
X0188796Y0093551D01*
X0189305Y0092850D01*
X0189917Y0092238D01*
X0190617Y0091729D01*
X0191389Y0091336D01*
X0192212Y0091069D01*
X0193067Y0090933D01*
X0193300Y0090933D01*
X0193300Y0096233D01*
X0188000Y0096233D01*
X0188053Y0095668D02*
X0180200Y0095668D01*
X0179723Y0094069D02*
X0188532Y0094069D01*
X0189684Y0092471D02*
X0178764Y0092471D01*
X0176615Y0090872D02*
X0216585Y0090872D01*
X0214436Y0092471D02*
X0197316Y0092471D01*
X0198468Y0094069D02*
X0213477Y0094069D01*
X0213000Y0095668D02*
X0198947Y0095668D01*
X0198937Y0097266D02*
X0213000Y0097266D01*
X0213505Y0098865D02*
X0198434Y0098865D01*
X0197248Y0100463D02*
X0214503Y0100463D01*
X0193700Y0100463D02*
X0193300Y0100463D01*
X0193300Y0098865D02*
X0193700Y0098865D01*
X0193700Y0097266D02*
X0193300Y0097266D01*
X0193300Y0095668D02*
X0193700Y0095668D01*
X0193700Y0094069D02*
X0193300Y0094069D01*
X0193300Y0092471D02*
X0193700Y0092471D01*
X0171585Y0090872D02*
X0139117Y0090872D01*
X0139865Y0092471D02*
X0144684Y0092471D01*
X0144917Y0092238D02*
X0145617Y0091729D01*
X0146389Y0091336D01*
X0147212Y0091069D01*
X0148067Y0090933D01*
X0148300Y0090933D01*
X0148300Y0096233D01*
X0143000Y0096233D01*
X0143000Y0096000D01*
X0143135Y0095145D01*
X0143403Y0094322D01*
X0143796Y0093551D01*
X0144305Y0092850D01*
X0144917Y0092238D01*
X0143532Y0094069D02*
X0139886Y0094069D01*
X0142413Y0095668D02*
X0143053Y0095668D01*
X0143386Y0098865D02*
X0143566Y0098865D01*
X0142840Y0100463D02*
X0144752Y0100463D01*
X0142200Y0102062D02*
X0171748Y0102062D01*
X0169503Y0100463D02*
X0152248Y0100463D01*
X0153434Y0098865D02*
X0168505Y0098865D01*
X0168000Y0097266D02*
X0153937Y0097266D01*
X0153947Y0095668D02*
X0168000Y0095668D01*
X0168477Y0094069D02*
X0153468Y0094069D01*
X0152316Y0092471D02*
X0169436Y0092471D01*
X0148700Y0092471D02*
X0148300Y0092471D01*
X0148300Y0094069D02*
X0148700Y0094069D01*
X0148700Y0095668D02*
X0148300Y0095668D01*
X0148300Y0097266D02*
X0148700Y0097266D01*
X0148700Y0098865D02*
X0148300Y0098865D01*
X0148300Y0100463D02*
X0148700Y0100463D01*
X0142200Y0103660D02*
X0164872Y0103660D01*
X0164400Y0105259D02*
X0142200Y0105259D01*
X0142200Y0106857D02*
X0164400Y0106857D01*
X0164400Y0108456D02*
X0150492Y0108456D01*
X0152948Y0110054D02*
X0163478Y0110054D01*
X0161879Y0111653D02*
X0154034Y0111653D01*
X0154600Y0113251D02*
X0160281Y0113251D01*
X0158682Y0114850D02*
X0154600Y0114850D01*
X0154185Y0116448D02*
X0157084Y0116448D01*
X0162089Y0119645D02*
X0171226Y0119645D01*
X0169287Y0118047D02*
X0163688Y0118047D01*
X0165286Y0116448D02*
X0168415Y0116448D01*
X0168000Y0114850D02*
X0166885Y0114850D01*
X0176974Y0119645D02*
X0183987Y0119645D01*
X0185585Y0118047D02*
X0178913Y0118047D01*
X0179785Y0116448D02*
X0187184Y0116448D01*
X0187400Y0114850D02*
X0180200Y0114850D01*
X0180200Y0113251D02*
X0187400Y0113251D01*
X0187966Y0111653D02*
X0179634Y0111653D01*
X0178548Y0110054D02*
X0189052Y0110054D01*
X0191508Y0108456D02*
X0176092Y0108456D01*
X0182388Y0121244D02*
X0160491Y0121244D01*
X0153392Y0122843D02*
X0180790Y0122843D01*
X0179191Y0124441D02*
X0151794Y0124441D01*
X0150195Y0126040D02*
X0177593Y0126040D01*
X0175994Y0127638D02*
X0148596Y0127638D01*
X0146998Y0129237D02*
X0174396Y0129237D01*
X0172797Y0130835D02*
X0145399Y0130835D01*
X0143801Y0132434D02*
X0171199Y0132434D01*
X0169600Y0134032D02*
X0143700Y0134032D01*
X0135800Y0122833D02*
X0135800Y0093333D01*
X0135800Y0092833D01*
X0134924Y0089274D02*
X0131996Y0089274D01*
X0132483Y0090872D02*
X0131400Y0090872D01*
X0131400Y0092471D02*
X0131735Y0092471D01*
X0131714Y0094069D02*
X0131400Y0094069D01*
X0131400Y0095668D02*
X0132356Y0095668D01*
X0132600Y0097266D02*
X0131400Y0097266D01*
X0131400Y0098865D02*
X0132600Y0098865D01*
X0132600Y0100463D02*
X0131400Y0100463D01*
X0131400Y0102062D02*
X0132600Y0102062D01*
X0132600Y0103660D02*
X0131400Y0103660D01*
X0131106Y0105259D02*
X0132600Y0105259D01*
X0132600Y0106857D02*
X0129867Y0106857D01*
X0128269Y0108456D02*
X0132600Y0108456D01*
X0132600Y0110054D02*
X0126670Y0110054D01*
X0125072Y0111653D02*
X0132600Y0111653D01*
X0132600Y0113251D02*
X0123473Y0113251D01*
X0123400Y0114850D02*
X0126305Y0114850D01*
X0129295Y0114850D02*
X0132600Y0114850D01*
X0132600Y0116448D02*
X0132042Y0116448D01*
X0123558Y0116448D02*
X0123400Y0116448D01*
X0143386Y0110054D02*
X0144052Y0110054D01*
X0143152Y0108456D02*
X0146508Y0108456D01*
X0136676Y0089274D02*
X0308215Y0089274D01*
X0306585Y0090872D02*
X0266615Y0090872D01*
X0268764Y0092471D02*
X0279684Y0092471D01*
X0279917Y0092238D02*
X0280617Y0091729D01*
X0281389Y0091336D01*
X0282212Y0091069D01*
X0283067Y0090933D01*
X0283300Y0090933D01*
X0283300Y0096233D01*
X0283700Y0096233D01*
X0283700Y0090933D01*
X0283933Y0090933D01*
X0284788Y0091069D01*
X0285611Y0091336D01*
X0286383Y0091729D01*
X0287083Y0092238D01*
X0287695Y0092850D01*
X0288204Y0093551D01*
X0288597Y0094322D01*
X0288865Y0095145D01*
X0289000Y0096000D01*
X0289000Y0096233D01*
X0283700Y0096233D01*
X0283700Y0096633D01*
X0289000Y0096633D01*
X0289000Y0096866D01*
X0288865Y0097721D01*
X0288597Y0098545D01*
X0288204Y0099316D01*
X0287695Y0100016D01*
X0287083Y0100628D01*
X0286383Y0101137D01*
X0285611Y0101530D01*
X0284788Y0101798D01*
X0283933Y0101933D01*
X0283700Y0101933D01*
X0283700Y0096633D01*
X0283300Y0096633D01*
X0283300Y0096233D01*
X0278000Y0096233D01*
X0278000Y0096000D01*
X0278135Y0095145D01*
X0278403Y0094322D01*
X0278796Y0093551D01*
X0279305Y0092850D01*
X0279917Y0092238D01*
X0278532Y0094069D02*
X0269723Y0094069D01*
X0270200Y0095668D02*
X0278053Y0095668D01*
X0278000Y0096633D02*
X0283300Y0096633D01*
X0283300Y0101933D01*
X0283067Y0101933D01*
X0282212Y0101798D01*
X0281389Y0101530D01*
X0280617Y0101137D01*
X0279917Y0100628D01*
X0279305Y0100016D01*
X0278796Y0099316D01*
X0278403Y0098545D01*
X0278135Y0097721D01*
X0278000Y0096866D01*
X0278000Y0096633D01*
X0278063Y0097266D02*
X0270200Y0097266D01*
X0269695Y0098865D02*
X0278566Y0098865D01*
X0279752Y0100463D02*
X0268697Y0100463D01*
X0266452Y0102062D02*
X0306748Y0102062D01*
X0304503Y0100463D02*
X0287248Y0100463D01*
X0288434Y0098865D02*
X0303505Y0098865D01*
X0303000Y0097266D02*
X0288937Y0097266D01*
X0288947Y0095668D02*
X0303000Y0095668D01*
X0303477Y0094069D02*
X0288468Y0094069D01*
X0287316Y0092471D02*
X0304436Y0092471D01*
X0314069Y0086077D02*
X0373600Y0086077D01*
X0373600Y0087675D02*
X0315667Y0087675D01*
X0312470Y0084478D02*
X0373600Y0084478D01*
X0373600Y0082880D02*
X0310872Y0082880D01*
X0292310Y0076486D02*
X0373600Y0076486D01*
X0373600Y0078084D02*
X0290711Y0078084D01*
X0289113Y0079683D02*
X0373600Y0079683D01*
X0373600Y0081281D02*
X0147000Y0081281D01*
X0143800Y0085833D02*
X0127800Y0085833D01*
X0117800Y0076333D02*
X0117800Y0055333D01*
X0127300Y0055333D01*
X0127800Y0055833D01*
X0123232Y0058902D02*
X0121000Y0058902D01*
X0116259Y0052508D02*
X0005500Y0052508D01*
X0005500Y0050910D02*
X0125087Y0050910D01*
X0124489Y0049311D02*
X0005500Y0049311D01*
X0005500Y0047712D02*
X0123000Y0047712D01*
X0123000Y0046114D02*
X0005500Y0046114D01*
X0005500Y0044515D02*
X0123000Y0044515D01*
X0123928Y0042917D02*
X0005500Y0042917D01*
X0005500Y0054107D02*
X0029416Y0054107D01*
X0027079Y0055705D02*
X0005500Y0055705D01*
X0005500Y0057304D02*
X0026133Y0057304D01*
X0025750Y0058902D02*
X0005500Y0058902D01*
X0005500Y0060501D02*
X0025776Y0060501D01*
X0026438Y0062099D02*
X0005500Y0062099D01*
X0005500Y0063698D02*
X0027815Y0063698D01*
X0029001Y0067783D02*
X0033599Y0067783D01*
X0036850Y0071034D01*
X0036850Y0075632D01*
X0033599Y0078883D01*
X0029001Y0078883D01*
X0025750Y0075632D01*
X0025750Y0071034D01*
X0029001Y0067783D01*
X0028291Y0068493D02*
X0005500Y0068493D01*
X0005500Y0066895D02*
X0038100Y0066895D01*
X0038100Y0068493D02*
X0034309Y0068493D01*
X0035907Y0070092D02*
X0038100Y0070092D01*
X0038100Y0071690D02*
X0036850Y0071690D01*
X0036850Y0073289D02*
X0038100Y0073289D01*
X0038100Y0074887D02*
X0036850Y0074887D01*
X0035996Y0076486D02*
X0038100Y0076486D01*
X0038100Y0078084D02*
X0034398Y0078084D01*
X0038100Y0079683D02*
X0005500Y0079683D01*
X0005500Y0081281D02*
X0038100Y0081281D01*
X0038100Y0082880D02*
X0005500Y0082880D01*
X0005500Y0084478D02*
X0013518Y0084478D01*
X0013234Y0084570D02*
X0013923Y0084347D01*
X0014638Y0084233D01*
X0017700Y0084233D01*
X0017700Y0088733D01*
X0017900Y0088733D01*
X0017900Y0084233D01*
X0020962Y0084233D01*
X0021677Y0084347D01*
X0022366Y0084570D01*
X0023011Y0084899D01*
X0023597Y0085325D01*
X0024109Y0085837D01*
X0024534Y0086422D01*
X0024863Y0087068D01*
X0025087Y0087756D01*
X0025200Y0088471D01*
X0025200Y0088733D01*
X0017900Y0088733D01*
X0017900Y0088933D01*
X0025200Y0088933D01*
X0025200Y0089195D01*
X0025087Y0089910D01*
X0024863Y0090599D01*
X0024534Y0091244D01*
X0024109Y0091830D01*
X0023597Y0092342D01*
X0023011Y0092768D01*
X0022366Y0093096D01*
X0021677Y0093320D01*
X0020962Y0093433D01*
X0017900Y0093433D01*
X0017900Y0088933D01*
X0017700Y0088933D01*
X0017700Y0088733D01*
X0010400Y0088733D01*
X0010400Y0088471D01*
X0010513Y0087756D01*
X0010737Y0087068D01*
X0011066Y0086422D01*
X0011491Y0085837D01*
X0012003Y0085325D01*
X0012589Y0084899D01*
X0013234Y0084570D01*
X0011317Y0086077D02*
X0005500Y0086077D01*
X0005500Y0087675D02*
X0010540Y0087675D01*
X0010400Y0088933D02*
X0017700Y0088933D01*
X0017700Y0093433D01*
X0014638Y0093433D01*
X0013923Y0093320D01*
X0013234Y0093096D01*
X0012589Y0092768D01*
X0012003Y0092342D01*
X0011491Y0091830D01*
X0011066Y0091244D01*
X0010737Y0090599D01*
X0010513Y0089910D01*
X0010400Y0089195D01*
X0010400Y0088933D01*
X0010412Y0089274D02*
X0005500Y0089274D01*
X0005500Y0090872D02*
X0010876Y0090872D01*
X0012181Y0092471D02*
X0005500Y0092471D01*
X0005500Y0094069D02*
X0012913Y0094069D01*
X0010812Y0095668D02*
X0005500Y0095668D01*
X0005500Y0097266D02*
X0010021Y0097266D01*
X0009800Y0098865D02*
X0005500Y0098865D01*
X0005500Y0100463D02*
X0010047Y0100463D01*
X0010875Y0102062D02*
X0005500Y0102062D01*
X0005500Y0103660D02*
X0013065Y0103660D01*
X0017800Y0098833D02*
X0018800Y0099833D01*
X0053300Y0099833D01*
X0053300Y0110333D01*
X0057934Y0108456D02*
X0059318Y0108456D01*
X0059222Y0108644D02*
X0059537Y0108027D01*
X0059944Y0107467D01*
X0060434Y0106977D01*
X0060994Y0106570D01*
X0061611Y0106256D01*
X0062270Y0106042D01*
X0062954Y0105933D01*
X0063300Y0105933D01*
X0063300Y0110333D01*
X0063300Y0105933D01*
X0063646Y0105933D01*
X0064330Y0106042D01*
X0064989Y0106256D01*
X0065606Y0106570D01*
X0066166Y0106977D01*
X0066656Y0107467D01*
X0067063Y0108027D01*
X0067378Y0108644D01*
X0067592Y0109303D01*
X0067700Y0109987D01*
X0067700Y0110333D01*
X0063300Y0110333D01*
X0063300Y0110333D01*
X0058900Y0110333D01*
X0058900Y0109987D01*
X0059008Y0109303D01*
X0059222Y0108644D01*
X0058900Y0110054D02*
X0058300Y0110054D01*
X0058900Y0110333D02*
X0063300Y0110333D01*
X0063300Y0110333D01*
X0063300Y0110333D01*
X0067700Y0110333D01*
X0067700Y0110680D01*
X0067592Y0111364D01*
X0067378Y0112022D01*
X0067063Y0112639D01*
X0066656Y0113200D01*
X0066166Y0113689D01*
X0065606Y0114097D01*
X0064989Y0114411D01*
X0064330Y0114625D01*
X0063646Y0114733D01*
X0063300Y0114733D01*
X0062954Y0114733D01*
X0062270Y0114625D01*
X0061611Y0114411D01*
X0060994Y0114097D01*
X0060434Y0113689D01*
X0059944Y0113200D01*
X0059537Y0112639D01*
X0059222Y0112022D01*
X0059008Y0111364D01*
X0058900Y0110680D01*
X0058900Y0110333D01*
X0059102Y0111653D02*
X0058165Y0111653D01*
X0057453Y0113251D02*
X0059996Y0113251D01*
X0063300Y0113251D02*
X0063300Y0113251D01*
X0063300Y0114733D02*
X0063300Y0110333D01*
X0063300Y0110333D01*
X0063300Y0114733D01*
X0063300Y0111653D02*
X0063300Y0111653D01*
X0063300Y0110054D02*
X0063300Y0110054D01*
X0063300Y0108456D02*
X0063300Y0108456D01*
X0063300Y0106857D02*
X0063300Y0106857D01*
X0066002Y0106857D02*
X0071100Y0106857D01*
X0071100Y0105259D02*
X0056500Y0105259D01*
X0056500Y0103660D02*
X0071100Y0103660D01*
X0071100Y0102062D02*
X0056500Y0102062D01*
X0056500Y0100463D02*
X0071100Y0100463D01*
X0074300Y0096333D02*
X0056800Y0096333D01*
X0055300Y0094833D01*
X0055300Y0087833D01*
X0040800Y0087833D01*
X0040300Y0088333D01*
X0041300Y0087333D01*
X0041300Y0058833D01*
X0040800Y0059333D01*
X0031300Y0059333D01*
X0035521Y0055705D02*
X0040490Y0055705D01*
X0042110Y0055705D02*
X0054706Y0055705D01*
X0054400Y0057304D02*
X0044130Y0057304D01*
X0044500Y0058902D02*
X0054400Y0058902D01*
X0055245Y0060501D02*
X0044500Y0060501D01*
X0044500Y0062099D02*
X0056843Y0062099D01*
X0055865Y0063698D02*
X0044500Y0063698D01*
X0044500Y0065296D02*
X0054266Y0065296D01*
X0053800Y0066895D02*
X0044500Y0066895D01*
X0044500Y0068493D02*
X0053800Y0068493D01*
X0053987Y0070092D02*
X0044500Y0070092D01*
X0044500Y0071690D02*
X0055586Y0071690D01*
X0059730Y0073289D02*
X0044500Y0073289D01*
X0044500Y0074887D02*
X0061328Y0074887D01*
X0062927Y0076486D02*
X0044500Y0076486D01*
X0044500Y0078084D02*
X0064525Y0078084D01*
X0066124Y0079683D02*
X0044500Y0079683D01*
X0044500Y0081281D02*
X0067100Y0081281D01*
X0067100Y0082880D02*
X0044500Y0082880D01*
X0044500Y0084478D02*
X0067084Y0084478D01*
X0065486Y0086077D02*
X0058036Y0086077D01*
X0058500Y0087675D02*
X0065300Y0087675D01*
X0065300Y0089274D02*
X0058500Y0089274D01*
X0058500Y0090872D02*
X0065768Y0090872D01*
X0067366Y0092471D02*
X0058500Y0092471D01*
X0052100Y0092471D02*
X0043234Y0092471D01*
X0037366Y0092471D02*
X0023419Y0092471D01*
X0022687Y0094069D02*
X0052100Y0094069D01*
X0052182Y0095668D02*
X0024788Y0095668D01*
X0024724Y0090872D02*
X0035768Y0090872D01*
X0035300Y0089274D02*
X0025188Y0089274D01*
X0025060Y0087675D02*
X0035300Y0087675D01*
X0035486Y0086077D02*
X0024283Y0086077D01*
X0022082Y0084478D02*
X0037084Y0084478D01*
X0028202Y0078084D02*
X0005500Y0078084D01*
X0005500Y0076486D02*
X0026603Y0076486D01*
X0025750Y0074887D02*
X0005500Y0074887D01*
X0005500Y0073289D02*
X0025750Y0073289D01*
X0025750Y0071690D02*
X0005500Y0071690D01*
X0005500Y0070092D02*
X0026693Y0070092D01*
X0034785Y0063698D02*
X0038100Y0063698D01*
X0038100Y0065296D02*
X0005500Y0065296D01*
X0033184Y0054107D02*
X0056304Y0054107D01*
X0058800Y0067833D02*
X0070300Y0079333D01*
X0070300Y0088333D01*
X0074300Y0096333D02*
X0074300Y0139333D01*
X0073300Y0140333D01*
X0063300Y0140333D01*
X0058300Y0140426D02*
X0058300Y0140426D01*
X0058088Y0138828D02*
X0058512Y0138828D01*
X0059333Y0137229D02*
X0057267Y0137229D01*
X0055012Y0135631D02*
X0061588Y0135631D01*
X0065012Y0135631D02*
X0071100Y0135631D01*
X0071100Y0134032D02*
X0031524Y0134032D01*
X0029926Y0132434D02*
X0071100Y0132434D01*
X0071100Y0130835D02*
X0028327Y0130835D01*
X0026186Y0129237D02*
X0071100Y0129237D01*
X0071100Y0121244D02*
X0026915Y0121244D01*
X0028513Y0119645D02*
X0071100Y0119645D01*
X0071100Y0118047D02*
X0030112Y0118047D01*
X0031710Y0116448D02*
X0071100Y0116448D01*
X0071100Y0114850D02*
X0055461Y0114850D01*
X0051139Y0114850D02*
X0035461Y0114850D01*
X0046604Y0113251D02*
X0049147Y0113251D01*
X0048435Y0111653D02*
X0047498Y0111653D01*
X0047700Y0110054D02*
X0048300Y0110054D01*
X0048666Y0108456D02*
X0047282Y0108456D01*
X0050100Y0103660D02*
X0022535Y0103660D01*
X0036895Y0106857D02*
X0040598Y0106857D01*
X0056895Y0106857D02*
X0060598Y0106857D01*
X0067282Y0108456D02*
X0071100Y0108456D01*
X0071100Y0110054D02*
X0067700Y0110054D01*
X0067498Y0111653D02*
X0071100Y0111653D01*
X0071100Y0113251D02*
X0066604Y0113251D01*
X0024072Y0135631D02*
X0020074Y0135631D01*
X0018475Y0137229D02*
X0025670Y0137229D01*
X0037081Y0143623D02*
X0039519Y0143623D01*
X0038589Y0142025D02*
X0038011Y0142025D01*
X0060845Y0158010D02*
X0066451Y0158010D01*
X0068049Y0159608D02*
X0062549Y0159608D01*
X0063000Y0161207D02*
X0069648Y0161207D01*
X0071247Y0162805D02*
X0063000Y0162805D01*
X0063000Y0164404D02*
X0072845Y0164404D01*
X0074444Y0166002D02*
X0063000Y0166002D01*
X0063000Y0167601D02*
X0076042Y0167601D01*
X0077641Y0169199D02*
X0063000Y0169199D01*
X0063000Y0170798D02*
X0079239Y0170798D01*
X0080838Y0172396D02*
X0063000Y0172396D01*
X0063000Y0173995D02*
X0082436Y0173995D01*
X0084035Y0175593D02*
X0063000Y0175593D01*
X0063000Y0177192D02*
X0085633Y0177192D01*
X0087232Y0178790D02*
X0063000Y0178790D01*
X0063000Y0180389D02*
X0088830Y0180389D01*
X0090429Y0181987D02*
X0063000Y0181987D01*
X0063000Y0183586D02*
X0092027Y0183586D01*
X0093626Y0185184D02*
X0063000Y0185184D01*
X0063000Y0186783D02*
X0095224Y0186783D01*
X0096823Y0188381D02*
X0063000Y0188381D01*
X0063000Y0189980D02*
X0097100Y0189980D01*
X0097100Y0191579D02*
X0063000Y0191579D01*
X0063487Y0193177D02*
X0097100Y0193177D01*
X0097100Y0194776D02*
X0065085Y0194776D01*
X0065970Y0196374D02*
X0097100Y0196374D01*
X0097100Y0197973D02*
X0066550Y0197973D01*
X0066550Y0199571D02*
X0097100Y0199571D01*
X0097100Y0201170D02*
X0066318Y0201170D01*
X0065656Y0202768D02*
X0097100Y0202768D01*
X0097100Y0204367D02*
X0064326Y0204367D01*
X0059426Y0199192D02*
X0059800Y0197318D01*
X0059800Y0161333D01*
X0059300Y0160833D01*
X0016300Y0160833D01*
X0020209Y0166002D02*
X0056600Y0166002D01*
X0056600Y0164404D02*
X0022883Y0164404D01*
X0018999Y0193177D02*
X0055365Y0193177D01*
X0053767Y0194776D02*
X0020597Y0194776D01*
X0021482Y0196374D02*
X0052882Y0196374D01*
X0052302Y0197973D02*
X0022062Y0197973D01*
X0022062Y0199571D02*
X0052302Y0199571D01*
X0052534Y0201170D02*
X0021830Y0201170D01*
X0021168Y0202768D02*
X0053196Y0202768D01*
X0054526Y0204367D02*
X0019838Y0204367D01*
X0017041Y0217155D02*
X0057322Y0217155D01*
X0054592Y0218753D02*
X0019772Y0218753D01*
X0021140Y0220352D02*
X0053224Y0220352D01*
X0052561Y0221950D02*
X0021802Y0221950D01*
X0022062Y0223549D02*
X0052302Y0223549D01*
X0052302Y0225147D02*
X0022062Y0225147D01*
X0021510Y0226746D02*
X0052854Y0226746D01*
X0053700Y0228344D02*
X0020664Y0228344D01*
X0019065Y0229943D02*
X0055299Y0229943D01*
X0053188Y0231541D02*
X0021176Y0231541D01*
X0022334Y0233140D02*
X0052030Y0233140D01*
X0051368Y0234738D02*
X0022996Y0234738D01*
X0023046Y0236337D02*
X0051317Y0236337D01*
X0051482Y0237935D02*
X0022882Y0237935D01*
X0022220Y0239534D02*
X0052144Y0239534D01*
X0053462Y0241132D02*
X0020902Y0241132D01*
X0018136Y0242731D02*
X0056228Y0242731D01*
X0054668Y0244329D02*
X0019696Y0244329D01*
X0020811Y0245928D02*
X0053553Y0245928D01*
X0053013Y0247526D02*
X0021351Y0247526D01*
X0012536Y0242731D02*
X0005500Y0242731D01*
X0005500Y0244329D02*
X0010179Y0244329D01*
X0009065Y0245928D02*
X0005500Y0245928D01*
X0005500Y0247526D02*
X0008524Y0247526D01*
X0005500Y0241132D02*
X0011730Y0241132D01*
X0010412Y0239534D02*
X0005500Y0239534D01*
X0005500Y0237935D02*
X0009750Y0237935D01*
X0009585Y0236337D02*
X0005500Y0236337D01*
X0005500Y0234738D02*
X0009636Y0234738D01*
X0010298Y0233140D02*
X0005500Y0233140D01*
X0005500Y0231541D02*
X0011455Y0231541D01*
X0010810Y0229943D02*
X0005500Y0229943D01*
X0005500Y0228344D02*
X0009212Y0228344D01*
X0008366Y0226746D02*
X0005500Y0226746D01*
X0005500Y0225147D02*
X0007813Y0225147D01*
X0007813Y0223549D02*
X0005500Y0223549D01*
X0005500Y0221950D02*
X0008073Y0221950D01*
X0008735Y0220352D02*
X0005500Y0220352D01*
X0005500Y0218753D02*
X0010104Y0218753D01*
X0012834Y0217155D02*
X0005500Y0217155D01*
X0123400Y0212359D02*
X0124637Y0212359D01*
X0123400Y0210761D02*
X0125939Y0210761D01*
X0124341Y0209162D02*
X0123400Y0209162D01*
X0123400Y0207564D02*
X0123500Y0207564D01*
X0123500Y0205965D02*
X0123400Y0205965D01*
X0123400Y0204367D02*
X0123500Y0204367D01*
X0177582Y0191579D02*
X0191537Y0191579D01*
X0191389Y0191530D02*
X0190617Y0191137D01*
X0189917Y0190628D01*
X0189305Y0190016D01*
X0188796Y0189316D01*
X0188403Y0188545D01*
X0188135Y0187721D01*
X0188000Y0186866D01*
X0188000Y0186633D01*
X0193300Y0186633D01*
X0193300Y0186233D01*
X0193700Y0186233D01*
X0193700Y0180933D01*
X0193933Y0180933D01*
X0194788Y0181069D01*
X0195611Y0181336D01*
X0196383Y0181729D01*
X0197083Y0182238D01*
X0197695Y0182850D01*
X0198204Y0183551D01*
X0198597Y0184322D01*
X0198865Y0185145D01*
X0199000Y0186000D01*
X0199000Y0186233D01*
X0193700Y0186233D01*
X0193700Y0186633D01*
X0199000Y0186633D01*
X0199000Y0186866D01*
X0198865Y0187721D01*
X0198597Y0188545D01*
X0198204Y0189316D01*
X0197695Y0190016D01*
X0197083Y0190628D01*
X0196383Y0191137D01*
X0195611Y0191530D01*
X0194788Y0191798D01*
X0193933Y0191933D01*
X0193700Y0191933D01*
X0193700Y0186633D01*
X0193300Y0186633D01*
X0193300Y0191933D01*
X0193067Y0191933D01*
X0192212Y0191798D01*
X0191389Y0191530D01*
X0193300Y0191579D02*
X0193700Y0191579D01*
X0193700Y0189980D02*
X0193300Y0189980D01*
X0193300Y0188381D02*
X0193700Y0188381D01*
X0193700Y0186783D02*
X0193300Y0186783D01*
X0193300Y0186233D02*
X0188000Y0186233D01*
X0188000Y0186000D01*
X0188135Y0185145D01*
X0188403Y0184322D01*
X0188796Y0183551D01*
X0189305Y0182850D01*
X0189917Y0182238D01*
X0190617Y0181729D01*
X0191389Y0181336D01*
X0192212Y0181069D01*
X0193067Y0180933D01*
X0193300Y0180933D01*
X0193300Y0186233D01*
X0193300Y0185184D02*
X0193700Y0185184D01*
X0193700Y0183586D02*
X0193300Y0183586D01*
X0193300Y0181987D02*
X0193700Y0181987D01*
X0196738Y0181987D02*
X0214919Y0181987D01*
X0215645Y0181262D02*
X0217887Y0180333D01*
X0220313Y0180333D01*
X0222555Y0181262D01*
X0224271Y0182978D01*
X0225200Y0185220D01*
X0225200Y0187647D01*
X0224271Y0189889D01*
X0222555Y0191605D01*
X0220313Y0192533D01*
X0217887Y0192533D01*
X0215645Y0191605D01*
X0213929Y0189889D01*
X0213000Y0187647D01*
X0213000Y0185220D01*
X0213929Y0182978D01*
X0215645Y0181262D01*
X0217752Y0180389D02*
X0175448Y0180389D01*
X0178281Y0181987D02*
X0190262Y0181987D01*
X0188778Y0183586D02*
X0179523Y0183586D01*
X0180185Y0185184D02*
X0188129Y0185184D01*
X0188000Y0186783D02*
X0180200Y0186783D01*
X0179896Y0188381D02*
X0188350Y0188381D01*
X0189278Y0189980D02*
X0179180Y0189980D01*
X0195463Y0191579D02*
X0215618Y0191579D01*
X0214020Y0189980D02*
X0197722Y0189980D01*
X0198650Y0188381D02*
X0213304Y0188381D01*
X0213000Y0186783D02*
X0199000Y0186783D01*
X0198871Y0185184D02*
X0213015Y0185184D01*
X0213677Y0183586D02*
X0198222Y0183586D01*
X0205615Y0175593D02*
X0221985Y0175593D01*
X0219790Y0173995D02*
X0216961Y0173995D01*
X0217156Y0173800D02*
X0216666Y0174289D01*
X0216106Y0174697D01*
X0215489Y0175011D01*
X0214830Y0175225D01*
X0214146Y0175333D01*
X0213800Y0175333D01*
X0213454Y0175333D01*
X0212770Y0175225D01*
X0212111Y0175011D01*
X0211494Y0174697D01*
X0210934Y0174289D01*
X0210444Y0173800D01*
X0210037Y0173239D01*
X0209722Y0172622D01*
X0209508Y0171964D01*
X0209400Y0171280D01*
X0209400Y0168333D01*
X0209400Y0165387D01*
X0209508Y0164703D01*
X0209722Y0164044D01*
X0210037Y0163427D01*
X0210444Y0162867D01*
X0210934Y0162377D01*
X0211494Y0161970D01*
X0212111Y0161656D01*
X0212770Y0161442D01*
X0213454Y0161333D01*
X0213800Y0161333D01*
X0214146Y0161333D01*
X0214830Y0161442D01*
X0215489Y0161656D01*
X0216106Y0161970D01*
X0216666Y0162377D01*
X0217156Y0162867D01*
X0217563Y0163427D01*
X0217878Y0164044D01*
X0218092Y0164703D01*
X0218200Y0165387D01*
X0218200Y0168333D01*
X0213800Y0168333D01*
X0213800Y0161333D01*
X0213800Y0168333D01*
X0213800Y0168333D01*
X0213800Y0168333D01*
X0209400Y0168333D01*
X0213800Y0168333D01*
X0213800Y0168333D01*
X0218200Y0168333D01*
X0218200Y0171280D01*
X0218092Y0171964D01*
X0217878Y0172622D01*
X0217563Y0173239D01*
X0217156Y0173800D01*
X0217951Y0172396D02*
X0218994Y0172396D01*
X0218800Y0170798D02*
X0218200Y0170798D01*
X0218200Y0169199D02*
X0218800Y0169199D01*
X0218800Y0167601D02*
X0218200Y0167601D01*
X0218200Y0166002D02*
X0218800Y0166002D01*
X0218939Y0164404D02*
X0217994Y0164404D01*
X0217095Y0162805D02*
X0219657Y0162805D01*
X0221662Y0161207D02*
X0210018Y0161207D01*
X0210505Y0162805D02*
X0208419Y0162805D01*
X0208661Y0164404D02*
X0209606Y0164404D01*
X0209400Y0166002D02*
X0208800Y0166002D01*
X0208800Y0167601D02*
X0209400Y0167601D01*
X0209400Y0169199D02*
X0208800Y0169199D01*
X0208800Y0170798D02*
X0209400Y0170798D01*
X0209649Y0172396D02*
X0208606Y0172396D01*
X0207809Y0173995D02*
X0210639Y0173995D01*
X0213800Y0173995D02*
X0213800Y0173995D01*
X0213800Y0175333D02*
X0213800Y0168333D01*
X0213800Y0168333D01*
X0213800Y0175333D01*
X0213800Y0172396D02*
X0213800Y0172396D01*
X0213800Y0170798D02*
X0213800Y0170798D01*
X0213800Y0169199D02*
X0213800Y0169199D01*
X0213800Y0167601D02*
X0213800Y0167601D01*
X0213800Y0166002D02*
X0213800Y0166002D01*
X0213800Y0164404D02*
X0213800Y0164404D01*
X0213800Y0162805D02*
X0213800Y0162805D01*
X0211616Y0159608D02*
X0249934Y0159608D01*
X0250300Y0158010D02*
X0213215Y0158010D01*
X0214813Y0156411D02*
X0251151Y0156411D01*
X0259449Y0156411D02*
X0291151Y0156411D01*
X0290300Y0158010D02*
X0260300Y0158010D01*
X0260300Y0159608D02*
X0290300Y0159608D01*
X0290300Y0161207D02*
X0260300Y0161207D01*
X0258899Y0162805D02*
X0291701Y0162805D01*
X0298899Y0162805D02*
X0340400Y0162805D01*
X0340400Y0161207D02*
X0300300Y0161207D01*
X0300300Y0159608D02*
X0339974Y0159608D01*
X0338375Y0158010D02*
X0300300Y0158010D01*
X0299449Y0156411D02*
X0336777Y0156411D01*
X0335178Y0154813D02*
X0298400Y0154813D01*
X0299010Y0153214D02*
X0333580Y0153214D01*
X0331981Y0151616D02*
X0300458Y0151616D01*
X0300900Y0150017D02*
X0330383Y0150017D01*
X0328784Y0148419D02*
X0300900Y0148419D01*
X0300900Y0146820D02*
X0327186Y0146820D01*
X0330593Y0142025D02*
X0349890Y0142025D01*
X0351489Y0143623D02*
X0332191Y0143623D01*
X0333790Y0145222D02*
X0353087Y0145222D01*
X0354686Y0146820D02*
X0335388Y0146820D01*
X0336987Y0148419D02*
X0356284Y0148419D01*
X0357883Y0150017D02*
X0338585Y0150017D01*
X0340184Y0151616D02*
X0359481Y0151616D01*
X0360900Y0153214D02*
X0341782Y0153214D01*
X0343381Y0154813D02*
X0360900Y0154813D01*
X0360900Y0156411D02*
X0344979Y0156411D01*
X0346098Y0158010D02*
X0360900Y0158010D01*
X0360900Y0159608D02*
X0346200Y0159608D01*
X0346200Y0161207D02*
X0360900Y0161207D01*
X0360900Y0162805D02*
X0346200Y0162805D01*
X0346200Y0164404D02*
X0360900Y0164404D01*
X0360900Y0166002D02*
X0346200Y0166002D01*
X0346200Y0167601D02*
X0360900Y0167601D01*
X0360900Y0169199D02*
X0346200Y0169199D01*
X0346200Y0170798D02*
X0360900Y0170798D01*
X0360900Y0172396D02*
X0346200Y0172396D01*
X0346200Y0173995D02*
X0360900Y0173995D01*
X0360900Y0175593D02*
X0346200Y0175593D01*
X0346200Y0177192D02*
X0360900Y0177192D01*
X0360900Y0178790D02*
X0346200Y0178790D01*
X0346200Y0180389D02*
X0352752Y0180389D01*
X0352887Y0180333D02*
X0355313Y0180333D01*
X0357555Y0181262D01*
X0359271Y0182978D01*
X0360200Y0185220D01*
X0360200Y0187647D01*
X0359271Y0189889D01*
X0357555Y0191605D01*
X0355313Y0192533D01*
X0352887Y0192533D01*
X0350645Y0191605D01*
X0348929Y0189889D01*
X0348000Y0187647D01*
X0348000Y0185220D01*
X0348929Y0182978D01*
X0350645Y0181262D01*
X0352887Y0180333D01*
X0355448Y0180389D02*
X0360900Y0180389D01*
X0360900Y0181987D02*
X0358281Y0181987D01*
X0359523Y0183586D02*
X0360900Y0183586D01*
X0360900Y0185184D02*
X0360185Y0185184D01*
X0360200Y0186783D02*
X0360900Y0186783D01*
X0360900Y0188381D02*
X0359896Y0188381D01*
X0359180Y0189980D02*
X0360900Y0189980D01*
X0360900Y0191579D02*
X0357582Y0191579D01*
X0360900Y0193177D02*
X0346200Y0193177D01*
X0346200Y0191579D02*
X0350618Y0191579D01*
X0349020Y0189980D02*
X0346200Y0189980D01*
X0346200Y0188381D02*
X0348304Y0188381D01*
X0348000Y0186783D02*
X0346200Y0186783D01*
X0346200Y0185184D02*
X0348015Y0185184D01*
X0348677Y0183586D02*
X0346200Y0183586D01*
X0346200Y0181987D02*
X0349919Y0181987D01*
X0340400Y0172396D02*
X0327459Y0172396D01*
X0327700Y0170798D02*
X0340400Y0170798D01*
X0340400Y0169199D02*
X0327700Y0169199D01*
X0326790Y0167601D02*
X0340400Y0167601D01*
X0328700Y0181987D02*
X0328300Y0181987D01*
X0328300Y0183586D02*
X0328700Y0183586D01*
X0328700Y0185184D02*
X0328300Y0185184D01*
X0328300Y0186783D02*
X0328700Y0186783D01*
X0328700Y0188381D02*
X0328300Y0188381D01*
X0328300Y0189980D02*
X0328700Y0189980D01*
X0346200Y0194776D02*
X0360900Y0194776D01*
X0360900Y0196374D02*
X0346200Y0196374D01*
X0346200Y0197973D02*
X0360900Y0197973D01*
X0360900Y0199571D02*
X0358064Y0199571D01*
X0359434Y0201170D02*
X0360900Y0201170D01*
X0360900Y0202768D02*
X0360096Y0202768D01*
X0360200Y0204367D02*
X0360900Y0204367D01*
X0360900Y0205965D02*
X0359985Y0205965D01*
X0359323Y0207564D02*
X0360900Y0207564D01*
X0360900Y0209162D02*
X0357798Y0209162D01*
X0360900Y0210761D02*
X0352829Y0210761D01*
X0354427Y0212359D02*
X0360900Y0212359D01*
X0360900Y0213958D02*
X0356026Y0213958D01*
X0356700Y0215556D02*
X0360900Y0215556D01*
X0348215Y0205965D02*
X0348033Y0205965D01*
X0348000Y0204367D02*
X0346434Y0204367D01*
X0346200Y0202768D02*
X0348104Y0202768D01*
X0348766Y0201170D02*
X0346200Y0201170D01*
X0346200Y0199571D02*
X0350136Y0199571D01*
X0340400Y0199571D02*
X0332464Y0199571D01*
X0333834Y0201170D02*
X0340400Y0201170D01*
X0340400Y0202768D02*
X0334496Y0202768D01*
X0324536Y0199571D02*
X0313064Y0199571D01*
X0314434Y0201170D02*
X0323166Y0201170D01*
X0322504Y0202768D02*
X0315096Y0202768D01*
X0315200Y0204367D02*
X0322400Y0204367D01*
X0322243Y0205965D02*
X0314985Y0205965D01*
X0314323Y0207564D02*
X0320644Y0207564D01*
X0319046Y0209162D02*
X0312798Y0209162D01*
X0317447Y0210761D02*
X0292974Y0210761D01*
X0289567Y0205965D02*
X0289385Y0205965D01*
X0284771Y0210761D02*
X0281498Y0210761D01*
X0279900Y0212359D02*
X0283173Y0212359D01*
X0281574Y0213958D02*
X0278301Y0213958D01*
X0276703Y0215556D02*
X0279976Y0215556D01*
X0278377Y0217155D02*
X0275104Y0217155D01*
X0275600Y0221950D02*
X0276000Y0221950D01*
X0276000Y0223549D02*
X0275600Y0223549D01*
X0275600Y0225147D02*
X0276000Y0225147D01*
X0272476Y0221950D02*
X0270044Y0221950D01*
X0261556Y0221950D02*
X0260044Y0221950D01*
X0251556Y0221950D02*
X0250044Y0221950D01*
X0299405Y0244329D02*
X0309695Y0244329D01*
X0308096Y0242731D02*
X0301004Y0242731D01*
X0315401Y0241833D02*
X0316001Y0242433D01*
X0348099Y0242433D01*
X0348866Y0241666D01*
X0347013Y0242433D01*
X0344587Y0242433D01*
X0342345Y0241505D01*
X0340800Y0239960D01*
X0339255Y0241505D01*
X0337013Y0242433D01*
X0334587Y0242433D01*
X0332345Y0241505D01*
X0330800Y0239960D01*
X0329255Y0241505D01*
X0327013Y0242433D01*
X0324587Y0242433D01*
X0322345Y0241505D01*
X0320629Y0239789D01*
X0320432Y0239315D01*
X0319995Y0239916D01*
X0319383Y0240528D01*
X0318683Y0241037D01*
X0317911Y0241430D01*
X0317088Y0241698D01*
X0316233Y0241833D01*
X0316000Y0241833D01*
X0316000Y0236533D01*
X0315600Y0236533D01*
X0315600Y0241833D01*
X0315401Y0241833D01*
X0315600Y0241132D02*
X0316000Y0241132D01*
X0316000Y0239534D02*
X0315600Y0239534D01*
X0315600Y0237935D02*
X0316000Y0237935D01*
X0318496Y0241132D02*
X0321972Y0241132D01*
X0320523Y0239534D02*
X0320273Y0239534D01*
X0329628Y0241132D02*
X0331972Y0241132D01*
X0339628Y0241132D02*
X0341972Y0241132D01*
X0351208Y0247526D02*
X0373600Y0247526D01*
X0373600Y0245928D02*
X0352807Y0245928D01*
X0354405Y0244329D02*
X0373600Y0244329D01*
X0373600Y0242731D02*
X0356004Y0242731D01*
X0373600Y0255519D02*
X0149000Y0255519D01*
X0149000Y0257117D02*
X0373600Y0257117D01*
X0373600Y0258716D02*
X0149000Y0258716D01*
X0148344Y0260314D02*
X0373600Y0260314D01*
X0373600Y0261913D02*
X0146746Y0261913D01*
X0145147Y0263512D02*
X0373600Y0263512D01*
X0331556Y0221950D02*
X0330044Y0221950D01*
X0321556Y0221950D02*
X0320044Y0221950D01*
X0311556Y0221950D02*
X0310044Y0221950D01*
X0260618Y0191579D02*
X0240463Y0191579D01*
X0240611Y0191530D02*
X0239788Y0191798D01*
X0238933Y0191933D01*
X0238700Y0191933D01*
X0238700Y0186633D01*
X0244000Y0186633D01*
X0244000Y0186866D01*
X0243865Y0187721D01*
X0243597Y0188545D01*
X0243204Y0189316D01*
X0242695Y0190016D01*
X0242083Y0190628D01*
X0241383Y0191137D01*
X0240611Y0191530D01*
X0238700Y0191579D02*
X0238300Y0191579D01*
X0238300Y0191933D02*
X0238067Y0191933D01*
X0237212Y0191798D01*
X0236389Y0191530D01*
X0235617Y0191137D01*
X0234917Y0190628D01*
X0234305Y0190016D01*
X0233796Y0189316D01*
X0233403Y0188545D01*
X0233135Y0187721D01*
X0233000Y0186866D01*
X0233000Y0186633D01*
X0238300Y0186633D01*
X0238300Y0186233D01*
X0238700Y0186233D01*
X0238700Y0180933D01*
X0238933Y0180933D01*
X0239788Y0181069D01*
X0240611Y0181336D01*
X0241383Y0181729D01*
X0242083Y0182238D01*
X0242695Y0182850D01*
X0243204Y0183551D01*
X0243597Y0184322D01*
X0243865Y0185145D01*
X0244000Y0186000D01*
X0244000Y0186233D01*
X0238700Y0186233D01*
X0238700Y0186633D01*
X0238300Y0186633D01*
X0238300Y0191933D01*
X0236537Y0191579D02*
X0222582Y0191579D01*
X0224180Y0189980D02*
X0234278Y0189980D01*
X0233350Y0188381D02*
X0224896Y0188381D01*
X0225200Y0186783D02*
X0233000Y0186783D01*
X0233000Y0186233D02*
X0233000Y0186000D01*
X0233135Y0185145D01*
X0233403Y0184322D01*
X0233796Y0183551D01*
X0234305Y0182850D01*
X0234917Y0182238D01*
X0235617Y0181729D01*
X0236389Y0181336D01*
X0237212Y0181069D01*
X0238067Y0180933D01*
X0238300Y0180933D01*
X0238300Y0186233D01*
X0233000Y0186233D01*
X0233129Y0185184D02*
X0225185Y0185184D01*
X0224523Y0183586D02*
X0233778Y0183586D01*
X0235262Y0181987D02*
X0223281Y0181987D01*
X0220448Y0180389D02*
X0262752Y0180389D01*
X0259919Y0181987D02*
X0241738Y0181987D01*
X0243222Y0183586D02*
X0258677Y0183586D01*
X0258015Y0185184D02*
X0243871Y0185184D01*
X0244000Y0186783D02*
X0258000Y0186783D01*
X0258304Y0188381D02*
X0243650Y0188381D01*
X0242722Y0189980D02*
X0259020Y0189980D01*
X0238700Y0189980D02*
X0238300Y0189980D01*
X0238300Y0188381D02*
X0238700Y0188381D01*
X0238700Y0186783D02*
X0238300Y0186783D01*
X0238300Y0185184D02*
X0238700Y0185184D01*
X0238700Y0183586D02*
X0238300Y0183586D01*
X0238300Y0181987D02*
X0238700Y0181987D01*
X0226459Y0175593D02*
X0225615Y0175593D01*
X0211025Y0150017D02*
X0199792Y0150017D01*
X0198194Y0148419D02*
X0293623Y0148419D01*
X0293700Y0146820D02*
X0196595Y0146820D01*
X0195700Y0145222D02*
X0202760Y0145222D01*
X0202770Y0145225D02*
X0202111Y0145011D01*
X0201494Y0144697D01*
X0200934Y0144289D01*
X0200444Y0143800D01*
X0200037Y0143239D01*
X0199722Y0142622D01*
X0199508Y0141964D01*
X0199400Y0141280D01*
X0199400Y0138333D01*
X0199400Y0135387D01*
X0199508Y0134703D01*
X0199722Y0134044D01*
X0200037Y0133427D01*
X0200444Y0132867D01*
X0200934Y0132377D01*
X0201494Y0131970D01*
X0202111Y0131656D01*
X0202770Y0131442D01*
X0203454Y0131333D01*
X0203800Y0131333D01*
X0204146Y0131333D01*
X0204830Y0131442D01*
X0205489Y0131656D01*
X0206106Y0131970D01*
X0206666Y0132377D01*
X0207156Y0132867D01*
X0207563Y0133427D01*
X0207878Y0134044D01*
X0208092Y0134703D01*
X0208200Y0135387D01*
X0208200Y0138333D01*
X0203800Y0138333D01*
X0203800Y0131333D01*
X0203800Y0138333D01*
X0203800Y0138333D01*
X0203800Y0138333D01*
X0199400Y0138333D01*
X0203800Y0138333D01*
X0203800Y0138333D01*
X0208200Y0138333D01*
X0208200Y0141280D01*
X0208092Y0141964D01*
X0207878Y0142622D01*
X0207563Y0143239D01*
X0207156Y0143800D01*
X0206666Y0144289D01*
X0206106Y0144697D01*
X0205489Y0145011D01*
X0204830Y0145225D01*
X0204146Y0145333D01*
X0203800Y0145333D01*
X0203454Y0145333D01*
X0202770Y0145225D01*
X0203800Y0145222D02*
X0203800Y0145222D01*
X0203800Y0145333D02*
X0203800Y0138333D01*
X0203800Y0138333D01*
X0203800Y0145333D01*
X0204840Y0145222D02*
X0212760Y0145222D01*
X0212770Y0145225D02*
X0212111Y0145011D01*
X0211494Y0144697D01*
X0210934Y0144289D01*
X0210444Y0143800D01*
X0210037Y0143239D01*
X0209722Y0142622D01*
X0209508Y0141964D01*
X0209400Y0141280D01*
X0209400Y0138333D01*
X0209400Y0135387D01*
X0209508Y0134703D01*
X0209722Y0134044D01*
X0210037Y0133427D01*
X0210444Y0132867D01*
X0210934Y0132377D01*
X0211494Y0131970D01*
X0212111Y0131656D01*
X0212770Y0131442D01*
X0213454Y0131333D01*
X0213800Y0131333D01*
X0214146Y0131333D01*
X0214830Y0131442D01*
X0215489Y0131656D01*
X0216106Y0131970D01*
X0216666Y0132377D01*
X0217156Y0132867D01*
X0217563Y0133427D01*
X0217878Y0134044D01*
X0218092Y0134703D01*
X0218200Y0135387D01*
X0218200Y0138333D01*
X0213800Y0138333D01*
X0213800Y0131333D01*
X0213800Y0138333D01*
X0213800Y0138333D01*
X0213800Y0138333D01*
X0209400Y0138333D01*
X0213800Y0138333D01*
X0213800Y0138333D01*
X0218200Y0138333D01*
X0218200Y0141280D01*
X0218092Y0141964D01*
X0217878Y0142622D01*
X0217563Y0143239D01*
X0217156Y0143800D01*
X0216666Y0144289D01*
X0216106Y0144697D01*
X0215489Y0145011D01*
X0214830Y0145225D01*
X0214146Y0145333D01*
X0213800Y0145333D01*
X0213454Y0145333D01*
X0212770Y0145225D01*
X0213800Y0145222D02*
X0213800Y0145222D01*
X0213800Y0145333D02*
X0213800Y0138333D01*
X0213800Y0138333D01*
X0213800Y0145333D01*
X0214840Y0145222D02*
X0222760Y0145222D01*
X0222770Y0145225D02*
X0222111Y0145011D01*
X0221494Y0144697D01*
X0220934Y0144289D01*
X0220444Y0143800D01*
X0220037Y0143239D01*
X0219722Y0142622D01*
X0219508Y0141964D01*
X0219400Y0141280D01*
X0219400Y0138333D01*
X0223800Y0138333D01*
X0223800Y0138333D01*
X0223800Y0138333D01*
X0228200Y0138333D01*
X0228200Y0141280D01*
X0228092Y0141964D01*
X0227878Y0142622D01*
X0227563Y0143239D01*
X0227156Y0143800D01*
X0226666Y0144289D01*
X0226106Y0144697D01*
X0225489Y0145011D01*
X0224830Y0145225D01*
X0224146Y0145333D01*
X0223800Y0145333D01*
X0223454Y0145333D01*
X0222770Y0145225D01*
X0223800Y0145222D02*
X0223800Y0145222D01*
X0223800Y0145333D02*
X0223800Y0138333D01*
X0223800Y0138333D01*
X0223800Y0145333D01*
X0224840Y0145222D02*
X0232760Y0145222D01*
X0232770Y0145225D02*
X0232111Y0145011D01*
X0231494Y0144697D01*
X0230934Y0144289D01*
X0230444Y0143800D01*
X0230037Y0143239D01*
X0229722Y0142622D01*
X0229508Y0141964D01*
X0229400Y0141280D01*
X0229400Y0138333D01*
X0233800Y0138333D01*
X0233800Y0138333D01*
X0233800Y0138333D01*
X0238200Y0138333D01*
X0238200Y0141280D01*
X0238092Y0141964D01*
X0237878Y0142622D01*
X0237563Y0143239D01*
X0237156Y0143800D01*
X0236666Y0144289D01*
X0236106Y0144697D01*
X0235489Y0145011D01*
X0234830Y0145225D01*
X0234146Y0145333D01*
X0233800Y0145333D01*
X0233454Y0145333D01*
X0232770Y0145225D01*
X0233800Y0145222D02*
X0233800Y0145222D01*
X0233800Y0145333D02*
X0233800Y0138333D01*
X0233800Y0138333D01*
X0233800Y0145333D01*
X0234840Y0145222D02*
X0293700Y0145222D01*
X0293700Y0143623D02*
X0260081Y0143623D01*
X0259371Y0144333D02*
X0255229Y0144333D01*
X0252300Y0141404D01*
X0252300Y0137262D01*
X0255229Y0134333D01*
X0259371Y0134333D01*
X0262300Y0137262D01*
X0262300Y0141404D01*
X0259371Y0144333D01*
X0261680Y0142025D02*
X0292920Y0142025D01*
X0292300Y0140426D02*
X0262300Y0140426D01*
X0262300Y0138828D02*
X0292300Y0138828D01*
X0292333Y0137229D02*
X0262267Y0137229D01*
X0260668Y0135631D02*
X0293932Y0135631D01*
X0300668Y0135631D02*
X0303996Y0135631D01*
X0305595Y0137229D02*
X0302267Y0137229D01*
X0302300Y0138828D02*
X0307193Y0138828D01*
X0308792Y0140426D02*
X0302300Y0140426D01*
X0301680Y0142025D02*
X0310390Y0142025D01*
X0311989Y0143623D02*
X0300900Y0143623D01*
X0300900Y0145222D02*
X0314195Y0145222D01*
X0315396Y0138828D02*
X0346693Y0138828D01*
X0348292Y0140426D02*
X0328994Y0140426D01*
X0326672Y0134032D02*
X0341898Y0134032D01*
X0343496Y0135631D02*
X0312198Y0135631D01*
X0310600Y0134032D02*
X0319928Y0134032D01*
X0318329Y0132434D02*
X0309001Y0132434D01*
X0307403Y0130835D02*
X0318300Y0130835D01*
X0318300Y0129237D02*
X0305804Y0129237D01*
X0302398Y0134032D02*
X0237871Y0134032D01*
X0238200Y0135631D02*
X0253932Y0135631D01*
X0252333Y0137229D02*
X0238200Y0137229D01*
X0238200Y0138828D02*
X0252300Y0138828D01*
X0252300Y0140426D02*
X0238200Y0140426D01*
X0238072Y0142025D02*
X0252920Y0142025D01*
X0254519Y0143623D02*
X0237284Y0143623D01*
X0233800Y0143623D02*
X0233800Y0143623D01*
X0233800Y0142025D02*
X0233800Y0142025D01*
X0233800Y0140426D02*
X0233800Y0140426D01*
X0233800Y0138828D02*
X0233800Y0138828D01*
X0229400Y0138828D02*
X0228200Y0138828D01*
X0228200Y0140426D02*
X0229400Y0140426D01*
X0229528Y0142025D02*
X0228072Y0142025D01*
X0227284Y0143623D02*
X0230316Y0143623D01*
X0223800Y0143623D02*
X0223800Y0143623D01*
X0223800Y0142025D02*
X0223800Y0142025D01*
X0223800Y0140426D02*
X0223800Y0140426D01*
X0223800Y0138828D02*
X0223800Y0138828D01*
X0219400Y0138828D02*
X0218200Y0138828D01*
X0218200Y0140426D02*
X0219400Y0140426D01*
X0219528Y0142025D02*
X0218072Y0142025D01*
X0217284Y0143623D02*
X0220316Y0143623D01*
X0213800Y0143623D02*
X0213800Y0143623D01*
X0213800Y0142025D02*
X0213800Y0142025D01*
X0213800Y0140426D02*
X0213800Y0140426D01*
X0213800Y0138828D02*
X0213800Y0138828D01*
X0213800Y0137229D02*
X0213800Y0137229D01*
X0213800Y0135631D02*
X0213800Y0135631D01*
X0213800Y0134032D02*
X0213800Y0134032D01*
X0213800Y0132434D02*
X0213800Y0132434D01*
X0216723Y0132434D02*
X0220299Y0132434D01*
X0219729Y0134032D02*
X0217871Y0134032D01*
X0218200Y0135631D02*
X0219400Y0135631D01*
X0219400Y0137229D02*
X0218200Y0137229D01*
X0209729Y0134032D02*
X0207871Y0134032D01*
X0208200Y0135631D02*
X0209400Y0135631D01*
X0209400Y0137229D02*
X0208200Y0137229D01*
X0208200Y0138828D02*
X0209400Y0138828D01*
X0209400Y0140426D02*
X0208200Y0140426D01*
X0208072Y0142025D02*
X0209528Y0142025D01*
X0210316Y0143623D02*
X0207284Y0143623D01*
X0203800Y0143623D02*
X0203800Y0143623D01*
X0203800Y0142025D02*
X0203800Y0142025D01*
X0203800Y0140426D02*
X0203800Y0140426D01*
X0203800Y0138828D02*
X0203800Y0138828D01*
X0203800Y0137229D02*
X0203800Y0137229D01*
X0203800Y0135631D02*
X0203800Y0135631D01*
X0203800Y0134032D02*
X0203800Y0134032D01*
X0203800Y0132434D02*
X0203800Y0132434D01*
X0206723Y0132434D02*
X0210877Y0132434D01*
X0215504Y0127638D02*
X0201804Y0127638D01*
X0200205Y0129237D02*
X0217102Y0129237D01*
X0218701Y0130835D02*
X0198607Y0130835D01*
X0197008Y0132434D02*
X0200877Y0132434D01*
X0199729Y0134032D02*
X0195700Y0134032D01*
X0195700Y0135631D02*
X0199400Y0135631D01*
X0199400Y0137229D02*
X0195700Y0137229D01*
X0195700Y0138828D02*
X0199400Y0138828D01*
X0199400Y0140426D02*
X0195700Y0140426D01*
X0195700Y0142025D02*
X0199528Y0142025D01*
X0200316Y0143623D02*
X0195700Y0143623D01*
X0228200Y0137229D02*
X0229400Y0137229D01*
X0229400Y0135631D02*
X0228200Y0135631D01*
X0227871Y0134032D02*
X0229729Y0134032D01*
X0213905Y0126040D02*
X0205372Y0126040D01*
X0206264Y0124441D02*
X0212306Y0124441D01*
X0210708Y0122843D02*
X0206386Y0122843D01*
X0205857Y0121244D02*
X0209109Y0121244D01*
X0207511Y0119645D02*
X0204074Y0119645D01*
X0238300Y0100463D02*
X0238700Y0100463D01*
X0238700Y0098865D02*
X0238300Y0098865D01*
X0238300Y0097266D02*
X0238700Y0097266D01*
X0238700Y0095668D02*
X0238300Y0095668D01*
X0238300Y0094069D02*
X0238700Y0094069D01*
X0238700Y0092471D02*
X0238300Y0092471D01*
X0230800Y0085333D02*
X0227800Y0085333D01*
X0266092Y0108456D02*
X0281508Y0108456D01*
X0279052Y0110054D02*
X0268548Y0110054D01*
X0269634Y0111653D02*
X0277966Y0111653D01*
X0277400Y0113251D02*
X0270200Y0113251D01*
X0270200Y0114850D02*
X0277400Y0114850D01*
X0277815Y0116448D02*
X0269785Y0116448D01*
X0268913Y0118047D02*
X0278687Y0118047D01*
X0280626Y0119645D02*
X0266974Y0119645D01*
X0283300Y0100463D02*
X0283700Y0100463D01*
X0283700Y0098865D02*
X0283300Y0098865D01*
X0283300Y0097266D02*
X0283700Y0097266D01*
X0283700Y0095668D02*
X0283300Y0095668D01*
X0283300Y0094069D02*
X0283700Y0094069D01*
X0283700Y0092471D02*
X0283300Y0092471D01*
X0292622Y0068493D02*
X0334549Y0068493D01*
X0336148Y0066895D02*
X0329842Y0066895D01*
X0331247Y0065296D02*
X0337746Y0065296D01*
X0338200Y0063698D02*
X0331909Y0063698D01*
X0332074Y0062099D02*
X0338200Y0062099D01*
X0338200Y0060501D02*
X0331959Y0060501D01*
X0331297Y0058902D02*
X0336867Y0058902D01*
X0335302Y0057304D02*
X0329964Y0057304D01*
X0327007Y0055705D02*
X0334640Y0055705D01*
X0334361Y0054107D02*
X0318960Y0054107D01*
X0317361Y0052508D02*
X0334361Y0052508D01*
X0334361Y0050910D02*
X0315763Y0050910D01*
X0314164Y0049311D02*
X0334361Y0049311D01*
X0334361Y0047712D02*
X0312566Y0047712D01*
X0310967Y0046114D02*
X0334361Y0046114D01*
X0334410Y0044515D02*
X0309369Y0044515D01*
X0307770Y0042917D02*
X0313796Y0042917D01*
X0310194Y0041318D02*
X0306172Y0041318D01*
X0312384Y0033326D02*
X0313598Y0033326D01*
X0310785Y0031727D02*
X0316501Y0031727D01*
X0309187Y0030129D02*
X0373600Y0030129D01*
X0373600Y0031727D02*
X0327099Y0031727D01*
X0330002Y0033326D02*
X0373600Y0033326D01*
X0373600Y0034924D02*
X0331313Y0034924D01*
X0331975Y0036523D02*
X0373600Y0036523D01*
X0373600Y0038121D02*
X0332074Y0038121D01*
X0331893Y0039720D02*
X0339049Y0039720D01*
X0336314Y0041318D02*
X0331231Y0041318D01*
X0329804Y0042917D02*
X0335073Y0042917D01*
X0342346Y0039720D02*
X0373600Y0039720D01*
X0373600Y0041318D02*
X0345082Y0041318D01*
X0346323Y0042917D02*
X0373600Y0042917D01*
X0373600Y0044515D02*
X0346985Y0044515D01*
X0347035Y0046114D02*
X0373600Y0046114D01*
X0373600Y0047712D02*
X0347035Y0047712D01*
X0347035Y0049311D02*
X0373600Y0049311D01*
X0373600Y0050910D02*
X0347035Y0050910D01*
X0347035Y0052508D02*
X0373600Y0052508D01*
X0373600Y0054107D02*
X0347035Y0054107D01*
X0346755Y0055705D02*
X0373600Y0055705D01*
X0373600Y0057304D02*
X0346093Y0057304D01*
X0345400Y0058902D02*
X0373600Y0058902D01*
X0373600Y0060501D02*
X0345400Y0060501D01*
X0345400Y0062099D02*
X0373600Y0062099D01*
X0373600Y0063698D02*
X0345400Y0063698D01*
X0345400Y0065296D02*
X0373600Y0065296D01*
X0373600Y0066895D02*
X0345400Y0066895D01*
X0344731Y0068493D02*
X0373600Y0068493D01*
X0373600Y0070092D02*
X0343133Y0070092D01*
X0341534Y0071690D02*
X0373600Y0071690D01*
X0373600Y0073289D02*
X0339936Y0073289D01*
X0338337Y0074887D02*
X0373600Y0074887D01*
X0328700Y0092471D02*
X0328300Y0092471D01*
X0328300Y0094069D02*
X0328700Y0094069D01*
X0328700Y0095668D02*
X0328300Y0095668D01*
X0328300Y0097266D02*
X0328700Y0097266D01*
X0328700Y0098865D02*
X0328300Y0098865D01*
X0328300Y0100463D02*
X0328700Y0100463D01*
X0328300Y0129237D02*
X0337102Y0129237D01*
X0338701Y0130835D02*
X0328300Y0130835D01*
X0328271Y0132434D02*
X0340299Y0132434D01*
X0345095Y0137229D02*
X0313797Y0137229D01*
X0313758Y0066895D02*
X0291024Y0066895D01*
X0289425Y0065296D02*
X0312353Y0065296D01*
X0307588Y0028530D02*
X0373600Y0028530D01*
X0185705Y0028530D02*
X0005500Y0028530D01*
X0017700Y0084478D02*
X0017900Y0084478D01*
X0017900Y0086077D02*
X0017700Y0086077D01*
X0017700Y0087675D02*
X0017900Y0087675D01*
X0017900Y0089274D02*
X0017700Y0089274D01*
X0017700Y0090872D02*
X0017900Y0090872D01*
X0017900Y0092471D02*
X0017700Y0092471D01*
X0127800Y0065833D02*
X0129800Y0065833D01*
X0130073Y0041318D02*
X0135100Y0041318D01*
X0135100Y0039720D02*
X0131550Y0039720D01*
X0140318Y0033326D02*
X0142446Y0033326D01*
D23*
X0117800Y0076333D03*
X0135800Y0093333D03*
X0139300Y0098333D03*
X0139300Y0109833D03*
X0140800Y0140333D03*
X0140300Y0162833D03*
X0114800Y0186833D03*
X0128300Y0193833D03*
X0246300Y0249333D03*
X0202300Y0123333D03*
X0318800Y0112333D03*
D24*
X0297300Y0139333D02*
X0297300Y0149833D01*
X0294800Y0152333D01*
X0294800Y0158833D01*
X0295300Y0159333D01*
X0294800Y0152333D02*
X0213800Y0152333D01*
X0212550Y0153583D01*
X0203800Y0162333D01*
X0203800Y0168333D01*
X0233800Y0168333D02*
X0246300Y0168333D01*
X0255300Y0159333D01*
X0127800Y0103833D02*
X0119800Y0111833D01*
X0119800Y0247833D01*
X0128300Y0256333D01*
X0128800Y0255833D01*
X0140300Y0255833D01*
X0140300Y0229333D01*
X0143300Y0226333D01*
X0155800Y0226333D01*
X0127800Y0103833D02*
X0127800Y0085833D01*
X0252300Y0031333D02*
X0253800Y0031333D01*
X0305300Y0031333D01*
X0312300Y0038333D01*
X0321489Y0038333D01*
X0321800Y0038022D01*
X0300095Y0040333D02*
X0285300Y0040333D01*
X0285300Y0047833D01*
X0264300Y0068833D01*
X0264300Y0072333D01*
X0284300Y0072333D02*
X0335800Y0072333D01*
X0341800Y0066333D01*
X0341800Y0050936D01*
X0340698Y0049833D01*
X0321800Y0062038D02*
X0300095Y0040333D01*
D25*
X0202300Y0123333D02*
X0201300Y0123333D01*
X0192300Y0132333D01*
X0192300Y0147333D01*
X0198550Y0153583D01*
X0212550Y0153583D01*
D26*
X0223800Y0168333D02*
X0223800Y0168833D01*
X0231800Y0176833D01*
X0292800Y0176833D01*
X0295800Y0179833D01*
X0295800Y0203833D01*
X0280800Y0218833D01*
X0280800Y0229833D01*
X0285800Y0234833D01*
X0285800Y0236333D01*
X0296800Y0242833D02*
X0253800Y0242833D01*
X0247300Y0249333D01*
X0246300Y0249333D01*
X0235800Y0236333D02*
X0230800Y0231333D01*
X0182300Y0231333D01*
X0180800Y0229833D01*
X0180800Y0221333D01*
X0177800Y0218333D01*
X0170800Y0218333D01*
X0161300Y0208833D01*
X0161300Y0146433D01*
X0193500Y0114233D01*
X0200800Y0108833D02*
X0222800Y0130833D01*
X0303300Y0130833D01*
X0314800Y0142333D01*
X0326800Y0142333D01*
X0343300Y0158833D01*
X0343300Y0205333D01*
X0353800Y0215833D01*
X0353800Y0231833D01*
X0349300Y0236333D01*
X0345800Y0236333D01*
X0349300Y0245333D02*
X0363800Y0230833D01*
X0363800Y0151833D01*
X0336800Y0124833D01*
X0249100Y0124833D01*
X0238500Y0114233D01*
X0200800Y0108833D02*
X0200800Y0105333D01*
X0167300Y0105333D01*
X0167300Y0110333D01*
X0157800Y0119833D01*
X0152300Y0119833D01*
X0140800Y0131333D01*
X0140800Y0140333D01*
X0136800Y0136333D02*
X0131300Y0130833D01*
X0127800Y0130833D01*
X0135800Y0122833D01*
X0129800Y0119333D02*
X0129300Y0119333D01*
X0127800Y0120833D01*
X0139300Y0109833D02*
X0139300Y0098333D01*
X0129800Y0065833D02*
X0130300Y0065333D01*
X0131800Y0055833D02*
X0127800Y0055833D01*
X0127800Y0045833D02*
X0127800Y0044833D01*
X0128800Y0043833D01*
X0128800Y0043333D01*
X0128800Y0043833D02*
X0128800Y0044833D01*
X0127800Y0045833D01*
X0127800Y0035833D02*
X0125300Y0035833D01*
X0227300Y0085833D02*
X0227800Y0085333D01*
X0281300Y0114833D02*
X0281900Y0114233D01*
X0283500Y0114233D01*
X0136800Y0136333D02*
X0136800Y0230833D01*
X0131300Y0236333D01*
X0128300Y0236333D01*
X0296800Y0242833D02*
X0301014Y0238619D01*
X0300800Y0238404D01*
X0300800Y0234262D01*
X0303729Y0231333D01*
X0330800Y0231333D01*
X0335800Y0236333D01*
X0349300Y0245333D02*
X0314800Y0245333D01*
X0305800Y0236333D01*
M02*
