%
M48
M72
T01C0.0177
T02C0.0320
T03C0.0360
T04C0.0394
T05C0.0400
T06C0.0440
T07C0.0630
T08C0.0866
T09C0.1300
%
T01
X11780Y7633
X13580Y9333
X13930Y9833
X13930Y10983
X14080Y14033
X14030Y16283
X11480Y18683
X12830Y19383
X24630Y24933
X20230Y12333
X31880Y11233
T02
X3130Y5933
X5880Y5783
X5880Y6783
X3130Y7333
X4030Y8833
X7030Y8833
X6330Y11033
X5330Y11033
X4330Y11033
X3330Y11033
X1630Y12233
X1630Y13233
X3330Y14033
X4330Y14033
X5330Y14033
X6330Y14033
X20380Y13833
X21380Y13833
X22380Y13833
X23380Y13833
X25730Y13933
X25530Y15933
X23380Y16833
X22380Y16833
X21380Y16833
X20380Y16833
X29530Y15933
X32330Y17033
X29730Y13933
X32330Y13033
T03
X28530Y4033
X27530Y4033
X1780Y8883
X1780Y9883
X1630Y15083
X1630Y16083
T04
X32180Y6204
X34070Y4983
X32180Y3802
T05
X32850Y9643
X30910Y9643
X28350Y9643
X26410Y9643
X23850Y9643
X21910Y9643
X19350Y9643
X17410Y9643
X14850Y9643
X12780Y8583
X12780Y7583
X12780Y6583
X12780Y5583
X12780Y4583
X12780Y3583
X14850Y11423
X12780Y12083
X12780Y13083
X12780Y14083
X12780Y15083
X12780Y16083
X12780Y17083
X12780Y18083
X14850Y18643
X17410Y18643
X19350Y18643
X21910Y18643
X23850Y18643
X26410Y18643
X28350Y18643
X30910Y18643
X32850Y18643
X35410Y18643
X35410Y20423
X32850Y20423
X30910Y20423
X28350Y20423
X26410Y20423
X23850Y20423
X21910Y20423
X19350Y20423
X17410Y20423
X14850Y20423
X12830Y20633
X12830Y21633
X12830Y22633
X12830Y23633
X12830Y24633
X12830Y25633
X15580Y23633
X16580Y23633
X17580Y23633
X18580Y23633
X19580Y23633
X20580Y23633
X21580Y23633
X22580Y23633
X23580Y23633
X24580Y23633
X25580Y23633
X26580Y23633
X27580Y23633
X28580Y23633
X29580Y23633
X30580Y23633
X31580Y23633
X32580Y23633
X33580Y23633
X34580Y23633
X34580Y22633
X33580Y22633
X32580Y22633
X31580Y22633
X30580Y22633
X29580Y22633
X28580Y22633
X27580Y22633
X26580Y22633
X25580Y22633
X24580Y22633
X23580Y22633
X22580Y22633
X21580Y22633
X20580Y22633
X19580Y22633
X18580Y22633
X17580Y22633
X16580Y22633
X15580Y22633
X17410Y11423
X19350Y11423
X21910Y11423
X23850Y11423
X26410Y11423
X28350Y11423
X30910Y11423
X32850Y11423
X35410Y11423
X35410Y9643
T06
X28430Y7233
X26430Y7233
X14930Y5783
X14930Y4783
X14930Y3783
T07
X5943Y19919
X1494Y19919
X1494Y22399
X5943Y22399
X5943Y24880
X1494Y24880
T08
X1632Y23620
X5805Y23620
T09
X20830Y4783
M30
