G75*
%MOIN*%
%OFA0B0*%
%FSLAX25Y25*%
%IPPOS*%
%LPD*%
%AMOC8*
5,1,8,0,0,1.08239X$1,22.5*
%
%ADD10C,0.00600*%
%ADD11C,0.00500*%
%ADD12R,0.03400X0.02400*%
%ADD13R,0.02400X0.03400*%
%ADD14C,0.00800*%
%ADD15C,0.00400*%
%ADD16C,0.01000*%
%ADD17C,0.00200*%
%ADD18C,0.00700*%
%ADD19R,0.02500X0.03000*%
%ADD20R,0.11000X0.05000*%
%ADD21R,0.01500X0.02000*%
%ADD22C,0.01200*%
D10*
X0026800Y0052833D02*
X0026800Y0055833D01*
X0028300Y0054333D02*
X0025300Y0054333D01*
X0015300Y0066333D02*
X0015305Y0066726D01*
X0015319Y0067118D01*
X0015343Y0067510D01*
X0015377Y0067901D01*
X0015420Y0068292D01*
X0015473Y0068681D01*
X0015536Y0069068D01*
X0015607Y0069454D01*
X0015689Y0069839D01*
X0015779Y0070221D01*
X0015880Y0070600D01*
X0015989Y0070978D01*
X0016108Y0071352D01*
X0016235Y0071723D01*
X0016372Y0072091D01*
X0016518Y0072456D01*
X0016673Y0072817D01*
X0016836Y0073174D01*
X0017008Y0073527D01*
X0017189Y0073875D01*
X0017379Y0074219D01*
X0017576Y0074559D01*
X0017782Y0074893D01*
X0017996Y0075222D01*
X0018219Y0075546D01*
X0018449Y0075864D01*
X0018686Y0076177D01*
X0018932Y0076483D01*
X0019185Y0076784D01*
X0019445Y0077078D01*
X0019712Y0077366D01*
X0019986Y0077647D01*
X0020267Y0077921D01*
X0020555Y0078188D01*
X0020849Y0078448D01*
X0021150Y0078701D01*
X0021456Y0078947D01*
X0021769Y0079184D01*
X0022087Y0079414D01*
X0022411Y0079637D01*
X0022740Y0079851D01*
X0023074Y0080057D01*
X0023414Y0080254D01*
X0023758Y0080444D01*
X0024106Y0080625D01*
X0024459Y0080797D01*
X0024816Y0080960D01*
X0025177Y0081115D01*
X0025542Y0081261D01*
X0025910Y0081398D01*
X0026281Y0081525D01*
X0026655Y0081644D01*
X0027033Y0081753D01*
X0027412Y0081854D01*
X0027794Y0081944D01*
X0028179Y0082026D01*
X0028565Y0082097D01*
X0028952Y0082160D01*
X0029341Y0082213D01*
X0029732Y0082256D01*
X0030123Y0082290D01*
X0030515Y0082314D01*
X0030907Y0082328D01*
X0031300Y0082333D01*
X0031693Y0082328D01*
X0032085Y0082314D01*
X0032477Y0082290D01*
X0032868Y0082256D01*
X0033259Y0082213D01*
X0033648Y0082160D01*
X0034035Y0082097D01*
X0034421Y0082026D01*
X0034806Y0081944D01*
X0035188Y0081854D01*
X0035567Y0081753D01*
X0035945Y0081644D01*
X0036319Y0081525D01*
X0036690Y0081398D01*
X0037058Y0081261D01*
X0037423Y0081115D01*
X0037784Y0080960D01*
X0038141Y0080797D01*
X0038494Y0080625D01*
X0038842Y0080444D01*
X0039186Y0080254D01*
X0039526Y0080057D01*
X0039860Y0079851D01*
X0040189Y0079637D01*
X0040513Y0079414D01*
X0040831Y0079184D01*
X0041144Y0078947D01*
X0041450Y0078701D01*
X0041751Y0078448D01*
X0042045Y0078188D01*
X0042333Y0077921D01*
X0042614Y0077647D01*
X0042888Y0077366D01*
X0043155Y0077078D01*
X0043415Y0076784D01*
X0043668Y0076483D01*
X0043914Y0076177D01*
X0044151Y0075864D01*
X0044381Y0075546D01*
X0044604Y0075222D01*
X0044818Y0074893D01*
X0045024Y0074559D01*
X0045221Y0074219D01*
X0045411Y0073875D01*
X0045592Y0073527D01*
X0045764Y0073174D01*
X0045927Y0072817D01*
X0046082Y0072456D01*
X0046228Y0072091D01*
X0046365Y0071723D01*
X0046492Y0071352D01*
X0046611Y0070978D01*
X0046720Y0070600D01*
X0046821Y0070221D01*
X0046911Y0069839D01*
X0046993Y0069454D01*
X0047064Y0069068D01*
X0047127Y0068681D01*
X0047180Y0068292D01*
X0047223Y0067901D01*
X0047257Y0067510D01*
X0047281Y0067118D01*
X0047295Y0066726D01*
X0047300Y0066333D01*
X0047295Y0065940D01*
X0047281Y0065548D01*
X0047257Y0065156D01*
X0047223Y0064765D01*
X0047180Y0064374D01*
X0047127Y0063985D01*
X0047064Y0063598D01*
X0046993Y0063212D01*
X0046911Y0062827D01*
X0046821Y0062445D01*
X0046720Y0062066D01*
X0046611Y0061688D01*
X0046492Y0061314D01*
X0046365Y0060943D01*
X0046228Y0060575D01*
X0046082Y0060210D01*
X0045927Y0059849D01*
X0045764Y0059492D01*
X0045592Y0059139D01*
X0045411Y0058791D01*
X0045221Y0058447D01*
X0045024Y0058107D01*
X0044818Y0057773D01*
X0044604Y0057444D01*
X0044381Y0057120D01*
X0044151Y0056802D01*
X0043914Y0056489D01*
X0043668Y0056183D01*
X0043415Y0055882D01*
X0043155Y0055588D01*
X0042888Y0055300D01*
X0042614Y0055019D01*
X0042333Y0054745D01*
X0042045Y0054478D01*
X0041751Y0054218D01*
X0041450Y0053965D01*
X0041144Y0053719D01*
X0040831Y0053482D01*
X0040513Y0053252D01*
X0040189Y0053029D01*
X0039860Y0052815D01*
X0039526Y0052609D01*
X0039186Y0052412D01*
X0038842Y0052222D01*
X0038494Y0052041D01*
X0038141Y0051869D01*
X0037784Y0051706D01*
X0037423Y0051551D01*
X0037058Y0051405D01*
X0036690Y0051268D01*
X0036319Y0051141D01*
X0035945Y0051022D01*
X0035567Y0050913D01*
X0035188Y0050812D01*
X0034806Y0050722D01*
X0034421Y0050640D01*
X0034035Y0050569D01*
X0033648Y0050506D01*
X0033259Y0050453D01*
X0032868Y0050410D01*
X0032477Y0050376D01*
X0032085Y0050352D01*
X0031693Y0050338D01*
X0031300Y0050333D01*
X0030907Y0050338D01*
X0030515Y0050352D01*
X0030123Y0050376D01*
X0029732Y0050410D01*
X0029341Y0050453D01*
X0028952Y0050506D01*
X0028565Y0050569D01*
X0028179Y0050640D01*
X0027794Y0050722D01*
X0027412Y0050812D01*
X0027033Y0050913D01*
X0026655Y0051022D01*
X0026281Y0051141D01*
X0025910Y0051268D01*
X0025542Y0051405D01*
X0025177Y0051551D01*
X0024816Y0051706D01*
X0024459Y0051869D01*
X0024106Y0052041D01*
X0023758Y0052222D01*
X0023414Y0052412D01*
X0023074Y0052609D01*
X0022740Y0052815D01*
X0022411Y0053029D01*
X0022087Y0053252D01*
X0021769Y0053482D01*
X0021456Y0053719D01*
X0021150Y0053965D01*
X0020849Y0054218D01*
X0020555Y0054478D01*
X0020267Y0054745D01*
X0019986Y0055019D01*
X0019712Y0055300D01*
X0019445Y0055588D01*
X0019185Y0055882D01*
X0018932Y0056183D01*
X0018686Y0056489D01*
X0018449Y0056802D01*
X0018219Y0057120D01*
X0017996Y0057444D01*
X0017782Y0057773D01*
X0017576Y0058107D01*
X0017379Y0058447D01*
X0017189Y0058791D01*
X0017008Y0059139D01*
X0016836Y0059492D01*
X0016673Y0059849D01*
X0016518Y0060210D01*
X0016372Y0060575D01*
X0016235Y0060943D01*
X0016108Y0061314D01*
X0015989Y0061688D01*
X0015880Y0062066D01*
X0015779Y0062445D01*
X0015689Y0062827D01*
X0015607Y0063212D01*
X0015536Y0063598D01*
X0015473Y0063985D01*
X0015420Y0064374D01*
X0015377Y0064765D01*
X0015343Y0065156D01*
X0015319Y0065548D01*
X0015305Y0065940D01*
X0015300Y0066333D01*
X0013800Y0083833D02*
X0021800Y0083833D01*
X0022800Y0084833D01*
X0022800Y0092833D01*
X0021800Y0093833D01*
X0022800Y0094833D01*
X0022800Y0102833D01*
X0021800Y0103833D01*
X0013800Y0103833D01*
X0012800Y0102833D01*
X0012800Y0094833D01*
X0013800Y0093833D01*
X0012800Y0092833D01*
X0012800Y0084833D01*
X0013800Y0083833D01*
X0045300Y0085333D02*
X0045300Y0091333D01*
X0045302Y0091393D01*
X0045307Y0091454D01*
X0045316Y0091513D01*
X0045329Y0091572D01*
X0045345Y0091631D01*
X0045365Y0091688D01*
X0045388Y0091743D01*
X0045415Y0091798D01*
X0045444Y0091850D01*
X0045477Y0091901D01*
X0045513Y0091950D01*
X0045551Y0091996D01*
X0045593Y0092040D01*
X0045637Y0092082D01*
X0045683Y0092120D01*
X0045732Y0092156D01*
X0045783Y0092189D01*
X0045835Y0092218D01*
X0045890Y0092245D01*
X0045945Y0092268D01*
X0046002Y0092288D01*
X0046061Y0092304D01*
X0046120Y0092317D01*
X0046179Y0092326D01*
X0046240Y0092331D01*
X0046300Y0092333D01*
X0047800Y0092333D01*
X0048300Y0091833D01*
X0062300Y0091833D01*
X0062800Y0092333D01*
X0064300Y0092333D01*
X0064360Y0092331D01*
X0064421Y0092326D01*
X0064480Y0092317D01*
X0064539Y0092304D01*
X0064598Y0092288D01*
X0064655Y0092268D01*
X0064710Y0092245D01*
X0064765Y0092218D01*
X0064817Y0092189D01*
X0064868Y0092156D01*
X0064917Y0092120D01*
X0064963Y0092082D01*
X0065007Y0092040D01*
X0065049Y0091996D01*
X0065087Y0091950D01*
X0065123Y0091901D01*
X0065156Y0091850D01*
X0065185Y0091798D01*
X0065212Y0091743D01*
X0065235Y0091688D01*
X0065255Y0091631D01*
X0065271Y0091572D01*
X0065284Y0091513D01*
X0065293Y0091454D01*
X0065298Y0091393D01*
X0065300Y0091333D01*
X0065300Y0085333D01*
X0065298Y0085273D01*
X0065293Y0085212D01*
X0065284Y0085153D01*
X0065271Y0085094D01*
X0065255Y0085035D01*
X0065235Y0084978D01*
X0065212Y0084923D01*
X0065185Y0084868D01*
X0065156Y0084816D01*
X0065123Y0084765D01*
X0065087Y0084716D01*
X0065049Y0084670D01*
X0065007Y0084626D01*
X0064963Y0084584D01*
X0064917Y0084546D01*
X0064868Y0084510D01*
X0064817Y0084477D01*
X0064765Y0084448D01*
X0064710Y0084421D01*
X0064655Y0084398D01*
X0064598Y0084378D01*
X0064539Y0084362D01*
X0064480Y0084349D01*
X0064421Y0084340D01*
X0064360Y0084335D01*
X0064300Y0084333D01*
X0062800Y0084333D01*
X0062300Y0084833D01*
X0048300Y0084833D01*
X0047800Y0084333D01*
X0046300Y0084333D01*
X0046240Y0084335D01*
X0046179Y0084340D01*
X0046120Y0084349D01*
X0046061Y0084362D01*
X0046002Y0084378D01*
X0045945Y0084398D01*
X0045890Y0084421D01*
X0045835Y0084448D01*
X0045783Y0084477D01*
X0045732Y0084510D01*
X0045683Y0084546D01*
X0045637Y0084584D01*
X0045593Y0084626D01*
X0045551Y0084670D01*
X0045513Y0084716D01*
X0045477Y0084765D01*
X0045444Y0084816D01*
X0045415Y0084868D01*
X0045388Y0084923D01*
X0045365Y0084978D01*
X0045345Y0085035D01*
X0045329Y0085094D01*
X0045316Y0085153D01*
X0045307Y0085212D01*
X0045302Y0085273D01*
X0045300Y0085333D01*
X0056300Y0071333D02*
X0061300Y0071333D01*
X0061387Y0071331D01*
X0061474Y0071325D01*
X0061561Y0071316D01*
X0061647Y0071303D01*
X0061733Y0071286D01*
X0061818Y0071265D01*
X0061901Y0071240D01*
X0061984Y0071212D01*
X0062065Y0071181D01*
X0062145Y0071146D01*
X0062223Y0071107D01*
X0062300Y0071065D01*
X0062375Y0071020D01*
X0062447Y0070971D01*
X0062518Y0070920D01*
X0062586Y0070865D01*
X0062651Y0070808D01*
X0062714Y0070747D01*
X0062775Y0070684D01*
X0062832Y0070619D01*
X0062887Y0070551D01*
X0062938Y0070480D01*
X0062987Y0070408D01*
X0063032Y0070333D01*
X0063074Y0070256D01*
X0063113Y0070178D01*
X0063148Y0070098D01*
X0063179Y0070017D01*
X0063207Y0069934D01*
X0063232Y0069851D01*
X0063253Y0069766D01*
X0063270Y0069680D01*
X0063283Y0069594D01*
X0063292Y0069507D01*
X0063298Y0069420D01*
X0063300Y0069333D01*
X0063300Y0056333D01*
X0063298Y0056246D01*
X0063292Y0056159D01*
X0063283Y0056072D01*
X0063270Y0055986D01*
X0063253Y0055900D01*
X0063232Y0055815D01*
X0063207Y0055732D01*
X0063179Y0055649D01*
X0063148Y0055568D01*
X0063113Y0055488D01*
X0063074Y0055410D01*
X0063032Y0055333D01*
X0062987Y0055258D01*
X0062938Y0055186D01*
X0062887Y0055115D01*
X0062832Y0055047D01*
X0062775Y0054982D01*
X0062714Y0054919D01*
X0062651Y0054858D01*
X0062586Y0054801D01*
X0062518Y0054746D01*
X0062447Y0054695D01*
X0062375Y0054646D01*
X0062300Y0054601D01*
X0062223Y0054559D01*
X0062145Y0054520D01*
X0062065Y0054485D01*
X0061984Y0054454D01*
X0061901Y0054426D01*
X0061818Y0054401D01*
X0061733Y0054380D01*
X0061647Y0054363D01*
X0061561Y0054350D01*
X0061474Y0054341D01*
X0061387Y0054335D01*
X0061300Y0054333D01*
X0056300Y0054333D01*
X0056213Y0054335D01*
X0056126Y0054341D01*
X0056039Y0054350D01*
X0055953Y0054363D01*
X0055867Y0054380D01*
X0055782Y0054401D01*
X0055699Y0054426D01*
X0055616Y0054454D01*
X0055535Y0054485D01*
X0055455Y0054520D01*
X0055377Y0054559D01*
X0055300Y0054601D01*
X0055225Y0054646D01*
X0055153Y0054695D01*
X0055082Y0054746D01*
X0055014Y0054801D01*
X0054949Y0054858D01*
X0054886Y0054919D01*
X0054825Y0054982D01*
X0054768Y0055047D01*
X0054713Y0055115D01*
X0054662Y0055186D01*
X0054613Y0055258D01*
X0054568Y0055333D01*
X0054526Y0055410D01*
X0054487Y0055488D01*
X0054452Y0055568D01*
X0054421Y0055649D01*
X0054393Y0055732D01*
X0054368Y0055815D01*
X0054347Y0055900D01*
X0054330Y0055986D01*
X0054317Y0056072D01*
X0054308Y0056159D01*
X0054302Y0056246D01*
X0054300Y0056333D01*
X0054300Y0069333D01*
X0054302Y0069420D01*
X0054308Y0069507D01*
X0054317Y0069594D01*
X0054330Y0069680D01*
X0054347Y0069766D01*
X0054368Y0069851D01*
X0054393Y0069934D01*
X0054421Y0070017D01*
X0054452Y0070098D01*
X0054487Y0070178D01*
X0054526Y0070256D01*
X0054568Y0070333D01*
X0054613Y0070408D01*
X0054662Y0070480D01*
X0054713Y0070551D01*
X0054768Y0070619D01*
X0054825Y0070684D01*
X0054886Y0070747D01*
X0054949Y0070808D01*
X0055014Y0070865D01*
X0055082Y0070920D01*
X0055153Y0070971D01*
X0055225Y0071020D01*
X0055300Y0071065D01*
X0055377Y0071107D01*
X0055455Y0071146D01*
X0055535Y0071181D01*
X0055616Y0071212D01*
X0055699Y0071240D01*
X0055782Y0071265D01*
X0055867Y0071286D01*
X0055953Y0071303D01*
X0056039Y0071316D01*
X0056126Y0071325D01*
X0056213Y0071331D01*
X0056300Y0071333D01*
X0122800Y0073333D02*
X0122800Y0078333D01*
X0125300Y0080833D01*
X0122800Y0083333D01*
X0122800Y0088333D01*
X0125300Y0090833D01*
X0130300Y0090833D01*
X0132800Y0088333D01*
X0132800Y0083333D01*
X0130300Y0080833D01*
X0132800Y0078333D01*
X0132800Y0073333D01*
X0130300Y0070833D01*
X0132800Y0068333D01*
X0132800Y0063333D01*
X0130300Y0060833D01*
X0132800Y0058333D01*
X0132800Y0053333D01*
X0130300Y0050833D01*
X0132800Y0048333D01*
X0132800Y0043333D01*
X0130300Y0040833D01*
X0132800Y0038333D01*
X0132800Y0033333D01*
X0130300Y0030833D01*
X0125300Y0030833D01*
X0122800Y0033333D01*
X0122800Y0038333D01*
X0125300Y0040833D01*
X0122800Y0043333D01*
X0122800Y0048333D01*
X0125300Y0050833D01*
X0130300Y0050833D01*
X0125300Y0050833D02*
X0122800Y0053333D01*
X0122800Y0058333D01*
X0125300Y0060833D01*
X0122800Y0063333D01*
X0122800Y0068333D01*
X0125300Y0070833D01*
X0122800Y0073333D01*
X0125300Y0070833D02*
X0130300Y0070833D01*
X0130300Y0060833D02*
X0125300Y0060833D01*
X0159300Y0068333D02*
X0208300Y0068333D01*
X0208300Y0064833D01*
X0214300Y0064833D01*
X0214300Y0068333D01*
X0221800Y0068333D01*
X0221800Y0027333D01*
X0214300Y0027333D01*
X0214300Y0030833D01*
X0208300Y0030833D01*
X0208300Y0027333D01*
X0159300Y0027333D01*
X0159300Y0068333D01*
X0130300Y0080833D02*
X0125300Y0080833D01*
X0068300Y0113833D02*
X0068300Y0136833D01*
X0028300Y0136833D01*
X0028300Y0129333D01*
X0028426Y0129331D01*
X0028551Y0129325D01*
X0028676Y0129315D01*
X0028801Y0129301D01*
X0028926Y0129284D01*
X0029050Y0129262D01*
X0029173Y0129237D01*
X0029295Y0129207D01*
X0029416Y0129174D01*
X0029536Y0129137D01*
X0029655Y0129097D01*
X0029772Y0129052D01*
X0029889Y0129004D01*
X0030003Y0128952D01*
X0030116Y0128897D01*
X0030227Y0128838D01*
X0030336Y0128776D01*
X0030443Y0128710D01*
X0030548Y0128641D01*
X0030651Y0128569D01*
X0030752Y0128494D01*
X0030850Y0128415D01*
X0030945Y0128333D01*
X0031038Y0128249D01*
X0031128Y0128161D01*
X0031216Y0128071D01*
X0031300Y0127978D01*
X0031382Y0127883D01*
X0031461Y0127785D01*
X0031536Y0127684D01*
X0031608Y0127581D01*
X0031677Y0127476D01*
X0031743Y0127369D01*
X0031805Y0127260D01*
X0031864Y0127149D01*
X0031919Y0127036D01*
X0031971Y0126922D01*
X0032019Y0126805D01*
X0032064Y0126688D01*
X0032104Y0126569D01*
X0032141Y0126449D01*
X0032174Y0126328D01*
X0032204Y0126206D01*
X0032229Y0126083D01*
X0032251Y0125959D01*
X0032268Y0125834D01*
X0032282Y0125709D01*
X0032292Y0125584D01*
X0032298Y0125459D01*
X0032300Y0125333D01*
X0032298Y0125207D01*
X0032292Y0125082D01*
X0032282Y0124957D01*
X0032268Y0124832D01*
X0032251Y0124707D01*
X0032229Y0124583D01*
X0032204Y0124460D01*
X0032174Y0124338D01*
X0032141Y0124217D01*
X0032104Y0124097D01*
X0032064Y0123978D01*
X0032019Y0123861D01*
X0031971Y0123744D01*
X0031919Y0123630D01*
X0031864Y0123517D01*
X0031805Y0123406D01*
X0031743Y0123297D01*
X0031677Y0123190D01*
X0031608Y0123085D01*
X0031536Y0122982D01*
X0031461Y0122881D01*
X0031382Y0122783D01*
X0031300Y0122688D01*
X0031216Y0122595D01*
X0031128Y0122505D01*
X0031038Y0122417D01*
X0030945Y0122333D01*
X0030850Y0122251D01*
X0030752Y0122172D01*
X0030651Y0122097D01*
X0030548Y0122025D01*
X0030443Y0121956D01*
X0030336Y0121890D01*
X0030227Y0121828D01*
X0030116Y0121769D01*
X0030003Y0121714D01*
X0029889Y0121662D01*
X0029772Y0121614D01*
X0029655Y0121569D01*
X0029536Y0121529D01*
X0029416Y0121492D01*
X0029295Y0121459D01*
X0029173Y0121429D01*
X0029050Y0121404D01*
X0028926Y0121382D01*
X0028801Y0121365D01*
X0028676Y0121351D01*
X0028551Y0121341D01*
X0028426Y0121335D01*
X0028300Y0121333D01*
X0028300Y0113833D01*
X0068300Y0113833D01*
X0020800Y0120833D02*
X0020800Y0133833D01*
X0020798Y0133920D01*
X0020792Y0134007D01*
X0020783Y0134094D01*
X0020770Y0134180D01*
X0020753Y0134266D01*
X0020732Y0134351D01*
X0020707Y0134434D01*
X0020679Y0134517D01*
X0020648Y0134598D01*
X0020613Y0134678D01*
X0020574Y0134756D01*
X0020532Y0134833D01*
X0020487Y0134908D01*
X0020438Y0134980D01*
X0020387Y0135051D01*
X0020332Y0135119D01*
X0020275Y0135184D01*
X0020214Y0135247D01*
X0020151Y0135308D01*
X0020086Y0135365D01*
X0020018Y0135420D01*
X0019947Y0135471D01*
X0019875Y0135520D01*
X0019800Y0135565D01*
X0019723Y0135607D01*
X0019645Y0135646D01*
X0019565Y0135681D01*
X0019484Y0135712D01*
X0019401Y0135740D01*
X0019318Y0135765D01*
X0019233Y0135786D01*
X0019147Y0135803D01*
X0019061Y0135816D01*
X0018974Y0135825D01*
X0018887Y0135831D01*
X0018800Y0135833D01*
X0013800Y0135833D01*
X0013713Y0135831D01*
X0013626Y0135825D01*
X0013539Y0135816D01*
X0013453Y0135803D01*
X0013367Y0135786D01*
X0013282Y0135765D01*
X0013199Y0135740D01*
X0013116Y0135712D01*
X0013035Y0135681D01*
X0012955Y0135646D01*
X0012877Y0135607D01*
X0012800Y0135565D01*
X0012725Y0135520D01*
X0012653Y0135471D01*
X0012582Y0135420D01*
X0012514Y0135365D01*
X0012449Y0135308D01*
X0012386Y0135247D01*
X0012325Y0135184D01*
X0012268Y0135119D01*
X0012213Y0135051D01*
X0012162Y0134980D01*
X0012113Y0134908D01*
X0012068Y0134833D01*
X0012026Y0134756D01*
X0011987Y0134678D01*
X0011952Y0134598D01*
X0011921Y0134517D01*
X0011893Y0134434D01*
X0011868Y0134351D01*
X0011847Y0134266D01*
X0011830Y0134180D01*
X0011817Y0134094D01*
X0011808Y0134007D01*
X0011802Y0133920D01*
X0011800Y0133833D01*
X0011800Y0120833D01*
X0011802Y0120746D01*
X0011808Y0120659D01*
X0011817Y0120572D01*
X0011830Y0120486D01*
X0011847Y0120400D01*
X0011868Y0120315D01*
X0011893Y0120232D01*
X0011921Y0120149D01*
X0011952Y0120068D01*
X0011987Y0119988D01*
X0012026Y0119910D01*
X0012068Y0119833D01*
X0012113Y0119758D01*
X0012162Y0119686D01*
X0012213Y0119615D01*
X0012268Y0119547D01*
X0012325Y0119482D01*
X0012386Y0119419D01*
X0012449Y0119358D01*
X0012514Y0119301D01*
X0012582Y0119246D01*
X0012653Y0119195D01*
X0012725Y0119146D01*
X0012800Y0119101D01*
X0012877Y0119059D01*
X0012955Y0119020D01*
X0013035Y0118985D01*
X0013116Y0118954D01*
X0013199Y0118926D01*
X0013282Y0118901D01*
X0013367Y0118880D01*
X0013453Y0118863D01*
X0013539Y0118850D01*
X0013626Y0118841D01*
X0013713Y0118835D01*
X0013800Y0118833D01*
X0018800Y0118833D01*
X0018887Y0118835D01*
X0018974Y0118841D01*
X0019061Y0118850D01*
X0019147Y0118863D01*
X0019233Y0118880D01*
X0019318Y0118901D01*
X0019401Y0118926D01*
X0019484Y0118954D01*
X0019565Y0118985D01*
X0019645Y0119020D01*
X0019723Y0119059D01*
X0019800Y0119101D01*
X0019875Y0119146D01*
X0019947Y0119195D01*
X0020018Y0119246D01*
X0020086Y0119301D01*
X0020151Y0119358D01*
X0020214Y0119419D01*
X0020275Y0119482D01*
X0020332Y0119547D01*
X0020387Y0119615D01*
X0020438Y0119686D01*
X0020487Y0119758D01*
X0020532Y0119833D01*
X0020574Y0119910D01*
X0020613Y0119988D01*
X0020648Y0120068D01*
X0020679Y0120149D01*
X0020707Y0120232D01*
X0020732Y0120315D01*
X0020753Y0120400D01*
X0020770Y0120486D01*
X0020783Y0120572D01*
X0020792Y0120659D01*
X0020798Y0120746D01*
X0020800Y0120833D01*
X0020300Y0145833D02*
X0012300Y0145833D01*
X0011300Y0146833D01*
X0011300Y0154833D01*
X0012300Y0155833D01*
X0011300Y0156833D01*
X0011300Y0164833D01*
X0012300Y0165833D01*
X0020300Y0165833D01*
X0021300Y0164833D01*
X0021300Y0156833D01*
X0020300Y0155833D01*
X0021300Y0154833D01*
X0021300Y0146833D01*
X0020300Y0145833D01*
X0123300Y0203833D02*
X0125800Y0201333D01*
X0130800Y0201333D01*
X0133300Y0203833D01*
X0133300Y0208833D01*
X0130800Y0211333D01*
X0125800Y0211333D01*
X0123300Y0208833D01*
X0123300Y0203833D01*
X0125800Y0211333D02*
X0123300Y0213833D01*
X0123300Y0218833D01*
X0125800Y0221333D01*
X0123300Y0223833D01*
X0123300Y0228833D01*
X0125800Y0231333D01*
X0123300Y0233833D01*
X0123300Y0238833D01*
X0125800Y0241333D01*
X0123300Y0243833D01*
X0123300Y0248833D01*
X0125800Y0251333D01*
X0123300Y0253833D01*
X0123300Y0258833D01*
X0125800Y0261333D01*
X0130800Y0261333D01*
X0133300Y0258833D01*
X0133300Y0253833D01*
X0130800Y0251333D01*
X0133300Y0248833D01*
X0133300Y0243833D01*
X0130800Y0241333D01*
X0125800Y0241333D01*
X0130800Y0241333D02*
X0133300Y0238833D01*
X0133300Y0233833D01*
X0130800Y0231333D01*
X0133300Y0228833D01*
X0133300Y0223833D01*
X0130800Y0221333D01*
X0133300Y0218833D01*
X0133300Y0213833D01*
X0130800Y0211333D01*
X0130800Y0221333D02*
X0125800Y0221333D01*
X0125800Y0231333D02*
X0130800Y0231333D01*
X0130800Y0251333D02*
X0125800Y0251333D01*
X0198800Y0164333D02*
X0198800Y0155833D01*
X0198898Y0155831D01*
X0198996Y0155825D01*
X0199094Y0155816D01*
X0199191Y0155802D01*
X0199288Y0155785D01*
X0199384Y0155764D01*
X0199479Y0155739D01*
X0199573Y0155711D01*
X0199665Y0155678D01*
X0199757Y0155643D01*
X0199847Y0155603D01*
X0199935Y0155561D01*
X0200022Y0155514D01*
X0200106Y0155465D01*
X0200189Y0155412D01*
X0200269Y0155356D01*
X0200348Y0155296D01*
X0200424Y0155234D01*
X0200497Y0155169D01*
X0200568Y0155101D01*
X0200636Y0155030D01*
X0200701Y0154957D01*
X0200763Y0154881D01*
X0200823Y0154802D01*
X0200879Y0154722D01*
X0200932Y0154639D01*
X0200981Y0154555D01*
X0201028Y0154468D01*
X0201070Y0154380D01*
X0201110Y0154290D01*
X0201145Y0154198D01*
X0201178Y0154106D01*
X0201206Y0154012D01*
X0201231Y0153917D01*
X0201252Y0153821D01*
X0201269Y0153724D01*
X0201283Y0153627D01*
X0201292Y0153529D01*
X0201298Y0153431D01*
X0201300Y0153333D01*
X0201298Y0153235D01*
X0201292Y0153137D01*
X0201283Y0153039D01*
X0201269Y0152942D01*
X0201252Y0152845D01*
X0201231Y0152749D01*
X0201206Y0152654D01*
X0201178Y0152560D01*
X0201145Y0152468D01*
X0201110Y0152376D01*
X0201070Y0152286D01*
X0201028Y0152198D01*
X0200981Y0152111D01*
X0200932Y0152027D01*
X0200879Y0151944D01*
X0200823Y0151864D01*
X0200763Y0151785D01*
X0200701Y0151709D01*
X0200636Y0151636D01*
X0200568Y0151565D01*
X0200497Y0151497D01*
X0200424Y0151432D01*
X0200348Y0151370D01*
X0200269Y0151310D01*
X0200189Y0151254D01*
X0200106Y0151201D01*
X0200022Y0151152D01*
X0199935Y0151105D01*
X0199847Y0151063D01*
X0199757Y0151023D01*
X0199665Y0150988D01*
X0199573Y0150955D01*
X0199479Y0150927D01*
X0199384Y0150902D01*
X0199288Y0150881D01*
X0199191Y0150864D01*
X0199094Y0150850D01*
X0198996Y0150841D01*
X0198898Y0150835D01*
X0198800Y0150833D01*
X0198800Y0142333D01*
X0238800Y0142333D01*
X0238800Y0164333D01*
X0198800Y0164333D01*
X0262800Y0162833D02*
X0262800Y0155833D01*
X0262802Y0155773D01*
X0262807Y0155712D01*
X0262816Y0155653D01*
X0262829Y0155594D01*
X0262845Y0155535D01*
X0262865Y0155478D01*
X0262888Y0155423D01*
X0262915Y0155368D01*
X0262944Y0155316D01*
X0262977Y0155265D01*
X0263013Y0155216D01*
X0263051Y0155170D01*
X0263093Y0155126D01*
X0263137Y0155084D01*
X0263183Y0155046D01*
X0263232Y0155010D01*
X0263283Y0154977D01*
X0263335Y0154948D01*
X0263390Y0154921D01*
X0263445Y0154898D01*
X0263502Y0154878D01*
X0263561Y0154862D01*
X0263620Y0154849D01*
X0263679Y0154840D01*
X0263740Y0154835D01*
X0263800Y0154833D01*
X0265300Y0154833D01*
X0265800Y0155333D01*
X0284800Y0155333D01*
X0285300Y0154833D01*
X0286800Y0154833D01*
X0286860Y0154835D01*
X0286921Y0154840D01*
X0286980Y0154849D01*
X0287039Y0154862D01*
X0287098Y0154878D01*
X0287155Y0154898D01*
X0287210Y0154921D01*
X0287265Y0154948D01*
X0287317Y0154977D01*
X0287368Y0155010D01*
X0287417Y0155046D01*
X0287463Y0155084D01*
X0287507Y0155126D01*
X0287549Y0155170D01*
X0287587Y0155216D01*
X0287623Y0155265D01*
X0287656Y0155316D01*
X0287685Y0155368D01*
X0287712Y0155423D01*
X0287735Y0155478D01*
X0287755Y0155535D01*
X0287771Y0155594D01*
X0287784Y0155653D01*
X0287793Y0155712D01*
X0287798Y0155773D01*
X0287800Y0155833D01*
X0287800Y0162833D01*
X0287798Y0162893D01*
X0287793Y0162954D01*
X0287784Y0163013D01*
X0287771Y0163072D01*
X0287755Y0163131D01*
X0287735Y0163188D01*
X0287712Y0163243D01*
X0287685Y0163298D01*
X0287656Y0163350D01*
X0287623Y0163401D01*
X0287587Y0163450D01*
X0287549Y0163496D01*
X0287507Y0163540D01*
X0287463Y0163582D01*
X0287417Y0163620D01*
X0287368Y0163656D01*
X0287317Y0163689D01*
X0287265Y0163718D01*
X0287210Y0163745D01*
X0287155Y0163768D01*
X0287098Y0163788D01*
X0287039Y0163804D01*
X0286980Y0163817D01*
X0286921Y0163826D01*
X0286860Y0163831D01*
X0286800Y0163833D01*
X0285300Y0163833D01*
X0284800Y0163333D01*
X0265800Y0163333D01*
X0265300Y0163833D01*
X0263800Y0163833D01*
X0263740Y0163831D01*
X0263679Y0163826D01*
X0263620Y0163817D01*
X0263561Y0163804D01*
X0263502Y0163788D01*
X0263445Y0163768D01*
X0263390Y0163745D01*
X0263335Y0163718D01*
X0263283Y0163689D01*
X0263232Y0163656D01*
X0263183Y0163620D01*
X0263137Y0163582D01*
X0263093Y0163540D01*
X0263051Y0163496D01*
X0263013Y0163450D01*
X0262977Y0163401D01*
X0262944Y0163350D01*
X0262915Y0163298D01*
X0262888Y0163243D01*
X0262865Y0163188D01*
X0262845Y0163131D01*
X0262829Y0163072D01*
X0262816Y0163013D01*
X0262807Y0162954D01*
X0262802Y0162893D01*
X0262800Y0162833D01*
X0265800Y0143833D02*
X0267300Y0143833D01*
X0267800Y0143333D01*
X0286800Y0143333D01*
X0287300Y0143833D01*
X0288800Y0143833D01*
X0288860Y0143831D01*
X0288921Y0143826D01*
X0288980Y0143817D01*
X0289039Y0143804D01*
X0289098Y0143788D01*
X0289155Y0143768D01*
X0289210Y0143745D01*
X0289265Y0143718D01*
X0289317Y0143689D01*
X0289368Y0143656D01*
X0289417Y0143620D01*
X0289463Y0143582D01*
X0289507Y0143540D01*
X0289549Y0143496D01*
X0289587Y0143450D01*
X0289623Y0143401D01*
X0289656Y0143350D01*
X0289685Y0143298D01*
X0289712Y0143243D01*
X0289735Y0143188D01*
X0289755Y0143131D01*
X0289771Y0143072D01*
X0289784Y0143013D01*
X0289793Y0142954D01*
X0289798Y0142893D01*
X0289800Y0142833D01*
X0289800Y0135833D01*
X0289798Y0135773D01*
X0289793Y0135712D01*
X0289784Y0135653D01*
X0289771Y0135594D01*
X0289755Y0135535D01*
X0289735Y0135478D01*
X0289712Y0135423D01*
X0289685Y0135368D01*
X0289656Y0135316D01*
X0289623Y0135265D01*
X0289587Y0135216D01*
X0289549Y0135170D01*
X0289507Y0135126D01*
X0289463Y0135084D01*
X0289417Y0135046D01*
X0289368Y0135010D01*
X0289317Y0134977D01*
X0289265Y0134948D01*
X0289210Y0134921D01*
X0289155Y0134898D01*
X0289098Y0134878D01*
X0289039Y0134862D01*
X0288980Y0134849D01*
X0288921Y0134840D01*
X0288860Y0134835D01*
X0288800Y0134833D01*
X0287300Y0134833D01*
X0286800Y0135333D01*
X0267800Y0135333D01*
X0267300Y0134833D01*
X0265800Y0134833D01*
X0265740Y0134835D01*
X0265679Y0134840D01*
X0265620Y0134849D01*
X0265561Y0134862D01*
X0265502Y0134878D01*
X0265445Y0134898D01*
X0265390Y0134921D01*
X0265335Y0134948D01*
X0265283Y0134977D01*
X0265232Y0135010D01*
X0265183Y0135046D01*
X0265137Y0135084D01*
X0265093Y0135126D01*
X0265051Y0135170D01*
X0265013Y0135216D01*
X0264977Y0135265D01*
X0264944Y0135316D01*
X0264915Y0135368D01*
X0264888Y0135423D01*
X0264865Y0135478D01*
X0264845Y0135535D01*
X0264829Y0135594D01*
X0264816Y0135653D01*
X0264807Y0135712D01*
X0264802Y0135773D01*
X0264800Y0135833D01*
X0264800Y0142833D01*
X0264802Y0142893D01*
X0264807Y0142954D01*
X0264816Y0143013D01*
X0264829Y0143072D01*
X0264845Y0143131D01*
X0264865Y0143188D01*
X0264888Y0143243D01*
X0264915Y0143298D01*
X0264944Y0143350D01*
X0264977Y0143401D01*
X0265013Y0143450D01*
X0265051Y0143496D01*
X0265093Y0143540D01*
X0265137Y0143582D01*
X0265183Y0143620D01*
X0265232Y0143656D01*
X0265283Y0143689D01*
X0265335Y0143718D01*
X0265390Y0143745D01*
X0265445Y0143768D01*
X0265502Y0143788D01*
X0265561Y0143804D01*
X0265620Y0143817D01*
X0265679Y0143826D01*
X0265740Y0143831D01*
X0265800Y0143833D01*
X0318800Y0140333D02*
X0318800Y0138833D01*
X0318802Y0138773D01*
X0318807Y0138712D01*
X0318816Y0138653D01*
X0318829Y0138594D01*
X0318845Y0138535D01*
X0318865Y0138478D01*
X0318888Y0138423D01*
X0318915Y0138368D01*
X0318944Y0138316D01*
X0318977Y0138265D01*
X0319013Y0138216D01*
X0319051Y0138170D01*
X0319093Y0138126D01*
X0319137Y0138084D01*
X0319183Y0138046D01*
X0319232Y0138010D01*
X0319283Y0137977D01*
X0319335Y0137948D01*
X0319390Y0137921D01*
X0319445Y0137898D01*
X0319502Y0137878D01*
X0319561Y0137862D01*
X0319620Y0137849D01*
X0319679Y0137840D01*
X0319740Y0137835D01*
X0319800Y0137833D01*
X0326800Y0137833D01*
X0326860Y0137835D01*
X0326921Y0137840D01*
X0326980Y0137849D01*
X0327039Y0137862D01*
X0327098Y0137878D01*
X0327155Y0137898D01*
X0327210Y0137921D01*
X0327265Y0137948D01*
X0327317Y0137977D01*
X0327368Y0138010D01*
X0327417Y0138046D01*
X0327463Y0138084D01*
X0327507Y0138126D01*
X0327549Y0138170D01*
X0327587Y0138216D01*
X0327623Y0138265D01*
X0327656Y0138316D01*
X0327685Y0138368D01*
X0327712Y0138423D01*
X0327735Y0138478D01*
X0327755Y0138535D01*
X0327771Y0138594D01*
X0327784Y0138653D01*
X0327793Y0138712D01*
X0327798Y0138773D01*
X0327800Y0138833D01*
X0327800Y0140333D01*
X0327300Y0140833D01*
X0327300Y0159833D01*
X0327800Y0160333D01*
X0327800Y0161833D01*
X0327798Y0161893D01*
X0327793Y0161954D01*
X0327784Y0162013D01*
X0327771Y0162072D01*
X0327755Y0162131D01*
X0327735Y0162188D01*
X0327712Y0162243D01*
X0327685Y0162298D01*
X0327656Y0162350D01*
X0327623Y0162401D01*
X0327587Y0162450D01*
X0327549Y0162496D01*
X0327507Y0162540D01*
X0327463Y0162582D01*
X0327417Y0162620D01*
X0327368Y0162656D01*
X0327317Y0162689D01*
X0327265Y0162718D01*
X0327210Y0162745D01*
X0327155Y0162768D01*
X0327098Y0162788D01*
X0327039Y0162804D01*
X0326980Y0162817D01*
X0326921Y0162826D01*
X0326860Y0162831D01*
X0326800Y0162833D01*
X0319800Y0162833D01*
X0319740Y0162831D01*
X0319679Y0162826D01*
X0319620Y0162817D01*
X0319561Y0162804D01*
X0319502Y0162788D01*
X0319445Y0162768D01*
X0319390Y0162745D01*
X0319335Y0162718D01*
X0319283Y0162689D01*
X0319232Y0162656D01*
X0319183Y0162620D01*
X0319137Y0162582D01*
X0319093Y0162540D01*
X0319051Y0162496D01*
X0319013Y0162450D01*
X0318977Y0162401D01*
X0318944Y0162350D01*
X0318915Y0162298D01*
X0318888Y0162243D01*
X0318865Y0162188D01*
X0318845Y0162131D01*
X0318829Y0162072D01*
X0318816Y0162013D01*
X0318807Y0161954D01*
X0318802Y0161893D01*
X0318800Y0161833D01*
X0318800Y0160333D01*
X0319300Y0159833D01*
X0319300Y0140833D01*
X0318800Y0140333D01*
X0291300Y0082333D02*
X0294300Y0079333D01*
X0294300Y0065333D01*
X0291300Y0062333D01*
X0257300Y0062333D01*
X0254300Y0065333D01*
X0254300Y0079333D01*
X0257300Y0082333D01*
X0271300Y0045333D02*
X0279300Y0045333D01*
X0280300Y0044333D01*
X0281300Y0045333D01*
X0289300Y0045333D01*
X0290300Y0044333D01*
X0290300Y0036333D01*
X0289300Y0035333D01*
X0281300Y0035333D01*
X0280300Y0036333D01*
X0279300Y0035333D01*
X0271300Y0035333D01*
X0270300Y0036333D01*
X0270300Y0044333D01*
X0271300Y0045333D01*
X0201200Y0047833D02*
X0201202Y0048007D01*
X0201209Y0048181D01*
X0201219Y0048355D01*
X0201234Y0048529D01*
X0201253Y0048702D01*
X0201277Y0048875D01*
X0201305Y0049047D01*
X0201336Y0049218D01*
X0201373Y0049389D01*
X0201413Y0049558D01*
X0201457Y0049727D01*
X0201506Y0049894D01*
X0201558Y0050060D01*
X0201615Y0050225D01*
X0201676Y0050388D01*
X0201740Y0050550D01*
X0201809Y0050710D01*
X0201882Y0050869D01*
X0201958Y0051025D01*
X0202038Y0051180D01*
X0202122Y0051333D01*
X0202210Y0051483D01*
X0202302Y0051631D01*
X0202397Y0051778D01*
X0202495Y0051921D01*
X0202597Y0052062D01*
X0202703Y0052201D01*
X0202812Y0052337D01*
X0202924Y0052471D01*
X0203039Y0052601D01*
X0203158Y0052729D01*
X0203280Y0052853D01*
X0203404Y0052975D01*
X0203532Y0053094D01*
X0203662Y0053209D01*
X0203796Y0053321D01*
X0203932Y0053430D01*
X0204071Y0053536D01*
X0204212Y0053638D01*
X0204355Y0053736D01*
X0204502Y0053831D01*
X0204650Y0053923D01*
X0204800Y0054011D01*
X0204953Y0054095D01*
X0205108Y0054175D01*
X0205264Y0054251D01*
X0205423Y0054324D01*
X0205583Y0054393D01*
X0205745Y0054457D01*
X0205908Y0054518D01*
X0206073Y0054575D01*
X0206239Y0054627D01*
X0206406Y0054676D01*
X0206575Y0054720D01*
X0206744Y0054760D01*
X0206915Y0054797D01*
X0207086Y0054828D01*
X0207258Y0054856D01*
X0207431Y0054880D01*
X0207604Y0054899D01*
X0207778Y0054914D01*
X0207952Y0054924D01*
X0208126Y0054931D01*
X0208300Y0054933D01*
X0208474Y0054931D01*
X0208648Y0054924D01*
X0208822Y0054914D01*
X0208996Y0054899D01*
X0209169Y0054880D01*
X0209342Y0054856D01*
X0209514Y0054828D01*
X0209685Y0054797D01*
X0209856Y0054760D01*
X0210025Y0054720D01*
X0210194Y0054676D01*
X0210361Y0054627D01*
X0210527Y0054575D01*
X0210692Y0054518D01*
X0210855Y0054457D01*
X0211017Y0054393D01*
X0211177Y0054324D01*
X0211336Y0054251D01*
X0211492Y0054175D01*
X0211647Y0054095D01*
X0211800Y0054011D01*
X0211950Y0053923D01*
X0212098Y0053831D01*
X0212245Y0053736D01*
X0212388Y0053638D01*
X0212529Y0053536D01*
X0212668Y0053430D01*
X0212804Y0053321D01*
X0212938Y0053209D01*
X0213068Y0053094D01*
X0213196Y0052975D01*
X0213320Y0052853D01*
X0213442Y0052729D01*
X0213561Y0052601D01*
X0213676Y0052471D01*
X0213788Y0052337D01*
X0213897Y0052201D01*
X0214003Y0052062D01*
X0214105Y0051921D01*
X0214203Y0051778D01*
X0214298Y0051631D01*
X0214390Y0051483D01*
X0214478Y0051333D01*
X0214562Y0051180D01*
X0214642Y0051025D01*
X0214718Y0050869D01*
X0214791Y0050710D01*
X0214860Y0050550D01*
X0214924Y0050388D01*
X0214985Y0050225D01*
X0215042Y0050060D01*
X0215094Y0049894D01*
X0215143Y0049727D01*
X0215187Y0049558D01*
X0215227Y0049389D01*
X0215264Y0049218D01*
X0215295Y0049047D01*
X0215323Y0048875D01*
X0215347Y0048702D01*
X0215366Y0048529D01*
X0215381Y0048355D01*
X0215391Y0048181D01*
X0215398Y0048007D01*
X0215400Y0047833D01*
X0215398Y0047659D01*
X0215391Y0047485D01*
X0215381Y0047311D01*
X0215366Y0047137D01*
X0215347Y0046964D01*
X0215323Y0046791D01*
X0215295Y0046619D01*
X0215264Y0046448D01*
X0215227Y0046277D01*
X0215187Y0046108D01*
X0215143Y0045939D01*
X0215094Y0045772D01*
X0215042Y0045606D01*
X0214985Y0045441D01*
X0214924Y0045278D01*
X0214860Y0045116D01*
X0214791Y0044956D01*
X0214718Y0044797D01*
X0214642Y0044641D01*
X0214562Y0044486D01*
X0214478Y0044333D01*
X0214390Y0044183D01*
X0214298Y0044035D01*
X0214203Y0043888D01*
X0214105Y0043745D01*
X0214003Y0043604D01*
X0213897Y0043465D01*
X0213788Y0043329D01*
X0213676Y0043195D01*
X0213561Y0043065D01*
X0213442Y0042937D01*
X0213320Y0042813D01*
X0213196Y0042691D01*
X0213068Y0042572D01*
X0212938Y0042457D01*
X0212804Y0042345D01*
X0212668Y0042236D01*
X0212529Y0042130D01*
X0212388Y0042028D01*
X0212245Y0041930D01*
X0212098Y0041835D01*
X0211950Y0041743D01*
X0211800Y0041655D01*
X0211647Y0041571D01*
X0211492Y0041491D01*
X0211336Y0041415D01*
X0211177Y0041342D01*
X0211017Y0041273D01*
X0210855Y0041209D01*
X0210692Y0041148D01*
X0210527Y0041091D01*
X0210361Y0041039D01*
X0210194Y0040990D01*
X0210025Y0040946D01*
X0209856Y0040906D01*
X0209685Y0040869D01*
X0209514Y0040838D01*
X0209342Y0040810D01*
X0209169Y0040786D01*
X0208996Y0040767D01*
X0208822Y0040752D01*
X0208648Y0040742D01*
X0208474Y0040735D01*
X0208300Y0040733D01*
X0208126Y0040735D01*
X0207952Y0040742D01*
X0207778Y0040752D01*
X0207604Y0040767D01*
X0207431Y0040786D01*
X0207258Y0040810D01*
X0207086Y0040838D01*
X0206915Y0040869D01*
X0206744Y0040906D01*
X0206575Y0040946D01*
X0206406Y0040990D01*
X0206239Y0041039D01*
X0206073Y0041091D01*
X0205908Y0041148D01*
X0205745Y0041209D01*
X0205583Y0041273D01*
X0205423Y0041342D01*
X0205264Y0041415D01*
X0205108Y0041491D01*
X0204953Y0041571D01*
X0204800Y0041655D01*
X0204650Y0041743D01*
X0204502Y0041835D01*
X0204355Y0041930D01*
X0204212Y0042028D01*
X0204071Y0042130D01*
X0203932Y0042236D01*
X0203796Y0042345D01*
X0203662Y0042457D01*
X0203532Y0042572D01*
X0203404Y0042691D01*
X0203280Y0042813D01*
X0203158Y0042937D01*
X0203039Y0043065D01*
X0202924Y0043195D01*
X0202812Y0043329D01*
X0202703Y0043465D01*
X0202597Y0043604D01*
X0202495Y0043745D01*
X0202397Y0043888D01*
X0202302Y0044035D01*
X0202210Y0044183D01*
X0202122Y0044333D01*
X0202038Y0044486D01*
X0201958Y0044641D01*
X0201882Y0044797D01*
X0201809Y0044956D01*
X0201740Y0045116D01*
X0201676Y0045278D01*
X0201615Y0045441D01*
X0201558Y0045606D01*
X0201506Y0045772D01*
X0201457Y0045939D01*
X0201413Y0046108D01*
X0201373Y0046277D01*
X0201336Y0046448D01*
X0201305Y0046619D01*
X0201277Y0046791D01*
X0201253Y0046964D01*
X0201234Y0047137D01*
X0201219Y0047311D01*
X0201209Y0047485D01*
X0201202Y0047659D01*
X0201200Y0047833D01*
X0130300Y0040833D02*
X0125300Y0040833D01*
D11*
X0118850Y0051783D02*
X0114346Y0051783D01*
X0115847Y0053285D01*
X0114346Y0054786D01*
X0118850Y0054786D01*
X0118850Y0056387D02*
X0118850Y0057889D01*
X0118850Y0057138D02*
X0114346Y0057138D01*
X0114346Y0056387D02*
X0114346Y0057889D01*
X0115097Y0059457D02*
X0118099Y0059457D01*
X0118850Y0060207D01*
X0118850Y0061708D01*
X0118099Y0062459D01*
X0118850Y0064060D02*
X0115847Y0067063D01*
X0115097Y0067063D01*
X0114346Y0066312D01*
X0114346Y0064811D01*
X0115097Y0064060D01*
X0115097Y0062459D02*
X0114346Y0061708D01*
X0114346Y0060207D01*
X0115097Y0059457D01*
X0118850Y0064060D02*
X0118850Y0067063D01*
X0069050Y0067731D02*
X0064546Y0067731D01*
X0066798Y0065479D01*
X0066798Y0068482D01*
X0065297Y0063878D02*
X0064546Y0063127D01*
X0064546Y0061626D01*
X0065297Y0060875D01*
X0068299Y0060875D01*
X0069050Y0061626D01*
X0069050Y0063127D01*
X0068299Y0063878D01*
X0053050Y0063878D02*
X0053050Y0061626D01*
X0052299Y0060875D01*
X0050047Y0060875D01*
X0050047Y0063878D02*
X0053050Y0063878D01*
X0053050Y0065479D02*
X0048546Y0065479D01*
X0048546Y0068482D01*
X0050798Y0066981D02*
X0050798Y0065479D01*
X0053050Y0059274D02*
X0053050Y0056272D01*
X0053050Y0057773D02*
X0048546Y0057773D01*
X0050047Y0056272D01*
X0052299Y0054720D02*
X0053050Y0054720D01*
X0053050Y0053970D01*
X0052299Y0053970D01*
X0052299Y0054720D01*
X0043050Y0057583D02*
X0040047Y0060586D01*
X0039297Y0060586D01*
X0038546Y0059835D01*
X0038546Y0058334D01*
X0039297Y0057583D01*
X0043050Y0057583D02*
X0043050Y0060586D01*
X0043050Y0062187D02*
X0040047Y0065190D01*
X0039297Y0065190D01*
X0038546Y0064439D01*
X0038546Y0062938D01*
X0039297Y0062187D01*
X0043050Y0062187D02*
X0043050Y0065190D01*
X0042299Y0066791D02*
X0039297Y0069794D01*
X0042299Y0069794D01*
X0043050Y0069043D01*
X0043050Y0067542D01*
X0042299Y0066791D01*
X0039297Y0066791D01*
X0038546Y0067542D01*
X0038546Y0069043D01*
X0039297Y0069794D01*
X0040047Y0071395D02*
X0042299Y0071395D01*
X0043050Y0072146D01*
X0043050Y0074398D01*
X0040047Y0074398D01*
X0040798Y0075999D02*
X0040798Y0077500D01*
X0038546Y0075999D02*
X0038546Y0079002D01*
X0038546Y0075999D02*
X0043050Y0075999D01*
X0020050Y0080334D02*
X0020050Y0081835D01*
X0019299Y0082586D01*
X0019299Y0084187D02*
X0020050Y0084938D01*
X0020050Y0086439D01*
X0019299Y0087190D01*
X0018549Y0087190D01*
X0017798Y0086439D01*
X0017798Y0085689D01*
X0017798Y0086439D02*
X0017047Y0087190D01*
X0016297Y0087190D01*
X0015546Y0086439D01*
X0015546Y0084938D01*
X0016297Y0084187D01*
X0016297Y0082586D02*
X0015546Y0081835D01*
X0015546Y0080334D01*
X0016297Y0079583D01*
X0019299Y0079583D01*
X0020050Y0080334D01*
X0011050Y0084083D02*
X0008047Y0084083D01*
X0006546Y0085585D01*
X0008047Y0087086D01*
X0011050Y0087086D01*
X0010299Y0088687D02*
X0011050Y0089438D01*
X0011050Y0090939D01*
X0010299Y0091690D01*
X0006546Y0091690D01*
X0006546Y0093291D02*
X0006546Y0095543D01*
X0007297Y0096294D01*
X0010299Y0096294D01*
X0011050Y0095543D01*
X0011050Y0093291D01*
X0006546Y0093291D01*
X0006546Y0088687D02*
X0010299Y0088687D01*
X0008798Y0087086D02*
X0008798Y0084083D01*
X0006546Y0097895D02*
X0006546Y0099396D01*
X0006546Y0098646D02*
X0011050Y0098646D01*
X0011050Y0099396D02*
X0011050Y0097895D01*
X0010299Y0100964D02*
X0011050Y0101715D01*
X0011050Y0103216D01*
X0010299Y0103967D01*
X0007297Y0103967D01*
X0006546Y0103216D01*
X0006546Y0101715D01*
X0007297Y0100964D01*
X0010299Y0100964D01*
X0011050Y0105568D02*
X0011050Y0107070D01*
X0011050Y0106319D02*
X0006546Y0106319D01*
X0006546Y0105568D02*
X0006546Y0107070D01*
X0006546Y0108638D02*
X0011050Y0111640D01*
X0006546Y0111640D01*
X0006546Y0108638D02*
X0011050Y0108638D01*
X0022546Y0114083D02*
X0027050Y0114083D01*
X0027050Y0117086D01*
X0027050Y0118687D02*
X0022546Y0118687D01*
X0024047Y0120189D01*
X0022546Y0121690D01*
X0027050Y0121690D01*
X0026299Y0123291D02*
X0027050Y0124042D01*
X0027050Y0125543D01*
X0026299Y0126294D01*
X0025549Y0126294D01*
X0024798Y0125543D01*
X0024798Y0124792D01*
X0024798Y0125543D02*
X0024047Y0126294D01*
X0023297Y0126294D01*
X0022546Y0125543D01*
X0022546Y0124042D01*
X0023297Y0123291D01*
X0023297Y0127895D02*
X0024047Y0127895D01*
X0024798Y0128646D01*
X0024798Y0130147D01*
X0025549Y0130898D01*
X0026299Y0130898D01*
X0027050Y0130147D01*
X0027050Y0128646D01*
X0026299Y0127895D01*
X0025549Y0127895D01*
X0024798Y0128646D01*
X0024798Y0130147D02*
X0024047Y0130898D01*
X0023297Y0130898D01*
X0022546Y0130147D01*
X0022546Y0128646D01*
X0023297Y0127895D01*
X0024798Y0132499D02*
X0024798Y0134751D01*
X0025549Y0135502D01*
X0026299Y0135502D01*
X0027050Y0134751D01*
X0027050Y0133250D01*
X0026299Y0132499D01*
X0024798Y0132499D01*
X0023297Y0134000D01*
X0022546Y0135502D01*
X0010050Y0136438D02*
X0009299Y0135687D01*
X0006297Y0138690D01*
X0009299Y0138690D01*
X0010050Y0137939D01*
X0010050Y0136438D01*
X0009299Y0135687D02*
X0006297Y0135687D01*
X0005546Y0136438D01*
X0005546Y0137939D01*
X0006297Y0138690D01*
X0007047Y0140291D02*
X0009299Y0140291D01*
X0010050Y0141042D01*
X0010050Y0143294D01*
X0007047Y0143294D01*
X0007798Y0144895D02*
X0007798Y0146396D01*
X0007298Y0146834D02*
X0007298Y0148335D01*
X0008049Y0149086D01*
X0008799Y0149086D01*
X0009550Y0148335D01*
X0009550Y0146834D01*
X0008799Y0146083D01*
X0010050Y0145646D02*
X0006297Y0145646D01*
X0005546Y0146396D01*
X0005797Y0146083D02*
X0006547Y0146083D01*
X0007298Y0146834D01*
X0005797Y0146083D02*
X0005046Y0146834D01*
X0005046Y0148335D01*
X0005797Y0149086D01*
X0005046Y0150687D02*
X0005046Y0152939D01*
X0005797Y0153690D01*
X0007298Y0153690D01*
X0008049Y0152939D01*
X0008049Y0150687D01*
X0009550Y0150687D02*
X0005046Y0150687D01*
X0005046Y0155291D02*
X0009550Y0155291D01*
X0009550Y0158294D01*
X0009550Y0159895D02*
X0006547Y0159895D01*
X0005046Y0161396D01*
X0006547Y0162898D01*
X0009550Y0162898D01*
X0009550Y0164499D02*
X0005046Y0164499D01*
X0007298Y0165250D02*
X0009550Y0167502D01*
X0009550Y0169103D02*
X0009550Y0172106D01*
X0009550Y0173707D02*
X0005046Y0173707D01*
X0005046Y0175959D01*
X0005797Y0176709D01*
X0007298Y0176709D01*
X0008049Y0175959D01*
X0008049Y0173707D01*
X0008049Y0175208D02*
X0009550Y0176709D01*
X0005046Y0172106D02*
X0005046Y0169103D01*
X0009550Y0169103D01*
X0007298Y0169103D02*
X0007298Y0170604D01*
X0005046Y0167502D02*
X0008049Y0164499D01*
X0007298Y0162898D02*
X0007298Y0159895D01*
X0005046Y0158294D02*
X0005046Y0155291D01*
X0007298Y0155291D02*
X0007298Y0156792D01*
X0010050Y0134086D02*
X0010050Y0131083D01*
X0010050Y0132585D02*
X0005546Y0132585D01*
X0007047Y0131083D01*
X0006046Y0128190D02*
X0006046Y0125187D01*
X0008298Y0125187D01*
X0007547Y0126689D01*
X0007547Y0127439D01*
X0008298Y0128190D01*
X0009799Y0128190D01*
X0010550Y0127439D01*
X0010550Y0125938D01*
X0009799Y0125187D01*
X0009799Y0123586D02*
X0010550Y0122835D01*
X0010550Y0121334D01*
X0009799Y0120583D01*
X0006797Y0120583D01*
X0006046Y0121334D01*
X0006046Y0122835D01*
X0006797Y0123586D01*
X0159340Y0120168D02*
X0159340Y0119851D01*
X0159657Y0119534D01*
X0160291Y0119534D01*
X0160608Y0119217D01*
X0160608Y0118900D01*
X0160291Y0118583D01*
X0159657Y0118583D01*
X0159340Y0118900D01*
X0159340Y0120168D02*
X0159657Y0120485D01*
X0160291Y0120485D01*
X0160608Y0120168D01*
X0161550Y0120168D02*
X0161867Y0120485D01*
X0162501Y0120485D01*
X0162818Y0120168D01*
X0162818Y0119851D01*
X0162501Y0119534D01*
X0162818Y0119217D01*
X0162818Y0118900D01*
X0162501Y0118583D01*
X0161867Y0118583D01*
X0161550Y0118900D01*
X0162184Y0119534D02*
X0162501Y0119534D01*
X0203235Y0119851D02*
X0203552Y0119534D01*
X0204186Y0119534D01*
X0204503Y0119217D01*
X0204503Y0118900D01*
X0204186Y0118583D01*
X0203552Y0118583D01*
X0203235Y0118900D01*
X0203235Y0119851D02*
X0203235Y0120168D01*
X0203552Y0120485D01*
X0204186Y0120485D01*
X0204503Y0120168D01*
X0205445Y0119851D02*
X0206079Y0120485D01*
X0206079Y0118583D01*
X0205445Y0118583D02*
X0206713Y0118583D01*
X0207655Y0118900D02*
X0208923Y0120168D01*
X0208923Y0118900D01*
X0208606Y0118583D01*
X0207972Y0118583D01*
X0207655Y0118900D01*
X0207655Y0120168D01*
X0207972Y0120485D01*
X0208606Y0120485D01*
X0208923Y0120168D01*
X0249340Y0120168D02*
X0249340Y0119851D01*
X0249657Y0119534D01*
X0250291Y0119534D01*
X0250608Y0119217D01*
X0250608Y0118900D01*
X0250291Y0118583D01*
X0249657Y0118583D01*
X0249340Y0118900D01*
X0249340Y0120168D02*
X0249657Y0120485D01*
X0250291Y0120485D01*
X0250608Y0120168D01*
X0251550Y0119534D02*
X0252818Y0119534D01*
X0252501Y0118583D02*
X0252501Y0120485D01*
X0251550Y0119534D01*
X0269401Y0137083D02*
X0268650Y0137834D01*
X0269401Y0137083D02*
X0270902Y0137083D01*
X0271653Y0137834D01*
X0271653Y0138585D01*
X0270902Y0139335D01*
X0270151Y0139335D01*
X0270902Y0139335D02*
X0271653Y0140086D01*
X0271653Y0140837D01*
X0270902Y0141587D01*
X0269401Y0141587D01*
X0268650Y0140837D01*
X0273254Y0137834D02*
X0274005Y0137834D01*
X0274005Y0137083D01*
X0273254Y0137083D01*
X0273254Y0137834D01*
X0275556Y0137834D02*
X0276307Y0137083D01*
X0277808Y0137083D01*
X0278558Y0137834D01*
X0278558Y0140837D01*
X0277808Y0141587D01*
X0276307Y0141587D01*
X0275556Y0140837D01*
X0275556Y0140086D01*
X0276307Y0139335D01*
X0278558Y0139335D01*
X0280160Y0138585D02*
X0283162Y0141587D01*
X0280160Y0141587D02*
X0280160Y0137083D01*
X0280910Y0139335D02*
X0283162Y0137083D01*
X0273156Y0145583D02*
X0270154Y0145583D01*
X0273156Y0148586D01*
X0273156Y0149337D01*
X0272406Y0150087D01*
X0270905Y0150087D01*
X0270154Y0149337D01*
X0268553Y0149337D02*
X0268553Y0147835D01*
X0267802Y0147085D01*
X0265550Y0147085D01*
X0267051Y0147085D02*
X0268553Y0145583D01*
X0265550Y0145583D02*
X0265550Y0150087D01*
X0267802Y0150087D01*
X0268553Y0149337D01*
X0268902Y0157083D02*
X0267401Y0157083D01*
X0266650Y0157834D01*
X0268151Y0159335D02*
X0268902Y0159335D01*
X0269653Y0158585D01*
X0269653Y0157834D01*
X0268902Y0157083D01*
X0268902Y0159335D02*
X0269653Y0160086D01*
X0269653Y0160837D01*
X0268902Y0161587D01*
X0267401Y0161587D01*
X0266650Y0160837D01*
X0266553Y0165583D02*
X0265051Y0167085D01*
X0265802Y0167085D02*
X0263550Y0167085D01*
X0263550Y0165583D02*
X0263550Y0170087D01*
X0265802Y0170087D01*
X0266553Y0169337D01*
X0266553Y0167835D01*
X0265802Y0167085D01*
X0268154Y0168586D02*
X0269655Y0170087D01*
X0269655Y0165583D01*
X0268154Y0165583D02*
X0271156Y0165583D01*
X0274307Y0161587D02*
X0273556Y0160837D01*
X0273556Y0160086D01*
X0274307Y0159335D01*
X0276558Y0159335D01*
X0276558Y0157834D02*
X0276558Y0160837D01*
X0275808Y0161587D01*
X0274307Y0161587D01*
X0273556Y0157834D02*
X0274307Y0157083D01*
X0275808Y0157083D01*
X0276558Y0157834D01*
X0278160Y0158585D02*
X0281162Y0161587D01*
X0278160Y0161587D02*
X0278160Y0157083D01*
X0278910Y0159335D02*
X0281162Y0157083D01*
X0272005Y0157083D02*
X0271254Y0157083D01*
X0271254Y0157834D01*
X0272005Y0157834D01*
X0272005Y0157083D01*
X0321046Y0157882D02*
X0324049Y0154879D01*
X0323298Y0155630D02*
X0325550Y0157882D01*
X0325550Y0154879D02*
X0321046Y0154879D01*
X0321797Y0153278D02*
X0321046Y0152527D01*
X0321046Y0151026D01*
X0321797Y0150275D01*
X0322547Y0150275D01*
X0323298Y0151026D01*
X0323298Y0153278D01*
X0324799Y0153278D02*
X0321797Y0153278D01*
X0324799Y0153278D02*
X0325550Y0152527D01*
X0325550Y0151026D01*
X0324799Y0150275D01*
X0324799Y0148724D02*
X0325550Y0148724D01*
X0325550Y0147973D01*
X0324799Y0147973D01*
X0324799Y0148724D01*
X0324799Y0146372D02*
X0325550Y0145621D01*
X0325550Y0144120D01*
X0324799Y0143370D01*
X0323298Y0144871D02*
X0323298Y0145621D01*
X0324049Y0146372D01*
X0324799Y0146372D01*
X0323298Y0145621D02*
X0322547Y0146372D01*
X0321797Y0146372D01*
X0321046Y0145621D01*
X0321046Y0144120D01*
X0321797Y0143370D01*
X0329546Y0153375D02*
X0329546Y0155627D01*
X0330297Y0156378D01*
X0331798Y0156378D01*
X0332549Y0155627D01*
X0332549Y0153375D01*
X0334050Y0153375D02*
X0329546Y0153375D01*
X0332549Y0154877D02*
X0334050Y0156378D01*
X0333299Y0157979D02*
X0334050Y0158730D01*
X0334050Y0160231D01*
X0333299Y0160982D01*
X0332549Y0160982D01*
X0331798Y0160231D01*
X0331798Y0159481D01*
X0331798Y0160231D02*
X0331047Y0160982D01*
X0330297Y0160982D01*
X0329546Y0160231D01*
X0329546Y0158730D01*
X0330297Y0157979D01*
X0339657Y0120485D02*
X0339340Y0120168D01*
X0339340Y0119851D01*
X0339657Y0119534D01*
X0340291Y0119534D01*
X0340608Y0119217D01*
X0340608Y0118900D01*
X0340291Y0118583D01*
X0339657Y0118583D01*
X0339340Y0118900D01*
X0339657Y0120485D02*
X0340291Y0120485D01*
X0340608Y0120168D01*
X0341550Y0120168D02*
X0341550Y0119851D01*
X0341867Y0119534D01*
X0342818Y0119534D01*
X0342818Y0118900D02*
X0342818Y0120168D01*
X0342501Y0120485D01*
X0341867Y0120485D01*
X0341550Y0120168D01*
X0341550Y0118900D02*
X0341867Y0118583D01*
X0342501Y0118583D01*
X0342818Y0118900D01*
X0297818Y0118900D02*
X0297501Y0118583D01*
X0296867Y0118583D01*
X0296550Y0118900D01*
X0296550Y0119534D02*
X0297184Y0119851D01*
X0297501Y0119851D01*
X0297818Y0119534D01*
X0297818Y0118900D01*
X0296550Y0119534D02*
X0296550Y0120485D01*
X0297818Y0120485D01*
X0295608Y0120168D02*
X0295291Y0120485D01*
X0294657Y0120485D01*
X0294340Y0120168D01*
X0294340Y0119851D01*
X0294657Y0119534D01*
X0295291Y0119534D01*
X0295608Y0119217D01*
X0295608Y0118900D01*
X0295291Y0118583D01*
X0294657Y0118583D01*
X0294340Y0118900D01*
X0270655Y0092087D02*
X0270655Y0087583D01*
X0269154Y0087583D02*
X0272156Y0087583D01*
X0269154Y0090586D02*
X0270655Y0092087D01*
X0267553Y0091337D02*
X0266802Y0092087D01*
X0265301Y0092087D01*
X0264550Y0091337D01*
X0264550Y0088334D01*
X0265301Y0087583D01*
X0266802Y0087583D01*
X0267553Y0088334D01*
X0267553Y0089835D01*
X0266051Y0089835D01*
X0266713Y0033587D02*
X0265212Y0033587D01*
X0264461Y0032837D01*
X0264461Y0032086D01*
X0265212Y0031335D01*
X0266713Y0031335D01*
X0267464Y0030585D01*
X0267464Y0029834D01*
X0266713Y0029083D01*
X0265212Y0029083D01*
X0264461Y0029834D01*
X0267464Y0032837D02*
X0266713Y0033587D01*
X0269065Y0033587D02*
X0269065Y0029083D01*
X0270566Y0030585D01*
X0272068Y0029083D01*
X0272068Y0033587D01*
X0273669Y0033587D02*
X0275170Y0033587D01*
X0274420Y0033587D02*
X0274420Y0029083D01*
X0275170Y0029083D02*
X0273669Y0029083D01*
X0278239Y0029083D02*
X0278239Y0033587D01*
X0276738Y0033587D02*
X0279741Y0033587D01*
X0281342Y0032837D02*
X0282093Y0033587D01*
X0283594Y0033587D01*
X0284345Y0032837D01*
X0285946Y0033587D02*
X0285946Y0029083D01*
X0284345Y0029834D02*
X0283594Y0029083D01*
X0282093Y0029083D01*
X0281342Y0029834D01*
X0281342Y0032837D01*
X0285946Y0031335D02*
X0288949Y0031335D01*
X0288949Y0033587D02*
X0288949Y0029083D01*
X0196699Y0143583D02*
X0197450Y0144334D01*
X0197450Y0145835D01*
X0196699Y0146586D01*
X0192946Y0146586D01*
X0194447Y0148187D02*
X0192946Y0149689D01*
X0197450Y0149689D01*
X0197450Y0151190D02*
X0197450Y0148187D01*
X0196699Y0143583D02*
X0192946Y0143583D01*
X0204657Y0208583D02*
X0204340Y0208900D01*
X0204657Y0208583D02*
X0205291Y0208583D01*
X0205608Y0208900D01*
X0205608Y0209217D01*
X0205291Y0209534D01*
X0204657Y0209534D01*
X0204340Y0209851D01*
X0204340Y0210168D01*
X0204657Y0210485D01*
X0205291Y0210485D01*
X0205608Y0210168D01*
X0206550Y0210485D02*
X0207818Y0210485D01*
X0207818Y0210168D01*
X0206550Y0208900D01*
X0206550Y0208583D01*
X0249340Y0208900D02*
X0249657Y0208583D01*
X0250291Y0208583D01*
X0250608Y0208900D01*
X0250608Y0209217D01*
X0250291Y0209534D01*
X0249657Y0209534D01*
X0249340Y0209851D01*
X0249340Y0210168D01*
X0249657Y0210485D01*
X0250291Y0210485D01*
X0250608Y0210168D01*
X0251550Y0209534D02*
X0252501Y0209534D01*
X0252818Y0209217D01*
X0252818Y0208900D01*
X0252501Y0208583D01*
X0251867Y0208583D01*
X0251550Y0208900D01*
X0251550Y0209534D01*
X0252184Y0210168D01*
X0252818Y0210485D01*
X0294340Y0210168D02*
X0294340Y0209851D01*
X0294657Y0209534D01*
X0295291Y0209534D01*
X0295608Y0209217D01*
X0295608Y0208900D01*
X0295291Y0208583D01*
X0294657Y0208583D01*
X0294340Y0208900D01*
X0294340Y0210168D02*
X0294657Y0210485D01*
X0295291Y0210485D01*
X0295608Y0210168D01*
X0296550Y0209851D02*
X0297184Y0210485D01*
X0297184Y0208583D01*
X0296550Y0208583D02*
X0297818Y0208583D01*
X0339340Y0208900D02*
X0339657Y0208583D01*
X0340291Y0208583D01*
X0340608Y0208900D01*
X0340608Y0209217D01*
X0340291Y0209534D01*
X0339657Y0209534D01*
X0339340Y0209851D01*
X0339340Y0210168D01*
X0339657Y0210485D01*
X0340291Y0210485D01*
X0340608Y0210168D01*
X0341550Y0210168D02*
X0341867Y0210485D01*
X0342501Y0210485D01*
X0342818Y0210168D01*
X0342818Y0209851D01*
X0341550Y0208583D01*
X0342818Y0208583D01*
X0162818Y0208900D02*
X0162501Y0208583D01*
X0161867Y0208583D01*
X0161550Y0208900D01*
X0161550Y0209217D01*
X0161867Y0209534D01*
X0162501Y0209534D01*
X0162818Y0209217D01*
X0162818Y0208900D01*
X0162501Y0209534D02*
X0162818Y0209851D01*
X0162818Y0210168D01*
X0162501Y0210485D01*
X0161867Y0210485D01*
X0161550Y0210168D01*
X0161550Y0209851D01*
X0161867Y0209534D01*
X0160608Y0209217D02*
X0160608Y0208900D01*
X0160291Y0208583D01*
X0159657Y0208583D01*
X0159340Y0208900D01*
X0159657Y0209534D02*
X0160291Y0209534D01*
X0160608Y0209217D01*
X0160608Y0210168D02*
X0160291Y0210485D01*
X0159657Y0210485D01*
X0159340Y0210168D01*
X0159340Y0209851D01*
X0159657Y0209534D01*
X0134550Y0214400D02*
X0134550Y0214717D01*
X0134233Y0215034D01*
X0132648Y0215034D01*
X0132648Y0214717D02*
X0132648Y0215351D01*
X0132965Y0216293D02*
X0132648Y0216610D01*
X0132648Y0217244D01*
X0132965Y0217561D01*
X0133282Y0217561D01*
X0133599Y0217244D01*
X0133916Y0217561D01*
X0134233Y0217561D01*
X0134550Y0217244D01*
X0134550Y0216610D01*
X0134233Y0216293D01*
X0133599Y0216927D02*
X0133599Y0217244D01*
X0134550Y0214400D02*
X0134233Y0214083D01*
X0117750Y0220002D02*
X0113246Y0220002D01*
X0114747Y0221504D01*
X0113246Y0223005D01*
X0117750Y0223005D01*
X0117750Y0224606D02*
X0117750Y0226107D01*
X0117750Y0225357D02*
X0113246Y0225357D01*
X0113246Y0226107D02*
X0113246Y0224606D01*
X0113997Y0227675D02*
X0116999Y0227675D01*
X0117750Y0228426D01*
X0117750Y0229927D01*
X0116999Y0230678D01*
X0117750Y0232279D02*
X0117750Y0235282D01*
X0117750Y0233781D02*
X0113246Y0233781D01*
X0114747Y0232279D01*
X0113997Y0230678D02*
X0113246Y0229927D01*
X0113246Y0228426D01*
X0113997Y0227675D01*
X0066828Y0265333D02*
X0007772Y0265333D01*
X0035865Y0234641D02*
X0035548Y0234324D01*
X0035548Y0233690D01*
X0035865Y0233373D01*
X0035548Y0232431D02*
X0035548Y0231797D01*
X0035548Y0232114D02*
X0037133Y0232114D01*
X0037450Y0231797D01*
X0037450Y0231480D01*
X0037133Y0231164D01*
X0037450Y0233373D02*
X0036182Y0234641D01*
X0035865Y0234641D01*
X0037450Y0234641D02*
X0037450Y0233373D01*
D12*
X0261100Y0159333D03*
X0289500Y0159333D03*
X0291500Y0139333D03*
X0263100Y0139333D03*
D13*
X0323300Y0136133D03*
X0323300Y0164533D03*
D14*
X0332800Y0183333D02*
X0349800Y0183333D01*
X0353300Y0191333D02*
X0353300Y0199262D01*
X0334300Y0195333D02*
X0334302Y0195505D01*
X0334308Y0195676D01*
X0334319Y0195848D01*
X0334334Y0196019D01*
X0334353Y0196190D01*
X0334376Y0196360D01*
X0334403Y0196530D01*
X0334435Y0196699D01*
X0334470Y0196867D01*
X0334510Y0197034D01*
X0334554Y0197200D01*
X0334601Y0197365D01*
X0334653Y0197529D01*
X0334709Y0197691D01*
X0334769Y0197852D01*
X0334833Y0198012D01*
X0334901Y0198170D01*
X0334972Y0198326D01*
X0335047Y0198480D01*
X0335127Y0198633D01*
X0335209Y0198783D01*
X0335296Y0198932D01*
X0335386Y0199078D01*
X0335480Y0199222D01*
X0335577Y0199364D01*
X0335678Y0199503D01*
X0335782Y0199640D01*
X0335889Y0199774D01*
X0336000Y0199905D01*
X0336113Y0200034D01*
X0336230Y0200160D01*
X0336350Y0200283D01*
X0336473Y0200403D01*
X0336599Y0200520D01*
X0336728Y0200633D01*
X0336859Y0200744D01*
X0336993Y0200851D01*
X0337130Y0200955D01*
X0337269Y0201056D01*
X0337411Y0201153D01*
X0337555Y0201247D01*
X0337701Y0201337D01*
X0337850Y0201424D01*
X0338000Y0201506D01*
X0338153Y0201586D01*
X0338307Y0201661D01*
X0338463Y0201732D01*
X0338621Y0201800D01*
X0338781Y0201864D01*
X0338942Y0201924D01*
X0339104Y0201980D01*
X0339268Y0202032D01*
X0339433Y0202079D01*
X0339599Y0202123D01*
X0339766Y0202163D01*
X0339934Y0202198D01*
X0340103Y0202230D01*
X0340273Y0202257D01*
X0340443Y0202280D01*
X0340614Y0202299D01*
X0340785Y0202314D01*
X0340957Y0202325D01*
X0341128Y0202331D01*
X0341300Y0202333D01*
X0341472Y0202331D01*
X0341643Y0202325D01*
X0341815Y0202314D01*
X0341986Y0202299D01*
X0342157Y0202280D01*
X0342327Y0202257D01*
X0342497Y0202230D01*
X0342666Y0202198D01*
X0342834Y0202163D01*
X0343001Y0202123D01*
X0343167Y0202079D01*
X0343332Y0202032D01*
X0343496Y0201980D01*
X0343658Y0201924D01*
X0343819Y0201864D01*
X0343979Y0201800D01*
X0344137Y0201732D01*
X0344293Y0201661D01*
X0344447Y0201586D01*
X0344600Y0201506D01*
X0344750Y0201424D01*
X0344899Y0201337D01*
X0345045Y0201247D01*
X0345189Y0201153D01*
X0345331Y0201056D01*
X0345470Y0200955D01*
X0345607Y0200851D01*
X0345741Y0200744D01*
X0345872Y0200633D01*
X0346001Y0200520D01*
X0346127Y0200403D01*
X0346250Y0200283D01*
X0346370Y0200160D01*
X0346487Y0200034D01*
X0346600Y0199905D01*
X0346711Y0199774D01*
X0346818Y0199640D01*
X0346922Y0199503D01*
X0347023Y0199364D01*
X0347120Y0199222D01*
X0347214Y0199078D01*
X0347304Y0198932D01*
X0347391Y0198783D01*
X0347473Y0198633D01*
X0347553Y0198480D01*
X0347628Y0198326D01*
X0347699Y0198170D01*
X0347767Y0198012D01*
X0347831Y0197852D01*
X0347891Y0197691D01*
X0347947Y0197529D01*
X0347999Y0197365D01*
X0348046Y0197200D01*
X0348090Y0197034D01*
X0348130Y0196867D01*
X0348165Y0196699D01*
X0348197Y0196530D01*
X0348224Y0196360D01*
X0348247Y0196190D01*
X0348266Y0196019D01*
X0348281Y0195848D01*
X0348292Y0195676D01*
X0348298Y0195505D01*
X0348300Y0195333D01*
X0348298Y0195161D01*
X0348292Y0194990D01*
X0348281Y0194818D01*
X0348266Y0194647D01*
X0348247Y0194476D01*
X0348224Y0194306D01*
X0348197Y0194136D01*
X0348165Y0193967D01*
X0348130Y0193799D01*
X0348090Y0193632D01*
X0348046Y0193466D01*
X0347999Y0193301D01*
X0347947Y0193137D01*
X0347891Y0192975D01*
X0347831Y0192814D01*
X0347767Y0192654D01*
X0347699Y0192496D01*
X0347628Y0192340D01*
X0347553Y0192186D01*
X0347473Y0192033D01*
X0347391Y0191883D01*
X0347304Y0191734D01*
X0347214Y0191588D01*
X0347120Y0191444D01*
X0347023Y0191302D01*
X0346922Y0191163D01*
X0346818Y0191026D01*
X0346711Y0190892D01*
X0346600Y0190761D01*
X0346487Y0190632D01*
X0346370Y0190506D01*
X0346250Y0190383D01*
X0346127Y0190263D01*
X0346001Y0190146D01*
X0345872Y0190033D01*
X0345741Y0189922D01*
X0345607Y0189815D01*
X0345470Y0189711D01*
X0345331Y0189610D01*
X0345189Y0189513D01*
X0345045Y0189419D01*
X0344899Y0189329D01*
X0344750Y0189242D01*
X0344600Y0189160D01*
X0344447Y0189080D01*
X0344293Y0189005D01*
X0344137Y0188934D01*
X0343979Y0188866D01*
X0343819Y0188802D01*
X0343658Y0188742D01*
X0343496Y0188686D01*
X0343332Y0188634D01*
X0343167Y0188587D01*
X0343001Y0188543D01*
X0342834Y0188503D01*
X0342666Y0188468D01*
X0342497Y0188436D01*
X0342327Y0188409D01*
X0342157Y0188386D01*
X0341986Y0188367D01*
X0341815Y0188352D01*
X0341643Y0188341D01*
X0341472Y0188335D01*
X0341300Y0188333D01*
X0341128Y0188335D01*
X0340957Y0188341D01*
X0340785Y0188352D01*
X0340614Y0188367D01*
X0340443Y0188386D01*
X0340273Y0188409D01*
X0340103Y0188436D01*
X0339934Y0188468D01*
X0339766Y0188503D01*
X0339599Y0188543D01*
X0339433Y0188587D01*
X0339268Y0188634D01*
X0339104Y0188686D01*
X0338942Y0188742D01*
X0338781Y0188802D01*
X0338621Y0188866D01*
X0338463Y0188934D01*
X0338307Y0189005D01*
X0338153Y0189080D01*
X0338000Y0189160D01*
X0337850Y0189242D01*
X0337701Y0189329D01*
X0337555Y0189419D01*
X0337411Y0189513D01*
X0337269Y0189610D01*
X0337130Y0189711D01*
X0336993Y0189815D01*
X0336859Y0189922D01*
X0336728Y0190033D01*
X0336599Y0190146D01*
X0336473Y0190263D01*
X0336350Y0190383D01*
X0336230Y0190506D01*
X0336113Y0190632D01*
X0336000Y0190761D01*
X0335889Y0190892D01*
X0335782Y0191026D01*
X0335678Y0191163D01*
X0335577Y0191302D01*
X0335480Y0191444D01*
X0335386Y0191588D01*
X0335296Y0191734D01*
X0335209Y0191883D01*
X0335127Y0192033D01*
X0335047Y0192186D01*
X0334972Y0192340D01*
X0334901Y0192496D01*
X0334833Y0192654D01*
X0334769Y0192814D01*
X0334709Y0192975D01*
X0334653Y0193137D01*
X0334601Y0193301D01*
X0334554Y0193466D01*
X0334510Y0193632D01*
X0334470Y0193799D01*
X0334435Y0193967D01*
X0334403Y0194136D01*
X0334376Y0194306D01*
X0334353Y0194476D01*
X0334334Y0194647D01*
X0334319Y0194818D01*
X0334308Y0194990D01*
X0334302Y0195161D01*
X0334300Y0195333D01*
X0329300Y0191333D02*
X0329300Y0199381D01*
X0332800Y0207333D02*
X0349800Y0207333D01*
X0365564Y0213617D02*
X0365564Y0249050D01*
X0136036Y0249050D01*
X0136036Y0248656D02*
X0136036Y0213617D01*
X0365564Y0213617D01*
X0308300Y0199262D02*
X0308300Y0191333D01*
X0289300Y0195333D02*
X0289302Y0195505D01*
X0289308Y0195676D01*
X0289319Y0195848D01*
X0289334Y0196019D01*
X0289353Y0196190D01*
X0289376Y0196360D01*
X0289403Y0196530D01*
X0289435Y0196699D01*
X0289470Y0196867D01*
X0289510Y0197034D01*
X0289554Y0197200D01*
X0289601Y0197365D01*
X0289653Y0197529D01*
X0289709Y0197691D01*
X0289769Y0197852D01*
X0289833Y0198012D01*
X0289901Y0198170D01*
X0289972Y0198326D01*
X0290047Y0198480D01*
X0290127Y0198633D01*
X0290209Y0198783D01*
X0290296Y0198932D01*
X0290386Y0199078D01*
X0290480Y0199222D01*
X0290577Y0199364D01*
X0290678Y0199503D01*
X0290782Y0199640D01*
X0290889Y0199774D01*
X0291000Y0199905D01*
X0291113Y0200034D01*
X0291230Y0200160D01*
X0291350Y0200283D01*
X0291473Y0200403D01*
X0291599Y0200520D01*
X0291728Y0200633D01*
X0291859Y0200744D01*
X0291993Y0200851D01*
X0292130Y0200955D01*
X0292269Y0201056D01*
X0292411Y0201153D01*
X0292555Y0201247D01*
X0292701Y0201337D01*
X0292850Y0201424D01*
X0293000Y0201506D01*
X0293153Y0201586D01*
X0293307Y0201661D01*
X0293463Y0201732D01*
X0293621Y0201800D01*
X0293781Y0201864D01*
X0293942Y0201924D01*
X0294104Y0201980D01*
X0294268Y0202032D01*
X0294433Y0202079D01*
X0294599Y0202123D01*
X0294766Y0202163D01*
X0294934Y0202198D01*
X0295103Y0202230D01*
X0295273Y0202257D01*
X0295443Y0202280D01*
X0295614Y0202299D01*
X0295785Y0202314D01*
X0295957Y0202325D01*
X0296128Y0202331D01*
X0296300Y0202333D01*
X0296472Y0202331D01*
X0296643Y0202325D01*
X0296815Y0202314D01*
X0296986Y0202299D01*
X0297157Y0202280D01*
X0297327Y0202257D01*
X0297497Y0202230D01*
X0297666Y0202198D01*
X0297834Y0202163D01*
X0298001Y0202123D01*
X0298167Y0202079D01*
X0298332Y0202032D01*
X0298496Y0201980D01*
X0298658Y0201924D01*
X0298819Y0201864D01*
X0298979Y0201800D01*
X0299137Y0201732D01*
X0299293Y0201661D01*
X0299447Y0201586D01*
X0299600Y0201506D01*
X0299750Y0201424D01*
X0299899Y0201337D01*
X0300045Y0201247D01*
X0300189Y0201153D01*
X0300331Y0201056D01*
X0300470Y0200955D01*
X0300607Y0200851D01*
X0300741Y0200744D01*
X0300872Y0200633D01*
X0301001Y0200520D01*
X0301127Y0200403D01*
X0301250Y0200283D01*
X0301370Y0200160D01*
X0301487Y0200034D01*
X0301600Y0199905D01*
X0301711Y0199774D01*
X0301818Y0199640D01*
X0301922Y0199503D01*
X0302023Y0199364D01*
X0302120Y0199222D01*
X0302214Y0199078D01*
X0302304Y0198932D01*
X0302391Y0198783D01*
X0302473Y0198633D01*
X0302553Y0198480D01*
X0302628Y0198326D01*
X0302699Y0198170D01*
X0302767Y0198012D01*
X0302831Y0197852D01*
X0302891Y0197691D01*
X0302947Y0197529D01*
X0302999Y0197365D01*
X0303046Y0197200D01*
X0303090Y0197034D01*
X0303130Y0196867D01*
X0303165Y0196699D01*
X0303197Y0196530D01*
X0303224Y0196360D01*
X0303247Y0196190D01*
X0303266Y0196019D01*
X0303281Y0195848D01*
X0303292Y0195676D01*
X0303298Y0195505D01*
X0303300Y0195333D01*
X0303298Y0195161D01*
X0303292Y0194990D01*
X0303281Y0194818D01*
X0303266Y0194647D01*
X0303247Y0194476D01*
X0303224Y0194306D01*
X0303197Y0194136D01*
X0303165Y0193967D01*
X0303130Y0193799D01*
X0303090Y0193632D01*
X0303046Y0193466D01*
X0302999Y0193301D01*
X0302947Y0193137D01*
X0302891Y0192975D01*
X0302831Y0192814D01*
X0302767Y0192654D01*
X0302699Y0192496D01*
X0302628Y0192340D01*
X0302553Y0192186D01*
X0302473Y0192033D01*
X0302391Y0191883D01*
X0302304Y0191734D01*
X0302214Y0191588D01*
X0302120Y0191444D01*
X0302023Y0191302D01*
X0301922Y0191163D01*
X0301818Y0191026D01*
X0301711Y0190892D01*
X0301600Y0190761D01*
X0301487Y0190632D01*
X0301370Y0190506D01*
X0301250Y0190383D01*
X0301127Y0190263D01*
X0301001Y0190146D01*
X0300872Y0190033D01*
X0300741Y0189922D01*
X0300607Y0189815D01*
X0300470Y0189711D01*
X0300331Y0189610D01*
X0300189Y0189513D01*
X0300045Y0189419D01*
X0299899Y0189329D01*
X0299750Y0189242D01*
X0299600Y0189160D01*
X0299447Y0189080D01*
X0299293Y0189005D01*
X0299137Y0188934D01*
X0298979Y0188866D01*
X0298819Y0188802D01*
X0298658Y0188742D01*
X0298496Y0188686D01*
X0298332Y0188634D01*
X0298167Y0188587D01*
X0298001Y0188543D01*
X0297834Y0188503D01*
X0297666Y0188468D01*
X0297497Y0188436D01*
X0297327Y0188409D01*
X0297157Y0188386D01*
X0296986Y0188367D01*
X0296815Y0188352D01*
X0296643Y0188341D01*
X0296472Y0188335D01*
X0296300Y0188333D01*
X0296128Y0188335D01*
X0295957Y0188341D01*
X0295785Y0188352D01*
X0295614Y0188367D01*
X0295443Y0188386D01*
X0295273Y0188409D01*
X0295103Y0188436D01*
X0294934Y0188468D01*
X0294766Y0188503D01*
X0294599Y0188543D01*
X0294433Y0188587D01*
X0294268Y0188634D01*
X0294104Y0188686D01*
X0293942Y0188742D01*
X0293781Y0188802D01*
X0293621Y0188866D01*
X0293463Y0188934D01*
X0293307Y0189005D01*
X0293153Y0189080D01*
X0293000Y0189160D01*
X0292850Y0189242D01*
X0292701Y0189329D01*
X0292555Y0189419D01*
X0292411Y0189513D01*
X0292269Y0189610D01*
X0292130Y0189711D01*
X0291993Y0189815D01*
X0291859Y0189922D01*
X0291728Y0190033D01*
X0291599Y0190146D01*
X0291473Y0190263D01*
X0291350Y0190383D01*
X0291230Y0190506D01*
X0291113Y0190632D01*
X0291000Y0190761D01*
X0290889Y0190892D01*
X0290782Y0191026D01*
X0290678Y0191163D01*
X0290577Y0191302D01*
X0290480Y0191444D01*
X0290386Y0191588D01*
X0290296Y0191734D01*
X0290209Y0191883D01*
X0290127Y0192033D01*
X0290047Y0192186D01*
X0289972Y0192340D01*
X0289901Y0192496D01*
X0289833Y0192654D01*
X0289769Y0192814D01*
X0289709Y0192975D01*
X0289653Y0193137D01*
X0289601Y0193301D01*
X0289554Y0193466D01*
X0289510Y0193632D01*
X0289470Y0193799D01*
X0289435Y0193967D01*
X0289403Y0194136D01*
X0289376Y0194306D01*
X0289353Y0194476D01*
X0289334Y0194647D01*
X0289319Y0194818D01*
X0289308Y0194990D01*
X0289302Y0195161D01*
X0289300Y0195333D01*
X0284300Y0191333D02*
X0284300Y0199381D01*
X0287800Y0207333D02*
X0304800Y0207333D01*
X0263300Y0199262D02*
X0263300Y0191333D01*
X0244300Y0195333D02*
X0244302Y0195505D01*
X0244308Y0195676D01*
X0244319Y0195848D01*
X0244334Y0196019D01*
X0244353Y0196190D01*
X0244376Y0196360D01*
X0244403Y0196530D01*
X0244435Y0196699D01*
X0244470Y0196867D01*
X0244510Y0197034D01*
X0244554Y0197200D01*
X0244601Y0197365D01*
X0244653Y0197529D01*
X0244709Y0197691D01*
X0244769Y0197852D01*
X0244833Y0198012D01*
X0244901Y0198170D01*
X0244972Y0198326D01*
X0245047Y0198480D01*
X0245127Y0198633D01*
X0245209Y0198783D01*
X0245296Y0198932D01*
X0245386Y0199078D01*
X0245480Y0199222D01*
X0245577Y0199364D01*
X0245678Y0199503D01*
X0245782Y0199640D01*
X0245889Y0199774D01*
X0246000Y0199905D01*
X0246113Y0200034D01*
X0246230Y0200160D01*
X0246350Y0200283D01*
X0246473Y0200403D01*
X0246599Y0200520D01*
X0246728Y0200633D01*
X0246859Y0200744D01*
X0246993Y0200851D01*
X0247130Y0200955D01*
X0247269Y0201056D01*
X0247411Y0201153D01*
X0247555Y0201247D01*
X0247701Y0201337D01*
X0247850Y0201424D01*
X0248000Y0201506D01*
X0248153Y0201586D01*
X0248307Y0201661D01*
X0248463Y0201732D01*
X0248621Y0201800D01*
X0248781Y0201864D01*
X0248942Y0201924D01*
X0249104Y0201980D01*
X0249268Y0202032D01*
X0249433Y0202079D01*
X0249599Y0202123D01*
X0249766Y0202163D01*
X0249934Y0202198D01*
X0250103Y0202230D01*
X0250273Y0202257D01*
X0250443Y0202280D01*
X0250614Y0202299D01*
X0250785Y0202314D01*
X0250957Y0202325D01*
X0251128Y0202331D01*
X0251300Y0202333D01*
X0251472Y0202331D01*
X0251643Y0202325D01*
X0251815Y0202314D01*
X0251986Y0202299D01*
X0252157Y0202280D01*
X0252327Y0202257D01*
X0252497Y0202230D01*
X0252666Y0202198D01*
X0252834Y0202163D01*
X0253001Y0202123D01*
X0253167Y0202079D01*
X0253332Y0202032D01*
X0253496Y0201980D01*
X0253658Y0201924D01*
X0253819Y0201864D01*
X0253979Y0201800D01*
X0254137Y0201732D01*
X0254293Y0201661D01*
X0254447Y0201586D01*
X0254600Y0201506D01*
X0254750Y0201424D01*
X0254899Y0201337D01*
X0255045Y0201247D01*
X0255189Y0201153D01*
X0255331Y0201056D01*
X0255470Y0200955D01*
X0255607Y0200851D01*
X0255741Y0200744D01*
X0255872Y0200633D01*
X0256001Y0200520D01*
X0256127Y0200403D01*
X0256250Y0200283D01*
X0256370Y0200160D01*
X0256487Y0200034D01*
X0256600Y0199905D01*
X0256711Y0199774D01*
X0256818Y0199640D01*
X0256922Y0199503D01*
X0257023Y0199364D01*
X0257120Y0199222D01*
X0257214Y0199078D01*
X0257304Y0198932D01*
X0257391Y0198783D01*
X0257473Y0198633D01*
X0257553Y0198480D01*
X0257628Y0198326D01*
X0257699Y0198170D01*
X0257767Y0198012D01*
X0257831Y0197852D01*
X0257891Y0197691D01*
X0257947Y0197529D01*
X0257999Y0197365D01*
X0258046Y0197200D01*
X0258090Y0197034D01*
X0258130Y0196867D01*
X0258165Y0196699D01*
X0258197Y0196530D01*
X0258224Y0196360D01*
X0258247Y0196190D01*
X0258266Y0196019D01*
X0258281Y0195848D01*
X0258292Y0195676D01*
X0258298Y0195505D01*
X0258300Y0195333D01*
X0258298Y0195161D01*
X0258292Y0194990D01*
X0258281Y0194818D01*
X0258266Y0194647D01*
X0258247Y0194476D01*
X0258224Y0194306D01*
X0258197Y0194136D01*
X0258165Y0193967D01*
X0258130Y0193799D01*
X0258090Y0193632D01*
X0258046Y0193466D01*
X0257999Y0193301D01*
X0257947Y0193137D01*
X0257891Y0192975D01*
X0257831Y0192814D01*
X0257767Y0192654D01*
X0257699Y0192496D01*
X0257628Y0192340D01*
X0257553Y0192186D01*
X0257473Y0192033D01*
X0257391Y0191883D01*
X0257304Y0191734D01*
X0257214Y0191588D01*
X0257120Y0191444D01*
X0257023Y0191302D01*
X0256922Y0191163D01*
X0256818Y0191026D01*
X0256711Y0190892D01*
X0256600Y0190761D01*
X0256487Y0190632D01*
X0256370Y0190506D01*
X0256250Y0190383D01*
X0256127Y0190263D01*
X0256001Y0190146D01*
X0255872Y0190033D01*
X0255741Y0189922D01*
X0255607Y0189815D01*
X0255470Y0189711D01*
X0255331Y0189610D01*
X0255189Y0189513D01*
X0255045Y0189419D01*
X0254899Y0189329D01*
X0254750Y0189242D01*
X0254600Y0189160D01*
X0254447Y0189080D01*
X0254293Y0189005D01*
X0254137Y0188934D01*
X0253979Y0188866D01*
X0253819Y0188802D01*
X0253658Y0188742D01*
X0253496Y0188686D01*
X0253332Y0188634D01*
X0253167Y0188587D01*
X0253001Y0188543D01*
X0252834Y0188503D01*
X0252666Y0188468D01*
X0252497Y0188436D01*
X0252327Y0188409D01*
X0252157Y0188386D01*
X0251986Y0188367D01*
X0251815Y0188352D01*
X0251643Y0188341D01*
X0251472Y0188335D01*
X0251300Y0188333D01*
X0251128Y0188335D01*
X0250957Y0188341D01*
X0250785Y0188352D01*
X0250614Y0188367D01*
X0250443Y0188386D01*
X0250273Y0188409D01*
X0250103Y0188436D01*
X0249934Y0188468D01*
X0249766Y0188503D01*
X0249599Y0188543D01*
X0249433Y0188587D01*
X0249268Y0188634D01*
X0249104Y0188686D01*
X0248942Y0188742D01*
X0248781Y0188802D01*
X0248621Y0188866D01*
X0248463Y0188934D01*
X0248307Y0189005D01*
X0248153Y0189080D01*
X0248000Y0189160D01*
X0247850Y0189242D01*
X0247701Y0189329D01*
X0247555Y0189419D01*
X0247411Y0189513D01*
X0247269Y0189610D01*
X0247130Y0189711D01*
X0246993Y0189815D01*
X0246859Y0189922D01*
X0246728Y0190033D01*
X0246599Y0190146D01*
X0246473Y0190263D01*
X0246350Y0190383D01*
X0246230Y0190506D01*
X0246113Y0190632D01*
X0246000Y0190761D01*
X0245889Y0190892D01*
X0245782Y0191026D01*
X0245678Y0191163D01*
X0245577Y0191302D01*
X0245480Y0191444D01*
X0245386Y0191588D01*
X0245296Y0191734D01*
X0245209Y0191883D01*
X0245127Y0192033D01*
X0245047Y0192186D01*
X0244972Y0192340D01*
X0244901Y0192496D01*
X0244833Y0192654D01*
X0244769Y0192814D01*
X0244709Y0192975D01*
X0244653Y0193137D01*
X0244601Y0193301D01*
X0244554Y0193466D01*
X0244510Y0193632D01*
X0244470Y0193799D01*
X0244435Y0193967D01*
X0244403Y0194136D01*
X0244376Y0194306D01*
X0244353Y0194476D01*
X0244334Y0194647D01*
X0244319Y0194818D01*
X0244308Y0194990D01*
X0244302Y0195161D01*
X0244300Y0195333D01*
X0239300Y0191333D02*
X0239300Y0199381D01*
X0242800Y0207333D02*
X0259800Y0207333D01*
X0259461Y0213617D02*
X0259461Y0219522D01*
X0242139Y0219522D01*
X0242139Y0213617D01*
X0218300Y0199262D02*
X0218300Y0191333D01*
X0199300Y0195333D02*
X0199302Y0195505D01*
X0199308Y0195676D01*
X0199319Y0195848D01*
X0199334Y0196019D01*
X0199353Y0196190D01*
X0199376Y0196360D01*
X0199403Y0196530D01*
X0199435Y0196699D01*
X0199470Y0196867D01*
X0199510Y0197034D01*
X0199554Y0197200D01*
X0199601Y0197365D01*
X0199653Y0197529D01*
X0199709Y0197691D01*
X0199769Y0197852D01*
X0199833Y0198012D01*
X0199901Y0198170D01*
X0199972Y0198326D01*
X0200047Y0198480D01*
X0200127Y0198633D01*
X0200209Y0198783D01*
X0200296Y0198932D01*
X0200386Y0199078D01*
X0200480Y0199222D01*
X0200577Y0199364D01*
X0200678Y0199503D01*
X0200782Y0199640D01*
X0200889Y0199774D01*
X0201000Y0199905D01*
X0201113Y0200034D01*
X0201230Y0200160D01*
X0201350Y0200283D01*
X0201473Y0200403D01*
X0201599Y0200520D01*
X0201728Y0200633D01*
X0201859Y0200744D01*
X0201993Y0200851D01*
X0202130Y0200955D01*
X0202269Y0201056D01*
X0202411Y0201153D01*
X0202555Y0201247D01*
X0202701Y0201337D01*
X0202850Y0201424D01*
X0203000Y0201506D01*
X0203153Y0201586D01*
X0203307Y0201661D01*
X0203463Y0201732D01*
X0203621Y0201800D01*
X0203781Y0201864D01*
X0203942Y0201924D01*
X0204104Y0201980D01*
X0204268Y0202032D01*
X0204433Y0202079D01*
X0204599Y0202123D01*
X0204766Y0202163D01*
X0204934Y0202198D01*
X0205103Y0202230D01*
X0205273Y0202257D01*
X0205443Y0202280D01*
X0205614Y0202299D01*
X0205785Y0202314D01*
X0205957Y0202325D01*
X0206128Y0202331D01*
X0206300Y0202333D01*
X0206472Y0202331D01*
X0206643Y0202325D01*
X0206815Y0202314D01*
X0206986Y0202299D01*
X0207157Y0202280D01*
X0207327Y0202257D01*
X0207497Y0202230D01*
X0207666Y0202198D01*
X0207834Y0202163D01*
X0208001Y0202123D01*
X0208167Y0202079D01*
X0208332Y0202032D01*
X0208496Y0201980D01*
X0208658Y0201924D01*
X0208819Y0201864D01*
X0208979Y0201800D01*
X0209137Y0201732D01*
X0209293Y0201661D01*
X0209447Y0201586D01*
X0209600Y0201506D01*
X0209750Y0201424D01*
X0209899Y0201337D01*
X0210045Y0201247D01*
X0210189Y0201153D01*
X0210331Y0201056D01*
X0210470Y0200955D01*
X0210607Y0200851D01*
X0210741Y0200744D01*
X0210872Y0200633D01*
X0211001Y0200520D01*
X0211127Y0200403D01*
X0211250Y0200283D01*
X0211370Y0200160D01*
X0211487Y0200034D01*
X0211600Y0199905D01*
X0211711Y0199774D01*
X0211818Y0199640D01*
X0211922Y0199503D01*
X0212023Y0199364D01*
X0212120Y0199222D01*
X0212214Y0199078D01*
X0212304Y0198932D01*
X0212391Y0198783D01*
X0212473Y0198633D01*
X0212553Y0198480D01*
X0212628Y0198326D01*
X0212699Y0198170D01*
X0212767Y0198012D01*
X0212831Y0197852D01*
X0212891Y0197691D01*
X0212947Y0197529D01*
X0212999Y0197365D01*
X0213046Y0197200D01*
X0213090Y0197034D01*
X0213130Y0196867D01*
X0213165Y0196699D01*
X0213197Y0196530D01*
X0213224Y0196360D01*
X0213247Y0196190D01*
X0213266Y0196019D01*
X0213281Y0195848D01*
X0213292Y0195676D01*
X0213298Y0195505D01*
X0213300Y0195333D01*
X0213298Y0195161D01*
X0213292Y0194990D01*
X0213281Y0194818D01*
X0213266Y0194647D01*
X0213247Y0194476D01*
X0213224Y0194306D01*
X0213197Y0194136D01*
X0213165Y0193967D01*
X0213130Y0193799D01*
X0213090Y0193632D01*
X0213046Y0193466D01*
X0212999Y0193301D01*
X0212947Y0193137D01*
X0212891Y0192975D01*
X0212831Y0192814D01*
X0212767Y0192654D01*
X0212699Y0192496D01*
X0212628Y0192340D01*
X0212553Y0192186D01*
X0212473Y0192033D01*
X0212391Y0191883D01*
X0212304Y0191734D01*
X0212214Y0191588D01*
X0212120Y0191444D01*
X0212023Y0191302D01*
X0211922Y0191163D01*
X0211818Y0191026D01*
X0211711Y0190892D01*
X0211600Y0190761D01*
X0211487Y0190632D01*
X0211370Y0190506D01*
X0211250Y0190383D01*
X0211127Y0190263D01*
X0211001Y0190146D01*
X0210872Y0190033D01*
X0210741Y0189922D01*
X0210607Y0189815D01*
X0210470Y0189711D01*
X0210331Y0189610D01*
X0210189Y0189513D01*
X0210045Y0189419D01*
X0209899Y0189329D01*
X0209750Y0189242D01*
X0209600Y0189160D01*
X0209447Y0189080D01*
X0209293Y0189005D01*
X0209137Y0188934D01*
X0208979Y0188866D01*
X0208819Y0188802D01*
X0208658Y0188742D01*
X0208496Y0188686D01*
X0208332Y0188634D01*
X0208167Y0188587D01*
X0208001Y0188543D01*
X0207834Y0188503D01*
X0207666Y0188468D01*
X0207497Y0188436D01*
X0207327Y0188409D01*
X0207157Y0188386D01*
X0206986Y0188367D01*
X0206815Y0188352D01*
X0206643Y0188341D01*
X0206472Y0188335D01*
X0206300Y0188333D01*
X0206128Y0188335D01*
X0205957Y0188341D01*
X0205785Y0188352D01*
X0205614Y0188367D01*
X0205443Y0188386D01*
X0205273Y0188409D01*
X0205103Y0188436D01*
X0204934Y0188468D01*
X0204766Y0188503D01*
X0204599Y0188543D01*
X0204433Y0188587D01*
X0204268Y0188634D01*
X0204104Y0188686D01*
X0203942Y0188742D01*
X0203781Y0188802D01*
X0203621Y0188866D01*
X0203463Y0188934D01*
X0203307Y0189005D01*
X0203153Y0189080D01*
X0203000Y0189160D01*
X0202850Y0189242D01*
X0202701Y0189329D01*
X0202555Y0189419D01*
X0202411Y0189513D01*
X0202269Y0189610D01*
X0202130Y0189711D01*
X0201993Y0189815D01*
X0201859Y0189922D01*
X0201728Y0190033D01*
X0201599Y0190146D01*
X0201473Y0190263D01*
X0201350Y0190383D01*
X0201230Y0190506D01*
X0201113Y0190632D01*
X0201000Y0190761D01*
X0200889Y0190892D01*
X0200782Y0191026D01*
X0200678Y0191163D01*
X0200577Y0191302D01*
X0200480Y0191444D01*
X0200386Y0191588D01*
X0200296Y0191734D01*
X0200209Y0191883D01*
X0200127Y0192033D01*
X0200047Y0192186D01*
X0199972Y0192340D01*
X0199901Y0192496D01*
X0199833Y0192654D01*
X0199769Y0192814D01*
X0199709Y0192975D01*
X0199653Y0193137D01*
X0199601Y0193301D01*
X0199554Y0193466D01*
X0199510Y0193632D01*
X0199470Y0193799D01*
X0199435Y0193967D01*
X0199403Y0194136D01*
X0199376Y0194306D01*
X0199353Y0194476D01*
X0199334Y0194647D01*
X0199319Y0194818D01*
X0199308Y0194990D01*
X0199302Y0195161D01*
X0199300Y0195333D01*
X0194300Y0191333D02*
X0194300Y0199381D01*
X0197800Y0207333D02*
X0214800Y0207333D01*
X0173300Y0199262D02*
X0173300Y0191333D01*
X0154300Y0195333D02*
X0154302Y0195505D01*
X0154308Y0195676D01*
X0154319Y0195848D01*
X0154334Y0196019D01*
X0154353Y0196190D01*
X0154376Y0196360D01*
X0154403Y0196530D01*
X0154435Y0196699D01*
X0154470Y0196867D01*
X0154510Y0197034D01*
X0154554Y0197200D01*
X0154601Y0197365D01*
X0154653Y0197529D01*
X0154709Y0197691D01*
X0154769Y0197852D01*
X0154833Y0198012D01*
X0154901Y0198170D01*
X0154972Y0198326D01*
X0155047Y0198480D01*
X0155127Y0198633D01*
X0155209Y0198783D01*
X0155296Y0198932D01*
X0155386Y0199078D01*
X0155480Y0199222D01*
X0155577Y0199364D01*
X0155678Y0199503D01*
X0155782Y0199640D01*
X0155889Y0199774D01*
X0156000Y0199905D01*
X0156113Y0200034D01*
X0156230Y0200160D01*
X0156350Y0200283D01*
X0156473Y0200403D01*
X0156599Y0200520D01*
X0156728Y0200633D01*
X0156859Y0200744D01*
X0156993Y0200851D01*
X0157130Y0200955D01*
X0157269Y0201056D01*
X0157411Y0201153D01*
X0157555Y0201247D01*
X0157701Y0201337D01*
X0157850Y0201424D01*
X0158000Y0201506D01*
X0158153Y0201586D01*
X0158307Y0201661D01*
X0158463Y0201732D01*
X0158621Y0201800D01*
X0158781Y0201864D01*
X0158942Y0201924D01*
X0159104Y0201980D01*
X0159268Y0202032D01*
X0159433Y0202079D01*
X0159599Y0202123D01*
X0159766Y0202163D01*
X0159934Y0202198D01*
X0160103Y0202230D01*
X0160273Y0202257D01*
X0160443Y0202280D01*
X0160614Y0202299D01*
X0160785Y0202314D01*
X0160957Y0202325D01*
X0161128Y0202331D01*
X0161300Y0202333D01*
X0161472Y0202331D01*
X0161643Y0202325D01*
X0161815Y0202314D01*
X0161986Y0202299D01*
X0162157Y0202280D01*
X0162327Y0202257D01*
X0162497Y0202230D01*
X0162666Y0202198D01*
X0162834Y0202163D01*
X0163001Y0202123D01*
X0163167Y0202079D01*
X0163332Y0202032D01*
X0163496Y0201980D01*
X0163658Y0201924D01*
X0163819Y0201864D01*
X0163979Y0201800D01*
X0164137Y0201732D01*
X0164293Y0201661D01*
X0164447Y0201586D01*
X0164600Y0201506D01*
X0164750Y0201424D01*
X0164899Y0201337D01*
X0165045Y0201247D01*
X0165189Y0201153D01*
X0165331Y0201056D01*
X0165470Y0200955D01*
X0165607Y0200851D01*
X0165741Y0200744D01*
X0165872Y0200633D01*
X0166001Y0200520D01*
X0166127Y0200403D01*
X0166250Y0200283D01*
X0166370Y0200160D01*
X0166487Y0200034D01*
X0166600Y0199905D01*
X0166711Y0199774D01*
X0166818Y0199640D01*
X0166922Y0199503D01*
X0167023Y0199364D01*
X0167120Y0199222D01*
X0167214Y0199078D01*
X0167304Y0198932D01*
X0167391Y0198783D01*
X0167473Y0198633D01*
X0167553Y0198480D01*
X0167628Y0198326D01*
X0167699Y0198170D01*
X0167767Y0198012D01*
X0167831Y0197852D01*
X0167891Y0197691D01*
X0167947Y0197529D01*
X0167999Y0197365D01*
X0168046Y0197200D01*
X0168090Y0197034D01*
X0168130Y0196867D01*
X0168165Y0196699D01*
X0168197Y0196530D01*
X0168224Y0196360D01*
X0168247Y0196190D01*
X0168266Y0196019D01*
X0168281Y0195848D01*
X0168292Y0195676D01*
X0168298Y0195505D01*
X0168300Y0195333D01*
X0168298Y0195161D01*
X0168292Y0194990D01*
X0168281Y0194818D01*
X0168266Y0194647D01*
X0168247Y0194476D01*
X0168224Y0194306D01*
X0168197Y0194136D01*
X0168165Y0193967D01*
X0168130Y0193799D01*
X0168090Y0193632D01*
X0168046Y0193466D01*
X0167999Y0193301D01*
X0167947Y0193137D01*
X0167891Y0192975D01*
X0167831Y0192814D01*
X0167767Y0192654D01*
X0167699Y0192496D01*
X0167628Y0192340D01*
X0167553Y0192186D01*
X0167473Y0192033D01*
X0167391Y0191883D01*
X0167304Y0191734D01*
X0167214Y0191588D01*
X0167120Y0191444D01*
X0167023Y0191302D01*
X0166922Y0191163D01*
X0166818Y0191026D01*
X0166711Y0190892D01*
X0166600Y0190761D01*
X0166487Y0190632D01*
X0166370Y0190506D01*
X0166250Y0190383D01*
X0166127Y0190263D01*
X0166001Y0190146D01*
X0165872Y0190033D01*
X0165741Y0189922D01*
X0165607Y0189815D01*
X0165470Y0189711D01*
X0165331Y0189610D01*
X0165189Y0189513D01*
X0165045Y0189419D01*
X0164899Y0189329D01*
X0164750Y0189242D01*
X0164600Y0189160D01*
X0164447Y0189080D01*
X0164293Y0189005D01*
X0164137Y0188934D01*
X0163979Y0188866D01*
X0163819Y0188802D01*
X0163658Y0188742D01*
X0163496Y0188686D01*
X0163332Y0188634D01*
X0163167Y0188587D01*
X0163001Y0188543D01*
X0162834Y0188503D01*
X0162666Y0188468D01*
X0162497Y0188436D01*
X0162327Y0188409D01*
X0162157Y0188386D01*
X0161986Y0188367D01*
X0161815Y0188352D01*
X0161643Y0188341D01*
X0161472Y0188335D01*
X0161300Y0188333D01*
X0161128Y0188335D01*
X0160957Y0188341D01*
X0160785Y0188352D01*
X0160614Y0188367D01*
X0160443Y0188386D01*
X0160273Y0188409D01*
X0160103Y0188436D01*
X0159934Y0188468D01*
X0159766Y0188503D01*
X0159599Y0188543D01*
X0159433Y0188587D01*
X0159268Y0188634D01*
X0159104Y0188686D01*
X0158942Y0188742D01*
X0158781Y0188802D01*
X0158621Y0188866D01*
X0158463Y0188934D01*
X0158307Y0189005D01*
X0158153Y0189080D01*
X0158000Y0189160D01*
X0157850Y0189242D01*
X0157701Y0189329D01*
X0157555Y0189419D01*
X0157411Y0189513D01*
X0157269Y0189610D01*
X0157130Y0189711D01*
X0156993Y0189815D01*
X0156859Y0189922D01*
X0156728Y0190033D01*
X0156599Y0190146D01*
X0156473Y0190263D01*
X0156350Y0190383D01*
X0156230Y0190506D01*
X0156113Y0190632D01*
X0156000Y0190761D01*
X0155889Y0190892D01*
X0155782Y0191026D01*
X0155678Y0191163D01*
X0155577Y0191302D01*
X0155480Y0191444D01*
X0155386Y0191588D01*
X0155296Y0191734D01*
X0155209Y0191883D01*
X0155127Y0192033D01*
X0155047Y0192186D01*
X0154972Y0192340D01*
X0154901Y0192496D01*
X0154833Y0192654D01*
X0154769Y0192814D01*
X0154709Y0192975D01*
X0154653Y0193137D01*
X0154601Y0193301D01*
X0154554Y0193466D01*
X0154510Y0193632D01*
X0154470Y0193799D01*
X0154435Y0193967D01*
X0154403Y0194136D01*
X0154376Y0194306D01*
X0154353Y0194476D01*
X0154334Y0194647D01*
X0154319Y0194818D01*
X0154308Y0194990D01*
X0154302Y0195161D01*
X0154300Y0195333D01*
X0149300Y0191333D02*
X0149300Y0199381D01*
X0152800Y0207333D02*
X0169800Y0207333D01*
X0158300Y0220408D02*
X0153300Y0220408D01*
X0130300Y0185833D02*
X0125300Y0185833D01*
X0122800Y0183333D01*
X0122800Y0178333D01*
X0125300Y0175833D01*
X0122800Y0173333D01*
X0122800Y0168333D01*
X0125300Y0165833D01*
X0122800Y0163333D01*
X0122800Y0158333D01*
X0125300Y0155833D01*
X0122800Y0153333D01*
X0122800Y0148333D01*
X0125300Y0145833D01*
X0122800Y0143333D01*
X0122800Y0138333D01*
X0125300Y0135833D01*
X0122800Y0133333D01*
X0122800Y0128333D01*
X0125300Y0125833D01*
X0122800Y0123333D01*
X0122800Y0118333D01*
X0125300Y0115833D01*
X0130300Y0115833D01*
X0132800Y0118333D01*
X0132800Y0123333D01*
X0130300Y0125833D01*
X0132800Y0128333D01*
X0132800Y0133333D01*
X0130300Y0135833D01*
X0132800Y0138333D01*
X0132800Y0143333D01*
X0130300Y0145833D01*
X0132800Y0148333D01*
X0132800Y0153333D01*
X0130300Y0155833D01*
X0132800Y0158333D01*
X0132800Y0163333D01*
X0130300Y0165833D01*
X0132800Y0168333D01*
X0132800Y0173333D01*
X0130300Y0175833D01*
X0132800Y0178333D01*
X0132800Y0183333D01*
X0130300Y0185833D01*
X0152800Y0183333D02*
X0169800Y0183333D01*
X0197800Y0183333D02*
X0214800Y0183333D01*
X0242800Y0183333D02*
X0259800Y0183333D01*
X0287800Y0183333D02*
X0304800Y0183333D01*
X0304800Y0117333D02*
X0287800Y0117333D01*
X0284300Y0109381D02*
X0284300Y0101333D01*
X0289300Y0105333D02*
X0289302Y0105505D01*
X0289308Y0105676D01*
X0289319Y0105848D01*
X0289334Y0106019D01*
X0289353Y0106190D01*
X0289376Y0106360D01*
X0289403Y0106530D01*
X0289435Y0106699D01*
X0289470Y0106867D01*
X0289510Y0107034D01*
X0289554Y0107200D01*
X0289601Y0107365D01*
X0289653Y0107529D01*
X0289709Y0107691D01*
X0289769Y0107852D01*
X0289833Y0108012D01*
X0289901Y0108170D01*
X0289972Y0108326D01*
X0290047Y0108480D01*
X0290127Y0108633D01*
X0290209Y0108783D01*
X0290296Y0108932D01*
X0290386Y0109078D01*
X0290480Y0109222D01*
X0290577Y0109364D01*
X0290678Y0109503D01*
X0290782Y0109640D01*
X0290889Y0109774D01*
X0291000Y0109905D01*
X0291113Y0110034D01*
X0291230Y0110160D01*
X0291350Y0110283D01*
X0291473Y0110403D01*
X0291599Y0110520D01*
X0291728Y0110633D01*
X0291859Y0110744D01*
X0291993Y0110851D01*
X0292130Y0110955D01*
X0292269Y0111056D01*
X0292411Y0111153D01*
X0292555Y0111247D01*
X0292701Y0111337D01*
X0292850Y0111424D01*
X0293000Y0111506D01*
X0293153Y0111586D01*
X0293307Y0111661D01*
X0293463Y0111732D01*
X0293621Y0111800D01*
X0293781Y0111864D01*
X0293942Y0111924D01*
X0294104Y0111980D01*
X0294268Y0112032D01*
X0294433Y0112079D01*
X0294599Y0112123D01*
X0294766Y0112163D01*
X0294934Y0112198D01*
X0295103Y0112230D01*
X0295273Y0112257D01*
X0295443Y0112280D01*
X0295614Y0112299D01*
X0295785Y0112314D01*
X0295957Y0112325D01*
X0296128Y0112331D01*
X0296300Y0112333D01*
X0296472Y0112331D01*
X0296643Y0112325D01*
X0296815Y0112314D01*
X0296986Y0112299D01*
X0297157Y0112280D01*
X0297327Y0112257D01*
X0297497Y0112230D01*
X0297666Y0112198D01*
X0297834Y0112163D01*
X0298001Y0112123D01*
X0298167Y0112079D01*
X0298332Y0112032D01*
X0298496Y0111980D01*
X0298658Y0111924D01*
X0298819Y0111864D01*
X0298979Y0111800D01*
X0299137Y0111732D01*
X0299293Y0111661D01*
X0299447Y0111586D01*
X0299600Y0111506D01*
X0299750Y0111424D01*
X0299899Y0111337D01*
X0300045Y0111247D01*
X0300189Y0111153D01*
X0300331Y0111056D01*
X0300470Y0110955D01*
X0300607Y0110851D01*
X0300741Y0110744D01*
X0300872Y0110633D01*
X0301001Y0110520D01*
X0301127Y0110403D01*
X0301250Y0110283D01*
X0301370Y0110160D01*
X0301487Y0110034D01*
X0301600Y0109905D01*
X0301711Y0109774D01*
X0301818Y0109640D01*
X0301922Y0109503D01*
X0302023Y0109364D01*
X0302120Y0109222D01*
X0302214Y0109078D01*
X0302304Y0108932D01*
X0302391Y0108783D01*
X0302473Y0108633D01*
X0302553Y0108480D01*
X0302628Y0108326D01*
X0302699Y0108170D01*
X0302767Y0108012D01*
X0302831Y0107852D01*
X0302891Y0107691D01*
X0302947Y0107529D01*
X0302999Y0107365D01*
X0303046Y0107200D01*
X0303090Y0107034D01*
X0303130Y0106867D01*
X0303165Y0106699D01*
X0303197Y0106530D01*
X0303224Y0106360D01*
X0303247Y0106190D01*
X0303266Y0106019D01*
X0303281Y0105848D01*
X0303292Y0105676D01*
X0303298Y0105505D01*
X0303300Y0105333D01*
X0303298Y0105161D01*
X0303292Y0104990D01*
X0303281Y0104818D01*
X0303266Y0104647D01*
X0303247Y0104476D01*
X0303224Y0104306D01*
X0303197Y0104136D01*
X0303165Y0103967D01*
X0303130Y0103799D01*
X0303090Y0103632D01*
X0303046Y0103466D01*
X0302999Y0103301D01*
X0302947Y0103137D01*
X0302891Y0102975D01*
X0302831Y0102814D01*
X0302767Y0102654D01*
X0302699Y0102496D01*
X0302628Y0102340D01*
X0302553Y0102186D01*
X0302473Y0102033D01*
X0302391Y0101883D01*
X0302304Y0101734D01*
X0302214Y0101588D01*
X0302120Y0101444D01*
X0302023Y0101302D01*
X0301922Y0101163D01*
X0301818Y0101026D01*
X0301711Y0100892D01*
X0301600Y0100761D01*
X0301487Y0100632D01*
X0301370Y0100506D01*
X0301250Y0100383D01*
X0301127Y0100263D01*
X0301001Y0100146D01*
X0300872Y0100033D01*
X0300741Y0099922D01*
X0300607Y0099815D01*
X0300470Y0099711D01*
X0300331Y0099610D01*
X0300189Y0099513D01*
X0300045Y0099419D01*
X0299899Y0099329D01*
X0299750Y0099242D01*
X0299600Y0099160D01*
X0299447Y0099080D01*
X0299293Y0099005D01*
X0299137Y0098934D01*
X0298979Y0098866D01*
X0298819Y0098802D01*
X0298658Y0098742D01*
X0298496Y0098686D01*
X0298332Y0098634D01*
X0298167Y0098587D01*
X0298001Y0098543D01*
X0297834Y0098503D01*
X0297666Y0098468D01*
X0297497Y0098436D01*
X0297327Y0098409D01*
X0297157Y0098386D01*
X0296986Y0098367D01*
X0296815Y0098352D01*
X0296643Y0098341D01*
X0296472Y0098335D01*
X0296300Y0098333D01*
X0296128Y0098335D01*
X0295957Y0098341D01*
X0295785Y0098352D01*
X0295614Y0098367D01*
X0295443Y0098386D01*
X0295273Y0098409D01*
X0295103Y0098436D01*
X0294934Y0098468D01*
X0294766Y0098503D01*
X0294599Y0098543D01*
X0294433Y0098587D01*
X0294268Y0098634D01*
X0294104Y0098686D01*
X0293942Y0098742D01*
X0293781Y0098802D01*
X0293621Y0098866D01*
X0293463Y0098934D01*
X0293307Y0099005D01*
X0293153Y0099080D01*
X0293000Y0099160D01*
X0292850Y0099242D01*
X0292701Y0099329D01*
X0292555Y0099419D01*
X0292411Y0099513D01*
X0292269Y0099610D01*
X0292130Y0099711D01*
X0291993Y0099815D01*
X0291859Y0099922D01*
X0291728Y0100033D01*
X0291599Y0100146D01*
X0291473Y0100263D01*
X0291350Y0100383D01*
X0291230Y0100506D01*
X0291113Y0100632D01*
X0291000Y0100761D01*
X0290889Y0100892D01*
X0290782Y0101026D01*
X0290678Y0101163D01*
X0290577Y0101302D01*
X0290480Y0101444D01*
X0290386Y0101588D01*
X0290296Y0101734D01*
X0290209Y0101883D01*
X0290127Y0102033D01*
X0290047Y0102186D01*
X0289972Y0102340D01*
X0289901Y0102496D01*
X0289833Y0102654D01*
X0289769Y0102814D01*
X0289709Y0102975D01*
X0289653Y0103137D01*
X0289601Y0103301D01*
X0289554Y0103466D01*
X0289510Y0103632D01*
X0289470Y0103799D01*
X0289435Y0103967D01*
X0289403Y0104136D01*
X0289376Y0104306D01*
X0289353Y0104476D01*
X0289334Y0104647D01*
X0289319Y0104818D01*
X0289308Y0104990D01*
X0289302Y0105161D01*
X0289300Y0105333D01*
X0308300Y0109262D02*
X0308300Y0101333D01*
X0304800Y0093333D02*
X0287800Y0093333D01*
X0277606Y0084437D02*
X0277606Y0081635D01*
X0276205Y0080233D01*
X0274804Y0081635D01*
X0274804Y0084437D01*
X0273002Y0083736D02*
X0272302Y0084437D01*
X0270901Y0084437D01*
X0270200Y0083736D01*
X0270200Y0083036D01*
X0270901Y0082335D01*
X0273002Y0082335D01*
X0273002Y0080934D02*
X0273002Y0083736D01*
X0273002Y0080934D02*
X0272302Y0080233D01*
X0270901Y0080233D01*
X0270200Y0080934D01*
X0259800Y0093333D02*
X0242800Y0093333D01*
X0239300Y0101333D02*
X0239300Y0109381D01*
X0242800Y0117333D02*
X0259800Y0117333D01*
X0263300Y0109262D02*
X0263300Y0101333D01*
X0244300Y0105333D02*
X0244302Y0105505D01*
X0244308Y0105676D01*
X0244319Y0105848D01*
X0244334Y0106019D01*
X0244353Y0106190D01*
X0244376Y0106360D01*
X0244403Y0106530D01*
X0244435Y0106699D01*
X0244470Y0106867D01*
X0244510Y0107034D01*
X0244554Y0107200D01*
X0244601Y0107365D01*
X0244653Y0107529D01*
X0244709Y0107691D01*
X0244769Y0107852D01*
X0244833Y0108012D01*
X0244901Y0108170D01*
X0244972Y0108326D01*
X0245047Y0108480D01*
X0245127Y0108633D01*
X0245209Y0108783D01*
X0245296Y0108932D01*
X0245386Y0109078D01*
X0245480Y0109222D01*
X0245577Y0109364D01*
X0245678Y0109503D01*
X0245782Y0109640D01*
X0245889Y0109774D01*
X0246000Y0109905D01*
X0246113Y0110034D01*
X0246230Y0110160D01*
X0246350Y0110283D01*
X0246473Y0110403D01*
X0246599Y0110520D01*
X0246728Y0110633D01*
X0246859Y0110744D01*
X0246993Y0110851D01*
X0247130Y0110955D01*
X0247269Y0111056D01*
X0247411Y0111153D01*
X0247555Y0111247D01*
X0247701Y0111337D01*
X0247850Y0111424D01*
X0248000Y0111506D01*
X0248153Y0111586D01*
X0248307Y0111661D01*
X0248463Y0111732D01*
X0248621Y0111800D01*
X0248781Y0111864D01*
X0248942Y0111924D01*
X0249104Y0111980D01*
X0249268Y0112032D01*
X0249433Y0112079D01*
X0249599Y0112123D01*
X0249766Y0112163D01*
X0249934Y0112198D01*
X0250103Y0112230D01*
X0250273Y0112257D01*
X0250443Y0112280D01*
X0250614Y0112299D01*
X0250785Y0112314D01*
X0250957Y0112325D01*
X0251128Y0112331D01*
X0251300Y0112333D01*
X0251472Y0112331D01*
X0251643Y0112325D01*
X0251815Y0112314D01*
X0251986Y0112299D01*
X0252157Y0112280D01*
X0252327Y0112257D01*
X0252497Y0112230D01*
X0252666Y0112198D01*
X0252834Y0112163D01*
X0253001Y0112123D01*
X0253167Y0112079D01*
X0253332Y0112032D01*
X0253496Y0111980D01*
X0253658Y0111924D01*
X0253819Y0111864D01*
X0253979Y0111800D01*
X0254137Y0111732D01*
X0254293Y0111661D01*
X0254447Y0111586D01*
X0254600Y0111506D01*
X0254750Y0111424D01*
X0254899Y0111337D01*
X0255045Y0111247D01*
X0255189Y0111153D01*
X0255331Y0111056D01*
X0255470Y0110955D01*
X0255607Y0110851D01*
X0255741Y0110744D01*
X0255872Y0110633D01*
X0256001Y0110520D01*
X0256127Y0110403D01*
X0256250Y0110283D01*
X0256370Y0110160D01*
X0256487Y0110034D01*
X0256600Y0109905D01*
X0256711Y0109774D01*
X0256818Y0109640D01*
X0256922Y0109503D01*
X0257023Y0109364D01*
X0257120Y0109222D01*
X0257214Y0109078D01*
X0257304Y0108932D01*
X0257391Y0108783D01*
X0257473Y0108633D01*
X0257553Y0108480D01*
X0257628Y0108326D01*
X0257699Y0108170D01*
X0257767Y0108012D01*
X0257831Y0107852D01*
X0257891Y0107691D01*
X0257947Y0107529D01*
X0257999Y0107365D01*
X0258046Y0107200D01*
X0258090Y0107034D01*
X0258130Y0106867D01*
X0258165Y0106699D01*
X0258197Y0106530D01*
X0258224Y0106360D01*
X0258247Y0106190D01*
X0258266Y0106019D01*
X0258281Y0105848D01*
X0258292Y0105676D01*
X0258298Y0105505D01*
X0258300Y0105333D01*
X0258298Y0105161D01*
X0258292Y0104990D01*
X0258281Y0104818D01*
X0258266Y0104647D01*
X0258247Y0104476D01*
X0258224Y0104306D01*
X0258197Y0104136D01*
X0258165Y0103967D01*
X0258130Y0103799D01*
X0258090Y0103632D01*
X0258046Y0103466D01*
X0257999Y0103301D01*
X0257947Y0103137D01*
X0257891Y0102975D01*
X0257831Y0102814D01*
X0257767Y0102654D01*
X0257699Y0102496D01*
X0257628Y0102340D01*
X0257553Y0102186D01*
X0257473Y0102033D01*
X0257391Y0101883D01*
X0257304Y0101734D01*
X0257214Y0101588D01*
X0257120Y0101444D01*
X0257023Y0101302D01*
X0256922Y0101163D01*
X0256818Y0101026D01*
X0256711Y0100892D01*
X0256600Y0100761D01*
X0256487Y0100632D01*
X0256370Y0100506D01*
X0256250Y0100383D01*
X0256127Y0100263D01*
X0256001Y0100146D01*
X0255872Y0100033D01*
X0255741Y0099922D01*
X0255607Y0099815D01*
X0255470Y0099711D01*
X0255331Y0099610D01*
X0255189Y0099513D01*
X0255045Y0099419D01*
X0254899Y0099329D01*
X0254750Y0099242D01*
X0254600Y0099160D01*
X0254447Y0099080D01*
X0254293Y0099005D01*
X0254137Y0098934D01*
X0253979Y0098866D01*
X0253819Y0098802D01*
X0253658Y0098742D01*
X0253496Y0098686D01*
X0253332Y0098634D01*
X0253167Y0098587D01*
X0253001Y0098543D01*
X0252834Y0098503D01*
X0252666Y0098468D01*
X0252497Y0098436D01*
X0252327Y0098409D01*
X0252157Y0098386D01*
X0251986Y0098367D01*
X0251815Y0098352D01*
X0251643Y0098341D01*
X0251472Y0098335D01*
X0251300Y0098333D01*
X0251128Y0098335D01*
X0250957Y0098341D01*
X0250785Y0098352D01*
X0250614Y0098367D01*
X0250443Y0098386D01*
X0250273Y0098409D01*
X0250103Y0098436D01*
X0249934Y0098468D01*
X0249766Y0098503D01*
X0249599Y0098543D01*
X0249433Y0098587D01*
X0249268Y0098634D01*
X0249104Y0098686D01*
X0248942Y0098742D01*
X0248781Y0098802D01*
X0248621Y0098866D01*
X0248463Y0098934D01*
X0248307Y0099005D01*
X0248153Y0099080D01*
X0248000Y0099160D01*
X0247850Y0099242D01*
X0247701Y0099329D01*
X0247555Y0099419D01*
X0247411Y0099513D01*
X0247269Y0099610D01*
X0247130Y0099711D01*
X0246993Y0099815D01*
X0246859Y0099922D01*
X0246728Y0100033D01*
X0246599Y0100146D01*
X0246473Y0100263D01*
X0246350Y0100383D01*
X0246230Y0100506D01*
X0246113Y0100632D01*
X0246000Y0100761D01*
X0245889Y0100892D01*
X0245782Y0101026D01*
X0245678Y0101163D01*
X0245577Y0101302D01*
X0245480Y0101444D01*
X0245386Y0101588D01*
X0245296Y0101734D01*
X0245209Y0101883D01*
X0245127Y0102033D01*
X0245047Y0102186D01*
X0244972Y0102340D01*
X0244901Y0102496D01*
X0244833Y0102654D01*
X0244769Y0102814D01*
X0244709Y0102975D01*
X0244653Y0103137D01*
X0244601Y0103301D01*
X0244554Y0103466D01*
X0244510Y0103632D01*
X0244470Y0103799D01*
X0244435Y0103967D01*
X0244403Y0104136D01*
X0244376Y0104306D01*
X0244353Y0104476D01*
X0244334Y0104647D01*
X0244319Y0104818D01*
X0244308Y0104990D01*
X0244302Y0105161D01*
X0244300Y0105333D01*
X0218300Y0109262D02*
X0218300Y0101333D01*
X0199300Y0105333D02*
X0199302Y0105505D01*
X0199308Y0105676D01*
X0199319Y0105848D01*
X0199334Y0106019D01*
X0199353Y0106190D01*
X0199376Y0106360D01*
X0199403Y0106530D01*
X0199435Y0106699D01*
X0199470Y0106867D01*
X0199510Y0107034D01*
X0199554Y0107200D01*
X0199601Y0107365D01*
X0199653Y0107529D01*
X0199709Y0107691D01*
X0199769Y0107852D01*
X0199833Y0108012D01*
X0199901Y0108170D01*
X0199972Y0108326D01*
X0200047Y0108480D01*
X0200127Y0108633D01*
X0200209Y0108783D01*
X0200296Y0108932D01*
X0200386Y0109078D01*
X0200480Y0109222D01*
X0200577Y0109364D01*
X0200678Y0109503D01*
X0200782Y0109640D01*
X0200889Y0109774D01*
X0201000Y0109905D01*
X0201113Y0110034D01*
X0201230Y0110160D01*
X0201350Y0110283D01*
X0201473Y0110403D01*
X0201599Y0110520D01*
X0201728Y0110633D01*
X0201859Y0110744D01*
X0201993Y0110851D01*
X0202130Y0110955D01*
X0202269Y0111056D01*
X0202411Y0111153D01*
X0202555Y0111247D01*
X0202701Y0111337D01*
X0202850Y0111424D01*
X0203000Y0111506D01*
X0203153Y0111586D01*
X0203307Y0111661D01*
X0203463Y0111732D01*
X0203621Y0111800D01*
X0203781Y0111864D01*
X0203942Y0111924D01*
X0204104Y0111980D01*
X0204268Y0112032D01*
X0204433Y0112079D01*
X0204599Y0112123D01*
X0204766Y0112163D01*
X0204934Y0112198D01*
X0205103Y0112230D01*
X0205273Y0112257D01*
X0205443Y0112280D01*
X0205614Y0112299D01*
X0205785Y0112314D01*
X0205957Y0112325D01*
X0206128Y0112331D01*
X0206300Y0112333D01*
X0206472Y0112331D01*
X0206643Y0112325D01*
X0206815Y0112314D01*
X0206986Y0112299D01*
X0207157Y0112280D01*
X0207327Y0112257D01*
X0207497Y0112230D01*
X0207666Y0112198D01*
X0207834Y0112163D01*
X0208001Y0112123D01*
X0208167Y0112079D01*
X0208332Y0112032D01*
X0208496Y0111980D01*
X0208658Y0111924D01*
X0208819Y0111864D01*
X0208979Y0111800D01*
X0209137Y0111732D01*
X0209293Y0111661D01*
X0209447Y0111586D01*
X0209600Y0111506D01*
X0209750Y0111424D01*
X0209899Y0111337D01*
X0210045Y0111247D01*
X0210189Y0111153D01*
X0210331Y0111056D01*
X0210470Y0110955D01*
X0210607Y0110851D01*
X0210741Y0110744D01*
X0210872Y0110633D01*
X0211001Y0110520D01*
X0211127Y0110403D01*
X0211250Y0110283D01*
X0211370Y0110160D01*
X0211487Y0110034D01*
X0211600Y0109905D01*
X0211711Y0109774D01*
X0211818Y0109640D01*
X0211922Y0109503D01*
X0212023Y0109364D01*
X0212120Y0109222D01*
X0212214Y0109078D01*
X0212304Y0108932D01*
X0212391Y0108783D01*
X0212473Y0108633D01*
X0212553Y0108480D01*
X0212628Y0108326D01*
X0212699Y0108170D01*
X0212767Y0108012D01*
X0212831Y0107852D01*
X0212891Y0107691D01*
X0212947Y0107529D01*
X0212999Y0107365D01*
X0213046Y0107200D01*
X0213090Y0107034D01*
X0213130Y0106867D01*
X0213165Y0106699D01*
X0213197Y0106530D01*
X0213224Y0106360D01*
X0213247Y0106190D01*
X0213266Y0106019D01*
X0213281Y0105848D01*
X0213292Y0105676D01*
X0213298Y0105505D01*
X0213300Y0105333D01*
X0213298Y0105161D01*
X0213292Y0104990D01*
X0213281Y0104818D01*
X0213266Y0104647D01*
X0213247Y0104476D01*
X0213224Y0104306D01*
X0213197Y0104136D01*
X0213165Y0103967D01*
X0213130Y0103799D01*
X0213090Y0103632D01*
X0213046Y0103466D01*
X0212999Y0103301D01*
X0212947Y0103137D01*
X0212891Y0102975D01*
X0212831Y0102814D01*
X0212767Y0102654D01*
X0212699Y0102496D01*
X0212628Y0102340D01*
X0212553Y0102186D01*
X0212473Y0102033D01*
X0212391Y0101883D01*
X0212304Y0101734D01*
X0212214Y0101588D01*
X0212120Y0101444D01*
X0212023Y0101302D01*
X0211922Y0101163D01*
X0211818Y0101026D01*
X0211711Y0100892D01*
X0211600Y0100761D01*
X0211487Y0100632D01*
X0211370Y0100506D01*
X0211250Y0100383D01*
X0211127Y0100263D01*
X0211001Y0100146D01*
X0210872Y0100033D01*
X0210741Y0099922D01*
X0210607Y0099815D01*
X0210470Y0099711D01*
X0210331Y0099610D01*
X0210189Y0099513D01*
X0210045Y0099419D01*
X0209899Y0099329D01*
X0209750Y0099242D01*
X0209600Y0099160D01*
X0209447Y0099080D01*
X0209293Y0099005D01*
X0209137Y0098934D01*
X0208979Y0098866D01*
X0208819Y0098802D01*
X0208658Y0098742D01*
X0208496Y0098686D01*
X0208332Y0098634D01*
X0208167Y0098587D01*
X0208001Y0098543D01*
X0207834Y0098503D01*
X0207666Y0098468D01*
X0207497Y0098436D01*
X0207327Y0098409D01*
X0207157Y0098386D01*
X0206986Y0098367D01*
X0206815Y0098352D01*
X0206643Y0098341D01*
X0206472Y0098335D01*
X0206300Y0098333D01*
X0206128Y0098335D01*
X0205957Y0098341D01*
X0205785Y0098352D01*
X0205614Y0098367D01*
X0205443Y0098386D01*
X0205273Y0098409D01*
X0205103Y0098436D01*
X0204934Y0098468D01*
X0204766Y0098503D01*
X0204599Y0098543D01*
X0204433Y0098587D01*
X0204268Y0098634D01*
X0204104Y0098686D01*
X0203942Y0098742D01*
X0203781Y0098802D01*
X0203621Y0098866D01*
X0203463Y0098934D01*
X0203307Y0099005D01*
X0203153Y0099080D01*
X0203000Y0099160D01*
X0202850Y0099242D01*
X0202701Y0099329D01*
X0202555Y0099419D01*
X0202411Y0099513D01*
X0202269Y0099610D01*
X0202130Y0099711D01*
X0201993Y0099815D01*
X0201859Y0099922D01*
X0201728Y0100033D01*
X0201599Y0100146D01*
X0201473Y0100263D01*
X0201350Y0100383D01*
X0201230Y0100506D01*
X0201113Y0100632D01*
X0201000Y0100761D01*
X0200889Y0100892D01*
X0200782Y0101026D01*
X0200678Y0101163D01*
X0200577Y0101302D01*
X0200480Y0101444D01*
X0200386Y0101588D01*
X0200296Y0101734D01*
X0200209Y0101883D01*
X0200127Y0102033D01*
X0200047Y0102186D01*
X0199972Y0102340D01*
X0199901Y0102496D01*
X0199833Y0102654D01*
X0199769Y0102814D01*
X0199709Y0102975D01*
X0199653Y0103137D01*
X0199601Y0103301D01*
X0199554Y0103466D01*
X0199510Y0103632D01*
X0199470Y0103799D01*
X0199435Y0103967D01*
X0199403Y0104136D01*
X0199376Y0104306D01*
X0199353Y0104476D01*
X0199334Y0104647D01*
X0199319Y0104818D01*
X0199308Y0104990D01*
X0199302Y0105161D01*
X0199300Y0105333D01*
X0194300Y0101333D02*
X0194300Y0109381D01*
X0197800Y0117333D02*
X0214800Y0117333D01*
X0173300Y0109262D02*
X0173300Y0101333D01*
X0154300Y0105333D02*
X0154302Y0105505D01*
X0154308Y0105676D01*
X0154319Y0105848D01*
X0154334Y0106019D01*
X0154353Y0106190D01*
X0154376Y0106360D01*
X0154403Y0106530D01*
X0154435Y0106699D01*
X0154470Y0106867D01*
X0154510Y0107034D01*
X0154554Y0107200D01*
X0154601Y0107365D01*
X0154653Y0107529D01*
X0154709Y0107691D01*
X0154769Y0107852D01*
X0154833Y0108012D01*
X0154901Y0108170D01*
X0154972Y0108326D01*
X0155047Y0108480D01*
X0155127Y0108633D01*
X0155209Y0108783D01*
X0155296Y0108932D01*
X0155386Y0109078D01*
X0155480Y0109222D01*
X0155577Y0109364D01*
X0155678Y0109503D01*
X0155782Y0109640D01*
X0155889Y0109774D01*
X0156000Y0109905D01*
X0156113Y0110034D01*
X0156230Y0110160D01*
X0156350Y0110283D01*
X0156473Y0110403D01*
X0156599Y0110520D01*
X0156728Y0110633D01*
X0156859Y0110744D01*
X0156993Y0110851D01*
X0157130Y0110955D01*
X0157269Y0111056D01*
X0157411Y0111153D01*
X0157555Y0111247D01*
X0157701Y0111337D01*
X0157850Y0111424D01*
X0158000Y0111506D01*
X0158153Y0111586D01*
X0158307Y0111661D01*
X0158463Y0111732D01*
X0158621Y0111800D01*
X0158781Y0111864D01*
X0158942Y0111924D01*
X0159104Y0111980D01*
X0159268Y0112032D01*
X0159433Y0112079D01*
X0159599Y0112123D01*
X0159766Y0112163D01*
X0159934Y0112198D01*
X0160103Y0112230D01*
X0160273Y0112257D01*
X0160443Y0112280D01*
X0160614Y0112299D01*
X0160785Y0112314D01*
X0160957Y0112325D01*
X0161128Y0112331D01*
X0161300Y0112333D01*
X0161472Y0112331D01*
X0161643Y0112325D01*
X0161815Y0112314D01*
X0161986Y0112299D01*
X0162157Y0112280D01*
X0162327Y0112257D01*
X0162497Y0112230D01*
X0162666Y0112198D01*
X0162834Y0112163D01*
X0163001Y0112123D01*
X0163167Y0112079D01*
X0163332Y0112032D01*
X0163496Y0111980D01*
X0163658Y0111924D01*
X0163819Y0111864D01*
X0163979Y0111800D01*
X0164137Y0111732D01*
X0164293Y0111661D01*
X0164447Y0111586D01*
X0164600Y0111506D01*
X0164750Y0111424D01*
X0164899Y0111337D01*
X0165045Y0111247D01*
X0165189Y0111153D01*
X0165331Y0111056D01*
X0165470Y0110955D01*
X0165607Y0110851D01*
X0165741Y0110744D01*
X0165872Y0110633D01*
X0166001Y0110520D01*
X0166127Y0110403D01*
X0166250Y0110283D01*
X0166370Y0110160D01*
X0166487Y0110034D01*
X0166600Y0109905D01*
X0166711Y0109774D01*
X0166818Y0109640D01*
X0166922Y0109503D01*
X0167023Y0109364D01*
X0167120Y0109222D01*
X0167214Y0109078D01*
X0167304Y0108932D01*
X0167391Y0108783D01*
X0167473Y0108633D01*
X0167553Y0108480D01*
X0167628Y0108326D01*
X0167699Y0108170D01*
X0167767Y0108012D01*
X0167831Y0107852D01*
X0167891Y0107691D01*
X0167947Y0107529D01*
X0167999Y0107365D01*
X0168046Y0107200D01*
X0168090Y0107034D01*
X0168130Y0106867D01*
X0168165Y0106699D01*
X0168197Y0106530D01*
X0168224Y0106360D01*
X0168247Y0106190D01*
X0168266Y0106019D01*
X0168281Y0105848D01*
X0168292Y0105676D01*
X0168298Y0105505D01*
X0168300Y0105333D01*
X0168298Y0105161D01*
X0168292Y0104990D01*
X0168281Y0104818D01*
X0168266Y0104647D01*
X0168247Y0104476D01*
X0168224Y0104306D01*
X0168197Y0104136D01*
X0168165Y0103967D01*
X0168130Y0103799D01*
X0168090Y0103632D01*
X0168046Y0103466D01*
X0167999Y0103301D01*
X0167947Y0103137D01*
X0167891Y0102975D01*
X0167831Y0102814D01*
X0167767Y0102654D01*
X0167699Y0102496D01*
X0167628Y0102340D01*
X0167553Y0102186D01*
X0167473Y0102033D01*
X0167391Y0101883D01*
X0167304Y0101734D01*
X0167214Y0101588D01*
X0167120Y0101444D01*
X0167023Y0101302D01*
X0166922Y0101163D01*
X0166818Y0101026D01*
X0166711Y0100892D01*
X0166600Y0100761D01*
X0166487Y0100632D01*
X0166370Y0100506D01*
X0166250Y0100383D01*
X0166127Y0100263D01*
X0166001Y0100146D01*
X0165872Y0100033D01*
X0165741Y0099922D01*
X0165607Y0099815D01*
X0165470Y0099711D01*
X0165331Y0099610D01*
X0165189Y0099513D01*
X0165045Y0099419D01*
X0164899Y0099329D01*
X0164750Y0099242D01*
X0164600Y0099160D01*
X0164447Y0099080D01*
X0164293Y0099005D01*
X0164137Y0098934D01*
X0163979Y0098866D01*
X0163819Y0098802D01*
X0163658Y0098742D01*
X0163496Y0098686D01*
X0163332Y0098634D01*
X0163167Y0098587D01*
X0163001Y0098543D01*
X0162834Y0098503D01*
X0162666Y0098468D01*
X0162497Y0098436D01*
X0162327Y0098409D01*
X0162157Y0098386D01*
X0161986Y0098367D01*
X0161815Y0098352D01*
X0161643Y0098341D01*
X0161472Y0098335D01*
X0161300Y0098333D01*
X0161128Y0098335D01*
X0160957Y0098341D01*
X0160785Y0098352D01*
X0160614Y0098367D01*
X0160443Y0098386D01*
X0160273Y0098409D01*
X0160103Y0098436D01*
X0159934Y0098468D01*
X0159766Y0098503D01*
X0159599Y0098543D01*
X0159433Y0098587D01*
X0159268Y0098634D01*
X0159104Y0098686D01*
X0158942Y0098742D01*
X0158781Y0098802D01*
X0158621Y0098866D01*
X0158463Y0098934D01*
X0158307Y0099005D01*
X0158153Y0099080D01*
X0158000Y0099160D01*
X0157850Y0099242D01*
X0157701Y0099329D01*
X0157555Y0099419D01*
X0157411Y0099513D01*
X0157269Y0099610D01*
X0157130Y0099711D01*
X0156993Y0099815D01*
X0156859Y0099922D01*
X0156728Y0100033D01*
X0156599Y0100146D01*
X0156473Y0100263D01*
X0156350Y0100383D01*
X0156230Y0100506D01*
X0156113Y0100632D01*
X0156000Y0100761D01*
X0155889Y0100892D01*
X0155782Y0101026D01*
X0155678Y0101163D01*
X0155577Y0101302D01*
X0155480Y0101444D01*
X0155386Y0101588D01*
X0155296Y0101734D01*
X0155209Y0101883D01*
X0155127Y0102033D01*
X0155047Y0102186D01*
X0154972Y0102340D01*
X0154901Y0102496D01*
X0154833Y0102654D01*
X0154769Y0102814D01*
X0154709Y0102975D01*
X0154653Y0103137D01*
X0154601Y0103301D01*
X0154554Y0103466D01*
X0154510Y0103632D01*
X0154470Y0103799D01*
X0154435Y0103967D01*
X0154403Y0104136D01*
X0154376Y0104306D01*
X0154353Y0104476D01*
X0154334Y0104647D01*
X0154319Y0104818D01*
X0154308Y0104990D01*
X0154302Y0105161D01*
X0154300Y0105333D01*
X0149300Y0101333D02*
X0149300Y0109381D01*
X0152800Y0117333D02*
X0169800Y0117333D01*
X0169800Y0093333D02*
X0152800Y0093333D01*
X0197800Y0093333D02*
X0214800Y0093333D01*
X0304871Y0065188D02*
X0311170Y0065188D01*
X0304871Y0065188D02*
X0304871Y0008888D01*
X0338729Y0008888D01*
X0338729Y0040188D01*
X0338729Y0058888D02*
X0338729Y0065188D01*
X0332430Y0065188D01*
X0332800Y0093333D02*
X0349800Y0093333D01*
X0353300Y0101333D02*
X0353300Y0109262D01*
X0349800Y0117333D02*
X0332800Y0117333D01*
X0329300Y0109381D02*
X0329300Y0101333D01*
X0334300Y0105333D02*
X0334302Y0105505D01*
X0334308Y0105676D01*
X0334319Y0105848D01*
X0334334Y0106019D01*
X0334353Y0106190D01*
X0334376Y0106360D01*
X0334403Y0106530D01*
X0334435Y0106699D01*
X0334470Y0106867D01*
X0334510Y0107034D01*
X0334554Y0107200D01*
X0334601Y0107365D01*
X0334653Y0107529D01*
X0334709Y0107691D01*
X0334769Y0107852D01*
X0334833Y0108012D01*
X0334901Y0108170D01*
X0334972Y0108326D01*
X0335047Y0108480D01*
X0335127Y0108633D01*
X0335209Y0108783D01*
X0335296Y0108932D01*
X0335386Y0109078D01*
X0335480Y0109222D01*
X0335577Y0109364D01*
X0335678Y0109503D01*
X0335782Y0109640D01*
X0335889Y0109774D01*
X0336000Y0109905D01*
X0336113Y0110034D01*
X0336230Y0110160D01*
X0336350Y0110283D01*
X0336473Y0110403D01*
X0336599Y0110520D01*
X0336728Y0110633D01*
X0336859Y0110744D01*
X0336993Y0110851D01*
X0337130Y0110955D01*
X0337269Y0111056D01*
X0337411Y0111153D01*
X0337555Y0111247D01*
X0337701Y0111337D01*
X0337850Y0111424D01*
X0338000Y0111506D01*
X0338153Y0111586D01*
X0338307Y0111661D01*
X0338463Y0111732D01*
X0338621Y0111800D01*
X0338781Y0111864D01*
X0338942Y0111924D01*
X0339104Y0111980D01*
X0339268Y0112032D01*
X0339433Y0112079D01*
X0339599Y0112123D01*
X0339766Y0112163D01*
X0339934Y0112198D01*
X0340103Y0112230D01*
X0340273Y0112257D01*
X0340443Y0112280D01*
X0340614Y0112299D01*
X0340785Y0112314D01*
X0340957Y0112325D01*
X0341128Y0112331D01*
X0341300Y0112333D01*
X0341472Y0112331D01*
X0341643Y0112325D01*
X0341815Y0112314D01*
X0341986Y0112299D01*
X0342157Y0112280D01*
X0342327Y0112257D01*
X0342497Y0112230D01*
X0342666Y0112198D01*
X0342834Y0112163D01*
X0343001Y0112123D01*
X0343167Y0112079D01*
X0343332Y0112032D01*
X0343496Y0111980D01*
X0343658Y0111924D01*
X0343819Y0111864D01*
X0343979Y0111800D01*
X0344137Y0111732D01*
X0344293Y0111661D01*
X0344447Y0111586D01*
X0344600Y0111506D01*
X0344750Y0111424D01*
X0344899Y0111337D01*
X0345045Y0111247D01*
X0345189Y0111153D01*
X0345331Y0111056D01*
X0345470Y0110955D01*
X0345607Y0110851D01*
X0345741Y0110744D01*
X0345872Y0110633D01*
X0346001Y0110520D01*
X0346127Y0110403D01*
X0346250Y0110283D01*
X0346370Y0110160D01*
X0346487Y0110034D01*
X0346600Y0109905D01*
X0346711Y0109774D01*
X0346818Y0109640D01*
X0346922Y0109503D01*
X0347023Y0109364D01*
X0347120Y0109222D01*
X0347214Y0109078D01*
X0347304Y0108932D01*
X0347391Y0108783D01*
X0347473Y0108633D01*
X0347553Y0108480D01*
X0347628Y0108326D01*
X0347699Y0108170D01*
X0347767Y0108012D01*
X0347831Y0107852D01*
X0347891Y0107691D01*
X0347947Y0107529D01*
X0347999Y0107365D01*
X0348046Y0107200D01*
X0348090Y0107034D01*
X0348130Y0106867D01*
X0348165Y0106699D01*
X0348197Y0106530D01*
X0348224Y0106360D01*
X0348247Y0106190D01*
X0348266Y0106019D01*
X0348281Y0105848D01*
X0348292Y0105676D01*
X0348298Y0105505D01*
X0348300Y0105333D01*
X0348298Y0105161D01*
X0348292Y0104990D01*
X0348281Y0104818D01*
X0348266Y0104647D01*
X0348247Y0104476D01*
X0348224Y0104306D01*
X0348197Y0104136D01*
X0348165Y0103967D01*
X0348130Y0103799D01*
X0348090Y0103632D01*
X0348046Y0103466D01*
X0347999Y0103301D01*
X0347947Y0103137D01*
X0347891Y0102975D01*
X0347831Y0102814D01*
X0347767Y0102654D01*
X0347699Y0102496D01*
X0347628Y0102340D01*
X0347553Y0102186D01*
X0347473Y0102033D01*
X0347391Y0101883D01*
X0347304Y0101734D01*
X0347214Y0101588D01*
X0347120Y0101444D01*
X0347023Y0101302D01*
X0346922Y0101163D01*
X0346818Y0101026D01*
X0346711Y0100892D01*
X0346600Y0100761D01*
X0346487Y0100632D01*
X0346370Y0100506D01*
X0346250Y0100383D01*
X0346127Y0100263D01*
X0346001Y0100146D01*
X0345872Y0100033D01*
X0345741Y0099922D01*
X0345607Y0099815D01*
X0345470Y0099711D01*
X0345331Y0099610D01*
X0345189Y0099513D01*
X0345045Y0099419D01*
X0344899Y0099329D01*
X0344750Y0099242D01*
X0344600Y0099160D01*
X0344447Y0099080D01*
X0344293Y0099005D01*
X0344137Y0098934D01*
X0343979Y0098866D01*
X0343819Y0098802D01*
X0343658Y0098742D01*
X0343496Y0098686D01*
X0343332Y0098634D01*
X0343167Y0098587D01*
X0343001Y0098543D01*
X0342834Y0098503D01*
X0342666Y0098468D01*
X0342497Y0098436D01*
X0342327Y0098409D01*
X0342157Y0098386D01*
X0341986Y0098367D01*
X0341815Y0098352D01*
X0341643Y0098341D01*
X0341472Y0098335D01*
X0341300Y0098333D01*
X0341128Y0098335D01*
X0340957Y0098341D01*
X0340785Y0098352D01*
X0340614Y0098367D01*
X0340443Y0098386D01*
X0340273Y0098409D01*
X0340103Y0098436D01*
X0339934Y0098468D01*
X0339766Y0098503D01*
X0339599Y0098543D01*
X0339433Y0098587D01*
X0339268Y0098634D01*
X0339104Y0098686D01*
X0338942Y0098742D01*
X0338781Y0098802D01*
X0338621Y0098866D01*
X0338463Y0098934D01*
X0338307Y0099005D01*
X0338153Y0099080D01*
X0338000Y0099160D01*
X0337850Y0099242D01*
X0337701Y0099329D01*
X0337555Y0099419D01*
X0337411Y0099513D01*
X0337269Y0099610D01*
X0337130Y0099711D01*
X0336993Y0099815D01*
X0336859Y0099922D01*
X0336728Y0100033D01*
X0336599Y0100146D01*
X0336473Y0100263D01*
X0336350Y0100383D01*
X0336230Y0100506D01*
X0336113Y0100632D01*
X0336000Y0100761D01*
X0335889Y0100892D01*
X0335782Y0101026D01*
X0335678Y0101163D01*
X0335577Y0101302D01*
X0335480Y0101444D01*
X0335386Y0101588D01*
X0335296Y0101734D01*
X0335209Y0101883D01*
X0335127Y0102033D01*
X0335047Y0102186D01*
X0334972Y0102340D01*
X0334901Y0102496D01*
X0334833Y0102654D01*
X0334769Y0102814D01*
X0334709Y0102975D01*
X0334653Y0103137D01*
X0334601Y0103301D01*
X0334554Y0103466D01*
X0334510Y0103632D01*
X0334470Y0103799D01*
X0334435Y0103967D01*
X0334403Y0104136D01*
X0334376Y0104306D01*
X0334353Y0104476D01*
X0334334Y0104647D01*
X0334319Y0104818D01*
X0334308Y0104990D01*
X0334302Y0105161D01*
X0334300Y0105333D01*
X0066828Y0182656D02*
X0066828Y0265333D01*
X0042418Y0264959D02*
X0042418Y0170845D01*
X0030607Y0170845D01*
X0026670Y0182656D01*
X0058166Y0182656D01*
X0054229Y0170845D01*
X0042418Y0170845D01*
X0026670Y0182656D02*
X0007772Y0182656D01*
X0007772Y0265333D01*
X0058166Y0182656D02*
X0066828Y0182656D01*
D15*
X0051426Y0097136D02*
X0049091Y0097136D01*
X0047835Y0096552D02*
X0047251Y0097136D01*
X0045500Y0097136D01*
X0045500Y0093633D01*
X0045500Y0094801D02*
X0047251Y0094801D01*
X0047835Y0095385D01*
X0047835Y0096552D01*
X0046668Y0094801D02*
X0047835Y0093633D01*
X0049091Y0093633D02*
X0049091Y0094217D01*
X0051426Y0096552D01*
X0051426Y0097136D01*
X0050268Y0090136D02*
X0049100Y0088969D01*
X0050268Y0090136D02*
X0050268Y0086633D01*
X0051435Y0086633D02*
X0049100Y0086633D01*
X0052691Y0087217D02*
X0055026Y0089552D01*
X0055026Y0087217D01*
X0054443Y0086633D01*
X0053275Y0086633D01*
X0052691Y0087217D01*
X0052691Y0089552D01*
X0053275Y0090136D01*
X0054443Y0090136D01*
X0055026Y0089552D01*
X0307000Y0070801D02*
X0307767Y0070033D01*
X0308535Y0070033D01*
X0309302Y0070801D01*
X0309302Y0074637D01*
X0308535Y0074637D02*
X0310069Y0074637D01*
X0311604Y0073103D02*
X0313139Y0074637D01*
X0313139Y0070033D01*
X0314673Y0070033D02*
X0311604Y0070033D01*
D16*
X0286800Y0082333D02*
X0281800Y0082333D01*
X0284300Y0079833D02*
X0284300Y0084833D01*
X0266800Y0082333D02*
X0261800Y0082333D01*
X0118300Y0144833D02*
X0115631Y0144833D01*
X0114297Y0146168D01*
X0115631Y0147502D01*
X0118300Y0147502D01*
X0118300Y0149437D02*
X0114297Y0149437D01*
X0115631Y0150772D01*
X0114297Y0152106D01*
X0118300Y0152106D01*
X0118300Y0154041D02*
X0114297Y0154041D01*
X0114297Y0156043D01*
X0114964Y0156710D01*
X0116298Y0156710D01*
X0116966Y0156043D01*
X0116966Y0154041D01*
X0116298Y0147502D02*
X0116298Y0144833D01*
D17*
X0161800Y0065833D02*
X0194300Y0065833D01*
X0194300Y0029833D01*
X0161800Y0029833D01*
X0161800Y0065833D01*
D18*
X0161596Y0069683D02*
X0157392Y0069683D01*
X0159494Y0069683D02*
X0159494Y0075989D01*
X0157392Y0073887D01*
X0155151Y0074938D02*
X0154100Y0075989D01*
X0151998Y0075989D01*
X0150947Y0074938D01*
X0150947Y0070734D01*
X0151998Y0069683D01*
X0154100Y0069683D01*
X0155151Y0070734D01*
X0148752Y0069683D02*
X0146650Y0069683D01*
X0147701Y0069683D02*
X0147701Y0075989D01*
X0146650Y0075989D02*
X0148752Y0075989D01*
D19*
X0147050Y0057833D03*
X0147050Y0047833D03*
X0147050Y0037833D03*
D20*
X0153800Y0037833D03*
X0153800Y0047833D03*
X0153800Y0057833D03*
D21*
X0066050Y0088333D03*
X0044550Y0088333D03*
D22*
X0055800Y0064033D02*
X0061800Y0064033D01*
X0061800Y0061533D02*
X0055800Y0061533D01*
X0019300Y0126133D02*
X0013300Y0126133D01*
X0013300Y0128633D02*
X0019300Y0128633D01*
M02*
