G75*
%MOIN*%
%OFA0B0*%
%FSLAX25Y25*%
%IPPOS*%
%LPD*%
%AMOC8*
5,1,8,0,0,1.08239X$1,22.5*
%
%ADD10C,0.05200*%
%ADD11OC8,0.05200*%
%ADD12C,0.07874*%
%ADD13C,0.05600*%
%ADD14OC8,0.12400*%
%ADD15OC8,0.06000*%
%ADD16C,0.06600*%
%ADD17C,0.07400*%
%ADD18C,0.05200*%
%ADD19OC8,0.06300*%
%ADD20C,0.06300*%
%ADD21C,0.09449*%
%ADD22C,0.02400*%
%ADD23C,0.03372*%
%ADD24C,0.01600*%
%ADD25C,0.01000*%
%ADD26C,0.02000*%
D10*
X0203800Y0135733D02*
X0203800Y0140933D01*
X0213800Y0140933D02*
X0213800Y0135733D01*
X0223800Y0135733D02*
X0223800Y0140933D01*
X0233800Y0140933D02*
X0233800Y0135733D01*
X0233800Y0165733D02*
X0233800Y0170933D01*
X0223800Y0170933D02*
X0223800Y0165733D01*
X0213800Y0165733D02*
X0213800Y0170933D01*
X0203800Y0170933D02*
X0203800Y0165733D01*
D11*
X0255300Y0159333D03*
X0257300Y0139333D03*
X0295300Y0159333D03*
X0323300Y0170333D03*
X0297300Y0139333D03*
X0323300Y0130333D03*
X0070300Y0088333D03*
X0040300Y0088333D03*
X0058800Y0067833D03*
X0058800Y0057833D03*
X0016300Y0122333D03*
X0016300Y0132333D03*
D12*
X0317863Y0062038D02*
X0325737Y0062038D01*
X0340698Y0053770D02*
X0340698Y0045896D01*
X0325737Y0038022D02*
X0317863Y0038022D01*
D13*
X0285300Y0037533D02*
X0285300Y0043133D01*
X0275300Y0043133D02*
X0275300Y0037533D01*
X0020600Y0088833D02*
X0015000Y0088833D01*
X0015000Y0098833D02*
X0020600Y0098833D01*
X0019100Y0150833D02*
X0013500Y0150833D01*
X0013500Y0160833D02*
X0019100Y0160833D01*
D14*
X0264300Y0072333D03*
X0284300Y0072333D03*
D15*
X0127800Y0075833D03*
X0127800Y0085833D03*
X0127800Y0065833D03*
X0127800Y0055833D03*
X0127800Y0045833D03*
X0127800Y0035833D03*
X0128300Y0206333D03*
X0128300Y0216333D03*
X0128300Y0226333D03*
X0128300Y0236333D03*
X0128300Y0246333D03*
X0128300Y0256333D03*
D16*
X0146000Y0057833D02*
X0152600Y0057833D01*
X0152600Y0047833D02*
X0146000Y0047833D01*
X0146000Y0037833D02*
X0152600Y0037833D01*
D17*
X0148500Y0096433D03*
X0174100Y0096433D03*
X0193500Y0096433D03*
X0219100Y0096433D03*
X0238500Y0096433D03*
X0264100Y0096433D03*
X0283500Y0096433D03*
X0309100Y0096433D03*
X0328500Y0096433D03*
X0354100Y0096433D03*
X0354100Y0114233D03*
X0328500Y0114233D03*
X0309100Y0114233D03*
X0283500Y0114233D03*
X0264100Y0114233D03*
X0238500Y0114233D03*
X0219100Y0114233D03*
X0193500Y0114233D03*
X0174100Y0114233D03*
X0148500Y0114233D03*
X0127800Y0120833D03*
X0127800Y0130833D03*
X0127800Y0140833D03*
X0127800Y0150833D03*
X0127800Y0160833D03*
X0127800Y0170833D03*
X0127800Y0180833D03*
X0148500Y0186433D03*
X0174100Y0186433D03*
X0193500Y0186433D03*
X0219100Y0186433D03*
X0238500Y0186433D03*
X0264100Y0186433D03*
X0283500Y0186433D03*
X0309100Y0186433D03*
X0328500Y0186433D03*
X0354100Y0186433D03*
X0354100Y0204233D03*
X0328500Y0204233D03*
X0309100Y0204233D03*
X0283500Y0204233D03*
X0264100Y0204233D03*
X0238500Y0204233D03*
X0219100Y0204233D03*
X0193500Y0204233D03*
X0174100Y0204233D03*
X0148500Y0204233D03*
X0155800Y0226333D03*
X0165800Y0226333D03*
X0175800Y0226333D03*
X0185800Y0226333D03*
X0195800Y0226333D03*
X0205800Y0226333D03*
X0215800Y0226333D03*
X0225800Y0226333D03*
X0235800Y0226333D03*
X0245800Y0226333D03*
X0255800Y0226333D03*
X0265800Y0226333D03*
X0275800Y0226333D03*
X0285800Y0226333D03*
X0295800Y0226333D03*
X0305800Y0226333D03*
X0315800Y0226333D03*
X0325800Y0226333D03*
X0335800Y0226333D03*
X0345800Y0226333D03*
X0345800Y0236333D03*
X0335800Y0236333D03*
X0325800Y0236333D03*
X0315800Y0236333D03*
X0305800Y0236333D03*
X0295800Y0236333D03*
X0285800Y0236333D03*
X0275800Y0236333D03*
X0265800Y0236333D03*
X0255800Y0236333D03*
X0245800Y0236333D03*
X0235800Y0236333D03*
X0225800Y0236333D03*
X0215800Y0236333D03*
X0205800Y0236333D03*
X0195800Y0236333D03*
X0185800Y0236333D03*
X0175800Y0236333D03*
X0165800Y0236333D03*
X0155800Y0236333D03*
D18*
X0063300Y0140333D03*
X0053300Y0140333D03*
X0043300Y0140333D03*
X0033300Y0140333D03*
X0033300Y0110333D03*
X0043300Y0110333D03*
X0053300Y0110333D03*
X0063300Y0110333D03*
D19*
X0031300Y0073333D03*
D20*
X0031300Y0059333D03*
D21*
X0014938Y0199192D03*
X0059426Y0199192D03*
X0059426Y0223995D03*
X0014938Y0223995D03*
X0014938Y0248798D03*
X0059426Y0248798D03*
D22*
X0153800Y0237833D02*
X0154300Y0237833D01*
X0155800Y0236333D01*
X0165800Y0236333D01*
X0120300Y0181333D02*
X0117300Y0178333D01*
X0115300Y0176333D01*
X0115300Y0116333D01*
X0126800Y0104833D01*
X0208800Y0104833D01*
X0226800Y0104833D01*
X0231300Y0100333D01*
X0231300Y0072833D01*
X0257300Y0139333D02*
X0241300Y0155333D01*
X0228800Y0155333D01*
X0223800Y0160333D01*
X0223800Y0168333D01*
X0127800Y0180833D02*
X0120800Y0180833D01*
X0120300Y0181333D01*
D23*
X0114800Y0186833D03*
X0128300Y0193833D03*
X0140300Y0162833D03*
X0140800Y0140333D03*
X0139300Y0109833D03*
X0139300Y0098333D03*
X0135800Y0093333D03*
X0117800Y0076333D03*
X0202300Y0123333D03*
X0318800Y0112333D03*
X0246300Y0249333D03*
D24*
X0005500Y0263142D02*
X0005500Y0027542D01*
X0373600Y0028525D01*
X0373600Y0264125D01*
X0138238Y0263496D01*
X0149501Y0252233D01*
X0243422Y0252233D01*
X0243986Y0252797D01*
X0245487Y0253419D01*
X0247113Y0253419D01*
X0248614Y0252797D01*
X0249764Y0251648D01*
X0250386Y0250146D01*
X0250386Y0248521D01*
X0250267Y0248233D01*
X0349877Y0248233D01*
X0350943Y0247792D01*
X0351758Y0246976D01*
X0364758Y0233976D01*
X0365200Y0232910D01*
X0365200Y0147456D01*
X0364758Y0146391D01*
X0363943Y0145575D01*
X0334370Y0116002D01*
X0334600Y0115447D01*
X0334600Y0113020D01*
X0333671Y0110778D01*
X0331955Y0109062D01*
X0329713Y0108133D01*
X0327287Y0108133D01*
X0325045Y0109062D01*
X0323329Y0110778D01*
X0322886Y0111847D01*
X0322886Y0111521D01*
X0322264Y0110019D01*
X0321114Y0108870D01*
X0319613Y0108248D01*
X0317987Y0108248D01*
X0316486Y0108870D01*
X0315336Y0110019D01*
X0314714Y0111521D01*
X0314714Y0111847D01*
X0314271Y0110778D01*
X0312555Y0109062D01*
X0310313Y0108133D01*
X0307887Y0108133D01*
X0305645Y0109062D01*
X0303929Y0110778D01*
X0303000Y0113020D01*
X0303000Y0115447D01*
X0303697Y0117129D01*
X0290258Y0103691D01*
X0290258Y0103691D01*
X0289443Y0102875D01*
X0288377Y0102433D01*
X0265555Y0102433D01*
X0267555Y0101605D01*
X0269271Y0099889D01*
X0270200Y0097647D01*
X0270200Y0095220D01*
X0269271Y0092978D01*
X0267555Y0091262D01*
X0265313Y0090333D01*
X0262887Y0090333D01*
X0260645Y0091262D01*
X0258929Y0092978D01*
X0258000Y0095220D01*
X0258000Y0097647D01*
X0258929Y0099889D01*
X0260645Y0101605D01*
X0262645Y0102433D01*
X0237723Y0102433D01*
X0236657Y0102875D01*
X0225200Y0114332D01*
X0225200Y0113020D01*
X0224271Y0110778D01*
X0222555Y0109062D01*
X0221038Y0108433D01*
X0227516Y0108433D01*
X0228839Y0107885D01*
X0233339Y0103385D01*
X0234352Y0102373D01*
X0234900Y0101049D01*
X0234900Y0100611D01*
X0234917Y0100628D01*
X0235617Y0101137D01*
X0236389Y0101530D01*
X0237212Y0101798D01*
X0238067Y0101933D01*
X0238300Y0101933D01*
X0238300Y0096633D01*
X0238700Y0096633D01*
X0244000Y0096633D01*
X0244000Y0096866D01*
X0243865Y0097721D01*
X0243597Y0098545D01*
X0243204Y0099316D01*
X0242695Y0100016D01*
X0242083Y0100628D01*
X0241383Y0101137D01*
X0240611Y0101530D01*
X0239788Y0101798D01*
X0238933Y0101933D01*
X0238700Y0101933D01*
X0238700Y0096633D01*
X0238700Y0096233D01*
X0238700Y0090933D01*
X0238933Y0090933D01*
X0239788Y0091069D01*
X0240611Y0091336D01*
X0241383Y0091729D01*
X0242083Y0092238D01*
X0242695Y0092850D01*
X0243204Y0093551D01*
X0243597Y0094322D01*
X0243865Y0095145D01*
X0244000Y0096000D01*
X0244000Y0096233D01*
X0238700Y0096233D01*
X0238300Y0096233D01*
X0238300Y0090933D01*
X0238067Y0090933D01*
X0237212Y0091069D01*
X0236389Y0091336D01*
X0235617Y0091729D01*
X0234917Y0092238D01*
X0234900Y0092255D01*
X0234900Y0072117D01*
X0234352Y0070794D01*
X0233339Y0069781D01*
X0232374Y0069381D01*
X0219813Y0056821D01*
X0219813Y0056821D01*
X0218913Y0055920D01*
X0218090Y0055580D01*
X0218222Y0055447D01*
X0219855Y0052620D01*
X0220700Y0049466D01*
X0220700Y0046201D01*
X0219855Y0043047D01*
X0218222Y0040220D01*
X0215914Y0037911D01*
X0213086Y0036278D01*
X0209932Y0035433D01*
X0206667Y0035433D01*
X0203514Y0036278D01*
X0200686Y0037911D01*
X0200554Y0038043D01*
X0200213Y0037221D01*
X0199313Y0036320D01*
X0199313Y0036320D01*
X0198113Y0035120D01*
X0196937Y0034633D01*
X0157444Y0034633D01*
X0157432Y0034605D01*
X0155829Y0033001D01*
X0153734Y0032133D01*
X0144866Y0032133D01*
X0142771Y0033001D01*
X0141168Y0034605D01*
X0140300Y0036700D01*
X0140300Y0038967D01*
X0141168Y0041062D01*
X0142771Y0042666D01*
X0143950Y0043154D01*
X0143327Y0043471D01*
X0142678Y0043943D01*
X0142110Y0044511D01*
X0141638Y0045160D01*
X0141274Y0045876D01*
X0141026Y0046639D01*
X0140900Y0047432D01*
X0140900Y0047533D01*
X0149000Y0047533D01*
X0149000Y0048133D01*
X0140900Y0048133D01*
X0140900Y0048235D01*
X0141026Y0049028D01*
X0141274Y0049791D01*
X0141638Y0050506D01*
X0142110Y0051156D01*
X0142678Y0051723D01*
X0143327Y0052195D01*
X0143950Y0052513D01*
X0142771Y0053001D01*
X0141168Y0054605D01*
X0140300Y0056700D01*
X0140300Y0058967D01*
X0141168Y0061062D01*
X0142771Y0062666D01*
X0144866Y0063533D01*
X0153734Y0063533D01*
X0155829Y0062666D01*
X0157432Y0061062D01*
X0158300Y0058967D01*
X0158300Y0056700D01*
X0157432Y0054605D01*
X0155829Y0053001D01*
X0154650Y0052513D01*
X0155273Y0052195D01*
X0155922Y0051723D01*
X0156490Y0051156D01*
X0156962Y0050506D01*
X0157326Y0049791D01*
X0157574Y0049028D01*
X0157700Y0048235D01*
X0157700Y0048133D01*
X0149600Y0048133D01*
X0149600Y0047533D01*
X0157700Y0047533D01*
X0157700Y0047432D01*
X0157574Y0046639D01*
X0157326Y0045876D01*
X0156962Y0045160D01*
X0156490Y0044511D01*
X0155922Y0043943D01*
X0155273Y0043471D01*
X0154650Y0043154D01*
X0155829Y0042666D01*
X0157432Y0041062D01*
X0157444Y0041033D01*
X0194300Y0041033D01*
X0194300Y0052943D01*
X0194787Y0054120D01*
X0195687Y0055020D01*
X0195687Y0055020D01*
X0201114Y0060446D01*
X0201114Y0060446D01*
X0202014Y0061346D01*
X0203190Y0061833D01*
X0215775Y0061833D01*
X0227700Y0073759D01*
X0227700Y0098842D01*
X0225309Y0101233D01*
X0222927Y0101233D01*
X0224271Y0099889D01*
X0225200Y0097647D01*
X0225200Y0095220D01*
X0224271Y0092978D01*
X0222555Y0091262D01*
X0220313Y0090333D01*
X0217887Y0090333D01*
X0215645Y0091262D01*
X0213929Y0092978D01*
X0213000Y0095220D01*
X0213000Y0097647D01*
X0213929Y0099889D01*
X0215273Y0101233D01*
X0196194Y0101233D01*
X0196383Y0101137D01*
X0197083Y0100628D01*
X0197695Y0100016D01*
X0198204Y0099316D01*
X0198597Y0098545D01*
X0198865Y0097721D01*
X0199000Y0096866D01*
X0199000Y0096633D01*
X0193700Y0096633D01*
X0193700Y0096233D01*
X0193700Y0090933D01*
X0193933Y0090933D01*
X0194788Y0091069D01*
X0195611Y0091336D01*
X0196383Y0091729D01*
X0197083Y0092238D01*
X0197695Y0092850D01*
X0198204Y0093551D01*
X0198597Y0094322D01*
X0198865Y0095145D01*
X0199000Y0096000D01*
X0199000Y0096233D01*
X0193700Y0096233D01*
X0193300Y0096233D01*
X0193300Y0090933D01*
X0193067Y0090933D01*
X0192212Y0091069D01*
X0191389Y0091336D01*
X0190617Y0091729D01*
X0189917Y0092238D01*
X0189305Y0092850D01*
X0188796Y0093551D01*
X0188403Y0094322D01*
X0188135Y0095145D01*
X0188000Y0096000D01*
X0188000Y0096233D01*
X0193300Y0096233D01*
X0193300Y0096633D01*
X0188000Y0096633D01*
X0188000Y0096866D01*
X0188135Y0097721D01*
X0188403Y0098545D01*
X0188796Y0099316D01*
X0189305Y0100016D01*
X0189917Y0100628D01*
X0190617Y0101137D01*
X0190806Y0101233D01*
X0177927Y0101233D01*
X0179271Y0099889D01*
X0180200Y0097647D01*
X0180200Y0095220D01*
X0179271Y0092978D01*
X0177555Y0091262D01*
X0175313Y0090333D01*
X0172887Y0090333D01*
X0170645Y0091262D01*
X0168929Y0092978D01*
X0168000Y0095220D01*
X0168000Y0097647D01*
X0168929Y0099889D01*
X0170273Y0101233D01*
X0151194Y0101233D01*
X0151383Y0101137D01*
X0152083Y0100628D01*
X0152695Y0100016D01*
X0153204Y0099316D01*
X0153597Y0098545D01*
X0153865Y0097721D01*
X0154000Y0096866D01*
X0154000Y0096633D01*
X0148700Y0096633D01*
X0148700Y0096233D01*
X0148700Y0090933D01*
X0148933Y0090933D01*
X0149788Y0091069D01*
X0150611Y0091336D01*
X0151383Y0091729D01*
X0152083Y0092238D01*
X0152695Y0092850D01*
X0153204Y0093551D01*
X0153597Y0094322D01*
X0153865Y0095145D01*
X0154000Y0096000D01*
X0154000Y0096233D01*
X0148700Y0096233D01*
X0148300Y0096233D01*
X0148300Y0090933D01*
X0148067Y0090933D01*
X0147212Y0091069D01*
X0146389Y0091336D01*
X0145617Y0091729D01*
X0144917Y0092238D01*
X0144305Y0092850D01*
X0143796Y0093551D01*
X0143403Y0094322D01*
X0143135Y0095145D01*
X0143000Y0096000D01*
X0143000Y0096233D01*
X0148300Y0096233D01*
X0148300Y0096633D01*
X0143018Y0096633D01*
X0142764Y0096019D01*
X0142200Y0095455D01*
X0142200Y0086756D01*
X0141758Y0085691D01*
X0140943Y0084875D01*
X0133200Y0077132D01*
X0133200Y0073597D01*
X0130437Y0070833D01*
X0133200Y0068070D01*
X0133200Y0063597D01*
X0130437Y0060833D01*
X0133200Y0058070D01*
X0133200Y0053597D01*
X0130037Y0050433D01*
X0129988Y0050433D01*
X0132600Y0047822D01*
X0132600Y0046033D01*
X0128000Y0046033D01*
X0128000Y0045633D01*
X0132600Y0045633D01*
X0132600Y0043845D01*
X0129988Y0041233D01*
X0130037Y0041233D01*
X0133200Y0038070D01*
X0133200Y0033597D01*
X0130037Y0030433D01*
X0125563Y0030433D01*
X0122400Y0033597D01*
X0122400Y0038070D01*
X0125563Y0041233D01*
X0125612Y0041233D01*
X0123000Y0043845D01*
X0123000Y0045633D01*
X0127600Y0045633D01*
X0127600Y0046033D01*
X0123000Y0046033D01*
X0123000Y0047822D01*
X0125612Y0050433D01*
X0125563Y0050433D01*
X0122400Y0053597D01*
X0122400Y0058070D01*
X0125163Y0060833D01*
X0123063Y0062933D01*
X0122723Y0062933D01*
X0121657Y0063375D01*
X0120841Y0064191D01*
X0120841Y0064191D01*
X0109157Y0075875D01*
X0109157Y0075875D01*
X0108341Y0076691D01*
X0107900Y0077756D01*
X0107900Y0212910D01*
X0108341Y0213976D01*
X0122449Y0228083D01*
X0119841Y0230691D01*
X0119400Y0231756D01*
X0119400Y0263410D01*
X0119415Y0263446D01*
X0005500Y0263142D01*
X0005500Y0261913D02*
X0119400Y0261913D01*
X0119400Y0260314D02*
X0005500Y0260314D01*
X0005500Y0258716D02*
X0119400Y0258716D01*
X0119400Y0257117D02*
X0005500Y0257117D01*
X0005500Y0255519D02*
X0119400Y0255519D01*
X0119400Y0253920D02*
X0063468Y0253920D01*
X0063737Y0253714D02*
X0063059Y0254234D01*
X0062318Y0254662D01*
X0061528Y0254989D01*
X0060702Y0255211D01*
X0060201Y0255277D01*
X0060201Y0249573D01*
X0058651Y0249573D01*
X0058651Y0255277D01*
X0058150Y0255211D01*
X0057324Y0254989D01*
X0056534Y0254662D01*
X0055793Y0254234D01*
X0055115Y0253714D01*
X0054510Y0253109D01*
X0053989Y0252430D01*
X0053562Y0251690D01*
X0053235Y0250900D01*
X0053013Y0250073D01*
X0052947Y0249573D01*
X0058651Y0249573D01*
X0058651Y0248023D01*
X0052947Y0248023D01*
X0053013Y0247522D01*
X0053235Y0246696D01*
X0053562Y0245906D01*
X0053989Y0245165D01*
X0054510Y0244487D01*
X0055115Y0243882D01*
X0055793Y0243361D01*
X0056534Y0242934D01*
X0056626Y0242896D01*
X0054235Y0241905D01*
X0052342Y0240012D01*
X0051317Y0237538D01*
X0051317Y0234861D01*
X0052342Y0232387D01*
X0054235Y0230493D01*
X0055377Y0230021D01*
X0053386Y0228030D01*
X0052302Y0225412D01*
X0052302Y0222578D01*
X0053386Y0219959D01*
X0055390Y0217955D01*
X0058009Y0216870D01*
X0060843Y0216870D01*
X0063462Y0217955D01*
X0065466Y0219959D01*
X0066550Y0222578D01*
X0066550Y0225412D01*
X0065466Y0228030D01*
X0063462Y0230035D01*
X0062005Y0230638D01*
X0063754Y0232387D01*
X0064779Y0234861D01*
X0064779Y0237538D01*
X0063754Y0240012D01*
X0061861Y0241905D01*
X0060702Y0242385D01*
X0061528Y0242606D01*
X0062318Y0242934D01*
X0063059Y0243361D01*
X0063737Y0243882D01*
X0064342Y0244487D01*
X0064862Y0245165D01*
X0065290Y0245906D01*
X0065617Y0246696D01*
X0065839Y0247522D01*
X0065905Y0248023D01*
X0060201Y0248023D01*
X0060201Y0249573D01*
X0065905Y0249573D01*
X0065839Y0250073D01*
X0065617Y0250900D01*
X0065290Y0251690D01*
X0064862Y0252430D01*
X0064342Y0253109D01*
X0063737Y0253714D01*
X0064925Y0252322D02*
X0119400Y0252322D01*
X0119400Y0250723D02*
X0065665Y0250723D01*
X0060201Y0250723D02*
X0058651Y0250723D01*
X0058651Y0249125D02*
X0015713Y0249125D01*
X0015713Y0249573D02*
X0021416Y0249573D01*
X0021351Y0250073D01*
X0021129Y0250900D01*
X0020802Y0251690D01*
X0020374Y0252430D01*
X0019854Y0253109D01*
X0019249Y0253714D01*
X0018570Y0254234D01*
X0017830Y0254662D01*
X0017039Y0254989D01*
X0016213Y0255211D01*
X0015713Y0255277D01*
X0015713Y0249573D01*
X0015713Y0248023D01*
X0021416Y0248023D01*
X0021351Y0247522D01*
X0021129Y0246696D01*
X0020802Y0245906D01*
X0020374Y0245165D01*
X0019854Y0244487D01*
X0019249Y0243882D01*
X0018570Y0243361D01*
X0017830Y0242934D01*
X0017738Y0242896D01*
X0020128Y0241905D01*
X0022022Y0240012D01*
X0023046Y0237538D01*
X0023046Y0234861D01*
X0022022Y0232387D01*
X0020128Y0230493D01*
X0018987Y0230021D01*
X0020978Y0228030D01*
X0022062Y0225412D01*
X0022062Y0222578D01*
X0020978Y0219959D01*
X0018973Y0217955D01*
X0016355Y0216870D01*
X0013521Y0216870D01*
X0010902Y0217955D01*
X0008898Y0219959D01*
X0007813Y0222578D01*
X0007813Y0225412D01*
X0008898Y0228030D01*
X0010902Y0230035D01*
X0012359Y0230638D01*
X0010610Y0232387D01*
X0009585Y0234861D01*
X0009585Y0237538D01*
X0010610Y0240012D01*
X0012503Y0241905D01*
X0013662Y0242385D01*
X0012836Y0242606D01*
X0012046Y0242934D01*
X0011305Y0243361D01*
X0010627Y0243882D01*
X0010022Y0244487D01*
X0009501Y0245165D01*
X0009074Y0245906D01*
X0008746Y0246696D01*
X0008525Y0247522D01*
X0008459Y0248023D01*
X0014163Y0248023D01*
X0014163Y0249573D01*
X0014163Y0255277D01*
X0013662Y0255211D01*
X0012836Y0254989D01*
X0012046Y0254662D01*
X0011305Y0254234D01*
X0010627Y0253714D01*
X0010022Y0253109D01*
X0009501Y0252430D01*
X0009074Y0251690D01*
X0008746Y0250900D01*
X0008525Y0250073D01*
X0008459Y0249573D01*
X0014163Y0249573D01*
X0015713Y0249573D01*
X0015713Y0250723D02*
X0014163Y0250723D01*
X0014163Y0249125D02*
X0005500Y0249125D01*
X0005500Y0250723D02*
X0008699Y0250723D01*
X0009439Y0252322D02*
X0005500Y0252322D01*
X0005500Y0253920D02*
X0010896Y0253920D01*
X0014163Y0253920D02*
X0015713Y0253920D01*
X0015713Y0252322D02*
X0014163Y0252322D01*
X0018979Y0253920D02*
X0055384Y0253920D01*
X0053927Y0252322D02*
X0020437Y0252322D01*
X0021176Y0250723D02*
X0053187Y0250723D01*
X0058651Y0252322D02*
X0060201Y0252322D01*
X0060201Y0253920D02*
X0058651Y0253920D01*
X0060201Y0249125D02*
X0119400Y0249125D01*
X0119400Y0247526D02*
X0065839Y0247526D01*
X0065299Y0245928D02*
X0119400Y0245928D01*
X0119400Y0244329D02*
X0064184Y0244329D01*
X0061828Y0242731D02*
X0119400Y0242731D01*
X0119400Y0241132D02*
X0062634Y0241132D01*
X0063952Y0239534D02*
X0119400Y0239534D01*
X0119400Y0237935D02*
X0064614Y0237935D01*
X0064779Y0236337D02*
X0119400Y0236337D01*
X0119400Y0234738D02*
X0064728Y0234738D01*
X0064066Y0233140D02*
X0119400Y0233140D01*
X0119489Y0231541D02*
X0062909Y0231541D01*
X0063553Y0229943D02*
X0120589Y0229943D01*
X0122188Y0228344D02*
X0065152Y0228344D01*
X0065998Y0226746D02*
X0121111Y0226746D01*
X0119513Y0225147D02*
X0066550Y0225147D01*
X0066550Y0223549D02*
X0117914Y0223549D01*
X0116316Y0221950D02*
X0066291Y0221950D01*
X0065628Y0220352D02*
X0114717Y0220352D01*
X0113119Y0218753D02*
X0064260Y0218753D01*
X0061530Y0217155D02*
X0111520Y0217155D01*
X0109922Y0215556D02*
X0005500Y0215556D01*
X0005500Y0213958D02*
X0108334Y0213958D01*
X0107900Y0212359D02*
X0005500Y0212359D01*
X0005500Y0210761D02*
X0107900Y0210761D01*
X0107900Y0209162D02*
X0005500Y0209162D01*
X0005500Y0207564D02*
X0107900Y0207564D01*
X0107900Y0205965D02*
X0061690Y0205965D01*
X0060843Y0206316D02*
X0063462Y0205231D01*
X0065466Y0203227D01*
X0066550Y0200609D01*
X0066550Y0197774D01*
X0065466Y0195156D01*
X0063462Y0193152D01*
X0060843Y0192067D01*
X0058009Y0192067D01*
X0055390Y0193152D01*
X0053386Y0195156D01*
X0052302Y0197774D01*
X0052302Y0200609D01*
X0053386Y0203227D01*
X0055390Y0205231D01*
X0058009Y0206316D01*
X0060843Y0206316D01*
X0057162Y0205965D02*
X0017202Y0205965D01*
X0016355Y0206316D02*
X0013521Y0206316D01*
X0010902Y0205231D01*
X0008898Y0203227D01*
X0007813Y0200609D01*
X0007813Y0197774D01*
X0008898Y0195156D01*
X0010902Y0193152D01*
X0011738Y0192806D01*
X0011738Y0185297D01*
X0011087Y0184646D01*
X0010600Y0183470D01*
X0010600Y0182197D01*
X0011087Y0181021D01*
X0011987Y0180120D01*
X0013163Y0179633D01*
X0014437Y0179633D01*
X0015613Y0180120D01*
X0016125Y0180633D01*
X0082100Y0180633D01*
X0082100Y0081197D01*
X0082587Y0080021D01*
X0083487Y0079120D01*
X0086075Y0076533D01*
X0035949Y0076533D01*
X0033599Y0078883D01*
X0029001Y0078883D01*
X0025750Y0075632D01*
X0025750Y0071034D01*
X0029001Y0067783D01*
X0033599Y0067783D01*
X0035949Y0070133D01*
X0054029Y0070133D01*
X0053800Y0069904D01*
X0053800Y0065762D01*
X0056729Y0062833D01*
X0060871Y0062833D01*
X0063800Y0065762D01*
X0063800Y0069904D01*
X0063571Y0070133D01*
X0089437Y0070133D01*
X0090613Y0070620D01*
X0093113Y0073120D01*
X0094013Y0074021D01*
X0094500Y0075197D01*
X0094500Y0076470D01*
X0094013Y0077646D01*
X0088500Y0083159D01*
X0088500Y0184470D01*
X0088013Y0185646D01*
X0087113Y0186546D01*
X0085937Y0187033D01*
X0018138Y0187033D01*
X0018138Y0192806D01*
X0018973Y0193152D01*
X0020978Y0195156D01*
X0022062Y0197774D01*
X0022062Y0200609D01*
X0020978Y0203227D01*
X0018973Y0205231D01*
X0016355Y0206316D01*
X0012674Y0205965D02*
X0005500Y0205965D01*
X0005500Y0204367D02*
X0010037Y0204367D01*
X0008708Y0202768D02*
X0005500Y0202768D01*
X0005500Y0201170D02*
X0008046Y0201170D01*
X0007813Y0199571D02*
X0005500Y0199571D01*
X0005500Y0197973D02*
X0007813Y0197973D01*
X0008393Y0196374D02*
X0005500Y0196374D01*
X0005500Y0194776D02*
X0009278Y0194776D01*
X0010877Y0193177D02*
X0005500Y0193177D01*
X0005500Y0191579D02*
X0011738Y0191579D01*
X0011738Y0189980D02*
X0005500Y0189980D01*
X0005500Y0188381D02*
X0011738Y0188381D01*
X0011738Y0186783D02*
X0005500Y0186783D01*
X0005500Y0185184D02*
X0011626Y0185184D01*
X0010648Y0183586D02*
X0005500Y0183586D01*
X0005500Y0181987D02*
X0010687Y0181987D01*
X0011719Y0180389D02*
X0005500Y0180389D01*
X0005500Y0178790D02*
X0082100Y0178790D01*
X0082100Y0177192D02*
X0005500Y0177192D01*
X0005500Y0175593D02*
X0082100Y0175593D01*
X0082100Y0173995D02*
X0005500Y0173995D01*
X0005500Y0172396D02*
X0082100Y0172396D01*
X0082100Y0170798D02*
X0005500Y0170798D01*
X0005500Y0169199D02*
X0082100Y0169199D01*
X0082100Y0167601D02*
X0005500Y0167601D01*
X0005500Y0166002D02*
X0012391Y0166002D01*
X0012466Y0166033D02*
X0010554Y0165242D01*
X0009092Y0163779D01*
X0008300Y0161868D01*
X0008300Y0159799D01*
X0009092Y0157888D01*
X0010554Y0156425D01*
X0012466Y0155633D01*
X0020134Y0155633D01*
X0022046Y0156425D01*
X0023508Y0157888D01*
X0024300Y0159799D01*
X0024300Y0161868D01*
X0023508Y0163779D01*
X0022046Y0165242D01*
X0020134Y0166033D01*
X0012466Y0166033D01*
X0009717Y0164404D02*
X0005500Y0164404D01*
X0005500Y0162805D02*
X0008688Y0162805D01*
X0008300Y0161207D02*
X0005500Y0161207D01*
X0005500Y0159608D02*
X0008379Y0159608D01*
X0009041Y0158010D02*
X0005500Y0158010D01*
X0005500Y0156411D02*
X0010588Y0156411D01*
X0011178Y0154813D02*
X0005500Y0154813D01*
X0005500Y0153214D02*
X0009550Y0153214D01*
X0009566Y0153244D02*
X0009237Y0152599D01*
X0009013Y0151910D01*
X0008900Y0151195D01*
X0008900Y0150933D01*
X0016200Y0150933D01*
X0016200Y0150733D01*
X0016400Y0150733D01*
X0016400Y0146233D01*
X0019462Y0146233D01*
X0020177Y0146347D01*
X0020866Y0146570D01*
X0021511Y0146899D01*
X0022097Y0147325D01*
X0022609Y0147837D01*
X0023034Y0148422D01*
X0023363Y0149068D01*
X0023587Y0149756D01*
X0023700Y0150471D01*
X0023700Y0150733D01*
X0016400Y0150733D01*
X0016400Y0150933D01*
X0023700Y0150933D01*
X0023700Y0151195D01*
X0023587Y0151910D01*
X0023363Y0152599D01*
X0023034Y0153244D01*
X0022609Y0153830D01*
X0022097Y0154342D01*
X0021511Y0154768D01*
X0020866Y0155096D01*
X0020177Y0155320D01*
X0019462Y0155433D01*
X0016400Y0155433D01*
X0016400Y0150933D01*
X0016200Y0150933D01*
X0016200Y0155433D01*
X0013138Y0155433D01*
X0012423Y0155320D01*
X0011734Y0155096D01*
X0011089Y0154768D01*
X0010503Y0154342D01*
X0009991Y0153830D01*
X0009566Y0153244D01*
X0008967Y0151616D02*
X0005500Y0151616D01*
X0005500Y0150017D02*
X0008972Y0150017D01*
X0009013Y0149756D02*
X0009237Y0149068D01*
X0009566Y0148422D01*
X0009991Y0147837D01*
X0010503Y0147325D01*
X0011089Y0146899D01*
X0011734Y0146570D01*
X0012423Y0146347D01*
X0013138Y0146233D01*
X0016200Y0146233D01*
X0016200Y0150733D01*
X0008900Y0150733D01*
X0008900Y0150471D01*
X0009013Y0149756D01*
X0009568Y0148419D02*
X0005500Y0148419D01*
X0005500Y0146820D02*
X0011244Y0146820D01*
X0016200Y0146820D02*
X0016400Y0146820D01*
X0016400Y0148419D02*
X0016200Y0148419D01*
X0016200Y0150017D02*
X0016400Y0150017D01*
X0016400Y0151616D02*
X0016200Y0151616D01*
X0016200Y0153214D02*
X0016400Y0153214D01*
X0016400Y0154813D02*
X0016200Y0154813D01*
X0021422Y0154813D02*
X0082100Y0154813D01*
X0082100Y0156411D02*
X0022012Y0156411D01*
X0023559Y0158010D02*
X0082100Y0158010D01*
X0082100Y0159608D02*
X0024221Y0159608D01*
X0024300Y0161207D02*
X0082100Y0161207D01*
X0082100Y0162805D02*
X0023912Y0162805D01*
X0022883Y0164404D02*
X0082100Y0164404D01*
X0082100Y0166002D02*
X0020209Y0166002D01*
X0023050Y0153214D02*
X0082100Y0153214D01*
X0082100Y0151616D02*
X0023633Y0151616D01*
X0023628Y0150017D02*
X0082100Y0150017D01*
X0082100Y0148419D02*
X0023032Y0148419D01*
X0021356Y0146820D02*
X0082100Y0146820D01*
X0082100Y0145222D02*
X0064564Y0145222D01*
X0064295Y0145333D02*
X0062305Y0145333D01*
X0060468Y0144572D01*
X0059061Y0143166D01*
X0058300Y0141328D01*
X0057539Y0143166D01*
X0056132Y0144572D01*
X0054295Y0145333D01*
X0052305Y0145333D01*
X0050468Y0144572D01*
X0049061Y0143166D01*
X0048300Y0141328D01*
X0047539Y0143166D01*
X0046132Y0144572D01*
X0044295Y0145333D01*
X0042305Y0145333D01*
X0040468Y0144572D01*
X0039061Y0143166D01*
X0038300Y0141328D01*
X0037539Y0143166D01*
X0036132Y0144572D01*
X0034295Y0145333D01*
X0032305Y0145333D01*
X0030468Y0144572D01*
X0029061Y0143166D01*
X0028300Y0141328D01*
X0028300Y0139339D01*
X0029061Y0137501D01*
X0030468Y0136095D01*
X0032305Y0135333D01*
X0034295Y0135333D01*
X0036132Y0136095D01*
X0037539Y0137501D01*
X0038300Y0139339D01*
X0038300Y0141328D01*
X0038300Y0139339D01*
X0039061Y0137501D01*
X0040468Y0136095D01*
X0042305Y0135333D01*
X0044295Y0135333D01*
X0046132Y0136095D01*
X0047539Y0137501D01*
X0048300Y0139339D01*
X0048300Y0141328D01*
X0048300Y0139339D01*
X0049061Y0137501D01*
X0050468Y0136095D01*
X0052305Y0135333D01*
X0054295Y0135333D01*
X0056132Y0136095D01*
X0057539Y0137501D01*
X0058300Y0139339D01*
X0058300Y0141328D01*
X0058300Y0139339D01*
X0059061Y0137501D01*
X0060468Y0136095D01*
X0062305Y0135333D01*
X0064295Y0135333D01*
X0066132Y0136095D01*
X0067539Y0137501D01*
X0068300Y0139339D01*
X0068300Y0141328D01*
X0067539Y0143166D01*
X0066132Y0144572D01*
X0064295Y0145333D01*
X0062036Y0145222D02*
X0054564Y0145222D01*
X0052036Y0145222D02*
X0044564Y0145222D01*
X0042036Y0145222D02*
X0034564Y0145222D01*
X0032036Y0145222D02*
X0005500Y0145222D01*
X0005500Y0143623D02*
X0029519Y0143623D01*
X0028589Y0142025D02*
X0005500Y0142025D01*
X0005500Y0140426D02*
X0028300Y0140426D01*
X0028512Y0138828D02*
X0005500Y0138828D01*
X0005500Y0137229D02*
X0014125Y0137229D01*
X0014229Y0137333D02*
X0011300Y0134404D01*
X0011300Y0130262D01*
X0014229Y0127333D01*
X0011300Y0124404D01*
X0011300Y0120262D01*
X0014229Y0117333D01*
X0018371Y0117333D01*
X0021300Y0120262D01*
X0021300Y0124404D01*
X0018371Y0127333D01*
X0014229Y0127333D01*
X0018371Y0127333D01*
X0021300Y0130262D01*
X0021300Y0134404D01*
X0018371Y0137333D01*
X0014229Y0137333D01*
X0012526Y0135631D02*
X0005500Y0135631D01*
X0005500Y0134032D02*
X0011300Y0134032D01*
X0011300Y0132434D02*
X0005500Y0132434D01*
X0005500Y0130835D02*
X0011300Y0130835D01*
X0012326Y0129237D02*
X0005500Y0129237D01*
X0005500Y0127638D02*
X0013924Y0127638D01*
X0012935Y0126040D02*
X0005500Y0126040D01*
X0005500Y0124441D02*
X0011337Y0124441D01*
X0011300Y0122843D02*
X0005500Y0122843D01*
X0005500Y0121244D02*
X0011300Y0121244D01*
X0011917Y0119645D02*
X0005500Y0119645D01*
X0005500Y0118047D02*
X0013515Y0118047D01*
X0019085Y0118047D02*
X0082100Y0118047D01*
X0082100Y0119645D02*
X0020683Y0119645D01*
X0021300Y0121244D02*
X0082100Y0121244D01*
X0082100Y0122843D02*
X0021300Y0122843D01*
X0021263Y0124441D02*
X0082100Y0124441D01*
X0082100Y0126040D02*
X0019665Y0126040D01*
X0018676Y0127638D02*
X0082100Y0127638D01*
X0082100Y0129237D02*
X0020274Y0129237D01*
X0021300Y0130835D02*
X0082100Y0130835D01*
X0082100Y0132434D02*
X0021300Y0132434D01*
X0021300Y0134032D02*
X0082100Y0134032D01*
X0082100Y0135631D02*
X0065012Y0135631D01*
X0067267Y0137229D02*
X0082100Y0137229D01*
X0082100Y0138828D02*
X0068088Y0138828D01*
X0068300Y0140426D02*
X0082100Y0140426D01*
X0082100Y0142025D02*
X0068011Y0142025D01*
X0067081Y0143623D02*
X0082100Y0143623D01*
X0088500Y0143623D02*
X0107900Y0143623D01*
X0107900Y0142025D02*
X0088500Y0142025D01*
X0088500Y0140426D02*
X0107900Y0140426D01*
X0107900Y0138828D02*
X0088500Y0138828D01*
X0088500Y0137229D02*
X0107900Y0137229D01*
X0107900Y0135631D02*
X0088500Y0135631D01*
X0088500Y0134032D02*
X0107900Y0134032D01*
X0107900Y0132434D02*
X0088500Y0132434D01*
X0088500Y0130835D02*
X0107900Y0130835D01*
X0107900Y0129237D02*
X0088500Y0129237D01*
X0088500Y0127638D02*
X0107900Y0127638D01*
X0107900Y0126040D02*
X0088500Y0126040D01*
X0088500Y0124441D02*
X0107900Y0124441D01*
X0107900Y0122843D02*
X0088500Y0122843D01*
X0088500Y0121244D02*
X0107900Y0121244D01*
X0107900Y0119645D02*
X0088500Y0119645D01*
X0088500Y0118047D02*
X0107900Y0118047D01*
X0107900Y0116448D02*
X0088500Y0116448D01*
X0088500Y0114850D02*
X0107900Y0114850D01*
X0107900Y0113251D02*
X0088500Y0113251D01*
X0088500Y0111653D02*
X0107900Y0111653D01*
X0107900Y0110054D02*
X0088500Y0110054D01*
X0088500Y0108456D02*
X0107900Y0108456D01*
X0107900Y0106857D02*
X0088500Y0106857D01*
X0088500Y0105259D02*
X0107900Y0105259D01*
X0107900Y0103660D02*
X0088500Y0103660D01*
X0088500Y0102062D02*
X0107900Y0102062D01*
X0107900Y0100463D02*
X0088500Y0100463D01*
X0088500Y0098865D02*
X0107900Y0098865D01*
X0107900Y0097266D02*
X0088500Y0097266D01*
X0088500Y0095668D02*
X0107900Y0095668D01*
X0107900Y0094069D02*
X0088500Y0094069D01*
X0088500Y0092471D02*
X0107900Y0092471D01*
X0107900Y0090872D02*
X0088500Y0090872D01*
X0088500Y0089274D02*
X0107900Y0089274D01*
X0107900Y0087675D02*
X0088500Y0087675D01*
X0088500Y0086077D02*
X0107900Y0086077D01*
X0107900Y0084478D02*
X0088500Y0084478D01*
X0088779Y0082880D02*
X0107900Y0082880D01*
X0107900Y0081281D02*
X0090378Y0081281D01*
X0091976Y0079683D02*
X0107900Y0079683D01*
X0107900Y0078084D02*
X0093575Y0078084D01*
X0094493Y0076486D02*
X0108546Y0076486D01*
X0110145Y0074887D02*
X0094372Y0074887D01*
X0093281Y0073289D02*
X0111743Y0073289D01*
X0113342Y0071690D02*
X0091682Y0071690D01*
X0088800Y0073333D02*
X0091300Y0075833D01*
X0085300Y0081833D01*
X0085300Y0183833D01*
X0014800Y0183833D01*
X0014938Y0183971D01*
X0014938Y0199192D01*
X0021482Y0196374D02*
X0052882Y0196374D01*
X0052302Y0197973D02*
X0022062Y0197973D01*
X0022062Y0199571D02*
X0052302Y0199571D01*
X0052534Y0201170D02*
X0021830Y0201170D01*
X0021168Y0202768D02*
X0053196Y0202768D01*
X0054526Y0204367D02*
X0019838Y0204367D01*
X0020597Y0194776D02*
X0053767Y0194776D01*
X0055365Y0193177D02*
X0018999Y0193177D01*
X0018138Y0191579D02*
X0107900Y0191579D01*
X0107900Y0193177D02*
X0063487Y0193177D01*
X0065085Y0194776D02*
X0107900Y0194776D01*
X0107900Y0196374D02*
X0065970Y0196374D01*
X0066550Y0197973D02*
X0107900Y0197973D01*
X0107900Y0199571D02*
X0066550Y0199571D01*
X0066318Y0201170D02*
X0107900Y0201170D01*
X0107900Y0202768D02*
X0065656Y0202768D01*
X0064326Y0204367D02*
X0107900Y0204367D01*
X0113700Y0204367D02*
X0123500Y0204367D01*
X0123500Y0204345D02*
X0126312Y0201533D01*
X0128100Y0201533D01*
X0128100Y0206133D01*
X0128500Y0206133D01*
X0128500Y0201533D01*
X0130288Y0201533D01*
X0133100Y0204345D01*
X0133100Y0206133D01*
X0128500Y0206133D01*
X0128500Y0206533D01*
X0133100Y0206533D01*
X0133100Y0208322D01*
X0130488Y0210933D01*
X0130537Y0210933D01*
X0130568Y0210964D01*
X0133400Y0208132D01*
X0133400Y0183254D01*
X0132971Y0184289D01*
X0131255Y0186005D01*
X0129013Y0186933D01*
X0126587Y0186933D01*
X0124345Y0186005D01*
X0122773Y0184433D01*
X0122223Y0184433D01*
X0121016Y0184933D01*
X0119584Y0184933D01*
X0118261Y0184385D01*
X0118000Y0184124D01*
X0118000Y0184255D01*
X0118264Y0184519D01*
X0118886Y0186021D01*
X0118886Y0187646D01*
X0118264Y0189148D01*
X0117114Y0190297D01*
X0115613Y0190919D01*
X0113987Y0190919D01*
X0113700Y0190800D01*
X0113700Y0211132D01*
X0124782Y0222214D01*
X0125663Y0221333D01*
X0122900Y0218570D01*
X0122900Y0214097D01*
X0126063Y0210933D01*
X0126112Y0210933D01*
X0123500Y0208322D01*
X0123500Y0206533D01*
X0128100Y0206533D01*
X0128100Y0206133D01*
X0123500Y0206133D01*
X0123500Y0204345D01*
X0123500Y0205965D02*
X0113700Y0205965D01*
X0113700Y0207564D02*
X0123500Y0207564D01*
X0124341Y0209162D02*
X0113700Y0209162D01*
X0113700Y0210761D02*
X0125939Y0210761D01*
X0124637Y0212359D02*
X0114927Y0212359D01*
X0116526Y0213958D02*
X0123039Y0213958D01*
X0122900Y0215556D02*
X0118124Y0215556D01*
X0119723Y0217155D02*
X0122900Y0217155D01*
X0123083Y0218753D02*
X0121321Y0218753D01*
X0122920Y0220352D02*
X0124682Y0220352D01*
X0124518Y0221950D02*
X0125046Y0221950D01*
X0130937Y0221333D02*
X0133700Y0218570D01*
X0133700Y0216035D01*
X0137943Y0211792D01*
X0138758Y0210976D01*
X0139200Y0209910D01*
X0139200Y0184535D01*
X0143943Y0179792D01*
X0144758Y0178976D01*
X0145200Y0177910D01*
X0145200Y0174535D01*
X0145600Y0174135D01*
X0145600Y0176110D01*
X0146041Y0177176D01*
X0150005Y0181139D01*
X0149788Y0181069D01*
X0148933Y0180933D01*
X0148700Y0180933D01*
X0148700Y0186233D01*
X0148300Y0186233D01*
X0148300Y0180933D01*
X0148067Y0180933D01*
X0147212Y0181069D01*
X0146389Y0181336D01*
X0145617Y0181729D01*
X0144917Y0182238D01*
X0144305Y0182850D01*
X0143796Y0183551D01*
X0143403Y0184322D01*
X0143135Y0185145D01*
X0143000Y0186000D01*
X0143000Y0186233D01*
X0148300Y0186233D01*
X0148300Y0186633D01*
X0143000Y0186633D01*
X0143000Y0186866D01*
X0143135Y0187721D01*
X0143403Y0188545D01*
X0143796Y0189316D01*
X0144305Y0190016D01*
X0144917Y0190628D01*
X0145617Y0191137D01*
X0146389Y0191530D01*
X0147212Y0191798D01*
X0148067Y0191933D01*
X0148300Y0191933D01*
X0148300Y0186633D01*
X0148700Y0186633D01*
X0154000Y0186633D01*
X0154000Y0186866D01*
X0153865Y0187721D01*
X0153597Y0188545D01*
X0153204Y0189316D01*
X0152695Y0190016D01*
X0152083Y0190628D01*
X0151383Y0191137D01*
X0150611Y0191530D01*
X0149788Y0191798D01*
X0148933Y0191933D01*
X0148700Y0191933D01*
X0148700Y0186633D01*
X0148700Y0186233D01*
X0154000Y0186233D01*
X0154000Y0186000D01*
X0153865Y0185145D01*
X0153794Y0184929D01*
X0161999Y0193133D01*
X0155763Y0193133D01*
X0154587Y0193620D01*
X0153687Y0194521D01*
X0149969Y0198239D01*
X0149713Y0198133D01*
X0147287Y0198133D01*
X0145045Y0199062D01*
X0143329Y0200778D01*
X0142400Y0203020D01*
X0142400Y0205447D01*
X0143329Y0207689D01*
X0145045Y0209405D01*
X0147287Y0210333D01*
X0149713Y0210333D01*
X0151955Y0209405D01*
X0153671Y0207689D01*
X0154600Y0205447D01*
X0154600Y0203020D01*
X0154494Y0202765D01*
X0157725Y0199533D01*
X0170173Y0199533D01*
X0168929Y0200778D01*
X0168000Y0203020D01*
X0168000Y0205447D01*
X0168929Y0207689D01*
X0170645Y0209405D01*
X0172887Y0210333D01*
X0175313Y0210333D01*
X0177555Y0209405D01*
X0179271Y0207689D01*
X0180200Y0205447D01*
X0180200Y0203020D01*
X0179271Y0200778D01*
X0178027Y0199533D01*
X0189573Y0199533D01*
X0188329Y0200778D01*
X0187400Y0203020D01*
X0187400Y0205447D01*
X0188329Y0207689D01*
X0190045Y0209405D01*
X0192287Y0210333D01*
X0194713Y0210333D01*
X0194969Y0210228D01*
X0202600Y0217859D01*
X0202600Y0221056D01*
X0202345Y0221162D01*
X0200629Y0222878D01*
X0200432Y0223352D01*
X0199995Y0222750D01*
X0199383Y0222138D01*
X0198683Y0221629D01*
X0197911Y0221236D01*
X0197088Y0220969D01*
X0196233Y0220833D01*
X0196000Y0220833D01*
X0196000Y0226133D01*
X0195600Y0226133D01*
X0195600Y0220833D01*
X0195367Y0220833D01*
X0194512Y0220969D01*
X0193689Y0221236D01*
X0192917Y0221629D01*
X0192217Y0222138D01*
X0191605Y0222750D01*
X0191168Y0223352D01*
X0190971Y0222878D01*
X0189255Y0221162D01*
X0187013Y0220233D01*
X0184587Y0220233D01*
X0182345Y0221162D01*
X0180800Y0222707D01*
X0179255Y0221162D01*
X0177013Y0220233D01*
X0174587Y0220233D01*
X0172345Y0221162D01*
X0170800Y0222707D01*
X0169255Y0221162D01*
X0167013Y0220233D01*
X0164587Y0220233D01*
X0162345Y0221162D01*
X0160800Y0222707D01*
X0159255Y0221162D01*
X0157013Y0220233D01*
X0154587Y0220233D01*
X0152345Y0221162D01*
X0150629Y0222878D01*
X0149700Y0225120D01*
X0149700Y0227547D01*
X0150629Y0229789D01*
X0152173Y0231333D01*
X0150629Y0232878D01*
X0149700Y0235120D01*
X0149700Y0237547D01*
X0150629Y0239789D01*
X0151273Y0240433D01*
X0139001Y0240433D01*
X0133700Y0235132D01*
X0133700Y0234097D01*
X0130937Y0231333D01*
X0131150Y0231120D01*
X0131943Y0230792D01*
X0132758Y0229976D01*
X0133087Y0229183D01*
X0133700Y0228570D01*
X0133700Y0224097D01*
X0130937Y0221333D01*
X0131554Y0221950D02*
X0151556Y0221950D01*
X0150351Y0223549D02*
X0133152Y0223549D01*
X0133700Y0225147D02*
X0149700Y0225147D01*
X0149700Y0226746D02*
X0133700Y0226746D01*
X0133700Y0228344D02*
X0150030Y0228344D01*
X0150783Y0229943D02*
X0132772Y0229943D01*
X0131145Y0231541D02*
X0151965Y0231541D01*
X0150520Y0233140D02*
X0132743Y0233140D01*
X0133700Y0234738D02*
X0149858Y0234738D01*
X0149700Y0236337D02*
X0134905Y0236337D01*
X0136503Y0237935D02*
X0149861Y0237935D01*
X0150523Y0239534D02*
X0138102Y0239534D01*
X0134695Y0244329D02*
X0133084Y0244329D01*
X0133100Y0244345D02*
X0133100Y0246133D01*
X0128500Y0246133D01*
X0128500Y0246533D01*
X0133100Y0246533D01*
X0133100Y0248322D01*
X0130488Y0250933D01*
X0130537Y0250933D01*
X0133700Y0254097D01*
X0133700Y0258570D01*
X0132337Y0259933D01*
X0133599Y0259933D01*
X0146657Y0246875D01*
X0147723Y0246433D01*
X0231799Y0246433D01*
X0227569Y0242203D01*
X0227013Y0242433D01*
X0224587Y0242433D01*
X0222345Y0241505D01*
X0220629Y0239789D01*
X0220432Y0239315D01*
X0219995Y0239916D01*
X0219383Y0240528D01*
X0218683Y0241037D01*
X0217911Y0241430D01*
X0217088Y0241698D01*
X0216233Y0241833D01*
X0216000Y0241833D01*
X0216000Y0236533D01*
X0215600Y0236533D01*
X0215600Y0241833D01*
X0215367Y0241833D01*
X0214512Y0241698D01*
X0213689Y0241430D01*
X0212917Y0241037D01*
X0212217Y0240528D01*
X0211605Y0239916D01*
X0211168Y0239315D01*
X0210971Y0239789D01*
X0209255Y0241505D01*
X0207013Y0242433D01*
X0206801Y0242433D01*
X0204258Y0244976D01*
X0203443Y0245792D01*
X0202377Y0246233D01*
X0137223Y0246233D01*
X0136157Y0245792D01*
X0131318Y0240952D01*
X0130537Y0241733D01*
X0130488Y0241733D01*
X0133100Y0244345D01*
X0133100Y0245928D02*
X0136486Y0245928D01*
X0133100Y0247526D02*
X0146006Y0247526D01*
X0144407Y0249125D02*
X0132297Y0249125D01*
X0130698Y0250723D02*
X0142809Y0250723D01*
X0141210Y0252322D02*
X0131925Y0252322D01*
X0133524Y0253920D02*
X0139612Y0253920D01*
X0138013Y0255519D02*
X0133700Y0255519D01*
X0133700Y0257117D02*
X0136415Y0257117D01*
X0134816Y0258716D02*
X0133554Y0258716D01*
X0139822Y0261913D02*
X0373600Y0261913D01*
X0373600Y0260314D02*
X0141420Y0260314D01*
X0143019Y0258716D02*
X0373600Y0258716D01*
X0373600Y0257117D02*
X0144617Y0257117D01*
X0146216Y0255519D02*
X0373600Y0255519D01*
X0373600Y0253920D02*
X0147814Y0253920D01*
X0149413Y0252322D02*
X0243510Y0252322D01*
X0249090Y0252322D02*
X0373600Y0252322D01*
X0373600Y0250723D02*
X0250147Y0250723D01*
X0250386Y0249125D02*
X0373600Y0249125D01*
X0373600Y0247526D02*
X0351208Y0247526D01*
X0352807Y0245928D02*
X0373600Y0245928D01*
X0373600Y0244329D02*
X0354405Y0244329D01*
X0356004Y0242731D02*
X0373600Y0242731D01*
X0373600Y0241132D02*
X0357602Y0241132D01*
X0359201Y0239534D02*
X0373600Y0239534D01*
X0373600Y0237935D02*
X0360799Y0237935D01*
X0362398Y0236337D02*
X0373600Y0236337D01*
X0373600Y0234738D02*
X0363996Y0234738D01*
X0365105Y0233140D02*
X0373600Y0233140D01*
X0373600Y0231541D02*
X0365200Y0231541D01*
X0365200Y0229943D02*
X0373600Y0229943D01*
X0373600Y0228344D02*
X0365200Y0228344D01*
X0365200Y0226746D02*
X0373600Y0226746D01*
X0373600Y0225147D02*
X0365200Y0225147D01*
X0365200Y0223549D02*
X0373600Y0223549D01*
X0373600Y0221950D02*
X0365200Y0221950D01*
X0365200Y0220352D02*
X0373600Y0220352D01*
X0373600Y0218753D02*
X0365200Y0218753D01*
X0365200Y0217155D02*
X0373600Y0217155D01*
X0373600Y0215556D02*
X0365200Y0215556D01*
X0365200Y0213958D02*
X0373600Y0213958D01*
X0373600Y0212359D02*
X0365200Y0212359D01*
X0365200Y0210761D02*
X0373600Y0210761D01*
X0373600Y0209162D02*
X0365200Y0209162D01*
X0365200Y0207564D02*
X0373600Y0207564D01*
X0373600Y0205965D02*
X0365200Y0205965D01*
X0365200Y0204367D02*
X0373600Y0204367D01*
X0373600Y0202768D02*
X0365200Y0202768D01*
X0365200Y0201170D02*
X0373600Y0201170D01*
X0373600Y0199571D02*
X0365200Y0199571D01*
X0365200Y0197973D02*
X0373600Y0197973D01*
X0373600Y0196374D02*
X0365200Y0196374D01*
X0365200Y0194776D02*
X0373600Y0194776D01*
X0373600Y0193177D02*
X0365200Y0193177D01*
X0365200Y0191579D02*
X0373600Y0191579D01*
X0373600Y0189980D02*
X0365200Y0189980D01*
X0365200Y0188381D02*
X0373600Y0188381D01*
X0373600Y0186783D02*
X0365200Y0186783D01*
X0365200Y0185184D02*
X0373600Y0185184D01*
X0373600Y0183586D02*
X0365200Y0183586D01*
X0365200Y0181987D02*
X0373600Y0181987D01*
X0373600Y0180389D02*
X0365200Y0180389D01*
X0365200Y0178790D02*
X0373600Y0178790D01*
X0373600Y0177192D02*
X0365200Y0177192D01*
X0365200Y0175593D02*
X0373600Y0175593D01*
X0373600Y0173995D02*
X0365200Y0173995D01*
X0365200Y0172396D02*
X0373600Y0172396D01*
X0373600Y0170798D02*
X0365200Y0170798D01*
X0365200Y0169199D02*
X0373600Y0169199D01*
X0373600Y0167601D02*
X0365200Y0167601D01*
X0365200Y0166002D02*
X0373600Y0166002D01*
X0373600Y0164404D02*
X0365200Y0164404D01*
X0365200Y0162805D02*
X0373600Y0162805D01*
X0373600Y0161207D02*
X0365200Y0161207D01*
X0365200Y0159608D02*
X0373600Y0159608D01*
X0373600Y0158010D02*
X0365200Y0158010D01*
X0365200Y0156411D02*
X0373600Y0156411D01*
X0373600Y0154813D02*
X0365200Y0154813D01*
X0365200Y0153214D02*
X0373600Y0153214D01*
X0373600Y0151616D02*
X0365200Y0151616D01*
X0365200Y0150017D02*
X0373600Y0150017D01*
X0373600Y0148419D02*
X0365200Y0148419D01*
X0364936Y0146820D02*
X0373600Y0146820D01*
X0373600Y0145222D02*
X0363590Y0145222D01*
X0361991Y0143623D02*
X0373600Y0143623D01*
X0373600Y0142025D02*
X0360393Y0142025D01*
X0358794Y0140426D02*
X0373600Y0140426D01*
X0373600Y0138828D02*
X0357196Y0138828D01*
X0355597Y0137229D02*
X0373600Y0137229D01*
X0373600Y0135631D02*
X0353998Y0135631D01*
X0352400Y0134032D02*
X0373600Y0134032D01*
X0373600Y0132434D02*
X0350801Y0132434D01*
X0349203Y0130835D02*
X0373600Y0130835D01*
X0373600Y0129237D02*
X0347604Y0129237D01*
X0346006Y0127638D02*
X0373600Y0127638D01*
X0373600Y0126040D02*
X0344407Y0126040D01*
X0342809Y0124441D02*
X0373600Y0124441D01*
X0373600Y0122843D02*
X0341210Y0122843D01*
X0339612Y0121244D02*
X0373600Y0121244D01*
X0373600Y0119645D02*
X0356974Y0119645D01*
X0357555Y0119405D02*
X0355313Y0120333D01*
X0352887Y0120333D01*
X0350645Y0119405D01*
X0348929Y0117689D01*
X0348000Y0115447D01*
X0348000Y0113020D01*
X0348929Y0110778D01*
X0350645Y0109062D01*
X0352887Y0108133D01*
X0355313Y0108133D01*
X0357555Y0109062D01*
X0359271Y0110778D01*
X0360200Y0113020D01*
X0360200Y0115447D01*
X0359271Y0117689D01*
X0357555Y0119405D01*
X0358913Y0118047D02*
X0373600Y0118047D01*
X0373600Y0116448D02*
X0359785Y0116448D01*
X0360200Y0114850D02*
X0373600Y0114850D01*
X0373600Y0113251D02*
X0360200Y0113251D01*
X0359634Y0111653D02*
X0373600Y0111653D01*
X0373600Y0110054D02*
X0358548Y0110054D01*
X0356092Y0108456D02*
X0373600Y0108456D01*
X0373600Y0106857D02*
X0293425Y0106857D01*
X0291827Y0105259D02*
X0373600Y0105259D01*
X0373600Y0103660D02*
X0290228Y0103660D01*
X0287083Y0100628D02*
X0286383Y0101137D01*
X0285611Y0101530D01*
X0284788Y0101798D01*
X0283933Y0101933D01*
X0283700Y0101933D01*
X0283700Y0096633D01*
X0289000Y0096633D01*
X0289000Y0096866D01*
X0288865Y0097721D01*
X0288597Y0098545D01*
X0288204Y0099316D01*
X0287695Y0100016D01*
X0287083Y0100628D01*
X0287248Y0100463D02*
X0304503Y0100463D01*
X0303929Y0099889D02*
X0303000Y0097647D01*
X0303000Y0095220D01*
X0303929Y0092978D01*
X0305645Y0091262D01*
X0307887Y0090333D01*
X0310313Y0090333D01*
X0312555Y0091262D01*
X0314271Y0092978D01*
X0315200Y0095220D01*
X0315200Y0097647D01*
X0314271Y0099889D01*
X0312555Y0101605D01*
X0310313Y0102533D01*
X0307887Y0102533D01*
X0305645Y0101605D01*
X0303929Y0099889D01*
X0303505Y0098865D02*
X0288434Y0098865D01*
X0288937Y0097266D02*
X0303000Y0097266D01*
X0303000Y0095668D02*
X0288947Y0095668D01*
X0289000Y0096000D02*
X0289000Y0096233D01*
X0283700Y0096233D01*
X0283700Y0090933D01*
X0283933Y0090933D01*
X0284788Y0091069D01*
X0285611Y0091336D01*
X0286383Y0091729D01*
X0287083Y0092238D01*
X0287695Y0092850D01*
X0288204Y0093551D01*
X0288597Y0094322D01*
X0288865Y0095145D01*
X0289000Y0096000D01*
X0288468Y0094069D02*
X0303477Y0094069D01*
X0304436Y0092471D02*
X0287316Y0092471D01*
X0283700Y0092471D02*
X0283300Y0092471D01*
X0283300Y0090933D02*
X0283300Y0096233D01*
X0283700Y0096233D01*
X0283700Y0096633D01*
X0283300Y0096633D01*
X0283300Y0096233D01*
X0278000Y0096233D01*
X0278000Y0096000D01*
X0278135Y0095145D01*
X0278403Y0094322D01*
X0278796Y0093551D01*
X0279305Y0092850D01*
X0279917Y0092238D01*
X0280617Y0091729D01*
X0281389Y0091336D01*
X0282212Y0091069D01*
X0283067Y0090933D01*
X0283300Y0090933D01*
X0283300Y0094069D02*
X0283700Y0094069D01*
X0283700Y0095668D02*
X0283300Y0095668D01*
X0283300Y0096633D02*
X0278000Y0096633D01*
X0278000Y0096866D01*
X0278135Y0097721D01*
X0278403Y0098545D01*
X0278796Y0099316D01*
X0279305Y0100016D01*
X0279917Y0100628D01*
X0280617Y0101137D01*
X0281389Y0101530D01*
X0282212Y0101798D01*
X0283067Y0101933D01*
X0283300Y0101933D01*
X0283300Y0096633D01*
X0283300Y0097266D02*
X0283700Y0097266D01*
X0283700Y0098865D02*
X0283300Y0098865D01*
X0283300Y0100463D02*
X0283700Y0100463D01*
X0279752Y0100463D02*
X0268697Y0100463D01*
X0269695Y0098865D02*
X0278566Y0098865D01*
X0278063Y0097266D02*
X0270200Y0097266D01*
X0270200Y0095668D02*
X0278053Y0095668D01*
X0278532Y0094069D02*
X0269723Y0094069D01*
X0268764Y0092471D02*
X0279684Y0092471D01*
X0266615Y0090872D02*
X0306585Y0090872D01*
X0311615Y0090872D02*
X0351585Y0090872D01*
X0350645Y0091262D02*
X0352887Y0090333D01*
X0355313Y0090333D01*
X0357555Y0091262D01*
X0359271Y0092978D01*
X0360200Y0095220D01*
X0360200Y0097647D01*
X0359271Y0099889D01*
X0357555Y0101605D01*
X0355313Y0102533D01*
X0352887Y0102533D01*
X0350645Y0101605D01*
X0348929Y0099889D01*
X0348000Y0097647D01*
X0348000Y0095220D01*
X0348929Y0092978D01*
X0350645Y0091262D01*
X0349436Y0092471D02*
X0332316Y0092471D01*
X0332083Y0092238D02*
X0332695Y0092850D01*
X0333204Y0093551D01*
X0333597Y0094322D01*
X0333865Y0095145D01*
X0334000Y0096000D01*
X0334000Y0096233D01*
X0328700Y0096233D01*
X0328700Y0090933D01*
X0328933Y0090933D01*
X0329788Y0091069D01*
X0330611Y0091336D01*
X0331383Y0091729D01*
X0332083Y0092238D01*
X0333468Y0094069D02*
X0348477Y0094069D01*
X0348000Y0095668D02*
X0333947Y0095668D01*
X0334000Y0096633D02*
X0334000Y0096866D01*
X0333865Y0097721D01*
X0333597Y0098545D01*
X0333204Y0099316D01*
X0332695Y0100016D01*
X0332083Y0100628D01*
X0331383Y0101137D01*
X0330611Y0101530D01*
X0329788Y0101798D01*
X0328933Y0101933D01*
X0328700Y0101933D01*
X0328700Y0096633D01*
X0334000Y0096633D01*
X0333937Y0097266D02*
X0348000Y0097266D01*
X0348505Y0098865D02*
X0333434Y0098865D01*
X0332248Y0100463D02*
X0349503Y0100463D01*
X0351748Y0102062D02*
X0311452Y0102062D01*
X0313697Y0100463D02*
X0324752Y0100463D01*
X0324917Y0100628D02*
X0324305Y0100016D01*
X0323796Y0099316D01*
X0323403Y0098545D01*
X0323135Y0097721D01*
X0323000Y0096866D01*
X0323000Y0096633D01*
X0328300Y0096633D01*
X0328300Y0096233D01*
X0328700Y0096233D01*
X0328700Y0096633D01*
X0328300Y0096633D01*
X0328300Y0101933D01*
X0328067Y0101933D01*
X0327212Y0101798D01*
X0326389Y0101530D01*
X0325617Y0101137D01*
X0324917Y0100628D01*
X0323566Y0098865D02*
X0314695Y0098865D01*
X0315200Y0097266D02*
X0323063Y0097266D01*
X0323000Y0096233D02*
X0323000Y0096000D01*
X0323135Y0095145D01*
X0323403Y0094322D01*
X0323796Y0093551D01*
X0324305Y0092850D01*
X0324917Y0092238D01*
X0325617Y0091729D01*
X0326389Y0091336D01*
X0327212Y0091069D01*
X0328067Y0090933D01*
X0328300Y0090933D01*
X0328300Y0096233D01*
X0323000Y0096233D01*
X0323053Y0095668D02*
X0315200Y0095668D01*
X0314723Y0094069D02*
X0323532Y0094069D01*
X0324684Y0092471D02*
X0313764Y0092471D01*
X0306748Y0102062D02*
X0266452Y0102062D01*
X0261748Y0102062D02*
X0234481Y0102062D01*
X0235872Y0103660D02*
X0233064Y0103660D01*
X0234273Y0105259D02*
X0231466Y0105259D01*
X0232675Y0106857D02*
X0229867Y0106857D01*
X0231076Y0108456D02*
X0221092Y0108456D01*
X0223548Y0110054D02*
X0229478Y0110054D01*
X0227879Y0111653D02*
X0224634Y0111653D01*
X0225200Y0113251D02*
X0226281Y0113251D01*
X0231286Y0116448D02*
X0232815Y0116448D01*
X0232400Y0115447D02*
X0232400Y0115335D01*
X0216443Y0131292D01*
X0215523Y0131673D01*
X0216106Y0131970D01*
X0216666Y0132377D01*
X0217156Y0132867D01*
X0217563Y0133427D01*
X0217878Y0134044D01*
X0218092Y0134703D01*
X0218200Y0135387D01*
X0218200Y0138333D01*
X0213800Y0138333D01*
X0209400Y0138333D01*
X0209400Y0135387D01*
X0209508Y0134703D01*
X0209722Y0134044D01*
X0210037Y0133427D01*
X0210444Y0132867D01*
X0210934Y0132377D01*
X0211494Y0131970D01*
X0211959Y0131733D01*
X0205641Y0131733D01*
X0206106Y0131970D01*
X0206666Y0132377D01*
X0207156Y0132867D01*
X0207563Y0133427D01*
X0207878Y0134044D01*
X0208092Y0134703D01*
X0208200Y0135387D01*
X0208200Y0138333D01*
X0203800Y0138333D01*
X0199400Y0138333D01*
X0199400Y0135387D01*
X0199508Y0134703D01*
X0199722Y0134044D01*
X0200037Y0133427D01*
X0200444Y0132867D01*
X0200934Y0132377D01*
X0201494Y0131970D01*
X0201959Y0131733D01*
X0157723Y0131733D01*
X0156657Y0131292D01*
X0152041Y0126676D01*
X0151600Y0125610D01*
X0151600Y0119552D01*
X0151400Y0119635D01*
X0151400Y0174332D01*
X0166501Y0189433D01*
X0168740Y0189433D01*
X0168000Y0187647D01*
X0168000Y0185220D01*
X0168929Y0182978D01*
X0170645Y0181262D01*
X0172887Y0180333D01*
X0175313Y0180333D01*
X0177555Y0181262D01*
X0179271Y0182978D01*
X0180200Y0185220D01*
X0180200Y0187647D01*
X0179460Y0189433D01*
X0188881Y0189433D01*
X0188796Y0189316D01*
X0188403Y0188545D01*
X0188135Y0187721D01*
X0188000Y0186866D01*
X0188000Y0186633D01*
X0193300Y0186633D01*
X0193300Y0186233D01*
X0193700Y0186233D01*
X0193700Y0180933D01*
X0193933Y0180933D01*
X0194788Y0181069D01*
X0195611Y0181336D01*
X0196383Y0181729D01*
X0197083Y0182238D01*
X0197695Y0182850D01*
X0198204Y0183551D01*
X0198597Y0184322D01*
X0198865Y0185145D01*
X0199000Y0186000D01*
X0199000Y0186233D01*
X0193700Y0186233D01*
X0193700Y0186633D01*
X0199000Y0186633D01*
X0199000Y0186866D01*
X0198865Y0187721D01*
X0198597Y0188545D01*
X0198204Y0189316D01*
X0198119Y0189433D01*
X0213740Y0189433D01*
X0213000Y0187647D01*
X0213000Y0185220D01*
X0213929Y0182978D01*
X0215645Y0181262D01*
X0217887Y0180333D01*
X0220313Y0180333D01*
X0222555Y0181262D01*
X0224271Y0182978D01*
X0225200Y0185220D01*
X0225200Y0187647D01*
X0224460Y0189433D01*
X0233881Y0189433D01*
X0233796Y0189316D01*
X0233403Y0188545D01*
X0233135Y0187721D01*
X0233000Y0186866D01*
X0233000Y0186633D01*
X0238300Y0186633D01*
X0238300Y0186233D01*
X0238700Y0186233D01*
X0238700Y0180933D01*
X0238933Y0180933D01*
X0239788Y0181069D01*
X0240611Y0181336D01*
X0241383Y0181729D01*
X0242083Y0182238D01*
X0242695Y0182850D01*
X0243204Y0183551D01*
X0243597Y0184322D01*
X0243865Y0185145D01*
X0244000Y0186000D01*
X0244000Y0186233D01*
X0238700Y0186233D01*
X0238700Y0186633D01*
X0244000Y0186633D01*
X0244000Y0186866D01*
X0243865Y0187721D01*
X0243597Y0188545D01*
X0243204Y0189316D01*
X0242695Y0190016D01*
X0242140Y0190572D01*
X0258697Y0207129D01*
X0258000Y0205447D01*
X0258000Y0203020D01*
X0258929Y0200778D01*
X0260645Y0199062D01*
X0262887Y0198133D01*
X0265313Y0198133D01*
X0267555Y0199062D01*
X0268600Y0200107D01*
X0268600Y0190560D01*
X0267555Y0191605D01*
X0265313Y0192533D01*
X0262887Y0192533D01*
X0260645Y0191605D01*
X0258929Y0189889D01*
X0258000Y0187647D01*
X0258000Y0185220D01*
X0258929Y0182978D01*
X0260645Y0181262D01*
X0262887Y0180333D01*
X0265313Y0180333D01*
X0267555Y0181262D01*
X0268600Y0182307D01*
X0268600Y0166659D01*
X0264475Y0162533D01*
X0259171Y0162533D01*
X0257371Y0164333D01*
X0253229Y0164333D01*
X0250300Y0161404D01*
X0250300Y0157262D01*
X0253229Y0154333D01*
X0257371Y0154333D01*
X0259171Y0156133D01*
X0266437Y0156133D01*
X0267613Y0156620D01*
X0268513Y0157521D01*
X0274513Y0163521D01*
X0275000Y0164697D01*
X0275000Y0211008D01*
X0284331Y0220339D01*
X0284587Y0220233D01*
X0287013Y0220233D01*
X0289255Y0221162D01*
X0290800Y0222707D01*
X0292345Y0221162D01*
X0294587Y0220233D01*
X0297013Y0220233D01*
X0299255Y0221162D01*
X0300800Y0222707D01*
X0302345Y0221162D01*
X0304587Y0220233D01*
X0307013Y0220233D01*
X0309255Y0221162D01*
X0310800Y0222707D01*
X0312345Y0221162D01*
X0314587Y0220233D01*
X0315900Y0220233D01*
X0315900Y0181535D01*
X0311657Y0177292D01*
X0310841Y0176476D01*
X0310400Y0175410D01*
X0310400Y0136535D01*
X0305099Y0131233D01*
X0297023Y0131233D01*
X0295957Y0130792D01*
X0295141Y0129976D01*
X0285269Y0120103D01*
X0284713Y0120333D01*
X0282287Y0120333D01*
X0280045Y0119405D01*
X0278329Y0117689D01*
X0277400Y0115447D01*
X0277400Y0113020D01*
X0278329Y0110778D01*
X0280045Y0109062D01*
X0282045Y0108233D01*
X0265555Y0108233D01*
X0267555Y0109062D01*
X0269271Y0110778D01*
X0270200Y0113020D01*
X0270200Y0115447D01*
X0269271Y0117689D01*
X0267555Y0119405D01*
X0265313Y0120333D01*
X0262887Y0120333D01*
X0260645Y0119405D01*
X0258929Y0117689D01*
X0258000Y0115447D01*
X0258000Y0113020D01*
X0258929Y0110778D01*
X0260645Y0109062D01*
X0262645Y0108233D01*
X0239955Y0108233D01*
X0241955Y0109062D01*
X0243671Y0110778D01*
X0244600Y0113020D01*
X0244600Y0115447D01*
X0243671Y0117689D01*
X0241955Y0119405D01*
X0239713Y0120333D01*
X0237287Y0120333D01*
X0235045Y0119405D01*
X0233329Y0117689D01*
X0232400Y0115447D01*
X0233687Y0118047D02*
X0229688Y0118047D01*
X0228089Y0119645D02*
X0235626Y0119645D01*
X0241374Y0119645D02*
X0261226Y0119645D01*
X0259287Y0118047D02*
X0243313Y0118047D01*
X0244185Y0116448D02*
X0258415Y0116448D01*
X0258000Y0114850D02*
X0244600Y0114850D01*
X0244600Y0113251D02*
X0258000Y0113251D01*
X0258566Y0111653D02*
X0244034Y0111653D01*
X0242948Y0110054D02*
X0259652Y0110054D01*
X0262108Y0108456D02*
X0240492Y0108456D01*
X0242248Y0100463D02*
X0259503Y0100463D01*
X0258505Y0098865D02*
X0243434Y0098865D01*
X0243937Y0097266D02*
X0258000Y0097266D01*
X0258000Y0095668D02*
X0243947Y0095668D01*
X0243468Y0094069D02*
X0258477Y0094069D01*
X0259436Y0092471D02*
X0242316Y0092471D01*
X0238700Y0092471D02*
X0238300Y0092471D01*
X0238300Y0094069D02*
X0238700Y0094069D01*
X0238700Y0095668D02*
X0238300Y0095668D01*
X0238300Y0097266D02*
X0238700Y0097266D01*
X0238700Y0098865D02*
X0238300Y0098865D01*
X0238300Y0100463D02*
X0238700Y0100463D01*
X0227677Y0098865D02*
X0224695Y0098865D01*
X0225200Y0097266D02*
X0227700Y0097266D01*
X0227700Y0095668D02*
X0225200Y0095668D01*
X0224723Y0094069D02*
X0227700Y0094069D01*
X0227700Y0092471D02*
X0223764Y0092471D01*
X0221615Y0090872D02*
X0227700Y0090872D01*
X0227700Y0089274D02*
X0142200Y0089274D01*
X0142200Y0090872D02*
X0171585Y0090872D01*
X0169436Y0092471D02*
X0152316Y0092471D01*
X0153468Y0094069D02*
X0168477Y0094069D01*
X0168000Y0095668D02*
X0153947Y0095668D01*
X0153937Y0097266D02*
X0168000Y0097266D01*
X0168505Y0098865D02*
X0153434Y0098865D01*
X0152248Y0100463D02*
X0169503Y0100463D01*
X0178697Y0100463D02*
X0189752Y0100463D01*
X0188566Y0098865D02*
X0179695Y0098865D01*
X0180200Y0097266D02*
X0188063Y0097266D01*
X0188053Y0095668D02*
X0180200Y0095668D01*
X0179723Y0094069D02*
X0188532Y0094069D01*
X0189684Y0092471D02*
X0178764Y0092471D01*
X0176615Y0090872D02*
X0216585Y0090872D01*
X0214436Y0092471D02*
X0197316Y0092471D01*
X0198468Y0094069D02*
X0213477Y0094069D01*
X0213000Y0095668D02*
X0198947Y0095668D01*
X0198937Y0097266D02*
X0213000Y0097266D01*
X0213505Y0098865D02*
X0198434Y0098865D01*
X0197248Y0100463D02*
X0214503Y0100463D01*
X0223697Y0100463D02*
X0226079Y0100463D01*
X0234900Y0090872D02*
X0261585Y0090872D01*
X0260738Y0080933D02*
X0255700Y0075896D01*
X0255700Y0068771D01*
X0260738Y0063733D01*
X0267862Y0063733D01*
X0272900Y0068771D01*
X0272900Y0075896D01*
X0267862Y0080933D01*
X0260738Y0080933D01*
X0259487Y0079683D02*
X0234900Y0079683D01*
X0234900Y0081281D02*
X0373600Y0081281D01*
X0373600Y0079683D02*
X0289113Y0079683D01*
X0287862Y0080933D02*
X0280738Y0080933D01*
X0275700Y0075896D01*
X0275700Y0068771D01*
X0280738Y0063733D01*
X0287862Y0063733D01*
X0292900Y0068771D01*
X0292900Y0075896D01*
X0287862Y0080933D01*
X0290711Y0078084D02*
X0373600Y0078084D01*
X0373600Y0076486D02*
X0292310Y0076486D01*
X0292900Y0074887D02*
X0373600Y0074887D01*
X0373600Y0073289D02*
X0292900Y0073289D01*
X0292900Y0071690D02*
X0373600Y0071690D01*
X0373600Y0070092D02*
X0292900Y0070092D01*
X0292622Y0068493D02*
X0373600Y0068493D01*
X0373600Y0066895D02*
X0329842Y0066895D01*
X0329327Y0067410D02*
X0326998Y0068375D01*
X0316602Y0068375D01*
X0314273Y0067410D01*
X0312491Y0065628D01*
X0311526Y0063299D01*
X0311526Y0060778D01*
X0312491Y0058448D01*
X0314273Y0056666D01*
X0316602Y0055701D01*
X0326998Y0055701D01*
X0329327Y0056666D01*
X0331109Y0058448D01*
X0332074Y0060778D01*
X0332074Y0063299D01*
X0331109Y0065628D01*
X0329327Y0067410D01*
X0331247Y0065296D02*
X0373600Y0065296D01*
X0373600Y0063698D02*
X0331909Y0063698D01*
X0332074Y0062099D02*
X0373600Y0062099D01*
X0373600Y0060501D02*
X0331959Y0060501D01*
X0331297Y0058902D02*
X0336867Y0058902D01*
X0337108Y0059143D02*
X0335325Y0057360D01*
X0334361Y0055031D01*
X0334361Y0044636D01*
X0335325Y0042307D01*
X0337108Y0040524D01*
X0339437Y0039559D01*
X0341958Y0039559D01*
X0344287Y0040524D01*
X0346070Y0042307D01*
X0347035Y0044636D01*
X0347035Y0055031D01*
X0346070Y0057360D01*
X0344287Y0059143D01*
X0341958Y0060107D01*
X0339437Y0060107D01*
X0337108Y0059143D01*
X0335302Y0057304D02*
X0329964Y0057304D01*
X0327007Y0055705D02*
X0334640Y0055705D01*
X0334361Y0054107D02*
X0218996Y0054107D01*
X0218392Y0055705D02*
X0316593Y0055705D01*
X0313636Y0057304D02*
X0220296Y0057304D01*
X0221894Y0058902D02*
X0312303Y0058902D01*
X0311641Y0060501D02*
X0223493Y0060501D01*
X0225091Y0062099D02*
X0311526Y0062099D01*
X0311691Y0063698D02*
X0226690Y0063698D01*
X0228288Y0065296D02*
X0259175Y0065296D01*
X0257576Y0066895D02*
X0229887Y0066895D01*
X0231485Y0068493D02*
X0255978Y0068493D01*
X0255700Y0070092D02*
X0233649Y0070092D01*
X0234723Y0071690D02*
X0255700Y0071690D01*
X0255700Y0073289D02*
X0234900Y0073289D01*
X0234900Y0074887D02*
X0255700Y0074887D01*
X0256290Y0076486D02*
X0234900Y0076486D01*
X0234900Y0078084D02*
X0257889Y0078084D01*
X0269113Y0079683D02*
X0279487Y0079683D01*
X0277889Y0078084D02*
X0270711Y0078084D01*
X0272310Y0076486D02*
X0276290Y0076486D01*
X0275700Y0074887D02*
X0272900Y0074887D01*
X0272900Y0073289D02*
X0275700Y0073289D01*
X0275700Y0071690D02*
X0272900Y0071690D01*
X0272900Y0070092D02*
X0275700Y0070092D01*
X0275978Y0068493D02*
X0272622Y0068493D01*
X0271024Y0066895D02*
X0277576Y0066895D01*
X0279175Y0065296D02*
X0269425Y0065296D01*
X0289425Y0065296D02*
X0312353Y0065296D01*
X0313758Y0066895D02*
X0291024Y0066895D01*
X0286334Y0048333D02*
X0284266Y0048333D01*
X0282354Y0047542D01*
X0280892Y0046079D01*
X0280100Y0044168D01*
X0280100Y0036499D01*
X0280892Y0034588D01*
X0282354Y0033125D01*
X0284266Y0032333D01*
X0286334Y0032333D01*
X0288246Y0033125D01*
X0289708Y0034588D01*
X0290500Y0036499D01*
X0290500Y0044168D01*
X0289708Y0046079D01*
X0288246Y0047542D01*
X0286334Y0048333D01*
X0287833Y0047712D02*
X0334361Y0047712D01*
X0334361Y0046114D02*
X0289673Y0046114D01*
X0290356Y0044515D02*
X0334410Y0044515D01*
X0335073Y0042917D02*
X0329804Y0042917D01*
X0329327Y0043395D02*
X0326998Y0044359D01*
X0316602Y0044359D01*
X0314273Y0043395D01*
X0312491Y0041612D01*
X0311526Y0039283D01*
X0311526Y0036762D01*
X0312491Y0034433D01*
X0314273Y0032650D01*
X0316602Y0031685D01*
X0326998Y0031685D01*
X0329327Y0032650D01*
X0331109Y0034433D01*
X0332074Y0036762D01*
X0332074Y0039283D01*
X0331109Y0041612D01*
X0329327Y0043395D01*
X0331231Y0041318D02*
X0336314Y0041318D01*
X0339049Y0039720D02*
X0331893Y0039720D01*
X0332074Y0038121D02*
X0373600Y0038121D01*
X0373600Y0036523D02*
X0331975Y0036523D01*
X0331313Y0034924D02*
X0373600Y0034924D01*
X0373600Y0033326D02*
X0330002Y0033326D01*
X0327099Y0031727D02*
X0373600Y0031727D01*
X0373600Y0030129D02*
X0005500Y0030129D01*
X0005500Y0031727D02*
X0124269Y0031727D01*
X0122671Y0033326D02*
X0005500Y0033326D01*
X0005500Y0034924D02*
X0122400Y0034924D01*
X0122400Y0036523D02*
X0005500Y0036523D01*
X0005500Y0038121D02*
X0122451Y0038121D01*
X0124050Y0039720D02*
X0005500Y0039720D01*
X0005500Y0041318D02*
X0125527Y0041318D01*
X0123928Y0042917D02*
X0005500Y0042917D01*
X0005500Y0044515D02*
X0123000Y0044515D01*
X0123000Y0046114D02*
X0005500Y0046114D01*
X0005500Y0047712D02*
X0123000Y0047712D01*
X0124489Y0049311D02*
X0005500Y0049311D01*
X0005500Y0050910D02*
X0125087Y0050910D01*
X0123489Y0052508D02*
X0005500Y0052508D01*
X0005500Y0054107D02*
X0029416Y0054107D01*
X0030196Y0053783D02*
X0032404Y0053783D01*
X0034444Y0054628D01*
X0036005Y0056190D01*
X0036850Y0058229D01*
X0036850Y0060437D01*
X0036005Y0062477D01*
X0034444Y0064038D01*
X0032404Y0064883D01*
X0030196Y0064883D01*
X0028156Y0064038D01*
X0026595Y0062477D01*
X0025750Y0060437D01*
X0025750Y0058229D01*
X0026595Y0056190D01*
X0028156Y0054628D01*
X0030196Y0053783D01*
X0033184Y0054107D02*
X0056304Y0054107D01*
X0056977Y0053433D02*
X0054400Y0056011D01*
X0054400Y0057833D01*
X0058800Y0057833D01*
X0058800Y0053433D01*
X0058800Y0057833D01*
X0058800Y0057833D01*
X0058800Y0057833D01*
X0058800Y0057833D01*
X0063200Y0057833D01*
X0063200Y0056011D01*
X0060623Y0053433D01*
X0058800Y0053433D01*
X0056977Y0053433D01*
X0058800Y0054107D02*
X0058800Y0054107D01*
X0058800Y0055705D02*
X0058800Y0055705D01*
X0058800Y0057304D02*
X0058800Y0057304D01*
X0058800Y0057833D02*
X0054400Y0057833D01*
X0054400Y0059656D01*
X0056977Y0062233D01*
X0058800Y0062233D01*
X0058800Y0057833D01*
X0063200Y0057833D01*
X0063200Y0059656D01*
X0060623Y0062233D01*
X0058800Y0062233D01*
X0058800Y0057833D01*
X0058800Y0057833D01*
X0058800Y0058902D02*
X0058800Y0058902D01*
X0058800Y0060501D02*
X0058800Y0060501D01*
X0058800Y0062099D02*
X0058800Y0062099D01*
X0060757Y0062099D02*
X0123897Y0062099D01*
X0124831Y0060501D02*
X0062355Y0060501D01*
X0063200Y0058902D02*
X0123232Y0058902D01*
X0122400Y0057304D02*
X0063200Y0057304D01*
X0062894Y0055705D02*
X0122400Y0055705D01*
X0122400Y0054107D02*
X0061296Y0054107D01*
X0054706Y0055705D02*
X0035521Y0055705D01*
X0036466Y0057304D02*
X0054400Y0057304D01*
X0054400Y0058902D02*
X0036850Y0058902D01*
X0036824Y0060501D02*
X0055245Y0060501D01*
X0056843Y0062099D02*
X0036162Y0062099D01*
X0034785Y0063698D02*
X0055865Y0063698D01*
X0054266Y0065296D02*
X0005500Y0065296D01*
X0005500Y0063698D02*
X0027815Y0063698D01*
X0026438Y0062099D02*
X0005500Y0062099D01*
X0005500Y0060501D02*
X0025776Y0060501D01*
X0025750Y0058902D02*
X0005500Y0058902D01*
X0005500Y0057304D02*
X0026133Y0057304D01*
X0027079Y0055705D02*
X0005500Y0055705D01*
X0005500Y0066895D02*
X0053800Y0066895D01*
X0053800Y0068493D02*
X0034309Y0068493D01*
X0035907Y0070092D02*
X0053987Y0070092D01*
X0063613Y0070092D02*
X0114940Y0070092D01*
X0116539Y0068493D02*
X0063800Y0068493D01*
X0063800Y0066895D02*
X0118137Y0066895D01*
X0119736Y0065296D02*
X0063334Y0065296D01*
X0061735Y0063698D02*
X0121334Y0063698D01*
X0130769Y0060501D02*
X0140935Y0060501D01*
X0140300Y0058902D02*
X0132368Y0058902D01*
X0133200Y0057304D02*
X0140300Y0057304D01*
X0140712Y0055705D02*
X0133200Y0055705D01*
X0133200Y0054107D02*
X0141666Y0054107D01*
X0143941Y0052508D02*
X0132111Y0052508D01*
X0130513Y0050910D02*
X0141931Y0050910D01*
X0141118Y0049311D02*
X0131111Y0049311D01*
X0132600Y0047712D02*
X0149000Y0047712D01*
X0149600Y0047712D02*
X0194300Y0047712D01*
X0194300Y0046114D02*
X0157404Y0046114D01*
X0156493Y0044515D02*
X0194300Y0044515D01*
X0194300Y0042917D02*
X0155222Y0042917D01*
X0157176Y0041318D02*
X0194300Y0041318D01*
X0197500Y0039033D02*
X0196300Y0037833D01*
X0149300Y0037833D01*
X0142446Y0033326D02*
X0132929Y0033326D01*
X0133200Y0034924D02*
X0141035Y0034924D01*
X0140373Y0036523D02*
X0133200Y0036523D01*
X0133149Y0038121D02*
X0140300Y0038121D01*
X0140612Y0039720D02*
X0131550Y0039720D01*
X0130073Y0041318D02*
X0141424Y0041318D01*
X0143378Y0042917D02*
X0131672Y0042917D01*
X0132600Y0044515D02*
X0142107Y0044515D01*
X0141196Y0046114D02*
X0132600Y0046114D01*
X0154659Y0052508D02*
X0194300Y0052508D01*
X0194300Y0050910D02*
X0156669Y0050910D01*
X0157482Y0049311D02*
X0194300Y0049311D01*
X0197500Y0052307D02*
X0197500Y0039033D01*
X0199515Y0036523D02*
X0203090Y0036523D01*
X0197639Y0034924D02*
X0271510Y0034924D01*
X0271366Y0035122D02*
X0271791Y0034537D01*
X0272303Y0034025D01*
X0272889Y0033599D01*
X0273534Y0033270D01*
X0274223Y0033047D01*
X0274938Y0032933D01*
X0275200Y0032933D01*
X0275200Y0040233D01*
X0275400Y0040233D01*
X0275400Y0032933D01*
X0275662Y0032933D01*
X0276377Y0033047D01*
X0277066Y0033270D01*
X0277711Y0033599D01*
X0278297Y0034025D01*
X0278809Y0034537D01*
X0279234Y0035122D01*
X0279563Y0035768D01*
X0279787Y0036456D01*
X0279900Y0037171D01*
X0279900Y0040233D01*
X0275400Y0040233D01*
X0275400Y0040433D01*
X0279900Y0040433D01*
X0279900Y0043495D01*
X0279787Y0044210D01*
X0279563Y0044899D01*
X0279234Y0045544D01*
X0278809Y0046130D01*
X0278297Y0046642D01*
X0277711Y0047068D01*
X0277066Y0047396D01*
X0276377Y0047620D01*
X0275662Y0047733D01*
X0275400Y0047733D01*
X0275400Y0040433D01*
X0275200Y0040433D01*
X0275200Y0040233D01*
X0270700Y0040233D01*
X0270700Y0037171D01*
X0270813Y0036456D01*
X0271037Y0035768D01*
X0271366Y0035122D01*
X0270803Y0036523D02*
X0213510Y0036523D01*
X0216124Y0038121D02*
X0270700Y0038121D01*
X0270700Y0039720D02*
X0217723Y0039720D01*
X0218857Y0041318D02*
X0270700Y0041318D01*
X0270700Y0040433D02*
X0275200Y0040433D01*
X0275200Y0047733D01*
X0274938Y0047733D01*
X0274223Y0047620D01*
X0273534Y0047396D01*
X0272889Y0047068D01*
X0272303Y0046642D01*
X0271791Y0046130D01*
X0271366Y0045544D01*
X0271037Y0044899D01*
X0270813Y0044210D01*
X0270700Y0043495D01*
X0270700Y0040433D01*
X0270700Y0042917D02*
X0219780Y0042917D01*
X0220248Y0044515D02*
X0270912Y0044515D01*
X0271780Y0046114D02*
X0220677Y0046114D01*
X0220700Y0047712D02*
X0274806Y0047712D01*
X0275200Y0047712D02*
X0275400Y0047712D01*
X0275794Y0047712D02*
X0282767Y0047712D01*
X0280927Y0046114D02*
X0278820Y0046114D01*
X0279688Y0044515D02*
X0280244Y0044515D01*
X0280100Y0042917D02*
X0279900Y0042917D01*
X0279900Y0041318D02*
X0280100Y0041318D01*
X0280100Y0039720D02*
X0279900Y0039720D01*
X0279900Y0038121D02*
X0280100Y0038121D01*
X0280100Y0036523D02*
X0279797Y0036523D01*
X0279090Y0034924D02*
X0280752Y0034924D01*
X0282154Y0033326D02*
X0277175Y0033326D01*
X0275400Y0033326D02*
X0275200Y0033326D01*
X0275200Y0034924D02*
X0275400Y0034924D01*
X0275400Y0036523D02*
X0275200Y0036523D01*
X0275200Y0038121D02*
X0275400Y0038121D01*
X0275400Y0039720D02*
X0275200Y0039720D01*
X0275200Y0041318D02*
X0275400Y0041318D01*
X0275400Y0042917D02*
X0275200Y0042917D01*
X0275200Y0044515D02*
X0275400Y0044515D01*
X0275400Y0046114D02*
X0275200Y0046114D01*
X0290500Y0042917D02*
X0313796Y0042917D01*
X0312369Y0041318D02*
X0290500Y0041318D01*
X0290500Y0039720D02*
X0311707Y0039720D01*
X0311526Y0038121D02*
X0290500Y0038121D01*
X0290500Y0036523D02*
X0311625Y0036523D01*
X0312287Y0034924D02*
X0289848Y0034924D01*
X0288446Y0033326D02*
X0313598Y0033326D01*
X0316501Y0031727D02*
X0131331Y0031727D01*
X0156154Y0033326D02*
X0273425Y0033326D01*
X0220700Y0049311D02*
X0334361Y0049311D01*
X0334361Y0050910D02*
X0220313Y0050910D01*
X0219885Y0052508D02*
X0334361Y0052508D01*
X0344528Y0058902D02*
X0373600Y0058902D01*
X0373600Y0057304D02*
X0346093Y0057304D01*
X0346755Y0055705D02*
X0373600Y0055705D01*
X0373600Y0054107D02*
X0347035Y0054107D01*
X0347035Y0052508D02*
X0373600Y0052508D01*
X0373600Y0050910D02*
X0347035Y0050910D01*
X0347035Y0049311D02*
X0373600Y0049311D01*
X0373600Y0047712D02*
X0347035Y0047712D01*
X0347035Y0046114D02*
X0373600Y0046114D01*
X0373600Y0044515D02*
X0346985Y0044515D01*
X0346323Y0042917D02*
X0373600Y0042917D01*
X0373600Y0041318D02*
X0345082Y0041318D01*
X0342346Y0039720D02*
X0373600Y0039720D01*
X0373600Y0028530D02*
X0005500Y0028530D01*
X0005500Y0068493D02*
X0028291Y0068493D01*
X0026693Y0070092D02*
X0005500Y0070092D01*
X0005500Y0071690D02*
X0025750Y0071690D01*
X0025750Y0073289D02*
X0005500Y0073289D01*
X0005500Y0074887D02*
X0025750Y0074887D01*
X0026603Y0076486D02*
X0005500Y0076486D01*
X0005500Y0078084D02*
X0028202Y0078084D01*
X0031300Y0073333D02*
X0088800Y0073333D01*
X0084524Y0078084D02*
X0034398Y0078084D01*
X0038229Y0083333D02*
X0042371Y0083333D01*
X0045300Y0086262D01*
X0045300Y0090404D01*
X0042371Y0093333D01*
X0038229Y0093333D01*
X0035300Y0090404D01*
X0035300Y0086262D01*
X0038229Y0083333D01*
X0037084Y0084478D02*
X0022082Y0084478D01*
X0022366Y0084570D02*
X0021677Y0084347D01*
X0020962Y0084233D01*
X0017900Y0084233D01*
X0017900Y0088733D01*
X0017700Y0088733D01*
X0017700Y0084233D01*
X0014638Y0084233D01*
X0013923Y0084347D01*
X0013234Y0084570D01*
X0012589Y0084899D01*
X0012003Y0085325D01*
X0011491Y0085837D01*
X0011066Y0086422D01*
X0010737Y0087068D01*
X0010513Y0087756D01*
X0010400Y0088471D01*
X0010400Y0088733D01*
X0017700Y0088733D01*
X0017700Y0088933D01*
X0010400Y0088933D01*
X0010400Y0089195D01*
X0010513Y0089910D01*
X0010737Y0090599D01*
X0011066Y0091244D01*
X0011491Y0091830D01*
X0012003Y0092342D01*
X0012589Y0092768D01*
X0013234Y0093096D01*
X0013923Y0093320D01*
X0014638Y0093433D01*
X0017700Y0093433D01*
X0017700Y0088933D01*
X0017900Y0088933D01*
X0025200Y0088933D01*
X0025200Y0089195D01*
X0025087Y0089910D01*
X0024863Y0090599D01*
X0024534Y0091244D01*
X0024109Y0091830D01*
X0023597Y0092342D01*
X0023011Y0092768D01*
X0022366Y0093096D01*
X0021677Y0093320D01*
X0020962Y0093433D01*
X0017900Y0093433D01*
X0017900Y0088933D01*
X0017900Y0088733D01*
X0025200Y0088733D01*
X0025200Y0088471D01*
X0025087Y0087756D01*
X0024863Y0087068D01*
X0024534Y0086422D01*
X0024109Y0085837D01*
X0023597Y0085325D01*
X0023011Y0084899D01*
X0022366Y0084570D01*
X0024283Y0086077D02*
X0035486Y0086077D01*
X0035300Y0087675D02*
X0025060Y0087675D01*
X0025188Y0089274D02*
X0035300Y0089274D01*
X0035768Y0090872D02*
X0024724Y0090872D01*
X0023419Y0092471D02*
X0037366Y0092471D01*
X0043234Y0092471D02*
X0067366Y0092471D01*
X0068229Y0093333D02*
X0065300Y0090404D01*
X0065300Y0086262D01*
X0068229Y0083333D01*
X0072371Y0083333D01*
X0075300Y0086262D01*
X0075300Y0090404D01*
X0072371Y0093333D01*
X0068229Y0093333D01*
X0065768Y0090872D02*
X0044832Y0090872D01*
X0045300Y0089274D02*
X0065300Y0089274D01*
X0065300Y0087675D02*
X0045300Y0087675D01*
X0045114Y0086077D02*
X0065486Y0086077D01*
X0067084Y0084478D02*
X0043516Y0084478D01*
X0025008Y0095888D02*
X0023546Y0094425D01*
X0021634Y0093633D01*
X0013966Y0093633D01*
X0012054Y0094425D01*
X0010592Y0095888D01*
X0009800Y0097799D01*
X0009800Y0099868D01*
X0010592Y0101779D01*
X0012054Y0103242D01*
X0013966Y0104033D01*
X0021634Y0104033D01*
X0023546Y0103242D01*
X0025008Y0101779D01*
X0025800Y0099868D01*
X0025800Y0097799D01*
X0025008Y0095888D01*
X0024788Y0095668D02*
X0082100Y0095668D01*
X0082100Y0097266D02*
X0025579Y0097266D01*
X0025800Y0098865D02*
X0082100Y0098865D01*
X0082100Y0100463D02*
X0025553Y0100463D01*
X0024725Y0102062D02*
X0082100Y0102062D01*
X0082100Y0103660D02*
X0022535Y0103660D01*
X0029061Y0107501D02*
X0030468Y0106095D01*
X0032305Y0105333D01*
X0034295Y0105333D01*
X0036132Y0106095D01*
X0037539Y0107501D01*
X0038300Y0109339D01*
X0038300Y0111328D01*
X0037539Y0113166D01*
X0036132Y0114572D01*
X0034295Y0115333D01*
X0032305Y0115333D01*
X0030468Y0114572D01*
X0029061Y0113166D01*
X0028300Y0111328D01*
X0028300Y0109339D01*
X0029061Y0107501D01*
X0029705Y0106857D02*
X0005500Y0106857D01*
X0005500Y0105259D02*
X0082100Y0105259D01*
X0082100Y0106857D02*
X0066002Y0106857D01*
X0066166Y0106977D02*
X0066656Y0107467D01*
X0067063Y0108027D01*
X0067378Y0108644D01*
X0067592Y0109303D01*
X0067700Y0109987D01*
X0067700Y0110333D01*
X0063300Y0110333D01*
X0063300Y0105933D01*
X0063300Y0110333D01*
X0063300Y0110333D01*
X0058900Y0110333D01*
X0058900Y0109987D01*
X0059008Y0109303D01*
X0059222Y0108644D01*
X0059537Y0108027D01*
X0059944Y0107467D01*
X0060434Y0106977D01*
X0060994Y0106570D01*
X0061611Y0106256D01*
X0062270Y0106042D01*
X0062954Y0105933D01*
X0063300Y0105933D01*
X0063646Y0105933D01*
X0064330Y0106042D01*
X0064989Y0106256D01*
X0065606Y0106570D01*
X0066166Y0106977D01*
X0067282Y0108456D02*
X0082100Y0108456D01*
X0082100Y0110054D02*
X0067700Y0110054D01*
X0067700Y0110333D02*
X0067700Y0110680D01*
X0067592Y0111364D01*
X0067378Y0112022D01*
X0067063Y0112639D01*
X0066656Y0113200D01*
X0066166Y0113689D01*
X0065606Y0114097D01*
X0064989Y0114411D01*
X0064330Y0114625D01*
X0063646Y0114733D01*
X0063300Y0114733D01*
X0062954Y0114733D01*
X0062270Y0114625D01*
X0061611Y0114411D01*
X0060994Y0114097D01*
X0060434Y0113689D01*
X0059944Y0113200D01*
X0059537Y0112639D01*
X0059222Y0112022D01*
X0059008Y0111364D01*
X0058900Y0110680D01*
X0058900Y0110333D01*
X0063300Y0110333D01*
X0063300Y0110333D01*
X0063300Y0110333D01*
X0067700Y0110333D01*
X0067498Y0111653D02*
X0082100Y0111653D01*
X0082100Y0113251D02*
X0066604Y0113251D01*
X0063300Y0113251D02*
X0063300Y0113251D01*
X0063300Y0114733D02*
X0063300Y0110333D01*
X0063300Y0110333D01*
X0063300Y0114733D01*
X0063300Y0111653D02*
X0063300Y0111653D01*
X0063300Y0110054D02*
X0063300Y0110054D01*
X0063300Y0108456D02*
X0063300Y0108456D01*
X0063300Y0106857D02*
X0063300Y0106857D01*
X0060598Y0106857D02*
X0056895Y0106857D01*
X0057539Y0107501D02*
X0058300Y0109339D01*
X0058300Y0111328D01*
X0057539Y0113166D01*
X0056132Y0114572D01*
X0054295Y0115333D01*
X0052305Y0115333D01*
X0050468Y0114572D01*
X0049061Y0113166D01*
X0048300Y0111328D01*
X0048300Y0109339D01*
X0049061Y0107501D01*
X0050468Y0106095D01*
X0052305Y0105333D01*
X0054295Y0105333D01*
X0056132Y0106095D01*
X0057539Y0107501D01*
X0057934Y0108456D02*
X0059318Y0108456D01*
X0058900Y0110054D02*
X0058300Y0110054D01*
X0058165Y0111653D02*
X0059102Y0111653D01*
X0059996Y0113251D02*
X0057453Y0113251D01*
X0055461Y0114850D02*
X0082100Y0114850D01*
X0082100Y0116448D02*
X0005500Y0116448D01*
X0005500Y0114850D02*
X0031139Y0114850D01*
X0029147Y0113251D02*
X0005500Y0113251D01*
X0005500Y0111653D02*
X0028435Y0111653D01*
X0028300Y0110054D02*
X0005500Y0110054D01*
X0005500Y0108456D02*
X0028666Y0108456D01*
X0036895Y0106857D02*
X0040598Y0106857D01*
X0040434Y0106977D02*
X0040994Y0106570D01*
X0041611Y0106256D01*
X0042270Y0106042D01*
X0042954Y0105933D01*
X0043300Y0105933D01*
X0043300Y0110333D01*
X0043300Y0105933D01*
X0043646Y0105933D01*
X0044330Y0106042D01*
X0044989Y0106256D01*
X0045606Y0106570D01*
X0046166Y0106977D01*
X0046656Y0107467D01*
X0047063Y0108027D01*
X0047378Y0108644D01*
X0047592Y0109303D01*
X0047700Y0109987D01*
X0047700Y0110333D01*
X0043300Y0110333D01*
X0043300Y0110333D01*
X0038900Y0110333D01*
X0038900Y0109987D01*
X0039008Y0109303D01*
X0039222Y0108644D01*
X0039537Y0108027D01*
X0039944Y0107467D01*
X0040434Y0106977D01*
X0039318Y0108456D02*
X0037934Y0108456D01*
X0038300Y0110054D02*
X0038900Y0110054D01*
X0038900Y0110333D02*
X0043300Y0110333D01*
X0043300Y0110333D01*
X0043300Y0110333D01*
X0047700Y0110333D01*
X0047700Y0110680D01*
X0047592Y0111364D01*
X0047378Y0112022D01*
X0047063Y0112639D01*
X0046656Y0113200D01*
X0046166Y0113689D01*
X0045606Y0114097D01*
X0044989Y0114411D01*
X0044330Y0114625D01*
X0043646Y0114733D01*
X0043300Y0114733D01*
X0042954Y0114733D01*
X0042270Y0114625D01*
X0041611Y0114411D01*
X0040994Y0114097D01*
X0040434Y0113689D01*
X0039944Y0113200D01*
X0039537Y0112639D01*
X0039222Y0112022D01*
X0039008Y0111364D01*
X0038900Y0110680D01*
X0038900Y0110333D01*
X0039102Y0111653D02*
X0038165Y0111653D01*
X0037453Y0113251D02*
X0039996Y0113251D01*
X0043300Y0113251D02*
X0043300Y0113251D01*
X0043300Y0114733D02*
X0043300Y0110333D01*
X0043300Y0110333D01*
X0043300Y0114733D01*
X0043300Y0111653D02*
X0043300Y0111653D01*
X0043300Y0110054D02*
X0043300Y0110054D01*
X0043300Y0108456D02*
X0043300Y0108456D01*
X0043300Y0106857D02*
X0043300Y0106857D01*
X0046002Y0106857D02*
X0049705Y0106857D01*
X0048666Y0108456D02*
X0047282Y0108456D01*
X0047700Y0110054D02*
X0048300Y0110054D01*
X0048435Y0111653D02*
X0047498Y0111653D01*
X0046604Y0113251D02*
X0049147Y0113251D01*
X0051139Y0114850D02*
X0035461Y0114850D01*
X0013065Y0103660D02*
X0005500Y0103660D01*
X0005500Y0102062D02*
X0010875Y0102062D01*
X0010047Y0100463D02*
X0005500Y0100463D01*
X0005500Y0098865D02*
X0009800Y0098865D01*
X0010021Y0097266D02*
X0005500Y0097266D01*
X0005500Y0095668D02*
X0010812Y0095668D01*
X0012913Y0094069D02*
X0005500Y0094069D01*
X0005500Y0092471D02*
X0012181Y0092471D01*
X0010876Y0090872D02*
X0005500Y0090872D01*
X0005500Y0089274D02*
X0010412Y0089274D01*
X0010540Y0087675D02*
X0005500Y0087675D01*
X0005500Y0086077D02*
X0011317Y0086077D01*
X0013518Y0084478D02*
X0005500Y0084478D01*
X0005500Y0082880D02*
X0082100Y0082880D01*
X0082100Y0084478D02*
X0073516Y0084478D01*
X0075114Y0086077D02*
X0082100Y0086077D01*
X0082100Y0087675D02*
X0075300Y0087675D01*
X0075300Y0089274D02*
X0082100Y0089274D01*
X0082100Y0090872D02*
X0074832Y0090872D01*
X0073234Y0092471D02*
X0082100Y0092471D01*
X0082100Y0094069D02*
X0022687Y0094069D01*
X0017900Y0092471D02*
X0017700Y0092471D01*
X0017700Y0090872D02*
X0017900Y0090872D01*
X0017900Y0089274D02*
X0017700Y0089274D01*
X0017700Y0087675D02*
X0017900Y0087675D01*
X0017900Y0086077D02*
X0017700Y0086077D01*
X0017700Y0084478D02*
X0017900Y0084478D01*
X0005500Y0081281D02*
X0082100Y0081281D01*
X0082925Y0079683D02*
X0005500Y0079683D01*
X0020074Y0135631D02*
X0031588Y0135631D01*
X0029333Y0137229D02*
X0018475Y0137229D01*
X0035012Y0135631D02*
X0041588Y0135631D01*
X0039333Y0137229D02*
X0037267Y0137229D01*
X0038088Y0138828D02*
X0038512Y0138828D01*
X0038300Y0140426D02*
X0038300Y0140426D01*
X0038011Y0142025D02*
X0038589Y0142025D01*
X0039519Y0143623D02*
X0037081Y0143623D01*
X0047081Y0143623D02*
X0049519Y0143623D01*
X0048589Y0142025D02*
X0048011Y0142025D01*
X0048300Y0140426D02*
X0048300Y0140426D01*
X0048088Y0138828D02*
X0048512Y0138828D01*
X0049333Y0137229D02*
X0047267Y0137229D01*
X0045012Y0135631D02*
X0051588Y0135631D01*
X0055012Y0135631D02*
X0061588Y0135631D01*
X0059333Y0137229D02*
X0057267Y0137229D01*
X0058088Y0138828D02*
X0058512Y0138828D01*
X0058300Y0140426D02*
X0058300Y0140426D01*
X0058011Y0142025D02*
X0058589Y0142025D01*
X0059519Y0143623D02*
X0057081Y0143623D01*
X0088500Y0145222D02*
X0107900Y0145222D01*
X0107900Y0146820D02*
X0088500Y0146820D01*
X0088500Y0148419D02*
X0107900Y0148419D01*
X0107900Y0150017D02*
X0088500Y0150017D01*
X0088500Y0151616D02*
X0107900Y0151616D01*
X0107900Y0153214D02*
X0088500Y0153214D01*
X0088500Y0154813D02*
X0107900Y0154813D01*
X0107900Y0156411D02*
X0088500Y0156411D01*
X0088500Y0158010D02*
X0107900Y0158010D01*
X0107900Y0159608D02*
X0088500Y0159608D01*
X0088500Y0161207D02*
X0107900Y0161207D01*
X0107900Y0162805D02*
X0088500Y0162805D01*
X0088500Y0164404D02*
X0107900Y0164404D01*
X0107900Y0166002D02*
X0088500Y0166002D01*
X0088500Y0167601D02*
X0107900Y0167601D01*
X0107900Y0169199D02*
X0088500Y0169199D01*
X0088500Y0170798D02*
X0107900Y0170798D01*
X0107900Y0172396D02*
X0088500Y0172396D01*
X0088500Y0173995D02*
X0107900Y0173995D01*
X0107900Y0175593D02*
X0088500Y0175593D01*
X0088500Y0177192D02*
X0107900Y0177192D01*
X0107900Y0178790D02*
X0088500Y0178790D01*
X0088500Y0180389D02*
X0107900Y0180389D01*
X0107900Y0181987D02*
X0088500Y0181987D01*
X0088500Y0183586D02*
X0107900Y0183586D01*
X0107900Y0185184D02*
X0088204Y0185184D01*
X0086541Y0186783D02*
X0107900Y0186783D01*
X0107900Y0188381D02*
X0018138Y0188381D01*
X0018138Y0189980D02*
X0107900Y0189980D01*
X0113700Y0191579D02*
X0133400Y0191579D01*
X0133400Y0193177D02*
X0113700Y0193177D01*
X0113700Y0194776D02*
X0133400Y0194776D01*
X0133400Y0196374D02*
X0113700Y0196374D01*
X0113700Y0197973D02*
X0133400Y0197973D01*
X0133400Y0199571D02*
X0113700Y0199571D01*
X0113700Y0201170D02*
X0133400Y0201170D01*
X0133400Y0202768D02*
X0131523Y0202768D01*
X0133100Y0204367D02*
X0133400Y0204367D01*
X0133400Y0205965D02*
X0133100Y0205965D01*
X0133100Y0207564D02*
X0133400Y0207564D01*
X0132370Y0209162D02*
X0132259Y0209162D01*
X0130771Y0210761D02*
X0130661Y0210761D01*
X0128500Y0205965D02*
X0128100Y0205965D01*
X0128100Y0204367D02*
X0128500Y0204367D01*
X0128500Y0202768D02*
X0128100Y0202768D01*
X0125077Y0202768D02*
X0113700Y0202768D01*
X0134178Y0215556D02*
X0200297Y0215556D01*
X0198699Y0213958D02*
X0135777Y0213958D01*
X0137375Y0212359D02*
X0197100Y0212359D01*
X0195502Y0210761D02*
X0138848Y0210761D01*
X0139200Y0209162D02*
X0144802Y0209162D01*
X0143277Y0207564D02*
X0139200Y0207564D01*
X0139200Y0205965D02*
X0142615Y0205965D01*
X0142400Y0204367D02*
X0139200Y0204367D01*
X0139200Y0202768D02*
X0142504Y0202768D01*
X0143166Y0201170D02*
X0139200Y0201170D01*
X0139200Y0199571D02*
X0144536Y0199571D01*
X0139200Y0197973D02*
X0150235Y0197973D01*
X0151834Y0196374D02*
X0139200Y0196374D01*
X0139200Y0194776D02*
X0153432Y0194776D01*
X0155658Y0193177D02*
X0139200Y0193177D01*
X0139200Y0191579D02*
X0146537Y0191579D01*
X0148300Y0191579D02*
X0148700Y0191579D01*
X0148700Y0189980D02*
X0148300Y0189980D01*
X0148300Y0188381D02*
X0148700Y0188381D01*
X0148700Y0186783D02*
X0148300Y0186783D01*
X0148300Y0185184D02*
X0148700Y0185184D01*
X0148700Y0183586D02*
X0148300Y0183586D01*
X0148300Y0181987D02*
X0148700Y0181987D01*
X0149254Y0180389D02*
X0143346Y0180389D01*
X0144835Y0178790D02*
X0147656Y0178790D01*
X0146057Y0177192D02*
X0145200Y0177192D01*
X0145200Y0175593D02*
X0145600Y0175593D01*
X0151400Y0173995D02*
X0199790Y0173995D01*
X0199561Y0173766D02*
X0198800Y0171928D01*
X0198800Y0164739D01*
X0199561Y0162901D01*
X0200968Y0161495D01*
X0202805Y0160733D01*
X0204795Y0160733D01*
X0206632Y0161495D01*
X0208039Y0162901D01*
X0208800Y0164739D01*
X0208800Y0171928D01*
X0208039Y0173766D01*
X0206632Y0175172D01*
X0204795Y0175933D01*
X0202805Y0175933D01*
X0200968Y0175172D01*
X0199561Y0173766D01*
X0198994Y0172396D02*
X0151400Y0172396D01*
X0151400Y0170798D02*
X0198800Y0170798D01*
X0198800Y0169199D02*
X0151400Y0169199D01*
X0151400Y0167601D02*
X0198800Y0167601D01*
X0198800Y0166002D02*
X0151400Y0166002D01*
X0151400Y0164404D02*
X0198939Y0164404D01*
X0199657Y0162805D02*
X0151400Y0162805D01*
X0151400Y0161207D02*
X0201662Y0161207D01*
X0205938Y0161207D02*
X0220200Y0161207D01*
X0220200Y0162262D02*
X0220200Y0159617D01*
X0220748Y0158294D01*
X0221761Y0157281D01*
X0226761Y0152281D01*
X0228084Y0151733D01*
X0239809Y0151733D01*
X0252300Y0139242D01*
X0252300Y0137262D01*
X0255229Y0134333D01*
X0259371Y0134333D01*
X0262300Y0137262D01*
X0262300Y0141404D01*
X0259371Y0144333D01*
X0257391Y0144333D01*
X0244352Y0157373D01*
X0243339Y0158385D01*
X0242016Y0158933D01*
X0230291Y0158933D01*
X0227400Y0161824D01*
X0227400Y0162262D01*
X0228039Y0162901D01*
X0228800Y0164739D01*
X0229561Y0162901D01*
X0230968Y0161495D01*
X0232805Y0160733D01*
X0234795Y0160733D01*
X0236632Y0161495D01*
X0238039Y0162901D01*
X0238800Y0164739D01*
X0238800Y0171928D01*
X0238039Y0173766D01*
X0236632Y0175172D01*
X0234795Y0175933D01*
X0232805Y0175933D01*
X0230968Y0175172D01*
X0229561Y0173766D01*
X0228800Y0171928D01*
X0228800Y0164739D01*
X0228800Y0171928D01*
X0228039Y0173766D01*
X0226632Y0175172D01*
X0224795Y0175933D01*
X0222805Y0175933D01*
X0220968Y0175172D01*
X0219561Y0173766D01*
X0218800Y0171928D01*
X0218800Y0164739D01*
X0219561Y0162901D01*
X0220200Y0162262D01*
X0219657Y0162805D02*
X0217095Y0162805D01*
X0217156Y0162867D02*
X0217563Y0163427D01*
X0217878Y0164044D01*
X0218092Y0164703D01*
X0218200Y0165387D01*
X0218200Y0168333D01*
X0213800Y0168333D01*
X0213800Y0161333D01*
X0214146Y0161333D01*
X0214830Y0161442D01*
X0215489Y0161656D01*
X0216106Y0161970D01*
X0216666Y0162377D01*
X0217156Y0162867D01*
X0217994Y0164404D02*
X0218939Y0164404D01*
X0218800Y0166002D02*
X0218200Y0166002D01*
X0218200Y0167601D02*
X0218800Y0167601D01*
X0218200Y0168333D02*
X0218200Y0171280D01*
X0218092Y0171964D01*
X0217878Y0172622D01*
X0217563Y0173239D01*
X0217156Y0173800D01*
X0216666Y0174289D01*
X0216106Y0174697D01*
X0215489Y0175011D01*
X0214830Y0175225D01*
X0214146Y0175333D01*
X0213800Y0175333D01*
X0213454Y0175333D01*
X0212770Y0175225D01*
X0212111Y0175011D01*
X0211494Y0174697D01*
X0210934Y0174289D01*
X0210444Y0173800D01*
X0210037Y0173239D01*
X0209722Y0172622D01*
X0209508Y0171964D01*
X0209400Y0171280D01*
X0209400Y0168333D01*
X0209400Y0165387D01*
X0209508Y0164703D01*
X0209722Y0164044D01*
X0210037Y0163427D01*
X0210444Y0162867D01*
X0210934Y0162377D01*
X0211494Y0161970D01*
X0212111Y0161656D01*
X0212770Y0161442D01*
X0213454Y0161333D01*
X0213800Y0161333D01*
X0213800Y0168333D01*
X0213800Y0168333D01*
X0213800Y0168333D01*
X0209400Y0168333D01*
X0213800Y0168333D01*
X0213800Y0168333D01*
X0218200Y0168333D01*
X0218200Y0169199D02*
X0218800Y0169199D01*
X0218800Y0170798D02*
X0218200Y0170798D01*
X0217951Y0172396D02*
X0218994Y0172396D01*
X0219790Y0173995D02*
X0216961Y0173995D01*
X0213800Y0173995D02*
X0213800Y0173995D01*
X0213800Y0175333D02*
X0213800Y0168333D01*
X0213800Y0168333D01*
X0213800Y0175333D01*
X0213800Y0172396D02*
X0213800Y0172396D01*
X0213800Y0170798D02*
X0213800Y0170798D01*
X0213800Y0169199D02*
X0213800Y0169199D01*
X0213800Y0167601D02*
X0213800Y0167601D01*
X0213800Y0166002D02*
X0213800Y0166002D01*
X0213800Y0164404D02*
X0213800Y0164404D01*
X0213800Y0162805D02*
X0213800Y0162805D01*
X0210505Y0162805D02*
X0207943Y0162805D01*
X0208661Y0164404D02*
X0209606Y0164404D01*
X0209400Y0166002D02*
X0208800Y0166002D01*
X0208800Y0167601D02*
X0209400Y0167601D01*
X0209400Y0169199D02*
X0208800Y0169199D01*
X0208800Y0170798D02*
X0209400Y0170798D01*
X0209649Y0172396D02*
X0208606Y0172396D01*
X0207809Y0173995D02*
X0210639Y0173995D01*
X0205615Y0175593D02*
X0221985Y0175593D01*
X0225615Y0175593D02*
X0231985Y0175593D01*
X0229790Y0173995D02*
X0227809Y0173995D01*
X0228606Y0172396D02*
X0228994Y0172396D01*
X0228800Y0170798D02*
X0228800Y0170798D01*
X0228800Y0169199D02*
X0228800Y0169199D01*
X0228800Y0167601D02*
X0228800Y0167601D01*
X0228800Y0166002D02*
X0228800Y0166002D01*
X0228661Y0164404D02*
X0228939Y0164404D01*
X0229657Y0162805D02*
X0227943Y0162805D01*
X0228018Y0161207D02*
X0231662Y0161207D01*
X0229616Y0159608D02*
X0250300Y0159608D01*
X0250300Y0158010D02*
X0243715Y0158010D01*
X0245313Y0156411D02*
X0251151Y0156411D01*
X0252750Y0154813D02*
X0246912Y0154813D01*
X0248510Y0153214D02*
X0310400Y0153214D01*
X0310400Y0151616D02*
X0250109Y0151616D01*
X0251707Y0150017D02*
X0310400Y0150017D01*
X0310400Y0148419D02*
X0253306Y0148419D01*
X0254904Y0146820D02*
X0310400Y0146820D01*
X0310400Y0145222D02*
X0256503Y0145222D01*
X0260081Y0143623D02*
X0294519Y0143623D01*
X0295229Y0144333D02*
X0292300Y0141404D01*
X0292300Y0137262D01*
X0295229Y0134333D01*
X0299371Y0134333D01*
X0302300Y0137262D01*
X0302300Y0141404D01*
X0299371Y0144333D01*
X0295229Y0144333D01*
X0292920Y0142025D02*
X0261680Y0142025D01*
X0262300Y0140426D02*
X0292300Y0140426D01*
X0292300Y0138828D02*
X0262300Y0138828D01*
X0262267Y0137229D02*
X0292333Y0137229D01*
X0293932Y0135631D02*
X0260668Y0135631D01*
X0253932Y0135631D02*
X0238200Y0135631D01*
X0238200Y0135387D02*
X0238200Y0138333D01*
X0233800Y0138333D01*
X0233800Y0131333D01*
X0234146Y0131333D01*
X0234830Y0131442D01*
X0235489Y0131656D01*
X0236106Y0131970D01*
X0236666Y0132377D01*
X0237156Y0132867D01*
X0237563Y0133427D01*
X0237878Y0134044D01*
X0238092Y0134703D01*
X0238200Y0135387D01*
X0237871Y0134032D02*
X0307898Y0134032D01*
X0309496Y0135631D02*
X0300668Y0135631D01*
X0302267Y0137229D02*
X0310400Y0137229D01*
X0310400Y0138828D02*
X0302300Y0138828D01*
X0302300Y0140426D02*
X0310400Y0140426D01*
X0310400Y0142025D02*
X0301680Y0142025D01*
X0300081Y0143623D02*
X0310400Y0143623D01*
X0316200Y0143623D02*
X0322489Y0143623D01*
X0324087Y0145222D02*
X0316200Y0145222D01*
X0316200Y0146820D02*
X0325686Y0146820D01*
X0327284Y0148419D02*
X0316200Y0148419D01*
X0316200Y0150017D02*
X0328883Y0150017D01*
X0330481Y0151616D02*
X0316200Y0151616D01*
X0316200Y0153214D02*
X0332080Y0153214D01*
X0333678Y0154813D02*
X0316200Y0154813D01*
X0316200Y0156411D02*
X0334900Y0156411D01*
X0334900Y0156035D02*
X0316200Y0137335D01*
X0316200Y0173632D01*
X0320443Y0177875D01*
X0321258Y0178691D01*
X0321700Y0179756D01*
X0321700Y0221807D01*
X0322345Y0221162D01*
X0324587Y0220233D01*
X0327013Y0220233D01*
X0327569Y0220463D01*
X0334900Y0213132D01*
X0334900Y0156035D01*
X0334900Y0158010D02*
X0316200Y0158010D01*
X0316200Y0159608D02*
X0334900Y0159608D01*
X0334900Y0161207D02*
X0316200Y0161207D01*
X0316200Y0162805D02*
X0334900Y0162805D01*
X0334900Y0164404D02*
X0316200Y0164404D01*
X0316200Y0166002D02*
X0321408Y0166002D01*
X0321477Y0165933D02*
X0318900Y0168511D01*
X0318900Y0170333D01*
X0323300Y0170333D01*
X0323300Y0165933D01*
X0323300Y0170333D01*
X0323300Y0170333D01*
X0323300Y0170333D01*
X0323300Y0170333D01*
X0327700Y0170333D01*
X0327700Y0168511D01*
X0325123Y0165933D01*
X0323300Y0165933D01*
X0321477Y0165933D01*
X0323300Y0166002D02*
X0323300Y0166002D01*
X0323300Y0167601D02*
X0323300Y0167601D01*
X0323300Y0169199D02*
X0323300Y0169199D01*
X0323300Y0170333D02*
X0318900Y0170333D01*
X0318900Y0172156D01*
X0321477Y0174733D01*
X0323300Y0174733D01*
X0323300Y0170333D01*
X0327700Y0170333D01*
X0327700Y0172156D01*
X0325123Y0174733D01*
X0323300Y0174733D01*
X0323300Y0170333D01*
X0323300Y0170333D01*
X0323300Y0170798D02*
X0323300Y0170798D01*
X0323300Y0172396D02*
X0323300Y0172396D01*
X0323300Y0173995D02*
X0323300Y0173995D01*
X0325861Y0173995D02*
X0334900Y0173995D01*
X0334900Y0175593D02*
X0318161Y0175593D01*
X0316563Y0173995D02*
X0320739Y0173995D01*
X0319141Y0172396D02*
X0316200Y0172396D01*
X0316200Y0170798D02*
X0318900Y0170798D01*
X0318900Y0169199D02*
X0316200Y0169199D01*
X0316200Y0167601D02*
X0319810Y0167601D01*
X0325192Y0166002D02*
X0334900Y0166002D01*
X0334900Y0167601D02*
X0326790Y0167601D01*
X0327700Y0169199D02*
X0334900Y0169199D01*
X0334900Y0170798D02*
X0327700Y0170798D01*
X0327459Y0172396D02*
X0334900Y0172396D01*
X0334900Y0177192D02*
X0319760Y0177192D01*
X0321300Y0178790D02*
X0334900Y0178790D01*
X0334900Y0180389D02*
X0321700Y0180389D01*
X0321700Y0181987D02*
X0325262Y0181987D01*
X0324917Y0182238D02*
X0325617Y0181729D01*
X0326389Y0181336D01*
X0327212Y0181069D01*
X0328067Y0180933D01*
X0328300Y0180933D01*
X0328300Y0186233D01*
X0328700Y0186233D01*
X0328700Y0180933D01*
X0328933Y0180933D01*
X0329788Y0181069D01*
X0330611Y0181336D01*
X0331383Y0181729D01*
X0332083Y0182238D01*
X0332695Y0182850D01*
X0333204Y0183551D01*
X0333597Y0184322D01*
X0333865Y0185145D01*
X0334000Y0186000D01*
X0334000Y0186233D01*
X0328700Y0186233D01*
X0328700Y0186633D01*
X0334000Y0186633D01*
X0334000Y0186866D01*
X0333865Y0187721D01*
X0333597Y0188545D01*
X0333204Y0189316D01*
X0332695Y0190016D01*
X0332083Y0190628D01*
X0331383Y0191137D01*
X0330611Y0191530D01*
X0329788Y0191798D01*
X0328933Y0191933D01*
X0328700Y0191933D01*
X0328700Y0186633D01*
X0328300Y0186633D01*
X0328300Y0186233D01*
X0323000Y0186233D01*
X0323000Y0186000D01*
X0323135Y0185145D01*
X0323403Y0184322D01*
X0323796Y0183551D01*
X0324305Y0182850D01*
X0324917Y0182238D01*
X0323778Y0183586D02*
X0321700Y0183586D01*
X0321700Y0185184D02*
X0323129Y0185184D01*
X0323000Y0186633D02*
X0328300Y0186633D01*
X0328300Y0191933D01*
X0328067Y0191933D01*
X0327212Y0191798D01*
X0326389Y0191530D01*
X0325617Y0191137D01*
X0324917Y0190628D01*
X0324305Y0190016D01*
X0323796Y0189316D01*
X0323403Y0188545D01*
X0323135Y0187721D01*
X0323000Y0186866D01*
X0323000Y0186633D01*
X0323000Y0186783D02*
X0321700Y0186783D01*
X0321700Y0188381D02*
X0323350Y0188381D01*
X0324278Y0189980D02*
X0321700Y0189980D01*
X0321700Y0191579D02*
X0326537Y0191579D01*
X0328300Y0191579D02*
X0328700Y0191579D01*
X0328700Y0189980D02*
X0328300Y0189980D01*
X0328300Y0188381D02*
X0328700Y0188381D01*
X0328700Y0186783D02*
X0328300Y0186783D01*
X0328300Y0185184D02*
X0328700Y0185184D01*
X0328700Y0183586D02*
X0328300Y0183586D01*
X0328300Y0181987D02*
X0328700Y0181987D01*
X0331738Y0181987D02*
X0334900Y0181987D01*
X0334900Y0183586D02*
X0333222Y0183586D01*
X0333871Y0185184D02*
X0334900Y0185184D01*
X0334900Y0186783D02*
X0334000Y0186783D01*
X0333650Y0188381D02*
X0334900Y0188381D01*
X0334900Y0189980D02*
X0332722Y0189980D01*
X0334900Y0191579D02*
X0330463Y0191579D01*
X0334900Y0193177D02*
X0321700Y0193177D01*
X0321700Y0194776D02*
X0334900Y0194776D01*
X0334900Y0196374D02*
X0321700Y0196374D01*
X0321700Y0197973D02*
X0334900Y0197973D01*
X0334900Y0199571D02*
X0332464Y0199571D01*
X0331955Y0199062D02*
X0333671Y0200778D01*
X0334600Y0203020D01*
X0334600Y0205447D01*
X0333671Y0207689D01*
X0331955Y0209405D01*
X0329713Y0210333D01*
X0327287Y0210333D01*
X0325045Y0209405D01*
X0323329Y0207689D01*
X0322400Y0205447D01*
X0322400Y0203020D01*
X0323329Y0200778D01*
X0325045Y0199062D01*
X0327287Y0198133D01*
X0329713Y0198133D01*
X0331955Y0199062D01*
X0333834Y0201170D02*
X0334900Y0201170D01*
X0334900Y0202768D02*
X0334496Y0202768D01*
X0334600Y0204367D02*
X0334900Y0204367D01*
X0334900Y0205965D02*
X0334385Y0205965D01*
X0334900Y0207564D02*
X0333723Y0207564D01*
X0334900Y0209162D02*
X0332198Y0209162D01*
X0334900Y0210761D02*
X0321700Y0210761D01*
X0321700Y0212359D02*
X0334900Y0212359D01*
X0334074Y0213958D02*
X0321700Y0213958D01*
X0321700Y0215556D02*
X0332476Y0215556D01*
X0330877Y0217155D02*
X0321700Y0217155D01*
X0321700Y0218753D02*
X0329279Y0218753D01*
X0327680Y0220352D02*
X0327299Y0220352D01*
X0324301Y0220352D02*
X0321700Y0220352D01*
X0315900Y0218753D02*
X0282745Y0218753D01*
X0281147Y0217155D02*
X0315900Y0217155D01*
X0315900Y0215556D02*
X0279548Y0215556D01*
X0277950Y0213958D02*
X0315900Y0213958D01*
X0315900Y0212359D02*
X0276351Y0212359D01*
X0275000Y0210761D02*
X0315900Y0210761D01*
X0315900Y0209162D02*
X0312798Y0209162D01*
X0312555Y0209405D02*
X0310313Y0210333D01*
X0307887Y0210333D01*
X0305645Y0209405D01*
X0303929Y0207689D01*
X0303000Y0205447D01*
X0303000Y0203020D01*
X0303929Y0200778D01*
X0305645Y0199062D01*
X0307887Y0198133D01*
X0310313Y0198133D01*
X0312555Y0199062D01*
X0314271Y0200778D01*
X0315200Y0203020D01*
X0315200Y0205447D01*
X0314271Y0207689D01*
X0312555Y0209405D01*
X0314323Y0207564D02*
X0315900Y0207564D01*
X0315900Y0205965D02*
X0314985Y0205965D01*
X0315200Y0204367D02*
X0315900Y0204367D01*
X0315900Y0202768D02*
X0315096Y0202768D01*
X0314434Y0201170D02*
X0315900Y0201170D01*
X0315900Y0199571D02*
X0313064Y0199571D01*
X0315900Y0197973D02*
X0275000Y0197973D01*
X0275000Y0199571D02*
X0279536Y0199571D01*
X0280045Y0199062D02*
X0278329Y0200778D01*
X0277400Y0203020D01*
X0277400Y0205447D01*
X0278329Y0207689D01*
X0280045Y0209405D01*
X0282287Y0210333D01*
X0284713Y0210333D01*
X0286955Y0209405D01*
X0288671Y0207689D01*
X0289600Y0205447D01*
X0289600Y0203020D01*
X0288671Y0200778D01*
X0286955Y0199062D01*
X0284713Y0198133D01*
X0282287Y0198133D01*
X0280045Y0199062D01*
X0278166Y0201170D02*
X0275000Y0201170D01*
X0275000Y0202768D02*
X0277504Y0202768D01*
X0277400Y0204367D02*
X0275000Y0204367D01*
X0275000Y0205965D02*
X0277615Y0205965D01*
X0278277Y0207564D02*
X0275000Y0207564D01*
X0275000Y0209162D02*
X0279802Y0209162D01*
X0287198Y0209162D02*
X0305402Y0209162D01*
X0303877Y0207564D02*
X0288723Y0207564D01*
X0289385Y0205965D02*
X0303215Y0205965D01*
X0303000Y0204367D02*
X0289600Y0204367D01*
X0289496Y0202768D02*
X0303104Y0202768D01*
X0303766Y0201170D02*
X0288834Y0201170D01*
X0287464Y0199571D02*
X0305136Y0199571D01*
X0315900Y0196374D02*
X0275000Y0196374D01*
X0275000Y0194776D02*
X0315900Y0194776D01*
X0315900Y0193177D02*
X0275000Y0193177D01*
X0275000Y0191579D02*
X0281537Y0191579D01*
X0281389Y0191530D02*
X0280617Y0191137D01*
X0279917Y0190628D01*
X0279305Y0190016D01*
X0278796Y0189316D01*
X0278403Y0188545D01*
X0278135Y0187721D01*
X0278000Y0186866D01*
X0278000Y0186633D01*
X0283300Y0186633D01*
X0283300Y0186233D01*
X0283700Y0186233D01*
X0283700Y0180933D01*
X0283933Y0180933D01*
X0284788Y0181069D01*
X0285611Y0181336D01*
X0286383Y0181729D01*
X0287083Y0182238D01*
X0287695Y0182850D01*
X0288204Y0183551D01*
X0288597Y0184322D01*
X0288865Y0185145D01*
X0289000Y0186000D01*
X0289000Y0186233D01*
X0283700Y0186233D01*
X0283700Y0186633D01*
X0289000Y0186633D01*
X0289000Y0186866D01*
X0288865Y0187721D01*
X0288597Y0188545D01*
X0288204Y0189316D01*
X0287695Y0190016D01*
X0287083Y0190628D01*
X0286383Y0191137D01*
X0285611Y0191530D01*
X0284788Y0191798D01*
X0283933Y0191933D01*
X0283700Y0191933D01*
X0283700Y0186633D01*
X0283300Y0186633D01*
X0283300Y0191933D01*
X0283067Y0191933D01*
X0282212Y0191798D01*
X0281389Y0191530D01*
X0283300Y0191579D02*
X0283700Y0191579D01*
X0283700Y0189980D02*
X0283300Y0189980D01*
X0283300Y0188381D02*
X0283700Y0188381D01*
X0283700Y0186783D02*
X0283300Y0186783D01*
X0283300Y0186233D02*
X0278000Y0186233D01*
X0278000Y0186000D01*
X0278135Y0185145D01*
X0278403Y0184322D01*
X0278796Y0183551D01*
X0279305Y0182850D01*
X0279917Y0182238D01*
X0280617Y0181729D01*
X0281389Y0181336D01*
X0282212Y0181069D01*
X0283067Y0180933D01*
X0283300Y0180933D01*
X0283300Y0186233D01*
X0283300Y0185184D02*
X0283700Y0185184D01*
X0283700Y0183586D02*
X0283300Y0183586D01*
X0283300Y0181987D02*
X0283700Y0181987D01*
X0286738Y0181987D02*
X0304919Y0181987D01*
X0305645Y0181262D02*
X0307887Y0180333D01*
X0310313Y0180333D01*
X0312555Y0181262D01*
X0314271Y0182978D01*
X0315200Y0185220D01*
X0315200Y0187647D01*
X0314271Y0189889D01*
X0312555Y0191605D01*
X0310313Y0192533D01*
X0307887Y0192533D01*
X0305645Y0191605D01*
X0303929Y0189889D01*
X0303000Y0187647D01*
X0303000Y0185220D01*
X0303929Y0182978D01*
X0305645Y0181262D01*
X0307752Y0180389D02*
X0275000Y0180389D01*
X0275000Y0181987D02*
X0280262Y0181987D01*
X0278778Y0183586D02*
X0275000Y0183586D01*
X0275000Y0185184D02*
X0278129Y0185184D01*
X0278000Y0186783D02*
X0275000Y0186783D01*
X0275000Y0188381D02*
X0278350Y0188381D01*
X0279278Y0189980D02*
X0275000Y0189980D01*
X0268600Y0191579D02*
X0267582Y0191579D01*
X0268600Y0193177D02*
X0244745Y0193177D01*
X0246343Y0194776D02*
X0268600Y0194776D01*
X0268600Y0196374D02*
X0247942Y0196374D01*
X0249540Y0197973D02*
X0268600Y0197973D01*
X0268600Y0199571D02*
X0268064Y0199571D01*
X0260136Y0199571D02*
X0251139Y0199571D01*
X0252737Y0201170D02*
X0258766Y0201170D01*
X0258104Y0202768D02*
X0254336Y0202768D01*
X0255934Y0204367D02*
X0258000Y0204367D01*
X0258215Y0205965D02*
X0257533Y0205965D01*
X0261204Y0209637D02*
X0262443Y0210875D01*
X0263258Y0211691D01*
X0263700Y0212756D01*
X0263700Y0220601D01*
X0264587Y0220233D01*
X0267013Y0220233D01*
X0269255Y0221162D01*
X0270971Y0222878D01*
X0271168Y0223352D01*
X0271605Y0222750D01*
X0272217Y0222138D01*
X0272917Y0221629D01*
X0273689Y0221236D01*
X0274512Y0220969D01*
X0275367Y0220833D01*
X0275600Y0220833D01*
X0275600Y0226133D01*
X0276000Y0226133D01*
X0276000Y0221059D01*
X0269987Y0215046D01*
X0269087Y0214146D01*
X0268600Y0212970D01*
X0268600Y0208360D01*
X0267555Y0209405D01*
X0265313Y0210333D01*
X0262887Y0210333D01*
X0261204Y0209637D01*
X0262329Y0210761D02*
X0268600Y0210761D01*
X0268600Y0212359D02*
X0263535Y0212359D01*
X0263700Y0213958D02*
X0269009Y0213958D01*
X0270497Y0215556D02*
X0263700Y0215556D01*
X0263700Y0217155D02*
X0272096Y0217155D01*
X0273694Y0218753D02*
X0263700Y0218753D01*
X0263700Y0220352D02*
X0264301Y0220352D01*
X0267299Y0220352D02*
X0275293Y0220352D01*
X0275600Y0221950D02*
X0276000Y0221950D01*
X0276000Y0223549D02*
X0275600Y0223549D01*
X0275600Y0225147D02*
X0276000Y0225147D01*
X0272476Y0221950D02*
X0270044Y0221950D01*
X0271800Y0212333D02*
X0271800Y0165333D01*
X0265800Y0159333D01*
X0255300Y0159333D01*
X0258899Y0162805D02*
X0264746Y0162805D01*
X0266345Y0164404D02*
X0238661Y0164404D01*
X0238800Y0166002D02*
X0267944Y0166002D01*
X0268600Y0167601D02*
X0238800Y0167601D01*
X0238800Y0169199D02*
X0268600Y0169199D01*
X0268600Y0170798D02*
X0238800Y0170798D01*
X0238606Y0172396D02*
X0268600Y0172396D01*
X0268600Y0173995D02*
X0237809Y0173995D01*
X0235615Y0175593D02*
X0268600Y0175593D01*
X0268600Y0177192D02*
X0154260Y0177192D01*
X0155858Y0178790D02*
X0268600Y0178790D01*
X0268600Y0180389D02*
X0265448Y0180389D01*
X0262752Y0180389D02*
X0220448Y0180389D01*
X0217752Y0180389D02*
X0175448Y0180389D01*
X0172752Y0180389D02*
X0157457Y0180389D01*
X0159055Y0181987D02*
X0169919Y0181987D01*
X0168677Y0183586D02*
X0160654Y0183586D01*
X0162252Y0185184D02*
X0168015Y0185184D01*
X0168000Y0186783D02*
X0163851Y0186783D01*
X0165449Y0188381D02*
X0168304Y0188381D01*
X0160444Y0191579D02*
X0150463Y0191579D01*
X0152722Y0189980D02*
X0158845Y0189980D01*
X0157247Y0188381D02*
X0153650Y0188381D01*
X0154000Y0186783D02*
X0155648Y0186783D01*
X0154050Y0185184D02*
X0153871Y0185184D01*
X0145262Y0181987D02*
X0141747Y0181987D01*
X0140149Y0183586D02*
X0143778Y0183586D01*
X0143129Y0185184D02*
X0139200Y0185184D01*
X0139200Y0186783D02*
X0143000Y0186783D01*
X0143350Y0188381D02*
X0139200Y0188381D01*
X0139200Y0189980D02*
X0144278Y0189980D01*
X0133400Y0189980D02*
X0117432Y0189980D01*
X0118581Y0188381D02*
X0133400Y0188381D01*
X0133400Y0186783D02*
X0129376Y0186783D01*
X0132076Y0185184D02*
X0133400Y0185184D01*
X0133400Y0183586D02*
X0133262Y0183586D01*
X0133900Y0181632D02*
X0139400Y0176132D01*
X0139400Y0172756D01*
X0139841Y0171691D01*
X0140657Y0170875D01*
X0141900Y0169632D01*
X0141900Y0144300D01*
X0141613Y0144419D01*
X0139987Y0144419D01*
X0138486Y0143797D01*
X0137922Y0143233D01*
X0133408Y0143233D01*
X0132971Y0144289D01*
X0131427Y0145833D01*
X0132971Y0147378D01*
X0133900Y0149620D01*
X0133900Y0152047D01*
X0132971Y0154289D01*
X0131427Y0155833D01*
X0132971Y0157378D01*
X0133900Y0159620D01*
X0133900Y0162047D01*
X0132971Y0164289D01*
X0131255Y0166005D01*
X0130781Y0166201D01*
X0131383Y0166638D01*
X0131995Y0167250D01*
X0132504Y0167951D01*
X0132897Y0168722D01*
X0133165Y0169545D01*
X0133300Y0170400D01*
X0133300Y0170633D01*
X0128000Y0170633D01*
X0128000Y0171033D01*
X0133300Y0171033D01*
X0133300Y0171266D01*
X0133165Y0172121D01*
X0132897Y0172945D01*
X0132504Y0173716D01*
X0131995Y0174416D01*
X0131383Y0175028D01*
X0130781Y0175466D01*
X0131255Y0175662D01*
X0132971Y0177378D01*
X0133900Y0179620D01*
X0133900Y0181632D01*
X0133900Y0180389D02*
X0135143Y0180389D01*
X0133556Y0178790D02*
X0136742Y0178790D01*
X0138340Y0177192D02*
X0132785Y0177192D01*
X0131090Y0175593D02*
X0139400Y0175593D01*
X0139400Y0173995D02*
X0132301Y0173995D01*
X0133075Y0172396D02*
X0139549Y0172396D01*
X0140657Y0170875D02*
X0140657Y0170875D01*
X0140734Y0170798D02*
X0128000Y0170798D01*
X0127600Y0170798D02*
X0118900Y0170798D01*
X0118900Y0172396D02*
X0122525Y0172396D01*
X0122435Y0172121D02*
X0122703Y0172945D01*
X0123096Y0173716D01*
X0123605Y0174416D01*
X0124217Y0175028D01*
X0124819Y0175466D01*
X0124345Y0175662D01*
X0122773Y0177233D01*
X0121291Y0177233D01*
X0120352Y0176294D01*
X0118900Y0174842D01*
X0118900Y0117824D01*
X0128291Y0108433D01*
X0135457Y0108433D01*
X0135214Y0109021D01*
X0135214Y0110646D01*
X0135836Y0112148D01*
X0136986Y0113297D01*
X0138487Y0113919D01*
X0140113Y0113919D01*
X0140600Y0113717D01*
X0140600Y0119932D01*
X0138800Y0121732D01*
X0137443Y0120375D01*
X0137443Y0120375D01*
X0135443Y0118375D01*
X0134377Y0117933D01*
X0133201Y0117933D01*
X0132971Y0117378D01*
X0131255Y0115662D01*
X0129013Y0114733D01*
X0126587Y0114733D01*
X0124345Y0115662D01*
X0122629Y0117378D01*
X0121700Y0119620D01*
X0121700Y0122047D01*
X0122629Y0124289D01*
X0124173Y0125833D01*
X0122629Y0127378D01*
X0121700Y0129620D01*
X0121700Y0132047D01*
X0122629Y0134289D01*
X0124173Y0135833D01*
X0122629Y0137378D01*
X0121700Y0139620D01*
X0121700Y0142047D01*
X0122629Y0144289D01*
X0124173Y0145833D01*
X0122629Y0147378D01*
X0121700Y0149620D01*
X0121700Y0152047D01*
X0122629Y0154289D01*
X0124173Y0155833D01*
X0122629Y0157378D01*
X0121700Y0159620D01*
X0121700Y0162047D01*
X0122629Y0164289D01*
X0124345Y0166005D01*
X0124819Y0166201D01*
X0124217Y0166638D01*
X0123605Y0167250D01*
X0123096Y0167951D01*
X0122703Y0168722D01*
X0122435Y0169545D01*
X0122300Y0170400D01*
X0122300Y0170633D01*
X0127600Y0170633D01*
X0127600Y0171033D01*
X0122300Y0171033D01*
X0122300Y0171266D01*
X0122435Y0172121D01*
X0123299Y0173995D02*
X0118900Y0173995D01*
X0119651Y0175593D02*
X0124510Y0175593D01*
X0122815Y0177192D02*
X0121250Y0177192D01*
X0117300Y0178333D02*
X0114800Y0180833D01*
X0114800Y0186833D01*
X0118886Y0186783D02*
X0126224Y0186783D01*
X0123524Y0185184D02*
X0118539Y0185184D01*
X0118900Y0169199D02*
X0122548Y0169199D01*
X0123350Y0167601D02*
X0118900Y0167601D01*
X0118900Y0166002D02*
X0124342Y0166002D01*
X0122744Y0164404D02*
X0118900Y0164404D01*
X0118900Y0162805D02*
X0122014Y0162805D01*
X0121700Y0161207D02*
X0118900Y0161207D01*
X0118900Y0159608D02*
X0121705Y0159608D01*
X0122367Y0158010D02*
X0118900Y0158010D01*
X0118900Y0156411D02*
X0123595Y0156411D01*
X0123153Y0154813D02*
X0118900Y0154813D01*
X0118900Y0153214D02*
X0122184Y0153214D01*
X0121700Y0151616D02*
X0118900Y0151616D01*
X0118900Y0150017D02*
X0121700Y0150017D01*
X0122198Y0148419D02*
X0118900Y0148419D01*
X0118900Y0146820D02*
X0123186Y0146820D01*
X0123562Y0145222D02*
X0118900Y0145222D01*
X0118900Y0143623D02*
X0122353Y0143623D01*
X0121700Y0142025D02*
X0118900Y0142025D01*
X0118900Y0140426D02*
X0121700Y0140426D01*
X0122028Y0138828D02*
X0118900Y0138828D01*
X0118900Y0137229D02*
X0122777Y0137229D01*
X0123971Y0135631D02*
X0118900Y0135631D01*
X0118900Y0134032D02*
X0122522Y0134032D01*
X0121860Y0132434D02*
X0118900Y0132434D01*
X0118900Y0130835D02*
X0121700Y0130835D01*
X0121859Y0129237D02*
X0118900Y0129237D01*
X0118900Y0127638D02*
X0122521Y0127638D01*
X0123967Y0126040D02*
X0118900Y0126040D01*
X0118900Y0124441D02*
X0122781Y0124441D01*
X0122030Y0122843D02*
X0118900Y0122843D01*
X0118900Y0121244D02*
X0121700Y0121244D01*
X0121700Y0119645D02*
X0118900Y0119645D01*
X0118900Y0118047D02*
X0122352Y0118047D01*
X0123558Y0116448D02*
X0120276Y0116448D01*
X0121875Y0114850D02*
X0126305Y0114850D01*
X0129295Y0114850D02*
X0140600Y0114850D01*
X0140600Y0116448D02*
X0132042Y0116448D01*
X0134651Y0118047D02*
X0140600Y0118047D01*
X0140600Y0119645D02*
X0136713Y0119645D01*
X0138312Y0121244D02*
X0139288Y0121244D01*
X0151400Y0121244D02*
X0151600Y0121244D01*
X0151600Y0119645D02*
X0151400Y0119645D01*
X0151400Y0122843D02*
X0151600Y0122843D01*
X0151600Y0124441D02*
X0151400Y0124441D01*
X0151400Y0126040D02*
X0151778Y0126040D01*
X0151400Y0127638D02*
X0153004Y0127638D01*
X0154602Y0129237D02*
X0151400Y0129237D01*
X0151400Y0130835D02*
X0156201Y0130835D01*
X0151400Y0132434D02*
X0200877Y0132434D01*
X0199729Y0134032D02*
X0151400Y0134032D01*
X0151400Y0135631D02*
X0199400Y0135631D01*
X0199400Y0137229D02*
X0151400Y0137229D01*
X0151400Y0138828D02*
X0199400Y0138828D01*
X0199400Y0138333D02*
X0203800Y0138333D01*
X0203800Y0138333D01*
X0203800Y0138333D01*
X0208200Y0138333D01*
X0208200Y0141280D01*
X0208092Y0141964D01*
X0207878Y0142622D01*
X0207563Y0143239D01*
X0207156Y0143800D01*
X0206666Y0144289D01*
X0206106Y0144697D01*
X0205489Y0145011D01*
X0204830Y0145225D01*
X0204146Y0145333D01*
X0203800Y0145333D01*
X0203454Y0145333D01*
X0202770Y0145225D01*
X0202111Y0145011D01*
X0201494Y0144697D01*
X0200934Y0144289D01*
X0200444Y0143800D01*
X0200037Y0143239D01*
X0199722Y0142622D01*
X0199508Y0141964D01*
X0199400Y0141280D01*
X0199400Y0138333D01*
X0199400Y0140426D02*
X0151400Y0140426D01*
X0151400Y0142025D02*
X0199528Y0142025D01*
X0200316Y0143623D02*
X0151400Y0143623D01*
X0151400Y0145222D02*
X0202760Y0145222D01*
X0203800Y0145222D02*
X0203800Y0145222D01*
X0203800Y0145333D02*
X0203800Y0138333D01*
X0203800Y0138333D01*
X0203800Y0145333D01*
X0204840Y0145222D02*
X0212760Y0145222D01*
X0212770Y0145225D02*
X0212111Y0145011D01*
X0211494Y0144697D01*
X0210934Y0144289D01*
X0210444Y0143800D01*
X0210037Y0143239D01*
X0209722Y0142622D01*
X0209508Y0141964D01*
X0209400Y0141280D01*
X0209400Y0138333D01*
X0213800Y0138333D01*
X0213800Y0138333D01*
X0213800Y0138333D01*
X0218200Y0138333D01*
X0218200Y0141280D01*
X0218092Y0141964D01*
X0217878Y0142622D01*
X0217563Y0143239D01*
X0217156Y0143800D01*
X0216666Y0144289D01*
X0216106Y0144697D01*
X0215489Y0145011D01*
X0214830Y0145225D01*
X0214146Y0145333D01*
X0213800Y0145333D01*
X0213454Y0145333D01*
X0212770Y0145225D01*
X0213800Y0145222D02*
X0213800Y0145222D01*
X0213800Y0145333D02*
X0213800Y0138333D01*
X0213800Y0138333D01*
X0213800Y0145333D01*
X0214840Y0145222D02*
X0222760Y0145222D01*
X0222770Y0145225D02*
X0222111Y0145011D01*
X0221494Y0144697D01*
X0220934Y0144289D01*
X0220444Y0143800D01*
X0220037Y0143239D01*
X0219722Y0142622D01*
X0219508Y0141964D01*
X0219400Y0141280D01*
X0219400Y0138333D01*
X0219400Y0135387D01*
X0219508Y0134703D01*
X0219722Y0134044D01*
X0220037Y0133427D01*
X0220444Y0132867D01*
X0220934Y0132377D01*
X0221494Y0131970D01*
X0222111Y0131656D01*
X0222770Y0131442D01*
X0223454Y0131333D01*
X0223800Y0131333D01*
X0224146Y0131333D01*
X0224830Y0131442D01*
X0225489Y0131656D01*
X0226106Y0131970D01*
X0226666Y0132377D01*
X0227156Y0132867D01*
X0227563Y0133427D01*
X0227878Y0134044D01*
X0228092Y0134703D01*
X0228200Y0135387D01*
X0228200Y0138333D01*
X0223800Y0138333D01*
X0223800Y0131333D01*
X0223800Y0138333D01*
X0223800Y0138333D01*
X0223800Y0138333D01*
X0219400Y0138333D01*
X0223800Y0138333D01*
X0223800Y0138333D01*
X0228200Y0138333D01*
X0228200Y0141280D01*
X0228092Y0141964D01*
X0227878Y0142622D01*
X0227563Y0143239D01*
X0227156Y0143800D01*
X0226666Y0144289D01*
X0226106Y0144697D01*
X0225489Y0145011D01*
X0224830Y0145225D01*
X0224146Y0145333D01*
X0223800Y0145333D01*
X0223454Y0145333D01*
X0222770Y0145225D01*
X0223800Y0145222D02*
X0223800Y0145222D01*
X0223800Y0145333D02*
X0223800Y0138333D01*
X0223800Y0138333D01*
X0223800Y0145333D01*
X0224840Y0145222D02*
X0232760Y0145222D01*
X0232770Y0145225D02*
X0232111Y0145011D01*
X0231494Y0144697D01*
X0230934Y0144289D01*
X0230444Y0143800D01*
X0230037Y0143239D01*
X0229722Y0142622D01*
X0229508Y0141964D01*
X0229400Y0141280D01*
X0229400Y0138333D01*
X0229400Y0135387D01*
X0229508Y0134703D01*
X0229722Y0134044D01*
X0230037Y0133427D01*
X0230444Y0132867D01*
X0230934Y0132377D01*
X0231494Y0131970D01*
X0232111Y0131656D01*
X0232770Y0131442D01*
X0233454Y0131333D01*
X0233800Y0131333D01*
X0233800Y0138333D01*
X0233800Y0138333D01*
X0233800Y0138333D01*
X0229400Y0138333D01*
X0233800Y0138333D01*
X0233800Y0138333D01*
X0238200Y0138333D01*
X0238200Y0141280D01*
X0238092Y0141964D01*
X0237878Y0142622D01*
X0237563Y0143239D01*
X0237156Y0143800D01*
X0236666Y0144289D01*
X0236106Y0144697D01*
X0235489Y0145011D01*
X0234830Y0145225D01*
X0234146Y0145333D01*
X0233800Y0145333D01*
X0233454Y0145333D01*
X0232770Y0145225D01*
X0233800Y0145222D02*
X0233800Y0145222D01*
X0233800Y0145333D02*
X0233800Y0138333D01*
X0233800Y0138333D01*
X0233800Y0145333D01*
X0234840Y0145222D02*
X0246320Y0145222D01*
X0244722Y0146820D02*
X0151400Y0146820D01*
X0151400Y0148419D02*
X0243123Y0148419D01*
X0241525Y0150017D02*
X0151400Y0150017D01*
X0151400Y0151616D02*
X0239926Y0151616D01*
X0225828Y0153214D02*
X0151400Y0153214D01*
X0151400Y0154813D02*
X0224229Y0154813D01*
X0222631Y0156411D02*
X0151400Y0156411D01*
X0151400Y0158010D02*
X0221032Y0158010D01*
X0220204Y0159608D02*
X0151400Y0159608D01*
X0141900Y0159608D02*
X0133895Y0159608D01*
X0133900Y0161207D02*
X0141900Y0161207D01*
X0141900Y0162805D02*
X0133586Y0162805D01*
X0132856Y0164404D02*
X0141900Y0164404D01*
X0141900Y0166002D02*
X0131258Y0166002D01*
X0132250Y0167601D02*
X0141900Y0167601D01*
X0141900Y0169199D02*
X0133052Y0169199D01*
X0152661Y0175593D02*
X0201985Y0175593D01*
X0193300Y0180933D02*
X0193300Y0186233D01*
X0188000Y0186233D01*
X0188000Y0186000D01*
X0188135Y0185145D01*
X0188403Y0184322D01*
X0188796Y0183551D01*
X0189305Y0182850D01*
X0189917Y0182238D01*
X0190617Y0181729D01*
X0191389Y0181336D01*
X0192212Y0181069D01*
X0193067Y0180933D01*
X0193300Y0180933D01*
X0193300Y0181987D02*
X0193700Y0181987D01*
X0193700Y0183586D02*
X0193300Y0183586D01*
X0193300Y0185184D02*
X0193700Y0185184D01*
X0196738Y0181987D02*
X0214919Y0181987D01*
X0213677Y0183586D02*
X0198222Y0183586D01*
X0198871Y0185184D02*
X0213015Y0185184D01*
X0213000Y0186783D02*
X0199000Y0186783D01*
X0198650Y0188381D02*
X0213304Y0188381D01*
X0224896Y0188381D02*
X0233350Y0188381D01*
X0233000Y0186783D02*
X0225200Y0186783D01*
X0225185Y0185184D02*
X0233129Y0185184D01*
X0233135Y0185145D02*
X0233403Y0184322D01*
X0233796Y0183551D01*
X0234305Y0182850D01*
X0234917Y0182238D01*
X0235617Y0181729D01*
X0236389Y0181336D01*
X0237212Y0181069D01*
X0238067Y0180933D01*
X0238300Y0180933D01*
X0238300Y0186233D01*
X0233000Y0186233D01*
X0233000Y0186000D01*
X0233135Y0185145D01*
X0233778Y0183586D02*
X0224523Y0183586D01*
X0223281Y0181987D02*
X0235262Y0181987D01*
X0238300Y0181987D02*
X0238700Y0181987D01*
X0238700Y0183586D02*
X0238300Y0183586D01*
X0238300Y0185184D02*
X0238700Y0185184D01*
X0241738Y0181987D02*
X0259919Y0181987D01*
X0258677Y0183586D02*
X0243222Y0183586D01*
X0243871Y0185184D02*
X0258015Y0185184D01*
X0258000Y0186783D02*
X0244000Y0186783D01*
X0243650Y0188381D02*
X0258304Y0188381D01*
X0259020Y0189980D02*
X0242722Y0189980D01*
X0243146Y0191579D02*
X0260618Y0191579D01*
X0268281Y0181987D02*
X0268600Y0181987D01*
X0275000Y0178790D02*
X0313156Y0178790D01*
X0311557Y0177192D02*
X0275000Y0177192D01*
X0275000Y0175593D02*
X0310476Y0175593D01*
X0310400Y0173995D02*
X0275000Y0173995D01*
X0275000Y0172396D02*
X0310400Y0172396D01*
X0310400Y0170798D02*
X0275000Y0170798D01*
X0275000Y0169199D02*
X0310400Y0169199D01*
X0310400Y0167601D02*
X0275000Y0167601D01*
X0275000Y0166002D02*
X0310400Y0166002D01*
X0310400Y0164404D02*
X0274879Y0164404D01*
X0273797Y0162805D02*
X0291701Y0162805D01*
X0290300Y0161404D02*
X0290300Y0157262D01*
X0293229Y0154333D01*
X0297371Y0154333D01*
X0300300Y0157262D01*
X0300300Y0161404D01*
X0297371Y0164333D01*
X0293229Y0164333D01*
X0290300Y0161404D01*
X0290300Y0161207D02*
X0272199Y0161207D01*
X0270600Y0159608D02*
X0290300Y0159608D01*
X0290300Y0158010D02*
X0269002Y0158010D01*
X0267107Y0156411D02*
X0291151Y0156411D01*
X0292750Y0154813D02*
X0257850Y0154813D01*
X0250300Y0161207D02*
X0235938Y0161207D01*
X0237943Y0162805D02*
X0251701Y0162805D01*
X0247919Y0143623D02*
X0237284Y0143623D01*
X0238072Y0142025D02*
X0249517Y0142025D01*
X0251116Y0140426D02*
X0238200Y0140426D01*
X0238200Y0138828D02*
X0252300Y0138828D01*
X0252333Y0137229D02*
X0238200Y0137229D01*
X0233800Y0137229D02*
X0233800Y0137229D01*
X0233800Y0135631D02*
X0233800Y0135631D01*
X0233800Y0134032D02*
X0233800Y0134032D01*
X0233800Y0132434D02*
X0233800Y0132434D01*
X0236723Y0132434D02*
X0306299Y0132434D01*
X0296062Y0130835D02*
X0216899Y0130835D01*
X0216723Y0132434D02*
X0220877Y0132434D01*
X0219729Y0134032D02*
X0217871Y0134032D01*
X0218200Y0135631D02*
X0219400Y0135631D01*
X0219400Y0137229D02*
X0218200Y0137229D01*
X0218200Y0138828D02*
X0219400Y0138828D01*
X0219400Y0140426D02*
X0218200Y0140426D01*
X0218072Y0142025D02*
X0219528Y0142025D01*
X0220316Y0143623D02*
X0217284Y0143623D01*
X0213800Y0143623D02*
X0213800Y0143623D01*
X0213800Y0142025D02*
X0213800Y0142025D01*
X0213800Y0140426D02*
X0213800Y0140426D01*
X0213800Y0138828D02*
X0213800Y0138828D01*
X0209400Y0138828D02*
X0208200Y0138828D01*
X0208200Y0140426D02*
X0209400Y0140426D01*
X0209528Y0142025D02*
X0208072Y0142025D01*
X0207284Y0143623D02*
X0210316Y0143623D01*
X0203800Y0143623D02*
X0203800Y0143623D01*
X0203800Y0142025D02*
X0203800Y0142025D01*
X0203800Y0140426D02*
X0203800Y0140426D01*
X0203800Y0138828D02*
X0203800Y0138828D01*
X0208200Y0137229D02*
X0209400Y0137229D01*
X0209400Y0135631D02*
X0208200Y0135631D01*
X0207871Y0134032D02*
X0209729Y0134032D01*
X0210877Y0132434D02*
X0206723Y0132434D01*
X0218498Y0129237D02*
X0294402Y0129237D01*
X0292804Y0127638D02*
X0220096Y0127638D01*
X0221695Y0126040D02*
X0291205Y0126040D01*
X0289606Y0124441D02*
X0223294Y0124441D01*
X0224892Y0122843D02*
X0288008Y0122843D01*
X0286409Y0121244D02*
X0226491Y0121244D01*
X0226723Y0132434D02*
X0230877Y0132434D01*
X0229729Y0134032D02*
X0227871Y0134032D01*
X0228200Y0135631D02*
X0229400Y0135631D01*
X0229400Y0137229D02*
X0228200Y0137229D01*
X0228200Y0138828D02*
X0229400Y0138828D01*
X0229400Y0140426D02*
X0228200Y0140426D01*
X0228072Y0142025D02*
X0229528Y0142025D01*
X0230316Y0143623D02*
X0227284Y0143623D01*
X0223800Y0143623D02*
X0223800Y0143623D01*
X0223800Y0142025D02*
X0223800Y0142025D01*
X0223800Y0140426D02*
X0223800Y0140426D01*
X0223800Y0138828D02*
X0223800Y0138828D01*
X0223800Y0137229D02*
X0223800Y0137229D01*
X0223800Y0135631D02*
X0223800Y0135631D01*
X0223800Y0134032D02*
X0223800Y0134032D01*
X0223800Y0132434D02*
X0223800Y0132434D01*
X0233800Y0138828D02*
X0233800Y0138828D01*
X0233800Y0140426D02*
X0233800Y0140426D01*
X0233800Y0142025D02*
X0233800Y0142025D01*
X0233800Y0143623D02*
X0233800Y0143623D01*
X0266974Y0119645D02*
X0280626Y0119645D01*
X0278687Y0118047D02*
X0268913Y0118047D01*
X0269785Y0116448D02*
X0277815Y0116448D01*
X0277400Y0114850D02*
X0270200Y0114850D01*
X0270200Y0113251D02*
X0277400Y0113251D01*
X0277966Y0111653D02*
X0269634Y0111653D01*
X0268548Y0110054D02*
X0279052Y0110054D01*
X0281508Y0108456D02*
X0266092Y0108456D01*
X0295024Y0108456D02*
X0307108Y0108456D01*
X0304652Y0110054D02*
X0296622Y0110054D01*
X0298221Y0111653D02*
X0303566Y0111653D01*
X0303000Y0113251D02*
X0299819Y0113251D01*
X0301418Y0114850D02*
X0303000Y0114850D01*
X0303016Y0116448D02*
X0303415Y0116448D01*
X0313548Y0110054D02*
X0315321Y0110054D01*
X0314714Y0111653D02*
X0314634Y0111653D01*
X0318800Y0112333D02*
X0318800Y0125833D01*
X0323300Y0130333D01*
X0326672Y0134032D02*
X0344198Y0134032D01*
X0345796Y0135631D02*
X0324625Y0135631D01*
X0324377Y0135733D02*
X0323223Y0135733D01*
X0322503Y0135435D01*
X0340258Y0153191D01*
X0340700Y0154256D01*
X0340700Y0214910D01*
X0340258Y0215976D01*
X0339443Y0216792D01*
X0339443Y0216792D01*
X0336001Y0220233D01*
X0337013Y0220233D01*
X0339255Y0221162D01*
X0340971Y0222878D01*
X0341168Y0223352D01*
X0341605Y0222750D01*
X0342217Y0222138D01*
X0342917Y0221629D01*
X0343689Y0221236D01*
X0344512Y0220969D01*
X0345367Y0220833D01*
X0345600Y0220833D01*
X0345600Y0226133D01*
X0346000Y0226133D01*
X0346000Y0220833D01*
X0346233Y0220833D01*
X0347088Y0220969D01*
X0347911Y0221236D01*
X0348683Y0221629D01*
X0349383Y0222138D01*
X0349995Y0222750D01*
X0350504Y0223451D01*
X0350897Y0224222D01*
X0351165Y0225045D01*
X0351300Y0225900D01*
X0351300Y0226133D01*
X0346000Y0226133D01*
X0346000Y0226533D01*
X0351300Y0226533D01*
X0351300Y0226766D01*
X0351165Y0227621D01*
X0350897Y0228445D01*
X0350504Y0229216D01*
X0349995Y0229916D01*
X0349383Y0230528D01*
X0348781Y0230966D01*
X0349255Y0231162D01*
X0350971Y0232878D01*
X0351900Y0235120D01*
X0351900Y0237547D01*
X0351132Y0239400D01*
X0359400Y0231132D01*
X0359400Y0207378D01*
X0359271Y0207689D01*
X0357555Y0209405D01*
X0355313Y0210333D01*
X0352887Y0210333D01*
X0350645Y0209405D01*
X0348929Y0207689D01*
X0348000Y0205447D01*
X0348000Y0203020D01*
X0348929Y0200778D01*
X0350645Y0199062D01*
X0352887Y0198133D01*
X0355313Y0198133D01*
X0357555Y0199062D01*
X0359271Y0200778D01*
X0359400Y0201089D01*
X0359400Y0189578D01*
X0359271Y0189889D01*
X0357555Y0191605D01*
X0355313Y0192533D01*
X0352887Y0192533D01*
X0350645Y0191605D01*
X0348929Y0189889D01*
X0348000Y0187647D01*
X0348000Y0185220D01*
X0348929Y0182978D01*
X0350645Y0181262D01*
X0352887Y0180333D01*
X0355313Y0180333D01*
X0357555Y0181262D01*
X0359271Y0182978D01*
X0359400Y0183289D01*
X0359400Y0149235D01*
X0330269Y0120103D01*
X0329713Y0120333D01*
X0327287Y0120333D01*
X0325045Y0119405D01*
X0323329Y0117689D01*
X0322400Y0115447D01*
X0322400Y0114319D01*
X0322264Y0114648D01*
X0322000Y0114912D01*
X0322000Y0124508D01*
X0322825Y0125333D01*
X0325371Y0125333D01*
X0328300Y0128262D01*
X0328300Y0132404D01*
X0326280Y0134425D01*
X0326258Y0134476D01*
X0325443Y0135292D01*
X0325391Y0135313D01*
X0325371Y0135333D01*
X0325343Y0135333D01*
X0324377Y0135733D01*
X0322975Y0135631D02*
X0322698Y0135631D01*
X0324297Y0137229D02*
X0347395Y0137229D01*
X0348993Y0138828D02*
X0325896Y0138828D01*
X0327494Y0140426D02*
X0350592Y0140426D01*
X0352190Y0142025D02*
X0329093Y0142025D01*
X0330691Y0143623D02*
X0353789Y0143623D01*
X0355387Y0145222D02*
X0332290Y0145222D01*
X0333888Y0146820D02*
X0356986Y0146820D01*
X0358584Y0148419D02*
X0335487Y0148419D01*
X0337085Y0150017D02*
X0359400Y0150017D01*
X0359400Y0151616D02*
X0338684Y0151616D01*
X0340268Y0153214D02*
X0359400Y0153214D01*
X0359400Y0154813D02*
X0340700Y0154813D01*
X0340700Y0156411D02*
X0359400Y0156411D01*
X0359400Y0158010D02*
X0340700Y0158010D01*
X0340700Y0159608D02*
X0359400Y0159608D01*
X0359400Y0161207D02*
X0340700Y0161207D01*
X0340700Y0162805D02*
X0359400Y0162805D01*
X0359400Y0164404D02*
X0340700Y0164404D01*
X0340700Y0166002D02*
X0359400Y0166002D01*
X0359400Y0167601D02*
X0340700Y0167601D01*
X0340700Y0169199D02*
X0359400Y0169199D01*
X0359400Y0170798D02*
X0340700Y0170798D01*
X0340700Y0172396D02*
X0359400Y0172396D01*
X0359400Y0173995D02*
X0340700Y0173995D01*
X0340700Y0175593D02*
X0359400Y0175593D01*
X0359400Y0177192D02*
X0340700Y0177192D01*
X0340700Y0178790D02*
X0359400Y0178790D01*
X0359400Y0180389D02*
X0355448Y0180389D01*
X0352752Y0180389D02*
X0340700Y0180389D01*
X0340700Y0181987D02*
X0349919Y0181987D01*
X0348677Y0183586D02*
X0340700Y0183586D01*
X0340700Y0185184D02*
X0348015Y0185184D01*
X0348000Y0186783D02*
X0340700Y0186783D01*
X0340700Y0188381D02*
X0348304Y0188381D01*
X0349020Y0189980D02*
X0340700Y0189980D01*
X0340700Y0191579D02*
X0350618Y0191579D01*
X0357582Y0191579D02*
X0359400Y0191579D01*
X0359400Y0193177D02*
X0340700Y0193177D01*
X0340700Y0194776D02*
X0359400Y0194776D01*
X0359400Y0196374D02*
X0340700Y0196374D01*
X0340700Y0197973D02*
X0359400Y0197973D01*
X0359400Y0199571D02*
X0358064Y0199571D01*
X0350136Y0199571D02*
X0340700Y0199571D01*
X0340700Y0201170D02*
X0348766Y0201170D01*
X0348104Y0202768D02*
X0340700Y0202768D01*
X0340700Y0204367D02*
X0348000Y0204367D01*
X0348215Y0205965D02*
X0340700Y0205965D01*
X0340700Y0207564D02*
X0348877Y0207564D01*
X0350402Y0209162D02*
X0340700Y0209162D01*
X0340700Y0210761D02*
X0359400Y0210761D01*
X0359400Y0212359D02*
X0340700Y0212359D01*
X0340700Y0213958D02*
X0359400Y0213958D01*
X0359400Y0215556D02*
X0340432Y0215556D01*
X0339080Y0217155D02*
X0359400Y0217155D01*
X0359400Y0218753D02*
X0337481Y0218753D01*
X0337299Y0220352D02*
X0359400Y0220352D01*
X0359400Y0221950D02*
X0349124Y0221950D01*
X0350554Y0223549D02*
X0359400Y0223549D01*
X0359400Y0225147D02*
X0351181Y0225147D01*
X0351300Y0226746D02*
X0359400Y0226746D01*
X0359400Y0228344D02*
X0350930Y0228344D01*
X0349969Y0229943D02*
X0359400Y0229943D01*
X0358991Y0231541D02*
X0349635Y0231541D01*
X0351080Y0233140D02*
X0357392Y0233140D01*
X0355794Y0234738D02*
X0351742Y0234738D01*
X0351900Y0236337D02*
X0354195Y0236337D01*
X0352597Y0237935D02*
X0351739Y0237935D01*
X0346000Y0225147D02*
X0345600Y0225147D01*
X0345600Y0223549D02*
X0346000Y0223549D01*
X0346000Y0221950D02*
X0345600Y0221950D01*
X0342476Y0221950D02*
X0340044Y0221950D01*
X0324802Y0209162D02*
X0321700Y0209162D01*
X0321700Y0207564D02*
X0323277Y0207564D01*
X0322615Y0205965D02*
X0321700Y0205965D01*
X0321700Y0204367D02*
X0322400Y0204367D01*
X0322504Y0202768D02*
X0321700Y0202768D01*
X0321700Y0201170D02*
X0323166Y0201170D01*
X0324536Y0199571D02*
X0321700Y0199571D01*
X0315900Y0191579D02*
X0312582Y0191579D01*
X0314180Y0189980D02*
X0315900Y0189980D01*
X0315900Y0188381D02*
X0314896Y0188381D01*
X0315200Y0186783D02*
X0315900Y0186783D01*
X0315900Y0185184D02*
X0315185Y0185184D01*
X0314523Y0183586D02*
X0315900Y0183586D01*
X0315900Y0181987D02*
X0313281Y0181987D01*
X0314754Y0180389D02*
X0310448Y0180389D01*
X0303677Y0183586D02*
X0288222Y0183586D01*
X0288871Y0185184D02*
X0303015Y0185184D01*
X0303000Y0186783D02*
X0289000Y0186783D01*
X0288650Y0188381D02*
X0303304Y0188381D01*
X0304020Y0189980D02*
X0287722Y0189980D01*
X0285463Y0191579D02*
X0305618Y0191579D01*
X0268600Y0209162D02*
X0267798Y0209162D01*
X0271800Y0212333D02*
X0285800Y0226333D01*
X0290044Y0221950D02*
X0291556Y0221950D01*
X0294301Y0220352D02*
X0287299Y0220352D01*
X0297299Y0220352D02*
X0304301Y0220352D01*
X0307299Y0220352D02*
X0314301Y0220352D01*
X0311556Y0221950D02*
X0310044Y0221950D01*
X0301556Y0221950D02*
X0300044Y0221950D01*
X0357798Y0209162D02*
X0359400Y0209162D01*
X0359400Y0207564D02*
X0359323Y0207564D01*
X0359180Y0189980D02*
X0359400Y0189980D01*
X0359400Y0181987D02*
X0358281Y0181987D01*
X0310400Y0162805D02*
X0298899Y0162805D01*
X0300300Y0161207D02*
X0310400Y0161207D01*
X0310400Y0159608D02*
X0300300Y0159608D01*
X0300300Y0158010D02*
X0310400Y0158010D01*
X0310400Y0156411D02*
X0299449Y0156411D01*
X0297850Y0154813D02*
X0310400Y0154813D01*
X0316200Y0142025D02*
X0320890Y0142025D01*
X0319292Y0140426D02*
X0316200Y0140426D01*
X0316200Y0138828D02*
X0317693Y0138828D01*
X0328271Y0132434D02*
X0342599Y0132434D01*
X0341001Y0130835D02*
X0328300Y0130835D01*
X0328300Y0129237D02*
X0339402Y0129237D01*
X0337804Y0127638D02*
X0327676Y0127638D01*
X0326077Y0126040D02*
X0336205Y0126040D01*
X0334606Y0124441D02*
X0322000Y0124441D01*
X0322000Y0122843D02*
X0333008Y0122843D01*
X0331409Y0121244D02*
X0322000Y0121244D01*
X0322000Y0119645D02*
X0325626Y0119645D01*
X0323687Y0118047D02*
X0322000Y0118047D01*
X0322000Y0116448D02*
X0322815Y0116448D01*
X0322400Y0114850D02*
X0322062Y0114850D01*
X0322886Y0111653D02*
X0322966Y0111653D01*
X0322279Y0110054D02*
X0324052Y0110054D01*
X0326508Y0108456D02*
X0320116Y0108456D01*
X0317484Y0108456D02*
X0311092Y0108456D01*
X0328300Y0100463D02*
X0328700Y0100463D01*
X0328700Y0098865D02*
X0328300Y0098865D01*
X0328300Y0097266D02*
X0328700Y0097266D01*
X0328700Y0095668D02*
X0328300Y0095668D01*
X0328300Y0094069D02*
X0328700Y0094069D01*
X0328700Y0092471D02*
X0328300Y0092471D01*
X0356615Y0090872D02*
X0373600Y0090872D01*
X0373600Y0089274D02*
X0234900Y0089274D01*
X0234900Y0087675D02*
X0373600Y0087675D01*
X0373600Y0086077D02*
X0234900Y0086077D01*
X0234900Y0084478D02*
X0373600Y0084478D01*
X0373600Y0082880D02*
X0234900Y0082880D01*
X0227700Y0082880D02*
X0138948Y0082880D01*
X0140546Y0084478D02*
X0227700Y0084478D01*
X0227700Y0086077D02*
X0141918Y0086077D01*
X0142200Y0087675D02*
X0227700Y0087675D01*
X0227700Y0081281D02*
X0137349Y0081281D01*
X0135751Y0079683D02*
X0227700Y0079683D01*
X0227700Y0078084D02*
X0134152Y0078084D01*
X0133200Y0076486D02*
X0227700Y0076486D01*
X0227700Y0074887D02*
X0133200Y0074887D01*
X0132892Y0073289D02*
X0227230Y0073289D01*
X0225631Y0071690D02*
X0131294Y0071690D01*
X0131178Y0070092D02*
X0224033Y0070092D01*
X0222434Y0068493D02*
X0132777Y0068493D01*
X0133200Y0066895D02*
X0220836Y0066895D01*
X0219237Y0065296D02*
X0133200Y0065296D01*
X0133200Y0063698D02*
X0217639Y0063698D01*
X0216040Y0062099D02*
X0156395Y0062099D01*
X0157665Y0060501D02*
X0201168Y0060501D01*
X0199570Y0058902D02*
X0158300Y0058902D01*
X0158300Y0057304D02*
X0197971Y0057304D01*
X0196373Y0055705D02*
X0157888Y0055705D01*
X0156934Y0054107D02*
X0194782Y0054107D01*
X0197500Y0052307D02*
X0203826Y0058633D01*
X0217100Y0058633D01*
X0231300Y0072833D01*
X0193700Y0092471D02*
X0193300Y0092471D01*
X0193300Y0094069D02*
X0193700Y0094069D01*
X0193700Y0095668D02*
X0193300Y0095668D01*
X0148700Y0095668D02*
X0148300Y0095668D01*
X0148300Y0094069D02*
X0148700Y0094069D01*
X0148700Y0092471D02*
X0148300Y0092471D01*
X0144684Y0092471D02*
X0142200Y0092471D01*
X0142200Y0094069D02*
X0143532Y0094069D01*
X0143053Y0095668D02*
X0142413Y0095668D01*
X0135800Y0093333D02*
X0117800Y0093333D01*
X0117300Y0092833D01*
X0117300Y0075833D01*
X0117800Y0076333D01*
X0131702Y0062099D02*
X0142205Y0062099D01*
X0135448Y0108456D02*
X0128269Y0108456D01*
X0126670Y0110054D02*
X0135214Y0110054D01*
X0135631Y0111653D02*
X0125072Y0111653D01*
X0123473Y0113251D02*
X0136940Y0113251D01*
X0138312Y0143623D02*
X0133247Y0143623D01*
X0132038Y0145222D02*
X0141900Y0145222D01*
X0141900Y0146820D02*
X0132414Y0146820D01*
X0133402Y0148419D02*
X0141900Y0148419D01*
X0141900Y0150017D02*
X0133900Y0150017D01*
X0133900Y0151616D02*
X0141900Y0151616D01*
X0141900Y0153214D02*
X0133416Y0153214D01*
X0132447Y0154813D02*
X0141900Y0154813D01*
X0141900Y0156411D02*
X0132005Y0156411D01*
X0133233Y0158010D02*
X0141900Y0158010D01*
X0178281Y0181987D02*
X0190262Y0181987D01*
X0188778Y0183586D02*
X0179523Y0183586D01*
X0180185Y0185184D02*
X0188129Y0185184D01*
X0188000Y0186783D02*
X0180200Y0186783D01*
X0179896Y0188381D02*
X0188350Y0188381D01*
X0195300Y0196333D02*
X0156400Y0196333D01*
X0148500Y0204233D01*
X0154600Y0204367D02*
X0168000Y0204367D01*
X0168104Y0202768D02*
X0154496Y0202768D01*
X0156089Y0201170D02*
X0168766Y0201170D01*
X0170136Y0199571D02*
X0157688Y0199571D01*
X0154385Y0205965D02*
X0168215Y0205965D01*
X0168877Y0207564D02*
X0153723Y0207564D01*
X0152198Y0209162D02*
X0170402Y0209162D01*
X0177798Y0209162D02*
X0189802Y0209162D01*
X0188277Y0207564D02*
X0179323Y0207564D01*
X0179985Y0205965D02*
X0187615Y0205965D01*
X0187400Y0204367D02*
X0180200Y0204367D01*
X0180096Y0202768D02*
X0187504Y0202768D01*
X0188166Y0201170D02*
X0179434Y0201170D01*
X0178064Y0199571D02*
X0189536Y0199571D01*
X0193500Y0204233D02*
X0205800Y0216533D01*
X0205800Y0226333D01*
X0201556Y0221950D02*
X0199124Y0221950D01*
X0196000Y0221950D02*
X0195600Y0221950D01*
X0195600Y0223549D02*
X0196000Y0223549D01*
X0196000Y0225147D02*
X0195600Y0225147D01*
X0192476Y0221950D02*
X0190044Y0221950D01*
X0187299Y0220352D02*
X0202600Y0220352D01*
X0202600Y0218753D02*
X0133517Y0218753D01*
X0133700Y0217155D02*
X0201896Y0217155D01*
X0212300Y0213333D02*
X0195300Y0196333D01*
X0212300Y0213333D02*
X0219800Y0213333D01*
X0225800Y0219333D01*
X0225800Y0226333D01*
X0216000Y0237935D02*
X0215600Y0237935D01*
X0215600Y0239534D02*
X0216000Y0239534D01*
X0216000Y0241132D02*
X0215600Y0241132D01*
X0213104Y0241132D02*
X0209628Y0241132D01*
X0211077Y0239534D02*
X0211327Y0239534D01*
X0206504Y0242731D02*
X0228096Y0242731D01*
X0229695Y0244329D02*
X0204905Y0244329D01*
X0203114Y0245928D02*
X0231293Y0245928D01*
X0221972Y0241132D02*
X0218496Y0241132D01*
X0220273Y0239534D02*
X0220523Y0239534D01*
X0181556Y0221950D02*
X0180044Y0221950D01*
X0177299Y0220352D02*
X0184301Y0220352D01*
X0174301Y0220352D02*
X0167299Y0220352D01*
X0164301Y0220352D02*
X0157299Y0220352D01*
X0154301Y0220352D02*
X0131918Y0220352D01*
X0160044Y0221950D02*
X0161556Y0221950D01*
X0170044Y0221950D02*
X0171556Y0221950D01*
X0175800Y0226333D02*
X0178800Y0226333D01*
X0133096Y0242731D02*
X0131486Y0242731D01*
X0131498Y0241132D02*
X0131138Y0241132D01*
X0143933Y0263512D02*
X0373600Y0263512D01*
X0082100Y0180389D02*
X0015881Y0180389D01*
X0013800Y0182833D02*
X0014800Y0183833D01*
X0012834Y0217155D02*
X0005500Y0217155D01*
X0005500Y0218753D02*
X0010104Y0218753D01*
X0008735Y0220352D02*
X0005500Y0220352D01*
X0005500Y0221950D02*
X0008073Y0221950D01*
X0007813Y0223549D02*
X0005500Y0223549D01*
X0005500Y0225147D02*
X0007813Y0225147D01*
X0008366Y0226746D02*
X0005500Y0226746D01*
X0005500Y0228344D02*
X0009212Y0228344D01*
X0010810Y0229943D02*
X0005500Y0229943D01*
X0005500Y0231541D02*
X0011455Y0231541D01*
X0010298Y0233140D02*
X0005500Y0233140D01*
X0005500Y0234738D02*
X0009636Y0234738D01*
X0009585Y0236337D02*
X0005500Y0236337D01*
X0005500Y0237935D02*
X0009750Y0237935D01*
X0010412Y0239534D02*
X0005500Y0239534D01*
X0005500Y0241132D02*
X0011730Y0241132D01*
X0012536Y0242731D02*
X0005500Y0242731D01*
X0005500Y0244329D02*
X0010179Y0244329D01*
X0009065Y0245928D02*
X0005500Y0245928D01*
X0005500Y0247526D02*
X0008524Y0247526D01*
X0018136Y0242731D02*
X0056228Y0242731D01*
X0054668Y0244329D02*
X0019696Y0244329D01*
X0020811Y0245928D02*
X0053553Y0245928D01*
X0053013Y0247526D02*
X0021351Y0247526D01*
X0020902Y0241132D02*
X0053462Y0241132D01*
X0052144Y0239534D02*
X0022220Y0239534D01*
X0022882Y0237935D02*
X0051482Y0237935D01*
X0051317Y0236337D02*
X0023046Y0236337D01*
X0022996Y0234738D02*
X0051368Y0234738D01*
X0052030Y0233140D02*
X0022334Y0233140D01*
X0021176Y0231541D02*
X0053188Y0231541D01*
X0055299Y0229943D02*
X0019065Y0229943D01*
X0020664Y0228344D02*
X0053700Y0228344D01*
X0052854Y0226746D02*
X0021510Y0226746D01*
X0022062Y0225147D02*
X0052302Y0225147D01*
X0052302Y0223549D02*
X0022062Y0223549D01*
X0021802Y0221950D02*
X0052561Y0221950D01*
X0053224Y0220352D02*
X0021140Y0220352D01*
X0019772Y0218753D02*
X0054592Y0218753D01*
X0057322Y0217155D02*
X0017041Y0217155D01*
X0330492Y0108456D02*
X0352108Y0108456D01*
X0349652Y0110054D02*
X0332948Y0110054D01*
X0334034Y0111653D02*
X0348566Y0111653D01*
X0348000Y0113251D02*
X0334600Y0113251D01*
X0334600Y0114850D02*
X0348000Y0114850D01*
X0348415Y0116448D02*
X0334816Y0116448D01*
X0336415Y0118047D02*
X0349287Y0118047D01*
X0351226Y0119645D02*
X0338013Y0119645D01*
X0356452Y0102062D02*
X0373600Y0102062D01*
X0373600Y0100463D02*
X0358697Y0100463D01*
X0359695Y0098865D02*
X0373600Y0098865D01*
X0373600Y0097266D02*
X0360200Y0097266D01*
X0360200Y0095668D02*
X0373600Y0095668D01*
X0373600Y0094069D02*
X0359723Y0094069D01*
X0358764Y0092471D02*
X0373600Y0092471D01*
D25*
X0328500Y0114233D02*
X0362300Y0148033D01*
X0362300Y0232333D01*
X0349300Y0245333D01*
X0234800Y0245333D01*
X0225800Y0236333D01*
X0240800Y0240333D02*
X0242300Y0241833D01*
X0321800Y0241833D01*
X0325800Y0237833D01*
X0325800Y0236333D01*
X0317800Y0227333D02*
X0316800Y0226333D01*
X0315800Y0226333D01*
X0318800Y0223333D01*
X0318800Y0180333D01*
X0313300Y0174833D01*
X0313300Y0135333D01*
X0306300Y0128333D01*
X0297600Y0128333D01*
X0283500Y0114233D01*
X0287800Y0105333D02*
X0238300Y0105333D01*
X0214800Y0128833D01*
X0158300Y0128833D01*
X0154500Y0125033D01*
X0154500Y0112162D01*
X0150571Y0108233D01*
X0145429Y0108233D01*
X0143500Y0110162D01*
X0143500Y0111333D01*
X0142000Y0109833D01*
X0139300Y0109833D01*
X0143500Y0111333D02*
X0143500Y0121133D01*
X0138800Y0125833D01*
X0144800Y0131833D01*
X0144800Y0170833D01*
X0142300Y0173333D01*
X0142300Y0177333D01*
X0136300Y0183333D01*
X0136300Y0209333D01*
X0129300Y0216333D01*
X0128300Y0216333D01*
X0128300Y0226333D02*
X0122300Y0232333D01*
X0122300Y0262833D01*
X0134800Y0262833D01*
X0148300Y0249333D01*
X0246300Y0249333D01*
X0240800Y0240333D02*
X0240800Y0224262D01*
X0238500Y0221962D01*
X0238500Y0204233D01*
X0239800Y0192333D02*
X0260800Y0213333D01*
X0260800Y0228404D01*
X0263729Y0231333D01*
X0300300Y0231333D01*
X0305300Y0226333D01*
X0305800Y0226333D01*
X0325800Y0226333D02*
X0337800Y0214333D01*
X0337800Y0154833D01*
X0303800Y0120833D01*
X0303300Y0120833D01*
X0287800Y0105333D01*
X0323300Y0130333D02*
X0323300Y0132333D01*
X0323800Y0132833D01*
X0205800Y0168833D02*
X0204300Y0168833D01*
X0203800Y0168333D01*
X0239800Y0192333D02*
X0165300Y0192333D01*
X0148500Y0175533D01*
X0148500Y0114233D01*
X0138800Y0125833D02*
X0135800Y0122833D01*
X0133800Y0120833D01*
X0127800Y0120833D01*
X0130300Y0120833D01*
X0128300Y0140333D02*
X0127800Y0140833D01*
X0128300Y0140333D02*
X0140800Y0140333D01*
X0139300Y0098333D02*
X0139300Y0087333D01*
X0127800Y0075833D01*
X0123300Y0065833D02*
X0110800Y0078333D01*
X0110800Y0212333D01*
X0124800Y0226333D01*
X0128300Y0226333D01*
X0130300Y0228333D01*
X0130800Y0236333D02*
X0128300Y0236333D01*
X0130800Y0236333D02*
X0137800Y0243333D01*
X0201800Y0243333D01*
X0205800Y0239333D01*
X0205800Y0236333D01*
X0127800Y0065833D02*
X0123300Y0065833D01*
X0126300Y0064333D02*
X0127800Y0065833D01*
D26*
X0208800Y0104833D02*
X0209800Y0105833D01*
X0209800Y0115833D01*
X0202300Y0123333D01*
M02*
